%
M48
M72
T01C0.0197
T02C0.0236
T03C0.0276
T04C0.0320
T05C0.0360
T06C0.0400
T07C0.0900
T08C0.1181
%
T01
X3180Y11780
T02
X2808Y11008
T03
X4280Y3480
X6280Y3480
T04
X5680Y11380
X5680Y12380
X2280Y3080
X2280Y4080
X8280Y3080
X8280Y4080
X3180Y8680
X7180Y8680
X3180Y7480
X7180Y7480
X8480Y10580
X8480Y9580
X6580Y10580
X6580Y9580
X2080Y8480
X2080Y7480
X7580Y11380
X7580Y12380
X7180Y6380
X3180Y6380
X7180Y5280
X3180Y5280
X8780Y7180
X8780Y6180
X8780Y5180
T05
X4688Y13600
X5672Y13600
X5672Y14380
X4688Y14380
T06
X3680Y1280
X4680Y1280
X5680Y1280
X6680Y1280
T07
X2810Y15450
X7550Y15450
T08
X1280Y13880
X9080Y13880
X1280Y1480
X9080Y1480
M30
