G75*
%MOIN*%
%OFA0B0*%
%FSLAX24Y24*%
%IPPOS*%
%LPD*%
%AMOC8*
5,1,8,0,0,1.08239X$1,22.5*
%
%ADD10C,0.0030*%
%ADD11C,0.0000*%
%ADD12R,0.0075X0.0015*%
%ADD13R,0.0375X0.0015*%
%ADD14R,0.0315X0.0015*%
%ADD15R,0.0360X0.0015*%
%ADD16R,0.0345X0.0015*%
%ADD17R,0.0330X0.0015*%
%ADD18R,0.0060X0.0015*%
%ADD19R,0.0255X0.0015*%
%ADD20R,0.0225X0.0015*%
%ADD21R,0.0195X0.0015*%
%ADD22R,0.0165X0.0015*%
%ADD23R,0.0270X0.0015*%
%ADD24R,0.0300X0.0015*%
%ADD25R,0.0240X0.0015*%
%ADD26R,0.0210X0.0015*%
%ADD27R,0.0013X0.0403*%
%ADD28R,0.0013X0.0065*%
%ADD29R,0.0013X0.0078*%
%ADD30R,0.0013X0.0286*%
%ADD31R,0.0013X0.0273*%
%ADD32R,0.0013X0.0351*%
%ADD33R,0.0013X0.0091*%
%ADD34R,0.0013X0.0416*%
%ADD35R,0.0013X0.0299*%
%ADD36R,0.0013X0.0364*%
%ADD37R,0.0013X0.0377*%
%ADD38R,0.0013X0.0104*%
%ADD39R,0.0013X0.0429*%
%ADD40R,0.0013X0.0312*%
%ADD41R,0.0013X0.0377*%
%ADD42R,0.0013X0.0117*%
%ADD43R,0.0013X0.0442*%
%ADD44R,0.0013X0.0442*%
%ADD45R,0.0013X0.0325*%
%ADD46R,0.0013X0.0312*%
%ADD47R,0.0013X0.0390*%
%ADD48R,0.0013X0.0130*%
%ADD49R,0.0013X0.0455*%
%ADD50R,0.0013X0.0338*%
%ADD51R,0.0013X0.0143*%
%ADD52R,0.0013X0.0468*%
%ADD53R,0.0013X0.0429*%
%ADD54R,0.0013X0.0299*%
%ADD55R,0.0013X0.0026*%
%ADD56R,0.0013X0.0260*%
%ADD57R,0.0013X0.0052*%
%ADD58R,0.0013X0.0039*%
%ADD59R,0.0013X0.0052*%
%ADD60R,0.0013X0.0039*%
%ADD61R,0.0013X0.0013*%
%ADD62C,0.0080*%
%ADD63C,0.0050*%
%ADD64C,0.0060*%
%ADD65C,0.0100*%
%ADD66R,0.0340X0.0240*%
%ADD67C,0.0010*%
%ADD68C,0.0008*%
D10*
X001911Y004675D02*
X002105Y004868D01*
X002105Y004917D01*
X002056Y004965D01*
X001959Y004965D01*
X001911Y004917D01*
X001911Y004675D02*
X002105Y004675D01*
X002206Y004675D02*
X002399Y004868D01*
X002399Y004917D01*
X002351Y004965D01*
X002254Y004965D01*
X002206Y004917D01*
X002206Y004675D02*
X002399Y004675D01*
X002500Y004675D02*
X002645Y004675D01*
X002694Y004723D01*
X002694Y004820D01*
X002645Y004868D01*
X002500Y004868D01*
X002500Y004578D01*
X002528Y006595D02*
X002528Y006885D01*
X002432Y006788D01*
X002330Y006837D02*
X002137Y006643D01*
X002185Y006595D01*
X002282Y006595D01*
X002330Y006643D01*
X002330Y006837D01*
X002282Y006885D01*
X002185Y006885D01*
X002137Y006837D01*
X002137Y006643D01*
X002038Y006643D02*
X002038Y006595D01*
X001990Y006595D01*
X001990Y006643D01*
X002038Y006643D01*
X001888Y006643D02*
X001888Y006837D01*
X001695Y006643D01*
X001743Y006595D01*
X001840Y006595D01*
X001888Y006643D01*
X001888Y006837D02*
X001840Y006885D01*
X001743Y006885D01*
X001695Y006837D01*
X001695Y006643D01*
X002432Y006595D02*
X002625Y006595D01*
X003070Y009695D02*
X002973Y009792D01*
X003070Y009888D01*
X003263Y009888D01*
X003215Y009990D02*
X003263Y010038D01*
X003263Y010135D01*
X003215Y010183D01*
X002973Y010183D01*
X002973Y009990D02*
X003215Y009990D01*
X003118Y009888D02*
X003118Y009695D01*
X003070Y009695D02*
X003263Y009695D01*
X003118Y010284D02*
X003118Y010478D01*
X003070Y010579D02*
X002973Y010676D01*
X003263Y010676D01*
X003263Y010772D02*
X003263Y010579D01*
X003263Y010874D02*
X003070Y011067D01*
X003022Y011067D01*
X002973Y011019D01*
X002973Y010922D01*
X003022Y010874D01*
X003263Y010874D02*
X003263Y011067D01*
X003215Y011168D02*
X003263Y011217D01*
X003263Y011313D01*
X003215Y011362D01*
X003167Y011362D01*
X003118Y011313D01*
X003118Y011265D01*
X003118Y011313D02*
X003070Y011362D01*
X003022Y011362D01*
X002973Y011313D01*
X002973Y011217D01*
X003022Y011168D01*
X003392Y013495D02*
X003295Y013592D01*
X003295Y013785D01*
X003488Y013592D02*
X003392Y013495D01*
X003488Y013592D02*
X003488Y013785D01*
X003590Y013640D02*
X003590Y013543D01*
X003638Y013495D01*
X003783Y013495D01*
X003884Y013543D02*
X003884Y013640D01*
X003933Y013688D01*
X004078Y013688D01*
X004078Y013495D02*
X003933Y013495D01*
X003884Y013543D01*
X003783Y013688D02*
X003638Y013688D01*
X003590Y013640D01*
X003590Y014195D02*
X003590Y014485D01*
X003783Y014195D01*
X003783Y014485D01*
X003884Y014485D02*
X003884Y014195D01*
X004029Y014195D01*
X004078Y014243D01*
X004078Y014437D01*
X004029Y014485D01*
X003884Y014485D01*
X003488Y014437D02*
X003440Y014485D01*
X003343Y014485D01*
X003295Y014437D01*
X003295Y014243D01*
X003343Y014195D01*
X003440Y014195D01*
X003488Y014243D01*
X003488Y014340D01*
X003392Y014340D01*
X004775Y012734D02*
X005065Y012734D01*
X005065Y012830D02*
X005065Y012637D01*
X005065Y012538D02*
X005065Y012490D01*
X005017Y012490D01*
X005017Y012538D01*
X005065Y012538D01*
X005017Y012388D02*
X005065Y012340D01*
X005065Y012243D01*
X005017Y012195D01*
X004823Y012388D01*
X005017Y012388D01*
X005017Y012195D02*
X004823Y012195D01*
X004775Y012243D01*
X004775Y012340D01*
X004823Y012388D01*
X004872Y012637D02*
X004775Y012734D01*
X006295Y013495D02*
X006440Y013495D01*
X006488Y013543D01*
X006488Y013737D01*
X006440Y013785D01*
X006295Y013785D01*
X006295Y013495D01*
X006590Y013640D02*
X006783Y013640D01*
X006686Y014243D02*
X006686Y014437D01*
X006590Y014340D02*
X006783Y014340D01*
X006488Y014243D02*
X006488Y014437D01*
X006440Y014485D01*
X006295Y014485D01*
X006295Y014195D01*
X006440Y014195D01*
X006488Y014243D01*
X006992Y012085D02*
X006992Y011795D01*
X007088Y011795D02*
X006895Y011795D01*
X006895Y011988D02*
X006992Y012085D01*
X007190Y012037D02*
X007190Y011843D01*
X007383Y012037D01*
X007383Y011843D01*
X007335Y011795D01*
X007238Y011795D01*
X007190Y011843D01*
X007190Y012037D02*
X007238Y012085D01*
X007335Y012085D01*
X007383Y012037D01*
X007779Y011940D02*
X007779Y011843D01*
X007827Y011795D01*
X007924Y011795D01*
X007972Y011843D01*
X007972Y011892D01*
X007924Y011940D01*
X007779Y011940D01*
X007876Y012037D01*
X007972Y012085D01*
X008074Y011843D02*
X008122Y011843D01*
X008122Y011795D01*
X008074Y011795D01*
X008074Y011843D01*
X008221Y011843D02*
X008269Y011795D01*
X008366Y011795D01*
X008414Y011843D01*
X008414Y011892D01*
X008366Y011940D01*
X008318Y011940D01*
X008366Y011940D02*
X008414Y011988D01*
X008414Y012037D01*
X008366Y012085D01*
X008269Y012085D01*
X008221Y012037D01*
X007665Y009683D02*
X007375Y009490D01*
X007423Y009388D02*
X007520Y009388D01*
X007568Y009340D01*
X007568Y009195D01*
X007568Y009292D02*
X007665Y009388D01*
X007665Y009490D02*
X007375Y009683D01*
X007423Y009388D02*
X007375Y009340D01*
X007375Y009195D01*
X007665Y009195D01*
X006078Y008837D02*
X006078Y008643D01*
X006029Y008595D01*
X005933Y008595D01*
X005884Y008643D01*
X006078Y008837D01*
X006029Y008885D01*
X005933Y008885D01*
X005884Y008837D01*
X005884Y008643D01*
X005783Y008643D02*
X005735Y008595D01*
X005638Y008595D01*
X005590Y008643D01*
X005488Y008643D02*
X005440Y008595D01*
X005343Y008595D01*
X005295Y008643D01*
X005392Y008740D02*
X005440Y008740D01*
X005488Y008692D01*
X005488Y008643D01*
X005440Y008740D02*
X005488Y008788D01*
X005488Y008837D01*
X005440Y008885D01*
X005343Y008885D01*
X005295Y008837D01*
X005590Y008837D02*
X005638Y008885D01*
X005735Y008885D01*
X005783Y008837D01*
X005783Y008788D01*
X005735Y008740D01*
X005783Y008692D01*
X005783Y008643D01*
X005735Y008740D02*
X005686Y008740D01*
X005638Y007685D02*
X005590Y007637D01*
X005638Y007685D02*
X005735Y007685D01*
X005783Y007637D01*
X005783Y007588D01*
X005735Y007540D01*
X005783Y007492D01*
X005783Y007443D01*
X005735Y007395D01*
X005638Y007395D01*
X005590Y007443D01*
X005488Y007443D02*
X005440Y007395D01*
X005343Y007395D01*
X005295Y007443D01*
X005392Y007540D02*
X005440Y007540D01*
X005488Y007492D01*
X005488Y007443D01*
X005440Y007540D02*
X005488Y007588D01*
X005488Y007637D01*
X005440Y007685D01*
X005343Y007685D01*
X005295Y007637D01*
X005686Y007540D02*
X005735Y007540D01*
X005884Y007443D02*
X005884Y007637D01*
X005933Y007685D01*
X006029Y007685D01*
X006078Y007637D01*
X005884Y007443D01*
X005933Y007395D01*
X006029Y007395D01*
X006078Y007443D01*
X006078Y007637D01*
X005980Y006585D02*
X005884Y006585D01*
X005835Y006537D01*
X005735Y006488D02*
X005590Y006392D01*
X005735Y006295D01*
X005835Y006295D02*
X006029Y006488D01*
X006029Y006537D01*
X005980Y006585D01*
X006029Y006295D02*
X005835Y006295D01*
X005590Y006295D02*
X005590Y006585D01*
X005488Y006537D02*
X005440Y006585D01*
X005343Y006585D01*
X005295Y006537D01*
X005488Y006537D02*
X005488Y006488D01*
X005295Y006295D01*
X005488Y006295D01*
X005392Y005485D02*
X005392Y005195D01*
X005488Y005195D02*
X005295Y005195D01*
X005295Y005388D02*
X005392Y005485D01*
X005590Y005485D02*
X005590Y005195D01*
X005590Y005292D02*
X005735Y005388D01*
X005590Y005292D02*
X005735Y005195D01*
X005672Y004185D02*
X005672Y003895D01*
X005774Y003895D02*
X005967Y003895D01*
X005967Y004088D02*
X005774Y003895D01*
X005672Y004040D02*
X005479Y004040D01*
X005479Y003895D02*
X005479Y004185D01*
X005378Y004185D02*
X005378Y003895D01*
X005184Y003895D02*
X005184Y004185D01*
X005281Y004088D01*
X005378Y004185D01*
X005083Y004137D02*
X005035Y004185D01*
X004938Y004185D01*
X004890Y004137D01*
X005083Y004088D02*
X004890Y003895D01*
X005083Y003895D01*
X005083Y004088D02*
X005083Y004137D01*
X004788Y003895D02*
X004595Y003895D01*
X004692Y003895D02*
X004692Y004185D01*
X004595Y004088D01*
X004588Y002285D02*
X004588Y002092D01*
X004492Y001995D01*
X004395Y002092D01*
X004395Y002285D01*
X004078Y002237D02*
X004078Y002043D01*
X004029Y001995D01*
X003884Y001995D01*
X003884Y002285D01*
X004029Y002285D01*
X004078Y002237D01*
X003783Y002285D02*
X003783Y001995D01*
X003590Y002285D01*
X003590Y001995D01*
X003488Y002043D02*
X003488Y002140D01*
X003392Y002140D01*
X003488Y002043D02*
X003440Y001995D01*
X003343Y001995D01*
X003295Y002043D01*
X003295Y002237D01*
X003343Y002285D01*
X003440Y002285D01*
X003488Y002237D01*
X004690Y002140D02*
X004690Y002043D01*
X004738Y001995D01*
X004883Y001995D01*
X004984Y002043D02*
X004984Y002140D01*
X005033Y002188D01*
X005178Y002188D01*
X005178Y001995D02*
X005033Y001995D01*
X004984Y002043D01*
X004883Y002188D02*
X004738Y002188D01*
X004690Y002140D01*
X005395Y002285D02*
X005588Y002285D01*
X005492Y002285D02*
X005492Y001995D01*
X005690Y001995D02*
X005883Y002285D01*
X005690Y002285D02*
X005883Y001995D01*
X006395Y001995D02*
X006395Y002285D01*
X006540Y002285D01*
X006588Y002237D01*
X006588Y002140D01*
X006540Y002092D01*
X006395Y002092D01*
X006492Y002092D02*
X006588Y001995D01*
X006690Y001995D02*
X006883Y002285D01*
X006690Y002285D02*
X006883Y001995D01*
X005967Y004088D02*
X005774Y004088D01*
X008873Y004135D02*
X008873Y004038D01*
X008922Y003990D01*
X008922Y003888D02*
X008873Y003840D01*
X008873Y003743D01*
X008922Y003695D01*
X008922Y003888D02*
X008970Y003888D01*
X009163Y003695D01*
X009163Y003888D01*
X009163Y003990D02*
X008970Y004183D01*
X008922Y004183D01*
X008873Y004135D01*
X008970Y004284D02*
X008970Y004429D01*
X009018Y004478D01*
X009115Y004478D01*
X009163Y004429D01*
X009163Y004284D01*
X009260Y004284D02*
X008970Y004284D01*
X009163Y004183D02*
X009163Y003990D01*
X009623Y005295D02*
X009575Y005343D01*
X009575Y005440D01*
X009623Y005488D01*
X009672Y005488D01*
X009865Y005295D01*
X009865Y005488D01*
X009865Y005590D02*
X009672Y005590D01*
X009672Y005735D01*
X009720Y005783D01*
X009865Y005783D01*
X009865Y005884D02*
X009672Y006078D01*
X009623Y006078D01*
X009575Y006029D01*
X009575Y005933D01*
X009623Y005884D01*
X009623Y006179D02*
X009575Y006227D01*
X009575Y006324D01*
X009623Y006372D01*
X009672Y006372D01*
X009865Y006179D01*
X009865Y006372D01*
X009865Y006474D02*
X009672Y006667D01*
X009623Y006667D01*
X009575Y006619D01*
X009575Y006522D01*
X009623Y006474D01*
X009623Y006768D02*
X009575Y006817D01*
X009575Y006913D01*
X009623Y006962D01*
X009672Y006962D01*
X009865Y006768D01*
X009865Y006962D01*
X009865Y006667D02*
X009865Y006474D01*
X009865Y006078D02*
X009865Y005884D01*
X009275Y009195D02*
X009275Y009388D01*
X009275Y009292D02*
X009565Y009292D01*
X009565Y009490D02*
X009275Y009683D01*
X009275Y009490D02*
X009565Y009683D01*
D11*
X000280Y016280D02*
X000280Y000280D01*
X010080Y000280D01*
X010080Y016280D01*
X000280Y016280D01*
X000689Y013880D02*
X000691Y013928D01*
X000697Y013976D01*
X000707Y014023D01*
X000720Y014069D01*
X000738Y014114D01*
X000758Y014158D01*
X000783Y014200D01*
X000811Y014239D01*
X000841Y014276D01*
X000875Y014310D01*
X000912Y014342D01*
X000950Y014371D01*
X000991Y014396D01*
X001034Y014418D01*
X001079Y014436D01*
X001125Y014450D01*
X001172Y014461D01*
X001220Y014468D01*
X001268Y014471D01*
X001316Y014470D01*
X001364Y014465D01*
X001412Y014456D01*
X001458Y014444D01*
X001503Y014427D01*
X001547Y014407D01*
X001589Y014384D01*
X001629Y014357D01*
X001667Y014327D01*
X001702Y014294D01*
X001734Y014258D01*
X001764Y014220D01*
X001790Y014179D01*
X001812Y014136D01*
X001832Y014092D01*
X001847Y014047D01*
X001859Y014000D01*
X001867Y013952D01*
X001871Y013904D01*
X001871Y013856D01*
X001867Y013808D01*
X001859Y013760D01*
X001847Y013713D01*
X001832Y013668D01*
X001812Y013624D01*
X001790Y013581D01*
X001764Y013540D01*
X001734Y013502D01*
X001702Y013466D01*
X001667Y013433D01*
X001629Y013403D01*
X001589Y013376D01*
X001547Y013353D01*
X001503Y013333D01*
X001458Y013316D01*
X001412Y013304D01*
X001364Y013295D01*
X001316Y013290D01*
X001268Y013289D01*
X001220Y013292D01*
X001172Y013299D01*
X001125Y013310D01*
X001079Y013324D01*
X001034Y013342D01*
X000991Y013364D01*
X000950Y013389D01*
X000912Y013418D01*
X000875Y013450D01*
X000841Y013484D01*
X000811Y013521D01*
X000783Y013560D01*
X000758Y013602D01*
X000738Y013646D01*
X000720Y013691D01*
X000707Y013737D01*
X000697Y013784D01*
X000691Y013832D01*
X000689Y013880D01*
X000689Y001480D02*
X000691Y001528D01*
X000697Y001576D01*
X000707Y001623D01*
X000720Y001669D01*
X000738Y001714D01*
X000758Y001758D01*
X000783Y001800D01*
X000811Y001839D01*
X000841Y001876D01*
X000875Y001910D01*
X000912Y001942D01*
X000950Y001971D01*
X000991Y001996D01*
X001034Y002018D01*
X001079Y002036D01*
X001125Y002050D01*
X001172Y002061D01*
X001220Y002068D01*
X001268Y002071D01*
X001316Y002070D01*
X001364Y002065D01*
X001412Y002056D01*
X001458Y002044D01*
X001503Y002027D01*
X001547Y002007D01*
X001589Y001984D01*
X001629Y001957D01*
X001667Y001927D01*
X001702Y001894D01*
X001734Y001858D01*
X001764Y001820D01*
X001790Y001779D01*
X001812Y001736D01*
X001832Y001692D01*
X001847Y001647D01*
X001859Y001600D01*
X001867Y001552D01*
X001871Y001504D01*
X001871Y001456D01*
X001867Y001408D01*
X001859Y001360D01*
X001847Y001313D01*
X001832Y001268D01*
X001812Y001224D01*
X001790Y001181D01*
X001764Y001140D01*
X001734Y001102D01*
X001702Y001066D01*
X001667Y001033D01*
X001629Y001003D01*
X001589Y000976D01*
X001547Y000953D01*
X001503Y000933D01*
X001458Y000916D01*
X001412Y000904D01*
X001364Y000895D01*
X001316Y000890D01*
X001268Y000889D01*
X001220Y000892D01*
X001172Y000899D01*
X001125Y000910D01*
X001079Y000924D01*
X001034Y000942D01*
X000991Y000964D01*
X000950Y000989D01*
X000912Y001018D01*
X000875Y001050D01*
X000841Y001084D01*
X000811Y001121D01*
X000783Y001160D01*
X000758Y001202D01*
X000738Y001246D01*
X000720Y001291D01*
X000707Y001337D01*
X000697Y001384D01*
X000691Y001432D01*
X000689Y001480D01*
X008489Y001480D02*
X008491Y001528D01*
X008497Y001576D01*
X008507Y001623D01*
X008520Y001669D01*
X008538Y001714D01*
X008558Y001758D01*
X008583Y001800D01*
X008611Y001839D01*
X008641Y001876D01*
X008675Y001910D01*
X008712Y001942D01*
X008750Y001971D01*
X008791Y001996D01*
X008834Y002018D01*
X008879Y002036D01*
X008925Y002050D01*
X008972Y002061D01*
X009020Y002068D01*
X009068Y002071D01*
X009116Y002070D01*
X009164Y002065D01*
X009212Y002056D01*
X009258Y002044D01*
X009303Y002027D01*
X009347Y002007D01*
X009389Y001984D01*
X009429Y001957D01*
X009467Y001927D01*
X009502Y001894D01*
X009534Y001858D01*
X009564Y001820D01*
X009590Y001779D01*
X009612Y001736D01*
X009632Y001692D01*
X009647Y001647D01*
X009659Y001600D01*
X009667Y001552D01*
X009671Y001504D01*
X009671Y001456D01*
X009667Y001408D01*
X009659Y001360D01*
X009647Y001313D01*
X009632Y001268D01*
X009612Y001224D01*
X009590Y001181D01*
X009564Y001140D01*
X009534Y001102D01*
X009502Y001066D01*
X009467Y001033D01*
X009429Y001003D01*
X009389Y000976D01*
X009347Y000953D01*
X009303Y000933D01*
X009258Y000916D01*
X009212Y000904D01*
X009164Y000895D01*
X009116Y000890D01*
X009068Y000889D01*
X009020Y000892D01*
X008972Y000899D01*
X008925Y000910D01*
X008879Y000924D01*
X008834Y000942D01*
X008791Y000964D01*
X008750Y000989D01*
X008712Y001018D01*
X008675Y001050D01*
X008641Y001084D01*
X008611Y001121D01*
X008583Y001160D01*
X008558Y001202D01*
X008538Y001246D01*
X008520Y001291D01*
X008507Y001337D01*
X008497Y001384D01*
X008491Y001432D01*
X008489Y001480D01*
X008489Y013880D02*
X008491Y013928D01*
X008497Y013976D01*
X008507Y014023D01*
X008520Y014069D01*
X008538Y014114D01*
X008558Y014158D01*
X008583Y014200D01*
X008611Y014239D01*
X008641Y014276D01*
X008675Y014310D01*
X008712Y014342D01*
X008750Y014371D01*
X008791Y014396D01*
X008834Y014418D01*
X008879Y014436D01*
X008925Y014450D01*
X008972Y014461D01*
X009020Y014468D01*
X009068Y014471D01*
X009116Y014470D01*
X009164Y014465D01*
X009212Y014456D01*
X009258Y014444D01*
X009303Y014427D01*
X009347Y014407D01*
X009389Y014384D01*
X009429Y014357D01*
X009467Y014327D01*
X009502Y014294D01*
X009534Y014258D01*
X009564Y014220D01*
X009590Y014179D01*
X009612Y014136D01*
X009632Y014092D01*
X009647Y014047D01*
X009659Y014000D01*
X009667Y013952D01*
X009671Y013904D01*
X009671Y013856D01*
X009667Y013808D01*
X009659Y013760D01*
X009647Y013713D01*
X009632Y013668D01*
X009612Y013624D01*
X009590Y013581D01*
X009564Y013540D01*
X009534Y013502D01*
X009502Y013466D01*
X009467Y013433D01*
X009429Y013403D01*
X009389Y013376D01*
X009347Y013353D01*
X009303Y013333D01*
X009258Y013316D01*
X009212Y013304D01*
X009164Y013295D01*
X009116Y013290D01*
X009068Y013289D01*
X009020Y013292D01*
X008972Y013299D01*
X008925Y013310D01*
X008879Y013324D01*
X008834Y013342D01*
X008791Y013364D01*
X008750Y013389D01*
X008712Y013418D01*
X008675Y013450D01*
X008641Y013484D01*
X008611Y013521D01*
X008583Y013560D01*
X008558Y013602D01*
X008538Y013646D01*
X008520Y013691D01*
X008507Y013737D01*
X008497Y013784D01*
X008491Y013832D01*
X008489Y013880D01*
D12*
X007775Y008260D03*
X007775Y008245D03*
X007775Y008230D03*
X007775Y008215D03*
X007775Y008200D03*
X007775Y008185D03*
X008075Y008110D03*
X008075Y008095D03*
X008075Y008080D03*
X008075Y008065D03*
X008075Y008050D03*
X008075Y008035D03*
X008365Y007715D03*
X008365Y007700D03*
X008365Y007685D03*
X008365Y007670D03*
X008365Y007655D03*
X008365Y007640D03*
X008065Y007565D03*
X008065Y007550D03*
X008065Y007535D03*
X008065Y007520D03*
X008065Y007505D03*
X008065Y007490D03*
X007925Y007490D03*
X007925Y007505D03*
X007925Y007520D03*
X007925Y007535D03*
X007925Y007550D03*
X007925Y007565D03*
X007925Y007475D03*
X007925Y007460D03*
X007925Y007445D03*
X007925Y007430D03*
X007625Y007430D03*
X007625Y007445D03*
X007625Y007460D03*
X007625Y007475D03*
X007625Y007490D03*
X007625Y007505D03*
X007625Y007520D03*
X007625Y007535D03*
X007625Y007550D03*
X007625Y007565D03*
X007625Y007640D03*
X007625Y007655D03*
X007625Y007670D03*
X007625Y007685D03*
X007625Y007700D03*
X007625Y007715D03*
X009710Y008035D03*
X009710Y008050D03*
X009710Y008065D03*
X009710Y008080D03*
X009710Y008095D03*
X009710Y008110D03*
X009710Y008125D03*
X009710Y008140D03*
X009710Y008155D03*
X009710Y008170D03*
X009710Y008185D03*
X009710Y008200D03*
X009710Y008215D03*
X009710Y008230D03*
X009710Y008245D03*
X009710Y008260D03*
X009860Y008260D03*
X009860Y008245D03*
X009860Y008230D03*
X009860Y008215D03*
X009860Y008200D03*
X009860Y008185D03*
X009860Y008170D03*
X009860Y008155D03*
X009860Y008140D03*
X009860Y008125D03*
X009860Y008110D03*
X009860Y008095D03*
X009860Y008080D03*
X009860Y008065D03*
X009860Y008050D03*
X009860Y008035D03*
D13*
X008215Y007475D03*
X008215Y007460D03*
X008215Y007445D03*
X008215Y007430D03*
X007775Y007580D03*
D14*
X007895Y007975D03*
X008185Y007775D03*
X008230Y007625D03*
X008215Y007610D03*
X008200Y007595D03*
X008185Y007580D03*
X008300Y007975D03*
X008300Y008170D03*
X009545Y008305D03*
X009545Y007975D03*
D15*
X009568Y008020D03*
X009568Y008275D03*
X008968Y008275D03*
X008323Y008125D03*
X008323Y008020D03*
X008208Y007730D03*
X007918Y008020D03*
X007768Y007595D03*
X007528Y008020D03*
D16*
X007760Y007610D03*
X007910Y008005D03*
X008200Y007745D03*
X008315Y008005D03*
X008315Y008140D03*
X009560Y008005D03*
D17*
X009553Y007990D03*
X009553Y008290D03*
X008968Y008290D03*
X008308Y008155D03*
X008308Y007990D03*
X008193Y007760D03*
X007903Y007990D03*
X007753Y007625D03*
X007528Y008005D03*
D18*
X007378Y008035D03*
X007378Y008050D03*
X007378Y008065D03*
X007378Y008080D03*
X007378Y008095D03*
X007378Y008110D03*
X007378Y008125D03*
X007378Y008140D03*
X007378Y008155D03*
X007378Y008170D03*
X007378Y008185D03*
X007378Y008200D03*
X007378Y008215D03*
X007378Y008230D03*
X007378Y008245D03*
X007378Y008260D03*
X007378Y008275D03*
X007378Y008290D03*
X007378Y008305D03*
X007378Y008320D03*
X007678Y008320D03*
X007678Y008305D03*
X007678Y008290D03*
X007678Y008275D03*
X007678Y008260D03*
X007678Y008245D03*
X007678Y008230D03*
X007678Y008215D03*
X007678Y008200D03*
X007678Y008185D03*
X007678Y008170D03*
X007678Y008155D03*
X007678Y008140D03*
X007678Y008125D03*
X007678Y008110D03*
X007678Y008095D03*
X007678Y008080D03*
X007678Y008065D03*
X007678Y008050D03*
X007678Y008035D03*
X007828Y007715D03*
X007828Y007700D03*
X007828Y007685D03*
X007828Y007670D03*
X007828Y007655D03*
X007828Y007640D03*
X008173Y008035D03*
X008173Y008050D03*
X008173Y008065D03*
X008173Y008080D03*
X008173Y008095D03*
X008173Y008110D03*
X008173Y008185D03*
X008173Y008200D03*
X008173Y008215D03*
X008173Y008230D03*
X008173Y008245D03*
X008173Y008260D03*
X008368Y008260D03*
X008368Y008245D03*
X008368Y008230D03*
X008368Y008215D03*
X008368Y008200D03*
X008368Y008185D03*
X008473Y008110D03*
X008473Y008095D03*
X008473Y008080D03*
X008473Y008065D03*
X008473Y008050D03*
X008473Y008035D03*
X008818Y008035D03*
X008818Y008050D03*
X008818Y008065D03*
X008818Y008080D03*
X008818Y008095D03*
X008818Y008110D03*
X008818Y008125D03*
X008818Y008140D03*
X008818Y008155D03*
X008818Y008170D03*
X008818Y008185D03*
X008818Y008200D03*
X008818Y008215D03*
X008818Y008230D03*
X008818Y008245D03*
X008818Y008260D03*
X008968Y008260D03*
X008968Y008245D03*
X008968Y008230D03*
X008968Y008215D03*
X008968Y008200D03*
X008968Y008185D03*
X008968Y008170D03*
X008968Y008155D03*
X008968Y008140D03*
X008968Y008125D03*
X008968Y008110D03*
X008968Y008095D03*
X008968Y008080D03*
X008818Y008020D03*
X008818Y008005D03*
X008818Y007990D03*
X008818Y007975D03*
X009118Y007975D03*
X009118Y007990D03*
X009118Y008005D03*
X009118Y008020D03*
X009118Y008035D03*
X009118Y008050D03*
X009118Y008065D03*
X009118Y008080D03*
X009118Y008095D03*
X009118Y008110D03*
X009118Y008125D03*
X009118Y008140D03*
X009118Y008155D03*
X009118Y008170D03*
X009118Y008185D03*
X009118Y008200D03*
X009118Y008215D03*
X009118Y008230D03*
X009118Y008245D03*
X009118Y008260D03*
X009268Y008260D03*
X009268Y008245D03*
X009268Y008230D03*
X009268Y008215D03*
X009268Y008200D03*
X009268Y008185D03*
X009268Y008170D03*
X009268Y008155D03*
X009268Y008140D03*
X009268Y008125D03*
X009268Y008110D03*
X009268Y008095D03*
X009268Y008080D03*
X009268Y008065D03*
X009268Y008050D03*
X009268Y008035D03*
X009418Y008035D03*
X009418Y008050D03*
X009418Y008065D03*
X009418Y008080D03*
X009418Y008095D03*
X009418Y008110D03*
X009418Y008125D03*
X009418Y008140D03*
X009418Y008155D03*
X009418Y008170D03*
X009418Y008185D03*
X009418Y008200D03*
X009418Y008215D03*
X009418Y008230D03*
X009418Y008245D03*
X009418Y008260D03*
D19*
X008270Y008275D03*
X007880Y008275D03*
X007730Y007730D03*
D20*
X007730Y007745D03*
X007895Y008305D03*
X008255Y008305D03*
D21*
X007730Y007760D03*
D22*
X007730Y007775D03*
X009260Y007975D03*
X009260Y007990D03*
X009260Y008005D03*
X009260Y008020D03*
X009260Y008275D03*
X009260Y008290D03*
X009260Y008305D03*
X009260Y008320D03*
X009860Y008320D03*
X009860Y008305D03*
X009860Y008290D03*
X009860Y008275D03*
X009860Y008020D03*
X009860Y008005D03*
X009860Y007990D03*
X009860Y007975D03*
D23*
X008968Y008320D03*
X007528Y007975D03*
D24*
X007528Y007990D03*
X007903Y008170D03*
X007918Y008155D03*
X007933Y008140D03*
X007948Y008125D03*
X008968Y008305D03*
X009538Y008320D03*
D25*
X008263Y008290D03*
X007888Y008290D03*
D26*
X007903Y008320D03*
X008248Y008320D03*
D27*
X001454Y008584D03*
X001194Y008584D03*
X001168Y009078D03*
X001220Y008103D03*
X001415Y008103D03*
X001428Y008103D03*
X001480Y007310D03*
X001298Y007310D03*
X001194Y006764D03*
X001155Y005750D03*
X001298Y005295D03*
X001480Y005295D03*
X001168Y004723D03*
X001350Y004255D03*
X001337Y004242D03*
X001324Y004229D03*
X001311Y004216D03*
X001298Y004203D03*
X001480Y004203D03*
X001220Y010053D03*
X001194Y010534D03*
X001454Y010534D03*
X001480Y011223D03*
X001350Y011275D03*
X001337Y011262D03*
X001324Y011249D03*
X001311Y011236D03*
X001298Y011223D03*
D28*
X001077Y011704D03*
X001363Y005074D03*
X001376Y005074D03*
X001389Y005074D03*
X001402Y005074D03*
X001402Y004554D03*
X001415Y004554D03*
X001428Y004554D03*
X001441Y004554D03*
X001454Y004554D03*
X001467Y004554D03*
X001480Y004554D03*
X001389Y004554D03*
X001376Y004554D03*
X001363Y004554D03*
X001350Y004554D03*
X001337Y004554D03*
X001324Y004554D03*
X001311Y004554D03*
X001298Y004554D03*
X001285Y004554D03*
X001272Y004554D03*
X001259Y004554D03*
X001246Y004554D03*
X001233Y004554D03*
X001142Y004554D03*
X001129Y004554D03*
X001116Y004554D03*
X001103Y004554D03*
X001090Y004554D03*
X001077Y004554D03*
X001064Y004554D03*
X001051Y004554D03*
X001038Y004554D03*
X001025Y004554D03*
X001233Y004034D03*
X001246Y004034D03*
X001259Y004034D03*
X001272Y004034D03*
D29*
X001363Y004418D03*
X001376Y004418D03*
X001389Y004418D03*
X001402Y004418D03*
X001402Y004938D03*
X001415Y004938D03*
X001428Y004938D03*
X001441Y004938D03*
X001454Y004938D03*
X001467Y004938D03*
X001480Y004938D03*
X001389Y004938D03*
X001376Y004938D03*
X001363Y004938D03*
X001350Y004938D03*
X001337Y004938D03*
X001324Y004938D03*
X001311Y004938D03*
X001298Y004938D03*
X001285Y004938D03*
X001272Y004938D03*
X001259Y004938D03*
X001246Y004938D03*
X001233Y004938D03*
X001233Y005458D03*
X001246Y005458D03*
X001259Y005458D03*
X001272Y005458D03*
X001363Y005458D03*
X001376Y005458D03*
X001389Y005458D03*
X001402Y005458D03*
X001402Y005588D03*
X001415Y005588D03*
X001428Y005588D03*
X001441Y005588D03*
X001454Y005588D03*
X001467Y005588D03*
X001480Y005588D03*
X001389Y005588D03*
X001376Y005588D03*
X001363Y005588D03*
X001350Y005588D03*
X001337Y005588D03*
X001324Y005588D03*
X001311Y005588D03*
X001298Y005588D03*
X001285Y005588D03*
X001272Y005588D03*
X001259Y005588D03*
X001246Y005588D03*
X001233Y005588D03*
X001233Y005978D03*
X001246Y005978D03*
X001259Y005978D03*
X001272Y005978D03*
X001285Y005978D03*
X001298Y005978D03*
X001311Y005978D03*
X001324Y005978D03*
X001337Y005978D03*
X001350Y005978D03*
X001363Y005978D03*
X001376Y005978D03*
X001389Y005978D03*
X001402Y005978D03*
X001415Y005978D03*
X001428Y005978D03*
X001441Y005978D03*
X001454Y005978D03*
X001467Y005978D03*
X001480Y005978D03*
X001402Y006563D03*
X001389Y006563D03*
X001376Y006563D03*
X001363Y006563D03*
X001272Y006563D03*
X001259Y006563D03*
X001246Y006563D03*
X001233Y006563D03*
X001233Y006953D03*
X001246Y006953D03*
X001259Y006953D03*
X001272Y006953D03*
X001363Y007083D03*
X001376Y007083D03*
X001389Y007083D03*
X001402Y007083D03*
X001402Y007473D03*
X001389Y007473D03*
X001376Y007473D03*
X001363Y007473D03*
X001272Y007473D03*
X001259Y007473D03*
X001246Y007473D03*
X001233Y007473D03*
X001233Y007941D03*
X001246Y007941D03*
X001259Y007941D03*
X001272Y007941D03*
X001285Y007941D03*
X001298Y007941D03*
X001311Y007941D03*
X001324Y007941D03*
X001337Y007941D03*
X001350Y007941D03*
X001363Y007941D03*
X001376Y007941D03*
X001389Y007941D03*
X001402Y007941D03*
X001402Y008396D03*
X001389Y008396D03*
X001376Y008396D03*
X001363Y008396D03*
X001350Y008396D03*
X001337Y008396D03*
X001324Y008396D03*
X001311Y008396D03*
X001298Y008396D03*
X001285Y008396D03*
X001272Y008396D03*
X001259Y008396D03*
X001246Y008396D03*
X001233Y008396D03*
X001233Y008786D03*
X001246Y008786D03*
X001259Y008786D03*
X001272Y008786D03*
X001285Y008786D03*
X001298Y008786D03*
X001311Y008786D03*
X001324Y008786D03*
X001337Y008786D03*
X001350Y008786D03*
X001363Y008786D03*
X001376Y008786D03*
X001389Y008786D03*
X001402Y008786D03*
X001402Y008916D03*
X001415Y008916D03*
X001428Y008916D03*
X001441Y008916D03*
X001454Y008916D03*
X001467Y008916D03*
X001480Y008916D03*
X001389Y008916D03*
X001376Y008916D03*
X001363Y008916D03*
X001350Y008916D03*
X001337Y008916D03*
X001324Y008916D03*
X001311Y008916D03*
X001298Y008916D03*
X001285Y008916D03*
X001272Y008916D03*
X001259Y008916D03*
X001246Y008916D03*
X001233Y008916D03*
X001233Y009306D03*
X001246Y009306D03*
X001259Y009306D03*
X001272Y009306D03*
X001285Y009306D03*
X001298Y009306D03*
X001311Y009306D03*
X001324Y009306D03*
X001337Y009306D03*
X001350Y009306D03*
X001363Y009306D03*
X001376Y009306D03*
X001389Y009306D03*
X001402Y009306D03*
X001415Y009306D03*
X001428Y009306D03*
X001441Y009306D03*
X001454Y009306D03*
X001467Y009306D03*
X001480Y009306D03*
X001402Y009501D03*
X001389Y009501D03*
X001376Y009501D03*
X001363Y009501D03*
X001350Y009501D03*
X001337Y009501D03*
X001324Y009501D03*
X001311Y009501D03*
X001298Y009501D03*
X001285Y009501D03*
X001272Y009501D03*
X001259Y009501D03*
X001246Y009501D03*
X001233Y009501D03*
X001142Y009501D03*
X001129Y009501D03*
X001116Y009501D03*
X001103Y009501D03*
X001090Y009501D03*
X001233Y009891D03*
X001246Y009891D03*
X001259Y009891D03*
X001272Y009891D03*
X001285Y009891D03*
X001298Y009891D03*
X001311Y009891D03*
X001324Y009891D03*
X001337Y009891D03*
X001350Y009891D03*
X001363Y009891D03*
X001376Y009891D03*
X001389Y009891D03*
X001402Y009891D03*
X001415Y009891D03*
X001428Y009891D03*
X001441Y009891D03*
X001454Y009891D03*
X001467Y009891D03*
X001480Y009891D03*
X001402Y010346D03*
X001389Y010346D03*
X001376Y010346D03*
X001363Y010346D03*
X001350Y010346D03*
X001337Y010346D03*
X001324Y010346D03*
X001311Y010346D03*
X001298Y010346D03*
X001285Y010346D03*
X001272Y010346D03*
X001259Y010346D03*
X001246Y010346D03*
X001233Y010346D03*
X001233Y010736D03*
X001246Y010736D03*
X001259Y010736D03*
X001272Y010736D03*
X001285Y010736D03*
X001298Y010736D03*
X001311Y010736D03*
X001324Y010736D03*
X001337Y010736D03*
X001350Y010736D03*
X001363Y010736D03*
X001376Y010736D03*
X001389Y010736D03*
X001402Y010736D03*
X001402Y010866D03*
X001389Y010866D03*
X001376Y010866D03*
X001363Y010866D03*
X001350Y010866D03*
X001337Y010866D03*
X001324Y010866D03*
X001311Y010866D03*
X001298Y010866D03*
X001285Y010866D03*
X001272Y010866D03*
X001259Y010866D03*
X001246Y010866D03*
X001233Y010866D03*
X001220Y010866D03*
X001207Y010866D03*
X001194Y010866D03*
X001181Y010866D03*
X001168Y010866D03*
X001155Y010866D03*
X001142Y010866D03*
X001129Y010866D03*
X001116Y010866D03*
X001103Y010866D03*
X001090Y010866D03*
X001077Y010866D03*
X001064Y010866D03*
X001051Y010866D03*
X001038Y010866D03*
X001025Y010866D03*
X001233Y011061D03*
X001246Y011061D03*
X001259Y011061D03*
X001272Y011061D03*
X001363Y011451D03*
X001376Y011451D03*
X001389Y011451D03*
X001402Y011451D03*
X001168Y011464D03*
D30*
X001168Y011216D03*
X001480Y009656D03*
X001168Y007316D03*
X001467Y006719D03*
X001480Y006341D03*
X001181Y005315D03*
X001168Y004196D03*
D31*
X001155Y004203D03*
X001168Y005308D03*
X001480Y006725D03*
X001155Y007310D03*
X001155Y011223D03*
D32*
X001168Y010534D03*
X001480Y010534D03*
X001168Y010079D03*
X001168Y008584D03*
X001480Y008584D03*
X001480Y008129D03*
X001168Y008129D03*
X001168Y006764D03*
X001415Y006309D03*
D33*
X001402Y006179D03*
X001389Y006179D03*
X001376Y006179D03*
X001363Y006179D03*
X001350Y006179D03*
X001337Y006179D03*
X001324Y006179D03*
X001311Y006179D03*
X001298Y006179D03*
X001285Y006179D03*
X001272Y006179D03*
X001259Y006179D03*
X001246Y006179D03*
X001233Y006179D03*
X001142Y006179D03*
X001129Y006179D03*
X001116Y006179D03*
X001103Y006179D03*
X001090Y006179D03*
X001480Y010924D03*
D34*
X001467Y011230D03*
X001181Y009085D03*
X001311Y007304D03*
X001467Y007304D03*
X001350Y006731D03*
X001168Y005756D03*
X001311Y005289D03*
X001467Y005289D03*
X001181Y004730D03*
X001467Y004210D03*
D35*
X001181Y004190D03*
X001194Y005321D03*
X001467Y006335D03*
X001454Y006712D03*
X001467Y009650D03*
X001181Y011210D03*
D36*
X001181Y010073D03*
X001181Y008123D03*
X001467Y008123D03*
D37*
X001467Y008584D03*
X001181Y008584D03*
X001181Y006764D03*
X001181Y010534D03*
X001467Y010534D03*
D38*
X001467Y010918D03*
X001155Y011490D03*
X001090Y011659D03*
D39*
X001454Y011236D03*
X001441Y010534D03*
X001207Y010534D03*
X001194Y009091D03*
X001207Y008584D03*
X001441Y008584D03*
X001454Y007297D03*
X001324Y007297D03*
X001207Y006764D03*
X001324Y005282D03*
X001454Y005282D03*
X001194Y004736D03*
X001454Y004216D03*
D40*
X001194Y004184D03*
X001207Y005328D03*
X001454Y006329D03*
X001454Y009644D03*
X001194Y011204D03*
D41*
X001194Y010066D03*
X001194Y008116D03*
X001454Y008116D03*
D42*
X001454Y010911D03*
D43*
X001441Y011243D03*
X001207Y009098D03*
X001207Y004743D03*
X001441Y004223D03*
D44*
X001441Y005276D03*
X001337Y005276D03*
X001194Y005770D03*
X001324Y006745D03*
X001337Y007291D03*
X001441Y007291D03*
D45*
X001207Y007336D03*
X001155Y006764D03*
X001428Y006699D03*
X001441Y006322D03*
X001220Y005334D03*
X001207Y004177D03*
X001155Y008584D03*
X001441Y009637D03*
X001155Y010534D03*
X001207Y011197D03*
D46*
X001194Y007330D03*
X001441Y006706D03*
D47*
X001285Y007317D03*
X001207Y008110D03*
X001441Y008110D03*
X001155Y009072D03*
X001207Y010060D03*
X001285Y011217D03*
X001285Y005302D03*
X001155Y004717D03*
X001285Y004197D03*
D48*
X001441Y010905D03*
D49*
X001428Y011249D03*
X001428Y010534D03*
X001220Y010534D03*
X001220Y009104D03*
X001220Y008584D03*
X001428Y008584D03*
X001428Y007284D03*
X001350Y007284D03*
X001311Y006751D03*
X001220Y006764D03*
X001207Y005776D03*
X001350Y005269D03*
X001415Y005269D03*
X001428Y005269D03*
X001220Y004749D03*
X001415Y004229D03*
X001428Y004229D03*
D50*
X001220Y004171D03*
X001220Y006251D03*
X001207Y006251D03*
X001194Y006251D03*
X001181Y006251D03*
X001168Y006251D03*
X001155Y006251D03*
X001428Y006316D03*
X001415Y006693D03*
X001220Y007343D03*
X001155Y008136D03*
X001155Y009566D03*
X001168Y009566D03*
X001181Y009566D03*
X001194Y009566D03*
X001207Y009566D03*
X001220Y009566D03*
X001415Y009631D03*
X001428Y009631D03*
X001155Y010086D03*
X001220Y011191D03*
D51*
X001415Y010898D03*
X001428Y010898D03*
D52*
X001415Y011256D03*
X001415Y010541D03*
X001415Y008591D03*
X001415Y007278D03*
X001298Y006758D03*
X001285Y006758D03*
X001220Y005783D03*
D53*
X001181Y005763D03*
X001337Y006738D03*
D54*
X001181Y007323D03*
D55*
X001181Y011425D03*
X001064Y011620D03*
X001051Y011620D03*
X001038Y011620D03*
X001025Y011620D03*
X001012Y011620D03*
X000999Y011620D03*
X000986Y011620D03*
X000973Y011620D03*
X000960Y011620D03*
X000947Y011633D03*
X000934Y011633D03*
X000921Y011633D03*
X000908Y011646D03*
X000895Y011646D03*
X000882Y011659D03*
X000869Y011671D03*
X000830Y011698D03*
X000817Y011711D03*
X000804Y011724D03*
X000791Y011736D03*
X000778Y011750D03*
X000739Y011789D03*
X000726Y011801D03*
X000713Y011815D03*
X000700Y011828D03*
X000687Y011841D03*
X000661Y011854D03*
X000648Y011866D03*
X000635Y011880D03*
X000609Y011893D03*
X000596Y011906D03*
X000583Y011919D03*
X000570Y011919D03*
X000570Y011958D03*
X000583Y011958D03*
X000596Y011958D03*
X000609Y011958D03*
X000622Y011958D03*
X000635Y011958D03*
X000648Y011958D03*
X000661Y011958D03*
X000674Y011958D03*
X000687Y011958D03*
X000713Y011945D03*
X000726Y011945D03*
X000739Y011945D03*
X000752Y011945D03*
X000765Y011945D03*
X000778Y011931D03*
X000791Y011931D03*
X000804Y011931D03*
X000830Y011919D03*
X000843Y011919D03*
X000856Y011919D03*
X000869Y011906D03*
X000882Y011906D03*
X000908Y011893D03*
X000934Y011880D03*
X000960Y011866D03*
X000973Y011854D03*
X000986Y011841D03*
X000947Y011763D03*
X000960Y011750D03*
X000986Y011736D03*
X000999Y011724D03*
X001012Y011711D03*
X001025Y011698D03*
X001038Y011685D03*
X001051Y011671D03*
X001064Y011659D03*
X000908Y011789D03*
X000869Y011815D03*
X000804Y011854D03*
X000505Y011958D03*
X000492Y011958D03*
D56*
X001155Y005302D03*
D57*
X001142Y011542D03*
X001103Y011620D03*
X001064Y011750D03*
X001051Y011776D03*
X000557Y011945D03*
X000544Y011945D03*
D58*
X000531Y011951D03*
X000518Y011951D03*
X000622Y011886D03*
X000674Y011847D03*
X000752Y011782D03*
X000765Y011769D03*
X000843Y011691D03*
X000921Y011886D03*
X000895Y011899D03*
X000817Y011925D03*
X000700Y011951D03*
X000999Y011834D03*
X001012Y011821D03*
X001038Y011795D03*
X001116Y011600D03*
X001129Y011574D03*
D59*
X001077Y011633D03*
D60*
X001025Y011808D03*
X000947Y011873D03*
X000856Y011678D03*
D61*
X000934Y011769D03*
X000921Y011782D03*
X000895Y011795D03*
X000882Y011808D03*
X000856Y011821D03*
X000843Y011834D03*
X000830Y011834D03*
X000817Y011847D03*
X000791Y011860D03*
X000765Y011873D03*
X000752Y011873D03*
X000973Y011743D03*
X000479Y011964D03*
X000466Y011964D03*
D62*
X002256Y012276D02*
X002256Y009284D01*
X004304Y009284D01*
X004304Y012276D01*
X004294Y012276D02*
X002256Y012276D01*
X002439Y011980D02*
X002441Y012003D01*
X002447Y012026D01*
X002456Y012047D01*
X002469Y012067D01*
X002485Y012084D01*
X002503Y012098D01*
X002523Y012109D01*
X002545Y012117D01*
X002568Y012121D01*
X002592Y012121D01*
X002615Y012117D01*
X002637Y012109D01*
X002657Y012098D01*
X002675Y012084D01*
X002691Y012067D01*
X002704Y012047D01*
X002713Y012026D01*
X002719Y012003D01*
X002721Y011980D01*
X002719Y011957D01*
X002713Y011934D01*
X002704Y011913D01*
X002691Y011893D01*
X002675Y011876D01*
X002657Y011862D01*
X002637Y011851D01*
X002615Y011843D01*
X002592Y011839D01*
X002568Y011839D01*
X002545Y011843D01*
X002523Y011851D01*
X002503Y011862D01*
X002485Y011876D01*
X002469Y011893D01*
X002456Y011913D01*
X002447Y011934D01*
X002441Y011957D01*
X002439Y011980D01*
X002818Y013081D02*
X007542Y013081D01*
X007542Y014616D01*
X009430Y007005D02*
X009430Y005355D01*
X008030Y005430D02*
X007988Y005482D01*
X007949Y005536D01*
X007914Y005593D01*
X007881Y005651D01*
X007853Y005711D01*
X007827Y005773D01*
X007805Y005836D01*
X007787Y005901D01*
X007773Y005966D01*
X007763Y006032D01*
X007756Y006098D01*
X007753Y006165D01*
X007754Y006232D01*
X007759Y006298D01*
X007768Y006364D01*
X007780Y006430D01*
X007796Y006491D01*
X007814Y006551D01*
X007836Y006609D01*
X007861Y006667D01*
X007889Y006723D01*
X007920Y006778D01*
X007954Y006830D01*
X007991Y006881D01*
X008030Y006930D01*
X007780Y006430D02*
X007768Y006368D01*
X007760Y006306D01*
X007755Y006243D01*
X007753Y006180D01*
X007755Y006117D01*
X007760Y006054D01*
X007768Y005992D01*
X007780Y005930D01*
X006630Y004380D02*
X003930Y004380D01*
X003871Y004378D01*
X003813Y004372D01*
X003754Y004363D01*
X003697Y004349D01*
X003641Y004332D01*
X003586Y004311D01*
X003532Y004287D01*
X003480Y004259D01*
X003430Y004228D01*
X003382Y004194D01*
X003337Y004157D01*
X003294Y004116D01*
X003253Y004073D01*
X003216Y004028D01*
X003182Y003980D01*
X003151Y003930D01*
X003123Y003878D01*
X003099Y003824D01*
X003078Y003769D01*
X003061Y003713D01*
X003047Y003656D01*
X003038Y003597D01*
X003032Y003539D01*
X003030Y003480D01*
X003032Y003421D01*
X003038Y003363D01*
X003047Y003304D01*
X003061Y003247D01*
X003078Y003191D01*
X003099Y003136D01*
X003123Y003082D01*
X003151Y003030D01*
X003182Y002980D01*
X003216Y002932D01*
X003253Y002887D01*
X003294Y002844D01*
X003337Y002803D01*
X003382Y002766D01*
X003430Y002732D01*
X003480Y002701D01*
X003532Y002673D01*
X003586Y002649D01*
X003641Y002628D01*
X003697Y002611D01*
X003754Y002597D01*
X003813Y002588D01*
X003871Y002582D01*
X003930Y002580D01*
X006630Y002580D01*
X006689Y002582D01*
X006747Y002588D01*
X006806Y002597D01*
X006863Y002611D01*
X006919Y002628D01*
X006974Y002649D01*
X007028Y002673D01*
X007080Y002701D01*
X007130Y002732D01*
X007178Y002766D01*
X007223Y002803D01*
X007266Y002844D01*
X007307Y002887D01*
X007344Y002932D01*
X007378Y002980D01*
X007409Y003030D01*
X007437Y003082D01*
X007461Y003136D01*
X007482Y003191D01*
X007499Y003247D01*
X007513Y003304D01*
X007522Y003363D01*
X007528Y003421D01*
X007530Y003480D01*
X007528Y003539D01*
X007522Y003597D01*
X007513Y003656D01*
X007499Y003713D01*
X007482Y003769D01*
X007461Y003824D01*
X007437Y003878D01*
X007409Y003930D01*
X007378Y003980D01*
X007344Y004028D01*
X007307Y004073D01*
X007266Y004116D01*
X007223Y004157D01*
X007178Y004194D01*
X007130Y004228D01*
X007080Y004259D01*
X007028Y004287D01*
X006974Y004311D01*
X006919Y004332D01*
X006863Y004349D01*
X006806Y004363D01*
X006747Y004372D01*
X006689Y004378D01*
X006630Y004380D01*
X002818Y013081D02*
X002818Y014616D01*
D63*
X004294Y012286D02*
X004294Y012276D01*
D64*
X005180Y012730D02*
X005180Y011030D01*
X005182Y011013D01*
X005186Y010996D01*
X005193Y010980D01*
X005203Y010966D01*
X005216Y010953D01*
X005230Y010943D01*
X005246Y010936D01*
X005263Y010932D01*
X005280Y010930D01*
X006080Y010930D01*
X006097Y010932D01*
X006114Y010936D01*
X006130Y010943D01*
X006144Y010953D01*
X006157Y010966D01*
X006167Y010980D01*
X006174Y010996D01*
X006178Y011013D01*
X006180Y011030D01*
X006180Y012730D01*
X006178Y012747D01*
X006174Y012764D01*
X006167Y012780D01*
X006157Y012794D01*
X006144Y012807D01*
X006130Y012817D01*
X006114Y012824D01*
X006097Y012828D01*
X006080Y012830D01*
X005280Y012830D01*
X005263Y012828D01*
X005246Y012824D01*
X005230Y012817D01*
X005216Y012807D01*
X005203Y012794D01*
X005193Y012780D01*
X005186Y012764D01*
X005182Y012747D01*
X005180Y012730D01*
X005680Y012030D02*
X005680Y011980D01*
X005680Y011780D02*
X005680Y011730D01*
X006180Y009130D02*
X006330Y009130D01*
X006347Y009128D01*
X006364Y009124D01*
X006380Y009117D01*
X006394Y009107D01*
X006407Y009094D01*
X006417Y009080D01*
X006424Y009064D01*
X006428Y009047D01*
X006430Y009030D01*
X006430Y008330D01*
X006428Y008313D01*
X006424Y008296D01*
X006417Y008280D01*
X006407Y008266D01*
X006394Y008253D01*
X006380Y008243D01*
X006364Y008236D01*
X006347Y008232D01*
X006330Y008230D01*
X006180Y008230D01*
X006130Y008280D01*
X004230Y008280D01*
X004180Y008230D01*
X004030Y008230D01*
X004013Y008232D01*
X003996Y008236D01*
X003980Y008243D01*
X003966Y008253D01*
X003953Y008266D01*
X003943Y008280D01*
X003936Y008296D01*
X003932Y008313D01*
X003930Y008330D01*
X003930Y009030D01*
X003932Y009047D01*
X003936Y009064D01*
X003943Y009080D01*
X003953Y009094D01*
X003966Y009107D01*
X003980Y009117D01*
X003996Y009124D01*
X004013Y009128D01*
X004030Y009130D01*
X004180Y009130D01*
X004230Y009080D01*
X006130Y009080D01*
X006180Y009130D01*
X006180Y007930D02*
X006330Y007930D01*
X006347Y007928D01*
X006364Y007924D01*
X006380Y007917D01*
X006394Y007907D01*
X006407Y007894D01*
X006417Y007880D01*
X006424Y007864D01*
X006428Y007847D01*
X006430Y007830D01*
X006430Y007130D01*
X006428Y007113D01*
X006424Y007096D01*
X006417Y007080D01*
X006407Y007066D01*
X006394Y007053D01*
X006380Y007043D01*
X006364Y007036D01*
X006347Y007032D01*
X006330Y007030D01*
X006180Y007030D01*
X006130Y007080D01*
X004230Y007080D01*
X004180Y007030D01*
X004030Y007030D01*
X004013Y007032D01*
X003996Y007036D01*
X003980Y007043D01*
X003966Y007053D01*
X003953Y007066D01*
X003943Y007080D01*
X003936Y007096D01*
X003932Y007113D01*
X003930Y007130D01*
X003930Y007830D01*
X003932Y007847D01*
X003936Y007864D01*
X003943Y007880D01*
X003953Y007894D01*
X003966Y007907D01*
X003980Y007917D01*
X003996Y007924D01*
X004013Y007928D01*
X004030Y007930D01*
X004180Y007930D01*
X004230Y007880D01*
X006130Y007880D01*
X006180Y007930D01*
X006180Y006830D02*
X006130Y006780D01*
X004230Y006780D01*
X004180Y006830D01*
X004030Y006830D01*
X004013Y006828D01*
X003996Y006824D01*
X003980Y006817D01*
X003966Y006807D01*
X003953Y006794D01*
X003943Y006780D01*
X003936Y006764D01*
X003932Y006747D01*
X003930Y006730D01*
X003930Y006030D01*
X003932Y006013D01*
X003936Y005996D01*
X003943Y005980D01*
X003953Y005966D01*
X003966Y005953D01*
X003980Y005943D01*
X003996Y005936D01*
X004013Y005932D01*
X004030Y005930D01*
X004180Y005930D01*
X004230Y005980D01*
X006130Y005980D01*
X006180Y005930D01*
X006330Y005930D01*
X006347Y005932D01*
X006364Y005936D01*
X006380Y005943D01*
X006394Y005953D01*
X006407Y005966D01*
X006417Y005980D01*
X006424Y005996D01*
X006428Y006013D01*
X006430Y006030D01*
X006430Y006730D01*
X006428Y006747D01*
X006424Y006764D01*
X006417Y006780D01*
X006407Y006794D01*
X006394Y006807D01*
X006380Y006817D01*
X006364Y006824D01*
X006347Y006828D01*
X006330Y006830D01*
X006180Y006830D01*
X006180Y005730D02*
X006130Y005680D01*
X004230Y005680D01*
X004180Y005730D01*
X004030Y005730D01*
X004013Y005728D01*
X003996Y005724D01*
X003980Y005717D01*
X003966Y005707D01*
X003953Y005694D01*
X003943Y005680D01*
X003936Y005664D01*
X003932Y005647D01*
X003930Y005630D01*
X003930Y004930D01*
X003932Y004913D01*
X003936Y004896D01*
X003943Y004880D01*
X003953Y004866D01*
X003966Y004853D01*
X003980Y004843D01*
X003996Y004836D01*
X004013Y004832D01*
X004030Y004830D01*
X004180Y004830D01*
X004230Y004880D01*
X006130Y004880D01*
X006180Y004830D01*
X006330Y004830D01*
X006347Y004832D01*
X006364Y004836D01*
X006380Y004843D01*
X006394Y004853D01*
X006407Y004866D01*
X006417Y004880D01*
X006424Y004896D01*
X006428Y004913D01*
X006430Y004930D01*
X006430Y005630D01*
X006428Y005647D01*
X006424Y005664D01*
X006417Y005680D01*
X006407Y005694D01*
X006394Y005707D01*
X006380Y005717D01*
X006364Y005724D01*
X006347Y005728D01*
X006330Y005730D01*
X006180Y005730D01*
X007780Y004430D02*
X007780Y002730D01*
X007782Y002713D01*
X007786Y002696D01*
X007793Y002680D01*
X007803Y002666D01*
X007816Y002653D01*
X007830Y002643D01*
X007846Y002636D01*
X007863Y002632D01*
X007880Y002630D01*
X008680Y002630D01*
X008697Y002632D01*
X008714Y002636D01*
X008730Y002643D01*
X008744Y002653D01*
X008757Y002666D01*
X008767Y002680D01*
X008774Y002696D01*
X008778Y002713D01*
X008780Y002730D01*
X008780Y004430D01*
X008778Y004447D01*
X008774Y004464D01*
X008767Y004480D01*
X008757Y004494D01*
X008744Y004507D01*
X008730Y004517D01*
X008714Y004524D01*
X008697Y004528D01*
X008680Y004530D01*
X007880Y004530D01*
X007863Y004528D01*
X007846Y004524D01*
X007830Y004517D01*
X007816Y004507D01*
X007803Y004494D01*
X007793Y004480D01*
X007786Y004464D01*
X007782Y004447D01*
X007780Y004430D01*
X008280Y003730D02*
X008280Y003680D01*
X008280Y003480D02*
X008280Y003430D01*
X006930Y001780D02*
X007180Y001530D01*
X007180Y001030D01*
X006930Y000780D01*
X006430Y000780D01*
X006180Y001030D01*
X005930Y000780D01*
X005430Y000780D01*
X005180Y001030D01*
X004930Y000780D01*
X004430Y000780D01*
X004180Y001030D01*
X003930Y000780D01*
X003430Y000780D01*
X003180Y001030D01*
X003180Y001530D01*
X003430Y001780D01*
X003930Y001780D01*
X004180Y001530D01*
X004430Y001780D01*
X004930Y001780D01*
X005180Y001530D01*
X005180Y001030D01*
X005180Y001530D02*
X005430Y001780D01*
X005930Y001780D01*
X006180Y001530D01*
X006430Y001780D01*
X006930Y001780D01*
X006180Y001530D02*
X006180Y001030D01*
X004180Y001030D02*
X004180Y001530D01*
X002780Y002730D02*
X002780Y004430D01*
X002778Y004447D01*
X002774Y004464D01*
X002767Y004480D01*
X002757Y004494D01*
X002744Y004507D01*
X002730Y004517D01*
X002714Y004524D01*
X002697Y004528D01*
X002680Y004530D01*
X001880Y004530D01*
X001863Y004528D01*
X001846Y004524D01*
X001830Y004517D01*
X001816Y004507D01*
X001803Y004494D01*
X001793Y004480D01*
X001786Y004464D01*
X001782Y004447D01*
X001780Y004430D01*
X001780Y002730D01*
X001782Y002713D01*
X001786Y002696D01*
X001793Y002680D01*
X001803Y002666D01*
X001816Y002653D01*
X001830Y002643D01*
X001846Y002636D01*
X001863Y002632D01*
X001880Y002630D01*
X002680Y002630D01*
X002697Y002632D01*
X002714Y002636D01*
X002730Y002643D01*
X002744Y002653D01*
X002757Y002666D01*
X002767Y002680D01*
X002774Y002696D01*
X002778Y002713D01*
X002780Y002730D01*
X002280Y003430D02*
X002280Y003480D01*
X002280Y003680D02*
X002280Y003730D01*
X002480Y007030D02*
X001680Y007030D01*
X001663Y007032D01*
X001646Y007036D01*
X001630Y007043D01*
X001616Y007053D01*
X001603Y007066D01*
X001593Y007080D01*
X001586Y007096D01*
X001582Y007113D01*
X001580Y007130D01*
X001580Y008830D01*
X001582Y008847D01*
X001586Y008864D01*
X001593Y008880D01*
X001603Y008894D01*
X001616Y008907D01*
X001630Y008917D01*
X001646Y008924D01*
X001663Y008928D01*
X001680Y008930D01*
X002480Y008930D01*
X002497Y008928D01*
X002514Y008924D01*
X002530Y008917D01*
X002544Y008907D01*
X002557Y008894D01*
X002567Y008880D01*
X002574Y008864D01*
X002578Y008847D01*
X002580Y008830D01*
X002580Y007130D01*
X002578Y007113D01*
X002574Y007096D01*
X002567Y007080D01*
X002557Y007066D01*
X002544Y007053D01*
X002530Y007043D01*
X002514Y007036D01*
X002497Y007032D01*
X002480Y007030D01*
X002080Y007830D02*
X002080Y007880D01*
X002080Y008080D02*
X002080Y008130D01*
X006580Y011880D02*
X006582Y011943D01*
X006588Y012005D01*
X006598Y012067D01*
X006611Y012129D01*
X006629Y012189D01*
X006650Y012248D01*
X006675Y012306D01*
X006704Y012362D01*
X006736Y012416D01*
X006771Y012468D01*
X006809Y012517D01*
X006851Y012565D01*
X006895Y012609D01*
X006943Y012651D01*
X006992Y012689D01*
X007044Y012724D01*
X007098Y012756D01*
X007154Y012785D01*
X007212Y012810D01*
X007271Y012831D01*
X007331Y012849D01*
X007393Y012862D01*
X007455Y012872D01*
X007517Y012878D01*
X007580Y012880D01*
X007643Y012878D01*
X007705Y012872D01*
X007767Y012862D01*
X007829Y012849D01*
X007889Y012831D01*
X007948Y012810D01*
X008006Y012785D01*
X008062Y012756D01*
X008116Y012724D01*
X008168Y012689D01*
X008217Y012651D01*
X008265Y012609D01*
X008309Y012565D01*
X008351Y012517D01*
X008389Y012468D01*
X008424Y012416D01*
X008456Y012362D01*
X008485Y012306D01*
X008510Y012248D01*
X008531Y012189D01*
X008549Y012129D01*
X008562Y012067D01*
X008572Y012005D01*
X008578Y011943D01*
X008580Y011880D01*
X008578Y011817D01*
X008572Y011755D01*
X008562Y011693D01*
X008549Y011631D01*
X008531Y011571D01*
X008510Y011512D01*
X008485Y011454D01*
X008456Y011398D01*
X008424Y011344D01*
X008389Y011292D01*
X008351Y011243D01*
X008309Y011195D01*
X008265Y011151D01*
X008217Y011109D01*
X008168Y011071D01*
X008116Y011036D01*
X008062Y011004D01*
X008006Y010975D01*
X007948Y010950D01*
X007889Y010929D01*
X007829Y010911D01*
X007767Y010898D01*
X007705Y010888D01*
X007643Y010882D01*
X007580Y010880D01*
X007517Y010882D01*
X007455Y010888D01*
X007393Y010898D01*
X007331Y010911D01*
X007271Y010929D01*
X007212Y010950D01*
X007154Y010975D01*
X007098Y011004D01*
X007044Y011036D01*
X006992Y011071D01*
X006943Y011109D01*
X006895Y011151D01*
X006851Y011195D01*
X006809Y011243D01*
X006771Y011292D01*
X006736Y011344D01*
X006704Y011398D01*
X006675Y011454D01*
X006650Y011512D01*
X006629Y011571D01*
X006611Y011631D01*
X006598Y011693D01*
X006588Y011755D01*
X006582Y011817D01*
X006580Y011880D01*
X007980Y012430D02*
X008080Y012430D01*
X008180Y012430D01*
X008080Y012430D02*
X008080Y012530D01*
X008080Y012430D02*
X008080Y012330D01*
D65*
X008150Y009460D02*
X007970Y009460D01*
X008790Y009460D02*
X008990Y009460D01*
X007090Y009460D02*
X006890Y009460D01*
X006250Y009460D02*
X006070Y009460D01*
X005980Y011780D02*
X005680Y011780D01*
X005380Y011780D01*
X005380Y011980D02*
X005680Y011980D01*
X005980Y011980D01*
X002380Y008080D02*
X002080Y008080D01*
X001780Y008080D01*
X001780Y007880D02*
X002080Y007880D01*
X002380Y007880D01*
X002280Y003680D02*
X001980Y003680D01*
X001980Y003480D02*
X002280Y003480D01*
X002580Y003480D01*
X002580Y003680D02*
X002280Y003680D01*
X007980Y003680D02*
X008280Y003680D01*
X008580Y003680D01*
X008580Y003480D02*
X008280Y003480D01*
X007980Y003480D01*
D66*
X006600Y005280D03*
X006600Y006380D03*
X006600Y007480D03*
X006600Y008680D03*
X003760Y008680D03*
X003760Y007480D03*
X003760Y006380D03*
X003760Y005280D03*
D67*
X007424Y010085D02*
X007334Y010085D01*
X007335Y010085D02*
X007333Y010139D01*
X007327Y010192D01*
X007317Y010245D01*
X007303Y010297D01*
X007286Y010348D01*
X007265Y010397D01*
X007241Y010445D01*
X007213Y010491D01*
X007182Y010535D01*
X007148Y010577D01*
X007112Y010616D01*
X007072Y010653D01*
X007030Y010686D01*
X006986Y010717D01*
X006940Y010744D01*
X006982Y010823D01*
X007031Y010795D01*
X007077Y010763D01*
X007122Y010728D01*
X007164Y010691D01*
X007204Y010650D01*
X007240Y010607D01*
X007274Y010562D01*
X007305Y010515D01*
X007332Y010465D01*
X007356Y010414D01*
X007377Y010362D01*
X007394Y010308D01*
X007407Y010253D01*
X007417Y010198D01*
X007423Y010141D01*
X007425Y010085D01*
X007416Y010085D01*
X007414Y010141D01*
X007408Y010196D01*
X007398Y010251D01*
X007385Y010306D01*
X007368Y010359D01*
X007348Y010411D01*
X007324Y010461D01*
X007297Y010510D01*
X007267Y010557D01*
X007233Y010602D01*
X007197Y010644D01*
X007158Y010684D01*
X007116Y010721D01*
X007072Y010756D01*
X007026Y010787D01*
X006978Y010815D01*
X006974Y010807D01*
X007021Y010779D01*
X007067Y010748D01*
X007110Y010714D01*
X007152Y010678D01*
X007190Y010638D01*
X007226Y010596D01*
X007259Y010552D01*
X007289Y010506D01*
X007316Y010457D01*
X007339Y010407D01*
X007360Y010356D01*
X007376Y010303D01*
X007389Y010250D01*
X007399Y010195D01*
X007405Y010140D01*
X007407Y010085D01*
X007398Y010085D01*
X007396Y010140D01*
X007390Y010194D01*
X007381Y010248D01*
X007368Y010301D01*
X007351Y010353D01*
X007331Y010404D01*
X007308Y010453D01*
X007281Y010501D01*
X007252Y010547D01*
X007219Y010591D01*
X007184Y010632D01*
X007145Y010671D01*
X007105Y010708D01*
X007062Y010741D01*
X007016Y010772D01*
X006969Y010799D01*
X006965Y010791D01*
X007012Y010764D01*
X007056Y010734D01*
X007099Y010701D01*
X007139Y010665D01*
X007177Y010626D01*
X007212Y010585D01*
X007244Y010542D01*
X007274Y010496D01*
X007300Y010449D01*
X007323Y010400D01*
X007343Y010350D01*
X007359Y010298D01*
X007372Y010246D01*
X007381Y010193D01*
X007387Y010139D01*
X007389Y010085D01*
X007380Y010085D01*
X007378Y010138D01*
X007372Y010191D01*
X007363Y010244D01*
X007350Y010296D01*
X007334Y010347D01*
X007315Y010397D01*
X007292Y010445D01*
X007266Y010492D01*
X007237Y010536D01*
X007205Y010579D01*
X007170Y010620D01*
X007133Y010658D01*
X007093Y010694D01*
X007051Y010727D01*
X007007Y010757D01*
X006961Y010784D01*
X006957Y010776D01*
X007002Y010749D01*
X007046Y010719D01*
X007087Y010687D01*
X007127Y010652D01*
X007164Y010614D01*
X007198Y010574D01*
X007230Y010531D01*
X007258Y010487D01*
X007284Y010441D01*
X007306Y010393D01*
X007326Y010344D01*
X007342Y010294D01*
X007354Y010242D01*
X007363Y010190D01*
X007369Y010138D01*
X007371Y010085D01*
X007362Y010085D01*
X007360Y010141D01*
X007353Y010196D01*
X007343Y010251D01*
X007329Y010305D01*
X007311Y010357D01*
X007290Y010409D01*
X007264Y010458D01*
X007236Y010506D01*
X007204Y010552D01*
X007169Y010595D01*
X007131Y010635D01*
X007090Y010673D01*
X007046Y010708D01*
X007000Y010739D01*
X006952Y010768D01*
X006948Y010760D01*
X006996Y010732D01*
X007041Y010701D01*
X007084Y010666D01*
X007124Y010629D01*
X007162Y010589D01*
X007197Y010546D01*
X007228Y010501D01*
X007257Y010454D01*
X007281Y010405D01*
X007303Y010354D01*
X007320Y010302D01*
X007334Y010249D01*
X007344Y010195D01*
X007351Y010140D01*
X007353Y010085D01*
X007344Y010085D01*
X007342Y010139D01*
X007336Y010193D01*
X007326Y010247D01*
X007312Y010299D01*
X007294Y010351D01*
X007273Y010401D01*
X007249Y010450D01*
X007221Y010496D01*
X007189Y010541D01*
X007155Y010583D01*
X007118Y010622D01*
X007078Y010659D01*
X007036Y010693D01*
X006991Y010724D01*
X006944Y010752D01*
X006157Y010811D02*
X006202Y010733D01*
X006201Y010733D02*
X006157Y010705D01*
X006115Y010674D01*
X006075Y010641D01*
X006037Y010605D01*
X006002Y010566D01*
X005970Y010525D01*
X005940Y010481D01*
X005914Y010436D01*
X005891Y010389D01*
X005871Y010341D01*
X005855Y010291D01*
X005842Y010241D01*
X005833Y010189D01*
X005827Y010137D01*
X005825Y010085D01*
X005736Y010084D01*
X005735Y010085D01*
X005737Y010140D01*
X005743Y010194D01*
X005752Y010249D01*
X005765Y010302D01*
X005781Y010354D01*
X005800Y010406D01*
X005823Y010456D01*
X005849Y010504D01*
X005878Y010551D01*
X005910Y010595D01*
X005945Y010638D01*
X005983Y010678D01*
X006023Y010715D01*
X006065Y010750D01*
X006110Y010782D01*
X006156Y010811D01*
X006161Y010803D01*
X006115Y010775D01*
X006071Y010743D01*
X006029Y010708D01*
X005989Y010671D01*
X005952Y010632D01*
X005917Y010590D01*
X005886Y010546D01*
X005857Y010500D01*
X005831Y010452D01*
X005809Y010402D01*
X005789Y010352D01*
X005773Y010300D01*
X005761Y010247D01*
X005752Y010193D01*
X005746Y010139D01*
X005744Y010085D01*
X005753Y010085D01*
X005755Y010139D01*
X005761Y010192D01*
X005770Y010245D01*
X005782Y010297D01*
X005798Y010349D01*
X005817Y010399D01*
X005839Y010448D01*
X005865Y010495D01*
X005893Y010541D01*
X005925Y010584D01*
X005959Y010626D01*
X005995Y010665D01*
X006035Y010702D01*
X006076Y010736D01*
X006120Y010767D01*
X006165Y010796D01*
X006170Y010788D01*
X006122Y010758D01*
X006076Y010724D01*
X006033Y010688D01*
X005992Y010648D01*
X005954Y010606D01*
X005919Y010562D01*
X005887Y010515D01*
X005859Y010466D01*
X005834Y010415D01*
X005812Y010362D01*
X005795Y010309D01*
X005781Y010254D01*
X005771Y010198D01*
X005764Y010142D01*
X005762Y010085D01*
X005771Y010085D01*
X005773Y010141D01*
X005779Y010197D01*
X005789Y010252D01*
X005803Y010306D01*
X005821Y010359D01*
X005842Y010411D01*
X005867Y010462D01*
X005895Y010510D01*
X005926Y010556D01*
X005961Y010601D01*
X005998Y010642D01*
X006039Y010681D01*
X006081Y010717D01*
X006127Y010750D01*
X006174Y010780D01*
X006179Y010772D01*
X006132Y010743D01*
X006087Y010710D01*
X006045Y010674D01*
X006005Y010636D01*
X005968Y010595D01*
X005933Y010551D01*
X005902Y010505D01*
X005875Y010457D01*
X005850Y010408D01*
X005829Y010356D01*
X005812Y010304D01*
X005798Y010250D01*
X005788Y010195D01*
X005782Y010140D01*
X005780Y010085D01*
X005789Y010085D01*
X005791Y010140D01*
X005797Y010194D01*
X005807Y010248D01*
X005821Y010301D01*
X005838Y010353D01*
X005858Y010404D01*
X005883Y010453D01*
X005910Y010500D01*
X005941Y010546D01*
X005974Y010589D01*
X006011Y010630D01*
X006051Y010668D01*
X006093Y010703D01*
X006137Y010735D01*
X006183Y010764D01*
X006188Y010756D01*
X006142Y010728D01*
X006098Y010696D01*
X006057Y010661D01*
X006018Y010623D01*
X005981Y010583D01*
X005948Y010541D01*
X005918Y010496D01*
X005890Y010449D01*
X005867Y010400D01*
X005846Y010350D01*
X005829Y010299D01*
X005816Y010246D01*
X005806Y010193D01*
X005800Y010139D01*
X005798Y010085D01*
X005807Y010085D01*
X005809Y010138D01*
X005815Y010192D01*
X005825Y010244D01*
X005838Y010296D01*
X005855Y010347D01*
X005875Y010397D01*
X005898Y010445D01*
X005925Y010491D01*
X005955Y010535D01*
X005988Y010577D01*
X006024Y010617D01*
X006063Y010654D01*
X006104Y010689D01*
X006147Y010720D01*
X006192Y010749D01*
X006197Y010741D01*
X006152Y010713D01*
X006109Y010682D01*
X006069Y010648D01*
X006031Y010611D01*
X005995Y010572D01*
X005963Y010530D01*
X005933Y010486D01*
X005906Y010440D01*
X005883Y010393D01*
X005863Y010344D01*
X005846Y010294D01*
X005833Y010242D01*
X005824Y010190D01*
X005818Y010138D01*
X005816Y010085D01*
X005736Y010076D02*
X005826Y010076D01*
X005825Y010075D02*
X005827Y010021D01*
X005833Y009968D01*
X005843Y009915D01*
X005857Y009863D01*
X005874Y009812D01*
X005895Y009762D01*
X005919Y009714D01*
X005947Y009668D01*
X005978Y009624D01*
X006012Y009583D01*
X006049Y009543D01*
X006088Y009507D01*
X006031Y009439D01*
X006030Y009438D01*
X005989Y009476D01*
X005951Y009516D01*
X005915Y009559D01*
X005882Y009604D01*
X005852Y009651D01*
X005826Y009699D01*
X005802Y009750D01*
X005782Y009802D01*
X005766Y009855D01*
X005752Y009909D01*
X005743Y009964D01*
X005737Y010019D01*
X005735Y010075D01*
X005744Y010075D01*
X005746Y010020D01*
X005752Y009965D01*
X005761Y009911D01*
X005774Y009857D01*
X005791Y009805D01*
X005810Y009753D01*
X005834Y009703D01*
X005860Y009655D01*
X005890Y009609D01*
X005922Y009564D01*
X005957Y009522D01*
X005996Y009482D01*
X006036Y009445D01*
X006042Y009452D01*
X006002Y009489D01*
X005964Y009528D01*
X005929Y009570D01*
X005897Y009614D01*
X005868Y009660D01*
X005842Y009708D01*
X005819Y009757D01*
X005799Y009808D01*
X005783Y009860D01*
X005770Y009913D01*
X005761Y009966D01*
X005755Y010021D01*
X005753Y010075D01*
X005762Y010075D01*
X005764Y010021D01*
X005770Y009968D01*
X005779Y009915D01*
X005792Y009862D01*
X005808Y009811D01*
X005827Y009760D01*
X005850Y009712D01*
X005875Y009664D01*
X005904Y009619D01*
X005936Y009575D01*
X005971Y009534D01*
X006008Y009495D01*
X006048Y009459D01*
X006054Y009466D01*
X006014Y009502D01*
X005977Y009540D01*
X005943Y009581D01*
X005912Y009624D01*
X005883Y009669D01*
X005858Y009716D01*
X005835Y009764D01*
X005816Y009814D01*
X005800Y009865D01*
X005788Y009916D01*
X005779Y009969D01*
X005773Y010022D01*
X005771Y010075D01*
X005780Y010075D01*
X005782Y010022D01*
X005788Y009970D01*
X005797Y009918D01*
X005809Y009867D01*
X005825Y009817D01*
X005844Y009767D01*
X005866Y009720D01*
X005891Y009673D01*
X005919Y009629D01*
X005950Y009587D01*
X005984Y009546D01*
X006021Y009508D01*
X006059Y009473D01*
X006065Y009479D01*
X006027Y009515D01*
X005991Y009552D01*
X005957Y009592D01*
X005927Y009634D01*
X005899Y009678D01*
X005874Y009724D01*
X005852Y009771D01*
X005833Y009820D01*
X005818Y009869D01*
X005805Y009920D01*
X005797Y009971D01*
X005791Y010023D01*
X005789Y010075D01*
X005798Y010075D01*
X005800Y010019D01*
X005807Y009964D01*
X005817Y009909D01*
X005831Y009855D01*
X005849Y009802D01*
X005871Y009751D01*
X005896Y009701D01*
X005925Y009653D01*
X005957Y009608D01*
X005992Y009565D01*
X006030Y009524D01*
X006071Y009486D01*
X006077Y009493D01*
X006036Y009530D01*
X005999Y009571D01*
X005964Y009613D01*
X005932Y009658D01*
X005904Y009706D01*
X005879Y009755D01*
X005857Y009806D01*
X005840Y009858D01*
X005826Y009911D01*
X005816Y009965D01*
X005809Y010020D01*
X005807Y010075D01*
X005816Y010075D01*
X005818Y010021D01*
X005824Y009967D01*
X005834Y009913D01*
X005848Y009860D01*
X005866Y009809D01*
X005887Y009759D01*
X005912Y009710D01*
X005940Y009663D01*
X005971Y009619D01*
X006005Y009577D01*
X006043Y009537D01*
X006083Y009500D01*
X007124Y009435D02*
X007067Y009504D01*
X007067Y009503D02*
X007107Y009540D01*
X007145Y009579D01*
X007179Y009621D01*
X007211Y009665D01*
X007239Y009711D01*
X007264Y009760D01*
X007285Y009810D01*
X007303Y009861D01*
X007316Y009914D01*
X007326Y009967D01*
X007333Y010021D01*
X007335Y010075D01*
X007424Y010076D01*
X007425Y010075D01*
X007423Y010019D01*
X007417Y009963D01*
X007407Y009908D01*
X007394Y009853D01*
X007377Y009800D01*
X007357Y009747D01*
X007333Y009696D01*
X007306Y009647D01*
X007275Y009600D01*
X007242Y009555D01*
X007206Y009512D01*
X007167Y009472D01*
X007125Y009434D01*
X007119Y009441D01*
X007160Y009478D01*
X007199Y009518D01*
X007235Y009560D01*
X007268Y009605D01*
X007298Y009652D01*
X007325Y009700D01*
X007348Y009751D01*
X007369Y009803D01*
X007385Y009856D01*
X007398Y009910D01*
X007408Y009964D01*
X007414Y010019D01*
X007416Y010075D01*
X007407Y010075D01*
X007405Y010020D01*
X007399Y009965D01*
X007390Y009911D01*
X007377Y009858D01*
X007360Y009806D01*
X007340Y009754D01*
X007317Y009705D01*
X007290Y009656D01*
X007261Y009610D01*
X007228Y009566D01*
X007192Y009524D01*
X007154Y009485D01*
X007113Y009448D01*
X007108Y009455D01*
X007148Y009491D01*
X007186Y009530D01*
X007221Y009572D01*
X007253Y009615D01*
X007283Y009661D01*
X007309Y009709D01*
X007332Y009758D01*
X007352Y009808D01*
X007368Y009860D01*
X007381Y009913D01*
X007390Y009967D01*
X007396Y010021D01*
X007398Y010075D01*
X007389Y010075D01*
X007387Y010021D01*
X007381Y009968D01*
X007372Y009915D01*
X007359Y009863D01*
X007343Y009811D01*
X007324Y009761D01*
X007301Y009713D01*
X007275Y009666D01*
X007246Y009620D01*
X007214Y009577D01*
X007179Y009536D01*
X007142Y009498D01*
X007102Y009462D01*
X007096Y009469D01*
X007135Y009504D01*
X007172Y009542D01*
X007207Y009583D01*
X007238Y009626D01*
X007267Y009670D01*
X007293Y009717D01*
X007315Y009765D01*
X007335Y009814D01*
X007351Y009865D01*
X007363Y009917D01*
X007372Y009969D01*
X007378Y010022D01*
X007380Y010075D01*
X007371Y010075D01*
X007369Y010023D01*
X007363Y009970D01*
X007354Y009919D01*
X007342Y009868D01*
X007326Y009817D01*
X007307Y009768D01*
X007285Y009721D01*
X007259Y009675D01*
X007231Y009631D01*
X007200Y009589D01*
X007166Y009548D01*
X007129Y009511D01*
X007090Y009476D01*
X007084Y009482D01*
X007123Y009517D01*
X007159Y009555D01*
X007193Y009594D01*
X007224Y009636D01*
X007252Y009680D01*
X007277Y009725D01*
X007299Y009772D01*
X007318Y009820D01*
X007333Y009870D01*
X007346Y009920D01*
X007354Y009972D01*
X007360Y010023D01*
X007362Y010075D01*
X007353Y010075D01*
X007351Y010024D01*
X007346Y009973D01*
X007337Y009922D01*
X007325Y009872D01*
X007309Y009823D01*
X007291Y009776D01*
X007269Y009729D01*
X007244Y009684D01*
X007216Y009641D01*
X007186Y009600D01*
X007153Y009561D01*
X007117Y009524D01*
X007079Y009489D01*
X007073Y009496D01*
X007114Y009533D01*
X007152Y009573D01*
X007186Y009615D01*
X007218Y009660D01*
X007247Y009707D01*
X007272Y009756D01*
X007293Y009807D01*
X007311Y009858D01*
X007325Y009912D01*
X007335Y009966D01*
X007342Y010020D01*
X007344Y010075D01*
X009324Y010085D02*
X009234Y010085D01*
X009235Y010085D02*
X009233Y010139D01*
X009227Y010192D01*
X009217Y010245D01*
X009203Y010297D01*
X009186Y010348D01*
X009165Y010397D01*
X009141Y010445D01*
X009113Y010491D01*
X009082Y010535D01*
X009048Y010577D01*
X009012Y010616D01*
X008972Y010653D01*
X008930Y010686D01*
X008886Y010717D01*
X008840Y010744D01*
X008882Y010823D01*
X008931Y010795D01*
X008977Y010763D01*
X009022Y010728D01*
X009064Y010691D01*
X009104Y010650D01*
X009140Y010607D01*
X009174Y010562D01*
X009205Y010515D01*
X009232Y010465D01*
X009256Y010414D01*
X009277Y010362D01*
X009294Y010308D01*
X009307Y010253D01*
X009317Y010198D01*
X009323Y010141D01*
X009325Y010085D01*
X009316Y010085D01*
X009314Y010141D01*
X009308Y010196D01*
X009298Y010251D01*
X009285Y010306D01*
X009268Y010359D01*
X009248Y010411D01*
X009224Y010461D01*
X009197Y010510D01*
X009167Y010557D01*
X009133Y010602D01*
X009097Y010644D01*
X009058Y010684D01*
X009016Y010721D01*
X008972Y010756D01*
X008926Y010787D01*
X008878Y010815D01*
X008874Y010807D01*
X008921Y010779D01*
X008967Y010748D01*
X009010Y010714D01*
X009052Y010678D01*
X009090Y010638D01*
X009126Y010596D01*
X009159Y010552D01*
X009189Y010506D01*
X009216Y010457D01*
X009239Y010407D01*
X009260Y010356D01*
X009276Y010303D01*
X009289Y010250D01*
X009299Y010195D01*
X009305Y010140D01*
X009307Y010085D01*
X009298Y010085D01*
X009296Y010140D01*
X009290Y010194D01*
X009281Y010248D01*
X009268Y010301D01*
X009251Y010353D01*
X009231Y010404D01*
X009208Y010453D01*
X009181Y010501D01*
X009152Y010547D01*
X009119Y010591D01*
X009084Y010632D01*
X009045Y010671D01*
X009005Y010708D01*
X008962Y010741D01*
X008916Y010772D01*
X008869Y010799D01*
X008865Y010791D01*
X008912Y010764D01*
X008956Y010734D01*
X008999Y010701D01*
X009039Y010665D01*
X009077Y010626D01*
X009112Y010585D01*
X009144Y010542D01*
X009174Y010496D01*
X009200Y010449D01*
X009223Y010400D01*
X009243Y010350D01*
X009259Y010298D01*
X009272Y010246D01*
X009281Y010193D01*
X009287Y010139D01*
X009289Y010085D01*
X009280Y010085D01*
X009278Y010138D01*
X009272Y010191D01*
X009263Y010244D01*
X009250Y010296D01*
X009234Y010347D01*
X009215Y010397D01*
X009192Y010445D01*
X009166Y010492D01*
X009137Y010536D01*
X009105Y010579D01*
X009070Y010620D01*
X009033Y010658D01*
X008993Y010694D01*
X008951Y010727D01*
X008907Y010757D01*
X008861Y010784D01*
X008857Y010776D01*
X008902Y010749D01*
X008946Y010719D01*
X008987Y010687D01*
X009027Y010652D01*
X009064Y010614D01*
X009098Y010574D01*
X009130Y010531D01*
X009158Y010487D01*
X009184Y010441D01*
X009206Y010393D01*
X009226Y010344D01*
X009242Y010294D01*
X009254Y010242D01*
X009263Y010190D01*
X009269Y010138D01*
X009271Y010085D01*
X009262Y010085D01*
X009260Y010141D01*
X009253Y010196D01*
X009243Y010251D01*
X009229Y010305D01*
X009211Y010357D01*
X009190Y010409D01*
X009164Y010458D01*
X009136Y010506D01*
X009104Y010552D01*
X009069Y010595D01*
X009031Y010635D01*
X008990Y010673D01*
X008946Y010708D01*
X008900Y010739D01*
X008852Y010768D01*
X008848Y010760D01*
X008896Y010732D01*
X008941Y010701D01*
X008984Y010666D01*
X009024Y010629D01*
X009062Y010589D01*
X009097Y010546D01*
X009128Y010501D01*
X009157Y010454D01*
X009181Y010405D01*
X009203Y010354D01*
X009220Y010302D01*
X009234Y010249D01*
X009244Y010195D01*
X009251Y010140D01*
X009253Y010085D01*
X009244Y010085D01*
X009242Y010139D01*
X009236Y010193D01*
X009226Y010247D01*
X009212Y010299D01*
X009194Y010351D01*
X009173Y010401D01*
X009149Y010450D01*
X009121Y010496D01*
X009089Y010541D01*
X009055Y010583D01*
X009018Y010622D01*
X008978Y010659D01*
X008936Y010693D01*
X008891Y010724D01*
X008844Y010752D01*
X008057Y010811D02*
X008102Y010733D01*
X008101Y010733D02*
X008057Y010705D01*
X008015Y010674D01*
X007975Y010641D01*
X007937Y010605D01*
X007902Y010566D01*
X007870Y010525D01*
X007840Y010481D01*
X007814Y010436D01*
X007791Y010389D01*
X007771Y010341D01*
X007755Y010291D01*
X007742Y010241D01*
X007733Y010189D01*
X007727Y010137D01*
X007725Y010085D01*
X007636Y010084D01*
X007635Y010085D01*
X007637Y010140D01*
X007643Y010194D01*
X007652Y010249D01*
X007665Y010302D01*
X007681Y010354D01*
X007700Y010406D01*
X007723Y010456D01*
X007749Y010504D01*
X007778Y010551D01*
X007810Y010595D01*
X007845Y010638D01*
X007883Y010678D01*
X007923Y010715D01*
X007965Y010750D01*
X008010Y010782D01*
X008056Y010811D01*
X008061Y010803D01*
X008015Y010775D01*
X007971Y010743D01*
X007929Y010708D01*
X007889Y010671D01*
X007852Y010632D01*
X007817Y010590D01*
X007786Y010546D01*
X007757Y010500D01*
X007731Y010452D01*
X007709Y010402D01*
X007689Y010352D01*
X007673Y010300D01*
X007661Y010247D01*
X007652Y010193D01*
X007646Y010139D01*
X007644Y010085D01*
X007653Y010085D01*
X007655Y010139D01*
X007661Y010192D01*
X007670Y010245D01*
X007682Y010297D01*
X007698Y010349D01*
X007717Y010399D01*
X007739Y010448D01*
X007765Y010495D01*
X007793Y010541D01*
X007825Y010584D01*
X007859Y010626D01*
X007895Y010665D01*
X007935Y010702D01*
X007976Y010736D01*
X008020Y010767D01*
X008065Y010796D01*
X008070Y010788D01*
X008022Y010758D01*
X007976Y010724D01*
X007933Y010688D01*
X007892Y010648D01*
X007854Y010606D01*
X007819Y010562D01*
X007787Y010515D01*
X007759Y010466D01*
X007734Y010415D01*
X007712Y010362D01*
X007695Y010309D01*
X007681Y010254D01*
X007671Y010198D01*
X007664Y010142D01*
X007662Y010085D01*
X007671Y010085D01*
X007673Y010141D01*
X007679Y010197D01*
X007689Y010252D01*
X007703Y010306D01*
X007721Y010359D01*
X007742Y010411D01*
X007767Y010462D01*
X007795Y010510D01*
X007826Y010556D01*
X007861Y010601D01*
X007898Y010642D01*
X007939Y010681D01*
X007981Y010717D01*
X008027Y010750D01*
X008074Y010780D01*
X008079Y010772D01*
X008032Y010743D01*
X007987Y010710D01*
X007945Y010674D01*
X007905Y010636D01*
X007868Y010595D01*
X007833Y010551D01*
X007802Y010505D01*
X007775Y010457D01*
X007750Y010408D01*
X007729Y010356D01*
X007712Y010304D01*
X007698Y010250D01*
X007688Y010195D01*
X007682Y010140D01*
X007680Y010085D01*
X007689Y010085D01*
X007691Y010140D01*
X007697Y010194D01*
X007707Y010248D01*
X007721Y010301D01*
X007738Y010353D01*
X007758Y010404D01*
X007783Y010453D01*
X007810Y010500D01*
X007841Y010546D01*
X007874Y010589D01*
X007911Y010630D01*
X007951Y010668D01*
X007993Y010703D01*
X008037Y010735D01*
X008083Y010764D01*
X008088Y010756D01*
X008042Y010728D01*
X007998Y010696D01*
X007957Y010661D01*
X007918Y010623D01*
X007881Y010583D01*
X007848Y010541D01*
X007818Y010496D01*
X007790Y010449D01*
X007767Y010400D01*
X007746Y010350D01*
X007729Y010299D01*
X007716Y010246D01*
X007706Y010193D01*
X007700Y010139D01*
X007698Y010085D01*
X007707Y010085D01*
X007709Y010138D01*
X007715Y010192D01*
X007725Y010244D01*
X007738Y010296D01*
X007755Y010347D01*
X007775Y010397D01*
X007798Y010445D01*
X007825Y010491D01*
X007855Y010535D01*
X007888Y010577D01*
X007924Y010617D01*
X007963Y010654D01*
X008004Y010689D01*
X008047Y010720D01*
X008092Y010749D01*
X008097Y010741D01*
X008052Y010713D01*
X008009Y010682D01*
X007969Y010648D01*
X007931Y010611D01*
X007895Y010572D01*
X007863Y010530D01*
X007833Y010486D01*
X007806Y010440D01*
X007783Y010393D01*
X007763Y010344D01*
X007746Y010294D01*
X007733Y010242D01*
X007724Y010190D01*
X007718Y010138D01*
X007716Y010085D01*
X007636Y010076D02*
X007726Y010076D01*
X007725Y010075D02*
X007727Y010021D01*
X007733Y009968D01*
X007743Y009915D01*
X007757Y009863D01*
X007774Y009812D01*
X007795Y009762D01*
X007819Y009714D01*
X007847Y009668D01*
X007878Y009624D01*
X007912Y009583D01*
X007949Y009543D01*
X007988Y009507D01*
X007931Y009439D01*
X007930Y009438D01*
X007889Y009476D01*
X007851Y009516D01*
X007815Y009559D01*
X007782Y009604D01*
X007752Y009651D01*
X007726Y009699D01*
X007702Y009750D01*
X007682Y009802D01*
X007666Y009855D01*
X007652Y009909D01*
X007643Y009964D01*
X007637Y010019D01*
X007635Y010075D01*
X007644Y010075D01*
X007646Y010020D01*
X007652Y009965D01*
X007661Y009911D01*
X007674Y009857D01*
X007691Y009805D01*
X007710Y009753D01*
X007734Y009703D01*
X007760Y009655D01*
X007790Y009609D01*
X007822Y009564D01*
X007857Y009522D01*
X007896Y009482D01*
X007936Y009445D01*
X007942Y009452D01*
X007902Y009489D01*
X007864Y009528D01*
X007829Y009570D01*
X007797Y009614D01*
X007768Y009660D01*
X007742Y009708D01*
X007719Y009757D01*
X007699Y009808D01*
X007683Y009860D01*
X007670Y009913D01*
X007661Y009966D01*
X007655Y010021D01*
X007653Y010075D01*
X007662Y010075D01*
X007664Y010021D01*
X007670Y009968D01*
X007679Y009915D01*
X007692Y009862D01*
X007708Y009811D01*
X007727Y009760D01*
X007750Y009712D01*
X007775Y009664D01*
X007804Y009619D01*
X007836Y009575D01*
X007871Y009534D01*
X007908Y009495D01*
X007948Y009459D01*
X007954Y009466D01*
X007914Y009502D01*
X007877Y009540D01*
X007843Y009581D01*
X007812Y009624D01*
X007783Y009669D01*
X007758Y009716D01*
X007735Y009764D01*
X007716Y009814D01*
X007700Y009865D01*
X007688Y009916D01*
X007679Y009969D01*
X007673Y010022D01*
X007671Y010075D01*
X007680Y010075D01*
X007682Y010022D01*
X007688Y009970D01*
X007697Y009918D01*
X007709Y009867D01*
X007725Y009817D01*
X007744Y009767D01*
X007766Y009720D01*
X007791Y009673D01*
X007819Y009629D01*
X007850Y009587D01*
X007884Y009546D01*
X007921Y009508D01*
X007959Y009473D01*
X007965Y009479D01*
X007927Y009515D01*
X007891Y009552D01*
X007857Y009592D01*
X007827Y009634D01*
X007799Y009678D01*
X007774Y009724D01*
X007752Y009771D01*
X007733Y009820D01*
X007718Y009869D01*
X007705Y009920D01*
X007697Y009971D01*
X007691Y010023D01*
X007689Y010075D01*
X007698Y010075D01*
X007700Y010019D01*
X007707Y009964D01*
X007717Y009909D01*
X007731Y009855D01*
X007749Y009802D01*
X007771Y009751D01*
X007796Y009701D01*
X007825Y009653D01*
X007857Y009608D01*
X007892Y009565D01*
X007930Y009524D01*
X007971Y009486D01*
X007977Y009493D01*
X007936Y009530D01*
X007899Y009571D01*
X007864Y009613D01*
X007832Y009658D01*
X007804Y009706D01*
X007779Y009755D01*
X007757Y009806D01*
X007740Y009858D01*
X007726Y009911D01*
X007716Y009965D01*
X007709Y010020D01*
X007707Y010075D01*
X007716Y010075D01*
X007718Y010021D01*
X007724Y009967D01*
X007734Y009913D01*
X007748Y009860D01*
X007766Y009809D01*
X007787Y009759D01*
X007812Y009710D01*
X007840Y009663D01*
X007871Y009619D01*
X007905Y009577D01*
X007943Y009537D01*
X007983Y009500D01*
X009024Y009435D02*
X008967Y009504D01*
X008967Y009503D02*
X009007Y009540D01*
X009045Y009579D01*
X009079Y009621D01*
X009111Y009665D01*
X009139Y009711D01*
X009164Y009760D01*
X009185Y009810D01*
X009203Y009861D01*
X009216Y009914D01*
X009226Y009967D01*
X009233Y010021D01*
X009235Y010075D01*
X009324Y010076D01*
X009325Y010075D01*
X009323Y010019D01*
X009317Y009963D01*
X009307Y009908D01*
X009294Y009853D01*
X009277Y009800D01*
X009257Y009747D01*
X009233Y009696D01*
X009206Y009647D01*
X009175Y009600D01*
X009142Y009555D01*
X009106Y009512D01*
X009067Y009472D01*
X009025Y009434D01*
X009019Y009441D01*
X009060Y009478D01*
X009099Y009518D01*
X009135Y009560D01*
X009168Y009605D01*
X009198Y009652D01*
X009225Y009700D01*
X009248Y009751D01*
X009269Y009803D01*
X009285Y009856D01*
X009298Y009910D01*
X009308Y009964D01*
X009314Y010019D01*
X009316Y010075D01*
X009307Y010075D01*
X009305Y010020D01*
X009299Y009965D01*
X009290Y009911D01*
X009277Y009858D01*
X009260Y009806D01*
X009240Y009754D01*
X009217Y009705D01*
X009190Y009656D01*
X009161Y009610D01*
X009128Y009566D01*
X009092Y009524D01*
X009054Y009485D01*
X009013Y009448D01*
X009008Y009455D01*
X009048Y009491D01*
X009086Y009530D01*
X009121Y009572D01*
X009153Y009615D01*
X009183Y009661D01*
X009209Y009709D01*
X009232Y009758D01*
X009252Y009808D01*
X009268Y009860D01*
X009281Y009913D01*
X009290Y009967D01*
X009296Y010021D01*
X009298Y010075D01*
X009289Y010075D01*
X009287Y010021D01*
X009281Y009968D01*
X009272Y009915D01*
X009259Y009863D01*
X009243Y009811D01*
X009224Y009761D01*
X009201Y009713D01*
X009175Y009666D01*
X009146Y009620D01*
X009114Y009577D01*
X009079Y009536D01*
X009042Y009498D01*
X009002Y009462D01*
X008996Y009469D01*
X009035Y009504D01*
X009072Y009542D01*
X009107Y009583D01*
X009138Y009626D01*
X009167Y009670D01*
X009193Y009717D01*
X009215Y009765D01*
X009235Y009814D01*
X009251Y009865D01*
X009263Y009917D01*
X009272Y009969D01*
X009278Y010022D01*
X009280Y010075D01*
X009271Y010075D01*
X009269Y010023D01*
X009263Y009970D01*
X009254Y009919D01*
X009242Y009868D01*
X009226Y009817D01*
X009207Y009768D01*
X009185Y009721D01*
X009159Y009675D01*
X009131Y009631D01*
X009100Y009589D01*
X009066Y009548D01*
X009029Y009511D01*
X008990Y009476D01*
X008984Y009482D01*
X009023Y009517D01*
X009059Y009555D01*
X009093Y009594D01*
X009124Y009636D01*
X009152Y009680D01*
X009177Y009725D01*
X009199Y009772D01*
X009218Y009820D01*
X009233Y009870D01*
X009246Y009920D01*
X009254Y009972D01*
X009260Y010023D01*
X009262Y010075D01*
X009253Y010075D01*
X009251Y010024D01*
X009246Y009973D01*
X009237Y009922D01*
X009225Y009872D01*
X009209Y009823D01*
X009191Y009776D01*
X009169Y009729D01*
X009144Y009684D01*
X009116Y009641D01*
X009086Y009600D01*
X009053Y009561D01*
X009017Y009524D01*
X008979Y009489D01*
X008973Y009496D01*
X009014Y009533D01*
X009052Y009573D01*
X009086Y009615D01*
X009118Y009660D01*
X009147Y009707D01*
X009172Y009756D01*
X009193Y009807D01*
X009211Y009858D01*
X009225Y009912D01*
X009235Y009966D01*
X009242Y010020D01*
X009244Y010075D01*
D68*
X009449Y007035D02*
X009404Y006978D01*
X009405Y006979D02*
X009355Y007015D01*
X009304Y007048D01*
X009251Y007078D01*
X009195Y007105D01*
X009139Y007128D01*
X009081Y007148D01*
X009022Y007165D01*
X008962Y007177D01*
X008902Y007187D01*
X008841Y007192D01*
X008780Y007194D01*
X008719Y007192D01*
X008658Y007187D01*
X008597Y007177D01*
X008537Y007165D01*
X008478Y007148D01*
X008421Y007128D01*
X008364Y007105D01*
X008309Y007078D01*
X008256Y007048D01*
X008204Y007015D01*
X008155Y006979D01*
X008108Y006939D01*
X008063Y006897D01*
X008021Y006853D01*
X007982Y006806D01*
X007946Y006757D01*
X007913Y006705D01*
X007883Y006652D01*
X007856Y006597D01*
X007832Y006541D01*
X007812Y006483D01*
X007744Y006504D01*
X007743Y006504D01*
X007765Y006566D01*
X007790Y006626D01*
X007819Y006685D01*
X007851Y006742D01*
X007887Y006797D01*
X007926Y006850D01*
X007968Y006901D01*
X008012Y006948D01*
X008060Y006993D01*
X008111Y007035D01*
X008163Y007074D01*
X008218Y007110D01*
X008276Y007142D01*
X008334Y007170D01*
X008395Y007195D01*
X008457Y007217D01*
X008520Y007234D01*
X008584Y007248D01*
X008649Y007258D01*
X008714Y007264D01*
X008780Y007266D01*
X008845Y007264D01*
X008911Y007258D01*
X008975Y007248D01*
X009040Y007235D01*
X009103Y007217D01*
X009165Y007196D01*
X009225Y007171D01*
X009284Y007142D01*
X009341Y007110D01*
X009396Y007074D01*
X009449Y007035D01*
X009445Y007030D01*
X009392Y007068D01*
X009338Y007104D01*
X009281Y007136D01*
X009222Y007164D01*
X009162Y007189D01*
X009101Y007210D01*
X009038Y007228D01*
X008974Y007241D01*
X008910Y007251D01*
X008845Y007257D01*
X008780Y007259D01*
X008715Y007257D01*
X008650Y007251D01*
X008585Y007241D01*
X008522Y007228D01*
X008459Y007210D01*
X008398Y007189D01*
X008337Y007164D01*
X008279Y007136D01*
X008222Y007104D01*
X008167Y007068D01*
X008115Y007030D01*
X008065Y006988D01*
X008017Y006943D01*
X007973Y006896D01*
X007931Y006846D01*
X007892Y006794D01*
X007857Y006739D01*
X007825Y006682D01*
X007796Y006624D01*
X007771Y006563D01*
X007750Y006502D01*
X007757Y006500D01*
X007778Y006561D01*
X007803Y006621D01*
X007831Y006679D01*
X007863Y006735D01*
X007898Y006790D01*
X007937Y006842D01*
X007978Y006891D01*
X008022Y006938D01*
X008069Y006983D01*
X008119Y007024D01*
X008171Y007062D01*
X008226Y007098D01*
X008282Y007129D01*
X008340Y007158D01*
X008400Y007182D01*
X008461Y007203D01*
X008523Y007221D01*
X008587Y007234D01*
X008651Y007244D01*
X008715Y007250D01*
X008780Y007252D01*
X008844Y007250D01*
X008909Y007244D01*
X008973Y007235D01*
X009036Y007221D01*
X009098Y007204D01*
X009160Y007183D01*
X009219Y007158D01*
X009278Y007130D01*
X009334Y007098D01*
X009388Y007063D01*
X009440Y007024D01*
X009436Y007019D01*
X009384Y007057D01*
X009330Y007092D01*
X009274Y007123D01*
X009217Y007151D01*
X009157Y007176D01*
X009096Y007197D01*
X009034Y007214D01*
X008972Y007228D01*
X008908Y007237D01*
X008844Y007243D01*
X008780Y007245D01*
X008716Y007243D01*
X008652Y007237D01*
X008588Y007228D01*
X008525Y007214D01*
X008463Y007197D01*
X008402Y007176D01*
X008343Y007151D01*
X008285Y007123D01*
X008229Y007092D01*
X008175Y007057D01*
X008124Y007019D01*
X008074Y006977D01*
X008027Y006933D01*
X007983Y006887D01*
X007942Y006837D01*
X007904Y006786D01*
X007869Y006732D01*
X007837Y006676D01*
X007809Y006618D01*
X007785Y006559D01*
X007764Y006498D01*
X007770Y006496D01*
X007791Y006556D01*
X007816Y006615D01*
X007844Y006672D01*
X007875Y006728D01*
X007910Y006782D01*
X007948Y006833D01*
X007988Y006882D01*
X008032Y006929D01*
X008079Y006972D01*
X008128Y007013D01*
X008179Y007051D01*
X008233Y007086D01*
X008289Y007117D01*
X008346Y007145D01*
X008405Y007169D01*
X008465Y007190D01*
X008527Y007207D01*
X008589Y007221D01*
X008652Y007230D01*
X008716Y007236D01*
X008780Y007238D01*
X008844Y007236D01*
X008907Y007230D01*
X008970Y007221D01*
X009033Y007207D01*
X009094Y007190D01*
X009155Y007169D01*
X009214Y007145D01*
X009271Y007117D01*
X009327Y007086D01*
X009380Y007051D01*
X009432Y007013D01*
X009427Y007008D01*
X009376Y007045D01*
X009323Y007080D01*
X009268Y007111D01*
X009211Y007139D01*
X009152Y007163D01*
X009092Y007184D01*
X009031Y007201D01*
X008969Y007214D01*
X008906Y007223D01*
X008843Y007229D01*
X008780Y007231D01*
X008716Y007229D01*
X008653Y007223D01*
X008591Y007214D01*
X008529Y007200D01*
X008467Y007183D01*
X008407Y007163D01*
X008349Y007138D01*
X008292Y007111D01*
X008237Y007080D01*
X008183Y007045D01*
X008132Y007008D01*
X008083Y006967D01*
X008037Y006924D01*
X007994Y006877D01*
X007953Y006829D01*
X007915Y006778D01*
X007881Y006724D01*
X007850Y006669D01*
X007822Y006612D01*
X007798Y006554D01*
X007777Y006494D01*
X007784Y006492D01*
X007804Y006551D01*
X007828Y006609D01*
X007856Y006666D01*
X007887Y006721D01*
X007921Y006774D01*
X007959Y006824D01*
X007999Y006873D01*
X008042Y006919D01*
X008088Y006962D01*
X008137Y007002D01*
X008187Y007039D01*
X008240Y007074D01*
X008295Y007105D01*
X008352Y007132D01*
X008410Y007156D01*
X008469Y007177D01*
X008530Y007194D01*
X008592Y007207D01*
X008654Y007216D01*
X008717Y007222D01*
X008780Y007224D01*
X008843Y007222D01*
X008905Y007216D01*
X008968Y007207D01*
X009029Y007194D01*
X009090Y007177D01*
X009150Y007156D01*
X009208Y007132D01*
X009265Y007105D01*
X009319Y007074D01*
X009372Y007040D01*
X009423Y007002D01*
X009419Y006997D01*
X009368Y007034D01*
X009316Y007068D01*
X009261Y007099D01*
X009205Y007126D01*
X009147Y007150D01*
X009088Y007170D01*
X009028Y007187D01*
X008967Y007200D01*
X008905Y007209D01*
X008842Y007215D01*
X008780Y007217D01*
X008717Y007215D01*
X008655Y007209D01*
X008593Y007200D01*
X008532Y007187D01*
X008472Y007170D01*
X008412Y007150D01*
X008355Y007126D01*
X008298Y007098D01*
X008244Y007068D01*
X008191Y007034D01*
X008141Y006997D01*
X008093Y006957D01*
X008047Y006914D01*
X008004Y006868D01*
X007964Y006820D01*
X007927Y006770D01*
X007893Y006717D01*
X007862Y006663D01*
X007835Y006606D01*
X007811Y006549D01*
X007790Y006490D01*
X007797Y006487D01*
X007817Y006546D01*
X007841Y006604D01*
X007868Y006659D01*
X007899Y006714D01*
X007933Y006766D01*
X007970Y006816D01*
X008009Y006864D01*
X008052Y006909D01*
X008097Y006951D01*
X008145Y006991D01*
X008195Y007028D01*
X008247Y007062D01*
X008302Y007092D01*
X008357Y007119D01*
X008415Y007143D01*
X008474Y007163D01*
X008534Y007180D01*
X008594Y007193D01*
X008656Y007202D01*
X008718Y007208D01*
X008780Y007210D01*
X008842Y007208D01*
X008904Y007203D01*
X008965Y007193D01*
X009026Y007180D01*
X009086Y007164D01*
X009145Y007143D01*
X009202Y007120D01*
X009258Y007092D01*
X009312Y007062D01*
X009364Y007028D01*
X009414Y006991D01*
X009410Y006986D01*
X009360Y007022D01*
X009309Y007056D01*
X009255Y007086D01*
X009199Y007113D01*
X009142Y007137D01*
X009084Y007157D01*
X009024Y007173D01*
X008964Y007186D01*
X008903Y007196D01*
X008841Y007201D01*
X008780Y007203D01*
X008718Y007201D01*
X008657Y007196D01*
X008596Y007186D01*
X008535Y007173D01*
X008476Y007157D01*
X008417Y007137D01*
X008360Y007113D01*
X008305Y007086D01*
X008251Y007056D01*
X008199Y007022D01*
X008149Y006986D01*
X008102Y006946D01*
X008057Y006904D01*
X008015Y006859D01*
X007975Y006811D01*
X007939Y006762D01*
X007905Y006710D01*
X007875Y006656D01*
X007848Y006601D01*
X007824Y006544D01*
X007804Y006485D01*
X007810Y006483D01*
X007830Y006541D01*
X007854Y006598D01*
X007881Y006653D01*
X007911Y006706D01*
X007944Y006758D01*
X007981Y006807D01*
X008020Y006854D01*
X008062Y006899D01*
X008107Y006941D01*
X008154Y006980D01*
X008203Y007016D01*
X008255Y007050D01*
X008308Y007080D01*
X008363Y007107D01*
X008420Y007130D01*
X008478Y007150D01*
X008537Y007166D01*
X008597Y007179D01*
X008657Y007189D01*
X008718Y007194D01*
X008780Y007196D01*
X008841Y007194D01*
X008902Y007189D01*
X008963Y007179D01*
X009023Y007167D01*
X009082Y007150D01*
X009140Y007130D01*
X009196Y007107D01*
X009251Y007080D01*
X009305Y007050D01*
X009356Y007017D01*
X009406Y006980D01*
X007744Y005857D02*
X007813Y005878D01*
X007812Y005877D02*
X007832Y005819D01*
X007856Y005763D01*
X007883Y005708D01*
X007913Y005655D01*
X007946Y005603D01*
X007982Y005554D01*
X008021Y005507D01*
X008063Y005463D01*
X008108Y005421D01*
X008155Y005382D01*
X008204Y005345D01*
X008256Y005312D01*
X008309Y005282D01*
X008364Y005255D01*
X008421Y005232D01*
X008478Y005212D01*
X008537Y005195D01*
X008597Y005183D01*
X008658Y005173D01*
X008719Y005168D01*
X008780Y005166D01*
X008841Y005168D01*
X008902Y005173D01*
X008962Y005183D01*
X009022Y005195D01*
X009081Y005212D01*
X009139Y005232D01*
X009195Y005255D01*
X009251Y005282D01*
X009304Y005312D01*
X009355Y005345D01*
X009405Y005381D01*
X009449Y005325D01*
X009396Y005286D01*
X009341Y005250D01*
X009284Y005218D01*
X009225Y005189D01*
X009165Y005164D01*
X009103Y005143D01*
X009039Y005125D01*
X008975Y005112D01*
X008911Y005102D01*
X008845Y005096D01*
X008780Y005094D01*
X008714Y005096D01*
X008649Y005102D01*
X008584Y005112D01*
X008520Y005126D01*
X008457Y005143D01*
X008395Y005165D01*
X008334Y005190D01*
X008276Y005218D01*
X008218Y005250D01*
X008163Y005286D01*
X008111Y005325D01*
X008060Y005367D01*
X008012Y005412D01*
X007967Y005459D01*
X007926Y005510D01*
X007887Y005563D01*
X007851Y005618D01*
X007819Y005675D01*
X007790Y005734D01*
X007765Y005794D01*
X007743Y005856D01*
X007750Y005858D01*
X007771Y005797D01*
X007796Y005736D01*
X007825Y005678D01*
X007857Y005621D01*
X007892Y005566D01*
X007931Y005514D01*
X007973Y005464D01*
X008017Y005417D01*
X008065Y005372D01*
X008115Y005330D01*
X008167Y005292D01*
X008222Y005256D01*
X008279Y005224D01*
X008337Y005196D01*
X008398Y005171D01*
X008459Y005150D01*
X008522Y005132D01*
X008585Y005119D01*
X008650Y005109D01*
X008715Y005103D01*
X008780Y005101D01*
X008845Y005103D01*
X008910Y005109D01*
X008974Y005119D01*
X009038Y005132D01*
X009101Y005150D01*
X009162Y005171D01*
X009222Y005196D01*
X009281Y005224D01*
X009338Y005256D01*
X009392Y005292D01*
X009445Y005330D01*
X009440Y005336D01*
X009388Y005297D01*
X009334Y005262D01*
X009278Y005230D01*
X009219Y005202D01*
X009160Y005177D01*
X009098Y005156D01*
X009036Y005139D01*
X008973Y005125D01*
X008909Y005116D01*
X008844Y005110D01*
X008780Y005108D01*
X008715Y005110D01*
X008651Y005116D01*
X008587Y005126D01*
X008523Y005139D01*
X008461Y005157D01*
X008400Y005178D01*
X008340Y005202D01*
X008282Y005231D01*
X008226Y005262D01*
X008171Y005298D01*
X008119Y005336D01*
X008069Y005377D01*
X008022Y005422D01*
X007978Y005469D01*
X007937Y005518D01*
X007898Y005570D01*
X007863Y005625D01*
X007831Y005681D01*
X007803Y005739D01*
X007778Y005799D01*
X007757Y005860D01*
X007764Y005862D01*
X007785Y005801D01*
X007809Y005742D01*
X007837Y005684D01*
X007869Y005628D01*
X007904Y005574D01*
X007942Y005523D01*
X007983Y005473D01*
X008027Y005427D01*
X008074Y005383D01*
X008124Y005341D01*
X008175Y005303D01*
X008229Y005268D01*
X008285Y005237D01*
X008343Y005209D01*
X008402Y005184D01*
X008463Y005163D01*
X008525Y005146D01*
X008588Y005132D01*
X008652Y005123D01*
X008716Y005117D01*
X008780Y005115D01*
X008844Y005117D01*
X008908Y005123D01*
X008972Y005132D01*
X009034Y005146D01*
X009096Y005163D01*
X009157Y005184D01*
X009217Y005209D01*
X009274Y005237D01*
X009330Y005268D01*
X009384Y005303D01*
X009436Y005341D01*
X009432Y005347D01*
X009380Y005309D01*
X009327Y005274D01*
X009271Y005243D01*
X009214Y005215D01*
X009155Y005191D01*
X009094Y005170D01*
X009033Y005153D01*
X008970Y005139D01*
X008907Y005130D01*
X008844Y005124D01*
X008780Y005122D01*
X008716Y005124D01*
X008652Y005130D01*
X008589Y005139D01*
X008527Y005153D01*
X008465Y005170D01*
X008405Y005191D01*
X008346Y005215D01*
X008289Y005243D01*
X008233Y005274D01*
X008179Y005309D01*
X008128Y005347D01*
X008079Y005388D01*
X008032Y005431D01*
X007988Y005478D01*
X007948Y005527D01*
X007910Y005578D01*
X007875Y005632D01*
X007844Y005688D01*
X007816Y005745D01*
X007791Y005804D01*
X007770Y005864D01*
X007777Y005866D01*
X007798Y005806D01*
X007822Y005748D01*
X007850Y005691D01*
X007881Y005636D01*
X007915Y005582D01*
X007953Y005531D01*
X007994Y005483D01*
X008037Y005436D01*
X008083Y005393D01*
X008132Y005352D01*
X008183Y005315D01*
X008237Y005280D01*
X008292Y005249D01*
X008349Y005222D01*
X008407Y005197D01*
X008467Y005177D01*
X008528Y005160D01*
X008591Y005146D01*
X008653Y005137D01*
X008716Y005131D01*
X008780Y005129D01*
X008843Y005131D01*
X008906Y005137D01*
X008969Y005146D01*
X009031Y005159D01*
X009092Y005176D01*
X009152Y005197D01*
X009211Y005221D01*
X009268Y005249D01*
X009323Y005280D01*
X009376Y005315D01*
X009427Y005352D01*
X009423Y005358D01*
X009372Y005320D01*
X009319Y005286D01*
X009265Y005255D01*
X009208Y005228D01*
X009150Y005204D01*
X009090Y005183D01*
X009029Y005166D01*
X008968Y005153D01*
X008905Y005144D01*
X008843Y005138D01*
X008780Y005136D01*
X008717Y005138D01*
X008654Y005144D01*
X008592Y005153D01*
X008530Y005166D01*
X008469Y005183D01*
X008410Y005204D01*
X008352Y005228D01*
X008295Y005255D01*
X008240Y005286D01*
X008187Y005321D01*
X008136Y005358D01*
X008088Y005398D01*
X008042Y005441D01*
X007999Y005487D01*
X007959Y005536D01*
X007921Y005586D01*
X007887Y005639D01*
X007856Y005694D01*
X007828Y005751D01*
X007804Y005809D01*
X007784Y005868D01*
X007790Y005870D01*
X007811Y005811D01*
X007835Y005754D01*
X007862Y005697D01*
X007893Y005643D01*
X007927Y005590D01*
X007964Y005540D01*
X008004Y005492D01*
X008047Y005446D01*
X008093Y005403D01*
X008141Y005363D01*
X008191Y005326D01*
X008244Y005292D01*
X008298Y005262D01*
X008355Y005234D01*
X008412Y005210D01*
X008472Y005190D01*
X008532Y005173D01*
X008593Y005160D01*
X008655Y005151D01*
X008717Y005145D01*
X008780Y005143D01*
X008842Y005145D01*
X008905Y005151D01*
X008966Y005160D01*
X009028Y005173D01*
X009088Y005190D01*
X009147Y005210D01*
X009205Y005234D01*
X009261Y005261D01*
X009316Y005292D01*
X009368Y005326D01*
X009419Y005363D01*
X009414Y005369D01*
X009364Y005332D01*
X009312Y005298D01*
X009258Y005268D01*
X009202Y005240D01*
X009145Y005217D01*
X009086Y005196D01*
X009026Y005180D01*
X008965Y005167D01*
X008904Y005157D01*
X008842Y005152D01*
X008780Y005150D01*
X008718Y005152D01*
X008656Y005158D01*
X008594Y005167D01*
X008534Y005180D01*
X008474Y005197D01*
X008415Y005217D01*
X008357Y005241D01*
X008302Y005268D01*
X008247Y005298D01*
X008195Y005332D01*
X008145Y005369D01*
X008097Y005409D01*
X008052Y005451D01*
X008009Y005496D01*
X007970Y005544D01*
X007933Y005594D01*
X007899Y005646D01*
X007868Y005701D01*
X007841Y005756D01*
X007817Y005814D01*
X007797Y005873D01*
X007804Y005875D01*
X007824Y005816D01*
X007848Y005759D01*
X007875Y005704D01*
X007905Y005650D01*
X007939Y005598D01*
X007975Y005549D01*
X008015Y005501D01*
X008057Y005456D01*
X008102Y005414D01*
X008149Y005374D01*
X008199Y005338D01*
X008251Y005304D01*
X008305Y005274D01*
X008360Y005247D01*
X008417Y005223D01*
X008476Y005203D01*
X008535Y005187D01*
X008596Y005174D01*
X008657Y005164D01*
X008718Y005159D01*
X008780Y005157D01*
X008841Y005159D01*
X008903Y005164D01*
X008964Y005174D01*
X009024Y005187D01*
X009084Y005203D01*
X009142Y005223D01*
X009199Y005247D01*
X009255Y005274D01*
X009309Y005304D01*
X009360Y005338D01*
X009410Y005374D01*
X009406Y005380D01*
X009356Y005343D01*
X009305Y005310D01*
X009251Y005280D01*
X009196Y005253D01*
X009140Y005230D01*
X009082Y005210D01*
X009023Y005193D01*
X008963Y005181D01*
X008902Y005171D01*
X008841Y005166D01*
X008780Y005164D01*
X008718Y005166D01*
X008657Y005171D01*
X008597Y005181D01*
X008537Y005194D01*
X008478Y005210D01*
X008420Y005230D01*
X008363Y005253D01*
X008308Y005280D01*
X008255Y005310D01*
X008203Y005344D01*
X008154Y005380D01*
X008107Y005419D01*
X008062Y005461D01*
X008020Y005506D01*
X007981Y005553D01*
X007944Y005602D01*
X007911Y005654D01*
X007881Y005707D01*
X007854Y005762D01*
X007830Y005819D01*
X007810Y005877D01*
M02*
