G75*
%MOIN*%
%OFA0B0*%
%FSLAX24Y24*%
%IPPOS*%
%LPD*%
%AMOC8*
5,1,8,0,0,1.08239X$1,22.5*
%
%ADD10C,0.0000*%
%ADD11R,0.0591X0.0157*%
%ADD12C,0.0650*%
%ADD13OC8,0.0520*%
%ADD14C,0.0740*%
%ADD15OC8,0.0630*%
%ADD16C,0.0630*%
%ADD17C,0.0600*%
%ADD18C,0.0660*%
%ADD19C,0.1300*%
%ADD20C,0.0160*%
%ADD21C,0.0356*%
%ADD22C,0.0317*%
D10*
X000280Y000280D02*
X000280Y016280D01*
X010080Y016280D01*
X010080Y000280D01*
X000280Y000280D01*
X000689Y001480D02*
X000691Y001528D01*
X000697Y001576D01*
X000707Y001623D01*
X000720Y001669D01*
X000738Y001714D01*
X000758Y001758D01*
X000783Y001800D01*
X000811Y001839D01*
X000841Y001876D01*
X000875Y001910D01*
X000912Y001942D01*
X000950Y001971D01*
X000991Y001996D01*
X001034Y002018D01*
X001079Y002036D01*
X001125Y002050D01*
X001172Y002061D01*
X001220Y002068D01*
X001268Y002071D01*
X001316Y002070D01*
X001364Y002065D01*
X001412Y002056D01*
X001458Y002044D01*
X001503Y002027D01*
X001547Y002007D01*
X001589Y001984D01*
X001629Y001957D01*
X001667Y001927D01*
X001702Y001894D01*
X001734Y001858D01*
X001764Y001820D01*
X001790Y001779D01*
X001812Y001736D01*
X001832Y001692D01*
X001847Y001647D01*
X001859Y001600D01*
X001867Y001552D01*
X001871Y001504D01*
X001871Y001456D01*
X001867Y001408D01*
X001859Y001360D01*
X001847Y001313D01*
X001832Y001268D01*
X001812Y001224D01*
X001790Y001181D01*
X001764Y001140D01*
X001734Y001102D01*
X001702Y001066D01*
X001667Y001033D01*
X001629Y001003D01*
X001589Y000976D01*
X001547Y000953D01*
X001503Y000933D01*
X001458Y000916D01*
X001412Y000904D01*
X001364Y000895D01*
X001316Y000890D01*
X001268Y000889D01*
X001220Y000892D01*
X001172Y000899D01*
X001125Y000910D01*
X001079Y000924D01*
X001034Y000942D01*
X000991Y000964D01*
X000950Y000989D01*
X000912Y001018D01*
X000875Y001050D01*
X000841Y001084D01*
X000811Y001121D01*
X000783Y001160D01*
X000758Y001202D01*
X000738Y001246D01*
X000720Y001291D01*
X000707Y001337D01*
X000697Y001384D01*
X000691Y001432D01*
X000689Y001480D01*
X000689Y013880D02*
X000691Y013928D01*
X000697Y013976D01*
X000707Y014023D01*
X000720Y014069D01*
X000738Y014114D01*
X000758Y014158D01*
X000783Y014200D01*
X000811Y014239D01*
X000841Y014276D01*
X000875Y014310D01*
X000912Y014342D01*
X000950Y014371D01*
X000991Y014396D01*
X001034Y014418D01*
X001079Y014436D01*
X001125Y014450D01*
X001172Y014461D01*
X001220Y014468D01*
X001268Y014471D01*
X001316Y014470D01*
X001364Y014465D01*
X001412Y014456D01*
X001458Y014444D01*
X001503Y014427D01*
X001547Y014407D01*
X001589Y014384D01*
X001629Y014357D01*
X001667Y014327D01*
X001702Y014294D01*
X001734Y014258D01*
X001764Y014220D01*
X001790Y014179D01*
X001812Y014136D01*
X001832Y014092D01*
X001847Y014047D01*
X001859Y014000D01*
X001867Y013952D01*
X001871Y013904D01*
X001871Y013856D01*
X001867Y013808D01*
X001859Y013760D01*
X001847Y013713D01*
X001832Y013668D01*
X001812Y013624D01*
X001790Y013581D01*
X001764Y013540D01*
X001734Y013502D01*
X001702Y013466D01*
X001667Y013433D01*
X001629Y013403D01*
X001589Y013376D01*
X001547Y013353D01*
X001503Y013333D01*
X001458Y013316D01*
X001412Y013304D01*
X001364Y013295D01*
X001316Y013290D01*
X001268Y013289D01*
X001220Y013292D01*
X001172Y013299D01*
X001125Y013310D01*
X001079Y013324D01*
X001034Y013342D01*
X000991Y013364D01*
X000950Y013389D01*
X000912Y013418D01*
X000875Y013450D01*
X000841Y013484D01*
X000811Y013521D01*
X000783Y013560D01*
X000758Y013602D01*
X000738Y013646D01*
X000720Y013691D01*
X000707Y013737D01*
X000697Y013784D01*
X000691Y013832D01*
X000689Y013880D01*
X008489Y013880D02*
X008491Y013928D01*
X008497Y013976D01*
X008507Y014023D01*
X008520Y014069D01*
X008538Y014114D01*
X008558Y014158D01*
X008583Y014200D01*
X008611Y014239D01*
X008641Y014276D01*
X008675Y014310D01*
X008712Y014342D01*
X008750Y014371D01*
X008791Y014396D01*
X008834Y014418D01*
X008879Y014436D01*
X008925Y014450D01*
X008972Y014461D01*
X009020Y014468D01*
X009068Y014471D01*
X009116Y014470D01*
X009164Y014465D01*
X009212Y014456D01*
X009258Y014444D01*
X009303Y014427D01*
X009347Y014407D01*
X009389Y014384D01*
X009429Y014357D01*
X009467Y014327D01*
X009502Y014294D01*
X009534Y014258D01*
X009564Y014220D01*
X009590Y014179D01*
X009612Y014136D01*
X009632Y014092D01*
X009647Y014047D01*
X009659Y014000D01*
X009667Y013952D01*
X009671Y013904D01*
X009671Y013856D01*
X009667Y013808D01*
X009659Y013760D01*
X009647Y013713D01*
X009632Y013668D01*
X009612Y013624D01*
X009590Y013581D01*
X009564Y013540D01*
X009534Y013502D01*
X009502Y013466D01*
X009467Y013433D01*
X009429Y013403D01*
X009389Y013376D01*
X009347Y013353D01*
X009303Y013333D01*
X009258Y013316D01*
X009212Y013304D01*
X009164Y013295D01*
X009116Y013290D01*
X009068Y013289D01*
X009020Y013292D01*
X008972Y013299D01*
X008925Y013310D01*
X008879Y013324D01*
X008834Y013342D01*
X008791Y013364D01*
X008750Y013389D01*
X008712Y013418D01*
X008675Y013450D01*
X008641Y013484D01*
X008611Y013521D01*
X008583Y013560D01*
X008558Y013602D01*
X008538Y013646D01*
X008520Y013691D01*
X008507Y013737D01*
X008497Y013784D01*
X008491Y013832D01*
X008489Y013880D01*
X008489Y001480D02*
X008491Y001528D01*
X008497Y001576D01*
X008507Y001623D01*
X008520Y001669D01*
X008538Y001714D01*
X008558Y001758D01*
X008583Y001800D01*
X008611Y001839D01*
X008641Y001876D01*
X008675Y001910D01*
X008712Y001942D01*
X008750Y001971D01*
X008791Y001996D01*
X008834Y002018D01*
X008879Y002036D01*
X008925Y002050D01*
X008972Y002061D01*
X009020Y002068D01*
X009068Y002071D01*
X009116Y002070D01*
X009164Y002065D01*
X009212Y002056D01*
X009258Y002044D01*
X009303Y002027D01*
X009347Y002007D01*
X009389Y001984D01*
X009429Y001957D01*
X009467Y001927D01*
X009502Y001894D01*
X009534Y001858D01*
X009564Y001820D01*
X009590Y001779D01*
X009612Y001736D01*
X009632Y001692D01*
X009647Y001647D01*
X009659Y001600D01*
X009667Y001552D01*
X009671Y001504D01*
X009671Y001456D01*
X009667Y001408D01*
X009659Y001360D01*
X009647Y001313D01*
X009632Y001268D01*
X009612Y001224D01*
X009590Y001181D01*
X009564Y001140D01*
X009534Y001102D01*
X009502Y001066D01*
X009467Y001033D01*
X009429Y001003D01*
X009389Y000976D01*
X009347Y000953D01*
X009303Y000933D01*
X009258Y000916D01*
X009212Y000904D01*
X009164Y000895D01*
X009116Y000890D01*
X009068Y000889D01*
X009020Y000892D01*
X008972Y000899D01*
X008925Y000910D01*
X008879Y000924D01*
X008834Y000942D01*
X008791Y000964D01*
X008750Y000989D01*
X008712Y001018D01*
X008675Y001050D01*
X008641Y001084D01*
X008611Y001121D01*
X008583Y001160D01*
X008558Y001202D01*
X008538Y001246D01*
X008520Y001291D01*
X008507Y001337D01*
X008497Y001384D01*
X008491Y001432D01*
X008489Y001480D01*
D11*
X004707Y009628D03*
X004707Y009884D03*
X004707Y010140D03*
X004707Y010396D03*
X004707Y010652D03*
X004707Y010908D03*
X004707Y011164D03*
X004707Y011420D03*
X004707Y011676D03*
X004707Y011932D03*
X001853Y011932D03*
X001853Y011676D03*
X001853Y011420D03*
X001853Y011164D03*
X001853Y010908D03*
X001853Y010652D03*
X001853Y010396D03*
X001853Y010140D03*
X001853Y009884D03*
X001853Y009628D03*
D12*
X004280Y003480D03*
X006280Y003480D03*
D13*
X007180Y005280D03*
X007180Y006380D03*
X007180Y007480D03*
X007180Y008680D03*
X005680Y011380D03*
X005680Y012380D03*
X003180Y008680D03*
X003180Y007480D03*
X003180Y006380D03*
X003180Y005280D03*
X002280Y004080D03*
X002280Y003080D03*
X002080Y007480D03*
X002080Y008480D03*
X008280Y004080D03*
X008280Y003080D03*
D14*
X008780Y005180D03*
X008780Y006180D03*
X008780Y007180D03*
X008480Y009580D03*
X008480Y010580D03*
X006580Y010580D03*
X006580Y009580D03*
D15*
X007580Y011380D03*
D16*
X007580Y012380D03*
D17*
X006680Y001580D02*
X006680Y000980D01*
X005680Y000980D02*
X005680Y001580D01*
X004680Y001580D02*
X004680Y000980D01*
X003680Y000980D02*
X003680Y001580D01*
D18*
X004688Y013600D03*
X004688Y014380D03*
X005672Y014380D03*
X005672Y013600D03*
D19*
X007550Y015450D03*
X002810Y015450D03*
D20*
X002890Y015412D02*
X007470Y015412D01*
X007470Y015370D02*
X006723Y015370D01*
X006734Y015288D01*
X006762Y015183D01*
X006804Y015082D01*
X006858Y014988D01*
X006925Y014902D01*
X007002Y014825D01*
X007088Y014758D01*
X007182Y014704D01*
X007283Y014662D01*
X007388Y014634D01*
X007470Y014623D01*
X007470Y015370D01*
X007470Y015530D01*
X006723Y015530D01*
X006734Y015612D01*
X006762Y015717D01*
X006804Y015818D01*
X006858Y015912D01*
X006925Y015998D01*
X007002Y016075D01*
X007034Y016100D01*
X003326Y016100D01*
X003358Y016075D01*
X003435Y015998D01*
X003502Y015912D01*
X003556Y015818D01*
X003598Y015717D01*
X003626Y015612D01*
X003637Y015530D01*
X002890Y015530D01*
X002890Y015370D01*
X003637Y015370D01*
X003626Y015288D01*
X003598Y015183D01*
X003556Y015082D01*
X003502Y014988D01*
X003435Y014902D01*
X003358Y014825D01*
X003272Y014758D01*
X003178Y014704D01*
X003077Y014662D01*
X002972Y014634D01*
X002890Y014623D01*
X002890Y015370D01*
X002730Y015370D01*
X002730Y014623D01*
X002648Y014634D01*
X002543Y014662D01*
X002442Y014704D01*
X002348Y014758D01*
X002262Y014825D01*
X002185Y014902D01*
X002118Y014988D01*
X002064Y015082D01*
X002022Y015183D01*
X001994Y015288D01*
X001983Y015370D01*
X002730Y015370D01*
X002730Y015530D01*
X001983Y015530D01*
X001994Y015612D01*
X002022Y015717D01*
X002064Y015818D01*
X002118Y015912D01*
X002185Y015998D01*
X002262Y016075D01*
X002294Y016100D01*
X000460Y016100D01*
X000460Y000460D01*
X009900Y000460D01*
X009900Y016100D01*
X008066Y016100D01*
X008098Y016075D01*
X008175Y015998D01*
X008242Y015912D01*
X008296Y015818D01*
X008338Y015717D01*
X008366Y015612D01*
X008377Y015530D01*
X007630Y015530D01*
X007630Y015370D01*
X008377Y015370D01*
X008366Y015288D01*
X008338Y015183D01*
X008296Y015082D01*
X008242Y014988D01*
X008175Y014902D01*
X008098Y014825D01*
X008012Y014758D01*
X007918Y014704D01*
X007817Y014662D01*
X007712Y014634D01*
X007630Y014623D01*
X007630Y015370D01*
X007470Y015370D01*
X007470Y015253D02*
X007630Y015253D01*
X007630Y015095D02*
X007470Y015095D01*
X007470Y014936D02*
X007630Y014936D01*
X007630Y014778D02*
X007470Y014778D01*
X007630Y015412D02*
X009900Y015412D01*
X009900Y015570D02*
X008371Y015570D01*
X008333Y015729D02*
X009900Y015729D01*
X009900Y015887D02*
X008256Y015887D01*
X008128Y016046D02*
X009900Y016046D01*
X009900Y015253D02*
X008357Y015253D01*
X008301Y015095D02*
X009900Y015095D01*
X009900Y014936D02*
X008202Y014936D01*
X008037Y014778D02*
X009900Y014778D01*
X009900Y014619D02*
X009309Y014619D01*
X009233Y014651D02*
X008927Y014651D01*
X008644Y014533D01*
X008427Y014316D01*
X008309Y014033D01*
X008309Y013727D01*
X008427Y013444D01*
X008644Y013227D01*
X008927Y013109D01*
X009233Y013109D01*
X009516Y013227D01*
X009733Y013444D01*
X009851Y013727D01*
X009851Y014033D01*
X009733Y014316D01*
X009516Y014533D01*
X009233Y014651D01*
X009589Y014461D02*
X009900Y014461D01*
X009900Y014302D02*
X009739Y014302D01*
X009805Y014144D02*
X009900Y014144D01*
X009900Y013985D02*
X009851Y013985D01*
X009851Y013827D02*
X009900Y013827D01*
X009900Y013668D02*
X009826Y013668D01*
X009761Y013510D02*
X009900Y013510D01*
X009900Y013351D02*
X009641Y013351D01*
X009434Y013193D02*
X009900Y013193D01*
X009900Y013034D02*
X005145Y013034D01*
X004987Y012876D02*
X009900Y012876D01*
X009900Y012717D02*
X007886Y012717D01*
X007838Y012766D02*
X007966Y012638D01*
X008035Y012471D01*
X008035Y012289D01*
X007966Y012122D01*
X007838Y011994D01*
X007671Y011925D01*
X007489Y011925D01*
X007322Y011994D01*
X007194Y012122D01*
X007179Y012160D01*
X006026Y012160D01*
X005846Y011980D01*
X005514Y011980D01*
X005503Y011992D01*
X005400Y011889D01*
X005400Y011722D01*
X005498Y011820D01*
X005680Y011820D01*
X005680Y011380D01*
X005680Y011380D01*
X006120Y011380D01*
X006120Y011562D01*
X005862Y011820D01*
X005680Y011820D01*
X005680Y011380D01*
X005680Y011380D01*
X006120Y011380D01*
X006120Y011198D01*
X005862Y010940D01*
X005680Y010940D01*
X005680Y011380D01*
X005680Y011380D01*
X005680Y011380D01*
X005240Y011380D01*
X005240Y011456D01*
X005142Y011456D01*
X005142Y011357D01*
X005146Y011353D01*
X005170Y011312D01*
X005182Y011266D01*
X005182Y011164D01*
X004707Y011164D01*
X004707Y011164D01*
X005182Y011164D01*
X005182Y011061D01*
X005170Y011016D01*
X005146Y010975D01*
X005142Y010971D01*
X005142Y010616D01*
X005355Y010616D01*
X005771Y010200D01*
X005900Y010071D01*
X005900Y009571D01*
X006055Y009416D01*
X006044Y009451D01*
X006030Y009537D01*
X006030Y009580D01*
X006580Y009580D01*
X007130Y009580D01*
X007130Y009623D01*
X007116Y009709D01*
X007090Y009791D01*
X007050Y009868D01*
X007000Y009938D01*
X006938Y010000D01*
X006868Y010050D01*
X006791Y010090D01*
X006756Y010101D01*
X006869Y010148D01*
X007012Y010291D01*
X007090Y010479D01*
X007090Y010681D01*
X007012Y010869D01*
X006869Y011012D01*
X006681Y011090D01*
X006479Y011090D01*
X006291Y011012D01*
X006148Y010869D01*
X006070Y010681D01*
X006070Y010479D01*
X006148Y010291D01*
X006291Y010148D01*
X006404Y010101D01*
X006369Y010090D01*
X006292Y010050D01*
X006222Y010000D01*
X006160Y009938D01*
X006110Y009868D01*
X006070Y009791D01*
X006044Y009709D01*
X006030Y009623D01*
X006030Y009580D01*
X006580Y009580D01*
X006580Y009580D01*
X006580Y009580D01*
X007130Y009580D01*
X007130Y009537D01*
X007116Y009451D01*
X007090Y009369D01*
X007050Y009292D01*
X007000Y009222D01*
X006938Y009160D01*
X006868Y009110D01*
X006791Y009070D01*
X006709Y009044D01*
X006623Y009030D01*
X006580Y009030D01*
X006580Y009580D01*
X006580Y009580D01*
X006580Y009030D01*
X006537Y009030D01*
X006451Y009044D01*
X006416Y009055D01*
X006571Y008900D01*
X006834Y008900D01*
X007014Y009080D01*
X007346Y009080D01*
X007580Y008846D01*
X007580Y008514D01*
X007346Y008280D01*
X007014Y008280D01*
X006834Y008460D01*
X006511Y008460D01*
X007091Y007880D01*
X007346Y007880D01*
X007580Y007646D01*
X007580Y007314D01*
X007346Y007080D01*
X007014Y007080D01*
X006780Y007314D01*
X006780Y007569D01*
X005289Y009060D01*
X005289Y009060D01*
X005160Y009189D01*
X005160Y009789D01*
X005142Y009806D01*
X005142Y009492D01*
X005060Y009410D01*
X004354Y009410D01*
X004300Y009464D01*
X004300Y009462D01*
X006700Y007062D01*
X006700Y004471D01*
X006960Y004211D01*
X006960Y004934D01*
X006780Y005114D01*
X006780Y005446D01*
X007014Y005680D01*
X007346Y005680D01*
X007580Y005446D01*
X007580Y005114D01*
X007400Y004934D01*
X007400Y004371D01*
X007571Y004200D01*
X007700Y004071D01*
X007700Y002989D01*
X006731Y002020D01*
X006768Y002020D01*
X006929Y001953D01*
X007053Y001829D01*
X007120Y001668D01*
X007120Y000892D01*
X007053Y000731D01*
X006929Y000607D01*
X006768Y000540D01*
X006592Y000540D01*
X006431Y000607D01*
X006307Y000731D01*
X006240Y000892D01*
X006240Y001529D01*
X006120Y001409D01*
X006120Y000892D01*
X006053Y000731D01*
X005929Y000607D01*
X005768Y000540D01*
X005592Y000540D01*
X005431Y000607D01*
X005307Y000731D01*
X005240Y000892D01*
X005240Y001668D01*
X005307Y001829D01*
X005431Y001953D01*
X005448Y001960D01*
X004912Y001960D01*
X004929Y001953D01*
X005053Y001829D01*
X005120Y001668D01*
X005120Y000892D01*
X005053Y000731D01*
X004929Y000607D01*
X004768Y000540D01*
X004592Y000540D01*
X004431Y000607D01*
X004307Y000731D01*
X004240Y000892D01*
X004240Y001668D01*
X004307Y001829D01*
X004431Y001953D01*
X004448Y001960D01*
X003974Y001960D01*
X003993Y001946D01*
X004046Y001893D01*
X004091Y001832D01*
X004125Y001764D01*
X004148Y001692D01*
X004160Y001618D01*
X004160Y001300D01*
X003700Y001300D01*
X003700Y001260D01*
X004160Y001260D01*
X004160Y000942D01*
X004148Y000868D01*
X004125Y000796D01*
X004091Y000728D01*
X004046Y000667D01*
X003993Y000614D01*
X003932Y000569D01*
X003864Y000535D01*
X003792Y000512D01*
X003718Y000500D01*
X003700Y000500D01*
X003700Y001260D01*
X003660Y001260D01*
X003660Y000500D01*
X003642Y000500D01*
X003568Y000512D01*
X003496Y000535D01*
X003428Y000569D01*
X003367Y000614D01*
X003314Y000667D01*
X003269Y000728D01*
X003235Y000796D01*
X003212Y000868D01*
X003200Y000942D01*
X003200Y001260D01*
X003660Y001260D01*
X003660Y001300D01*
X003200Y001300D01*
X003200Y001618D01*
X003212Y001692D01*
X003235Y001764D01*
X003269Y001832D01*
X003314Y001893D01*
X003367Y001946D01*
X003388Y001961D01*
X002960Y002389D01*
X002960Y004934D01*
X002780Y005114D01*
X002780Y005446D01*
X003014Y005680D01*
X003346Y005680D01*
X003580Y005446D01*
X003580Y005114D01*
X003400Y004934D01*
X003400Y002571D01*
X003571Y002400D01*
X005789Y002400D01*
X006426Y003037D01*
X006372Y003015D01*
X006188Y003015D01*
X006017Y003086D01*
X005886Y003217D01*
X005815Y003388D01*
X005815Y003572D01*
X005833Y003616D01*
X004660Y004789D01*
X004660Y008089D01*
X003085Y009664D01*
X002288Y009664D01*
X002288Y009492D01*
X002206Y009410D01*
X002161Y009410D01*
X002780Y008791D01*
X002780Y008846D01*
X003014Y009080D01*
X003346Y009080D01*
X003580Y008846D01*
X003580Y008514D01*
X003346Y008280D01*
X003291Y008280D01*
X004500Y007071D01*
X004500Y003892D01*
X004543Y003874D01*
X004674Y003743D01*
X004745Y003572D01*
X004745Y003388D01*
X004674Y003217D01*
X004543Y003086D01*
X004372Y003015D01*
X004188Y003015D01*
X004017Y003086D01*
X003886Y003217D01*
X003815Y003388D01*
X003815Y003572D01*
X003886Y003743D01*
X004017Y003874D01*
X004060Y003892D01*
X004060Y006889D01*
X003580Y007369D01*
X003580Y007314D01*
X003346Y007080D01*
X003014Y007080D01*
X002780Y007314D01*
X002780Y007646D01*
X003014Y007880D01*
X003069Y007880D01*
X002480Y008469D01*
X002480Y008314D01*
X002246Y008080D01*
X001914Y008080D01*
X001680Y008314D01*
X001680Y008646D01*
X001914Y008880D01*
X002069Y008880D01*
X001633Y009316D01*
X001633Y009410D01*
X001500Y009410D01*
X001418Y009492D01*
X001418Y009947D01*
X001414Y009951D01*
X001390Y009992D01*
X001378Y010038D01*
X001378Y010140D01*
X001853Y010140D01*
X001853Y010140D01*
X002328Y010140D01*
X002328Y010104D01*
X003267Y010104D01*
X003860Y009511D01*
X003860Y010649D01*
X003387Y010176D01*
X002328Y010176D01*
X002328Y010140D01*
X001853Y010140D01*
X001853Y010140D01*
X001378Y010140D01*
X001378Y010243D01*
X001390Y010288D01*
X001414Y010329D01*
X001418Y010334D01*
X001418Y011738D01*
X001414Y011742D01*
X001390Y011783D01*
X001378Y011829D01*
X001378Y011932D01*
X001853Y011932D01*
X002328Y011932D01*
X002328Y012034D01*
X002316Y012080D01*
X002292Y012121D01*
X002259Y012154D01*
X002249Y012160D01*
X002649Y012160D01*
X002328Y011839D01*
X002328Y011932D01*
X001853Y011932D01*
X001853Y011932D01*
X001853Y011932D01*
X001378Y011932D01*
X001378Y012034D01*
X001390Y012080D01*
X001414Y012121D01*
X001447Y012154D01*
X001457Y012160D01*
X001371Y012160D01*
X001100Y011889D01*
X001100Y007471D01*
X001971Y006600D01*
X002834Y006600D01*
X003014Y006780D01*
X003346Y006780D01*
X003580Y006546D01*
X003580Y006214D01*
X003346Y005980D01*
X003014Y005980D01*
X002834Y006160D01*
X001789Y006160D01*
X000789Y007160D01*
X000789Y007160D01*
X000660Y007289D01*
X000660Y012071D01*
X000789Y012200D01*
X000789Y012200D01*
X001060Y012471D01*
X001060Y012471D01*
X001189Y012600D01*
X002971Y012600D01*
X003121Y012450D01*
X003121Y012450D01*
X003250Y012321D01*
X003250Y012139D01*
X003190Y012078D01*
X003239Y012078D01*
X003260Y012070D01*
X003260Y014171D01*
X004060Y014971D01*
X004189Y015100D01*
X005263Y015100D01*
X005532Y014831D01*
X005579Y014850D01*
X005766Y014850D01*
X005938Y014778D01*
X006071Y014646D01*
X006142Y014473D01*
X006142Y014287D01*
X006071Y014114D01*
X005947Y013990D01*
X006071Y013866D01*
X006142Y013693D01*
X006142Y013507D01*
X006071Y013334D01*
X005938Y013202D01*
X005766Y013130D01*
X005579Y013130D01*
X005406Y013202D01*
X005359Y013248D01*
X004000Y011889D01*
X004000Y011811D01*
X004085Y011896D01*
X004272Y011896D01*
X004272Y012068D01*
X004354Y012150D01*
X005039Y012150D01*
X005280Y012391D01*
X005280Y012546D01*
X005514Y012780D01*
X005846Y012780D01*
X006026Y012600D01*
X007179Y012600D01*
X007194Y012638D01*
X007322Y012766D01*
X007489Y012835D01*
X007671Y012835D01*
X007838Y012766D01*
X007999Y012559D02*
X009900Y012559D01*
X009900Y012400D02*
X008035Y012400D01*
X008015Y012242D02*
X009900Y012242D01*
X009900Y012083D02*
X007926Y012083D01*
X007785Y011875D02*
X007580Y011875D01*
X007580Y011380D01*
X007580Y011380D01*
X008075Y011380D01*
X008075Y011585D01*
X007785Y011875D01*
X007894Y011766D02*
X009900Y011766D01*
X009900Y011608D02*
X008053Y011608D01*
X008075Y011449D02*
X009900Y011449D01*
X009900Y011291D02*
X008075Y011291D01*
X008075Y011380D02*
X007580Y011380D01*
X007580Y011380D01*
X007580Y011380D01*
X007085Y011380D01*
X007085Y011585D01*
X007375Y011875D01*
X007580Y011875D01*
X007580Y011380D01*
X007580Y010885D01*
X007785Y010885D01*
X008075Y011175D01*
X008075Y011380D01*
X008032Y011132D02*
X009900Y011132D01*
X009900Y010974D02*
X008808Y010974D01*
X008769Y011012D02*
X008912Y010869D01*
X008990Y010681D01*
X008990Y010479D01*
X008912Y010291D01*
X008769Y010148D01*
X008656Y010101D01*
X008691Y010090D01*
X008768Y010050D01*
X008838Y010000D01*
X008900Y009938D01*
X008950Y009868D01*
X008990Y009791D01*
X009016Y009709D01*
X009030Y009623D01*
X009030Y009580D01*
X008480Y009580D01*
X008480Y009580D01*
X008480Y009580D01*
X007930Y009580D01*
X007930Y009623D01*
X007944Y009709D01*
X007970Y009791D01*
X008010Y009868D01*
X008060Y009938D01*
X008122Y010000D01*
X008192Y010050D01*
X008269Y010090D01*
X008304Y010101D01*
X008191Y010148D01*
X008048Y010291D01*
X007970Y010479D01*
X007970Y010681D01*
X008048Y010869D01*
X008191Y011012D01*
X008379Y011090D01*
X008581Y011090D01*
X008769Y011012D01*
X008935Y010815D02*
X009900Y010815D01*
X009900Y010657D02*
X008990Y010657D01*
X008990Y010498D02*
X009900Y010498D01*
X009900Y010340D02*
X008932Y010340D01*
X008802Y010181D02*
X009900Y010181D01*
X009900Y010023D02*
X008807Y010023D01*
X008953Y009864D02*
X009900Y009864D01*
X009900Y009706D02*
X009017Y009706D01*
X009030Y009580D02*
X008480Y009580D01*
X008480Y009030D01*
X008523Y009030D01*
X008609Y009044D01*
X008691Y009070D01*
X008768Y009110D01*
X008838Y009160D01*
X008900Y009222D01*
X008950Y009292D01*
X008990Y009369D01*
X009016Y009451D01*
X009030Y009537D01*
X009030Y009580D01*
X009030Y009547D02*
X009900Y009547D01*
X009900Y009389D02*
X008996Y009389D01*
X008906Y009230D02*
X009900Y009230D01*
X009900Y009072D02*
X008694Y009072D01*
X008480Y009072D02*
X008480Y009072D01*
X008480Y009030D02*
X008480Y009580D01*
X008480Y009580D01*
X007930Y009580D01*
X007930Y009537D01*
X007944Y009451D01*
X007970Y009369D01*
X008010Y009292D01*
X008060Y009222D01*
X008122Y009160D01*
X008192Y009110D01*
X008269Y009070D01*
X008351Y009044D01*
X008437Y009030D01*
X008480Y009030D01*
X008480Y009230D02*
X008480Y009230D01*
X008480Y009389D02*
X008480Y009389D01*
X008480Y009547D02*
X008480Y009547D01*
X008266Y009072D02*
X007354Y009072D01*
X007513Y008913D02*
X009900Y008913D01*
X009900Y008755D02*
X007580Y008755D01*
X007580Y008596D02*
X009900Y008596D01*
X009900Y008438D02*
X007503Y008438D01*
X007180Y008680D02*
X006480Y008680D01*
X005680Y009480D01*
X005680Y009980D01*
X005264Y010396D01*
X004707Y010396D01*
X004707Y010140D02*
X005120Y010140D01*
X005380Y009880D01*
X005380Y009280D01*
X007180Y007480D01*
X007435Y007170D02*
X008270Y007170D01*
X008270Y007079D02*
X008348Y006891D01*
X008491Y006748D01*
X008654Y006680D01*
X008491Y006612D01*
X008479Y006600D01*
X007526Y006600D01*
X007346Y006780D01*
X007014Y006780D01*
X006780Y006546D01*
X006780Y006214D01*
X007014Y005980D01*
X007346Y005980D01*
X007526Y006160D01*
X008270Y006160D01*
X008270Y006079D01*
X008348Y005891D01*
X008491Y005748D01*
X008604Y005701D01*
X008569Y005690D01*
X008492Y005650D01*
X008422Y005600D01*
X008360Y005538D01*
X008310Y005468D01*
X008270Y005391D01*
X008244Y005309D01*
X008230Y005223D01*
X008230Y005180D01*
X008780Y005180D01*
X009330Y005180D01*
X009330Y005223D01*
X009316Y005309D01*
X009290Y005391D01*
X009250Y005468D01*
X009200Y005538D01*
X009138Y005600D01*
X009068Y005650D01*
X008991Y005690D01*
X008956Y005701D01*
X009069Y005748D01*
X009212Y005891D01*
X009290Y006079D01*
X009290Y006281D01*
X009212Y006469D01*
X009069Y006612D01*
X008906Y006680D01*
X009069Y006748D01*
X009212Y006891D01*
X009290Y007079D01*
X009290Y007281D01*
X009212Y007469D01*
X009069Y007612D01*
X008881Y007690D01*
X008679Y007690D01*
X008491Y007612D01*
X008348Y007469D01*
X008270Y007281D01*
X008270Y007079D01*
X008298Y007011D02*
X006700Y007011D01*
X006700Y006853D02*
X008386Y006853D01*
X008289Y007328D02*
X007580Y007328D01*
X007580Y007487D02*
X008365Y007487D01*
X008570Y007645D02*
X007580Y007645D01*
X007422Y007804D02*
X009900Y007804D01*
X009900Y007962D02*
X007009Y007962D01*
X006851Y008121D02*
X009900Y008121D01*
X009900Y008279D02*
X006692Y008279D01*
X006534Y008438D02*
X006857Y008438D01*
X006847Y008913D02*
X006558Y008913D01*
X006580Y009072D02*
X006580Y009072D01*
X006580Y009230D02*
X006580Y009230D01*
X006580Y009389D02*
X006580Y009389D01*
X006580Y009547D02*
X006580Y009547D01*
X006794Y009072D02*
X007006Y009072D01*
X007006Y009230D02*
X008054Y009230D01*
X007964Y009389D02*
X007096Y009389D01*
X007130Y009547D02*
X007930Y009547D01*
X007943Y009706D02*
X007117Y009706D01*
X007053Y009864D02*
X008007Y009864D01*
X008153Y010023D02*
X006907Y010023D01*
X006902Y010181D02*
X008158Y010181D01*
X008028Y010340D02*
X007032Y010340D01*
X007090Y010498D02*
X007970Y010498D01*
X007970Y010657D02*
X007090Y010657D01*
X007035Y010815D02*
X008025Y010815D01*
X008152Y010974D02*
X007874Y010974D01*
X007580Y010974D02*
X007580Y010974D01*
X007580Y010885D02*
X007580Y011380D01*
X007580Y011380D01*
X007085Y011380D01*
X007085Y011175D01*
X007375Y010885D01*
X007580Y010885D01*
X007580Y011132D02*
X007580Y011132D01*
X007580Y011291D02*
X007580Y011291D01*
X007580Y011449D02*
X007580Y011449D01*
X007580Y011608D02*
X007580Y011608D01*
X007580Y011766D02*
X007580Y011766D01*
X007266Y011766D02*
X005916Y011766D01*
X006075Y011608D02*
X007107Y011608D01*
X007085Y011449D02*
X006120Y011449D01*
X006120Y011291D02*
X007085Y011291D01*
X007128Y011132D02*
X006054Y011132D01*
X005896Y010974D02*
X006252Y010974D01*
X006125Y010815D02*
X005142Y010815D01*
X005142Y010657D02*
X006070Y010657D01*
X006070Y010498D02*
X005473Y010498D01*
X005632Y010340D02*
X006128Y010340D01*
X006258Y010181D02*
X005790Y010181D01*
X005900Y010023D02*
X006253Y010023D01*
X006107Y009864D02*
X005900Y009864D01*
X005900Y009706D02*
X006043Y009706D01*
X006030Y009547D02*
X005924Y009547D01*
X005594Y008755D02*
X005008Y008755D01*
X005166Y008596D02*
X005753Y008596D01*
X005911Y008438D02*
X005325Y008438D01*
X005483Y008279D02*
X006070Y008279D01*
X006228Y008121D02*
X005642Y008121D01*
X005800Y007962D02*
X006387Y007962D01*
X006545Y007804D02*
X005959Y007804D01*
X006117Y007645D02*
X006704Y007645D01*
X006780Y007487D02*
X006276Y007487D01*
X006434Y007328D02*
X006780Y007328D01*
X006925Y007170D02*
X006593Y007170D01*
X006480Y006971D02*
X004080Y009371D01*
X004080Y011580D01*
X004176Y011676D01*
X004707Y011676D01*
X005176Y011676D01*
X005180Y011680D01*
X005180Y011980D01*
X005580Y012380D01*
X005680Y012380D01*
X007580Y012380D01*
X007274Y012717D02*
X005909Y012717D01*
X005917Y013193D02*
X008726Y013193D01*
X008519Y013351D02*
X006078Y013351D01*
X006142Y013510D02*
X008399Y013510D01*
X008334Y013668D02*
X006142Y013668D01*
X006087Y013827D02*
X008309Y013827D01*
X008309Y013985D02*
X005952Y013985D01*
X006083Y014144D02*
X008355Y014144D01*
X008421Y014302D02*
X006142Y014302D01*
X006142Y014461D02*
X008571Y014461D01*
X008851Y014619D02*
X006082Y014619D01*
X005939Y014778D02*
X007063Y014778D01*
X006898Y014936D02*
X005427Y014936D01*
X005269Y015095D02*
X006799Y015095D01*
X006743Y015253D02*
X003617Y015253D01*
X003561Y015095D02*
X004183Y015095D01*
X004280Y014880D02*
X005172Y014880D01*
X005672Y014380D01*
X005397Y013990D02*
X005274Y013866D01*
X005216Y013727D01*
X005158Y013669D01*
X005158Y013693D01*
X005086Y013866D01*
X004986Y013966D01*
X005020Y013991D01*
X005077Y014048D01*
X005124Y014113D01*
X005161Y014184D01*
X005185Y014261D01*
X005198Y014340D01*
X005198Y014370D01*
X004698Y014370D01*
X004698Y014390D01*
X005198Y014390D01*
X005198Y014420D01*
X005185Y014499D01*
X005161Y014576D01*
X005156Y014585D01*
X005221Y014520D01*
X005202Y014473D01*
X005202Y014287D01*
X005274Y014114D01*
X005397Y013990D01*
X005392Y013985D02*
X005012Y013985D01*
X005103Y013827D02*
X005257Y013827D01*
X005261Y014144D02*
X005140Y014144D01*
X005192Y014302D02*
X005202Y014302D01*
X005191Y014461D02*
X005202Y014461D01*
X004678Y014390D02*
X004678Y014370D01*
X004178Y014370D01*
X004178Y014340D01*
X004190Y014261D01*
X004215Y014184D01*
X004252Y014113D01*
X004299Y014048D01*
X004356Y013991D01*
X004390Y013966D01*
X004289Y013866D01*
X004218Y013693D01*
X004218Y013507D01*
X004289Y013334D01*
X004422Y013202D01*
X004594Y013130D01*
X004619Y013130D01*
X003700Y012211D01*
X003700Y013989D01*
X004187Y014476D01*
X004178Y014420D01*
X004178Y014390D01*
X004678Y014390D01*
X004364Y013985D02*
X003700Y013985D01*
X003700Y013827D02*
X004273Y013827D01*
X004218Y013668D02*
X003700Y013668D01*
X003700Y013510D02*
X004218Y013510D01*
X004282Y013351D02*
X003700Y013351D01*
X003700Y013193D02*
X004443Y013193D01*
X004523Y013034D02*
X003700Y013034D01*
X003700Y012876D02*
X004364Y012876D01*
X004206Y012717D02*
X003700Y012717D01*
X003700Y012559D02*
X004047Y012559D01*
X003889Y012400D02*
X003700Y012400D01*
X003700Y012242D02*
X003730Y012242D01*
X003780Y011980D02*
X005400Y013600D01*
X005672Y013600D01*
X005428Y013193D02*
X005304Y013193D01*
X005451Y012717D02*
X004828Y012717D01*
X004670Y012559D02*
X005293Y012559D01*
X005280Y012400D02*
X004511Y012400D01*
X004353Y012242D02*
X005130Y012242D01*
X005436Y011925D02*
X009900Y011925D01*
X009900Y007645D02*
X008990Y007645D01*
X009195Y007487D02*
X009900Y007487D01*
X009900Y007328D02*
X009271Y007328D01*
X009290Y007170D02*
X009900Y007170D01*
X009900Y007011D02*
X009262Y007011D01*
X009174Y006853D02*
X009900Y006853D01*
X009900Y006694D02*
X008939Y006694D01*
X009146Y006536D02*
X009900Y006536D01*
X009900Y006377D02*
X009250Y006377D01*
X009290Y006219D02*
X009900Y006219D01*
X009900Y006060D02*
X009282Y006060D01*
X009217Y005902D02*
X009900Y005902D01*
X009900Y005743D02*
X009058Y005743D01*
X009153Y005585D02*
X009900Y005585D01*
X009900Y005426D02*
X009272Y005426D01*
X009323Y005268D02*
X009900Y005268D01*
X009900Y005109D02*
X009326Y005109D01*
X009330Y005137D02*
X009330Y005180D01*
X008780Y005180D01*
X008780Y005180D01*
X008780Y005180D01*
X008780Y004630D01*
X008823Y004630D01*
X008909Y004644D01*
X008991Y004670D01*
X009068Y004710D01*
X009138Y004760D01*
X009200Y004822D01*
X009250Y004892D01*
X009290Y004969D01*
X009316Y005051D01*
X009330Y005137D01*
X009280Y004951D02*
X009900Y004951D01*
X009900Y004792D02*
X009170Y004792D01*
X008845Y004634D02*
X009900Y004634D01*
X009900Y004475D02*
X008507Y004475D01*
X008462Y004520D02*
X008280Y004520D01*
X008280Y004080D01*
X008280Y004080D01*
X008720Y004080D01*
X008720Y004262D01*
X008462Y004520D01*
X008569Y004670D02*
X008492Y004710D01*
X008422Y004760D01*
X008360Y004822D01*
X008310Y004892D01*
X008270Y004969D01*
X008244Y005051D01*
X008230Y005137D01*
X008230Y005180D01*
X008780Y005180D01*
X008780Y005180D01*
X008780Y004630D01*
X008737Y004630D01*
X008651Y004644D01*
X008569Y004670D01*
X008715Y004634D02*
X007400Y004634D01*
X007400Y004792D02*
X008390Y004792D01*
X008280Y004951D02*
X007416Y004951D01*
X007575Y005109D02*
X008234Y005109D01*
X008237Y005268D02*
X007580Y005268D01*
X007580Y005426D02*
X008288Y005426D01*
X008407Y005585D02*
X007441Y005585D01*
X007180Y005280D02*
X007180Y004280D01*
X007480Y003980D01*
X007480Y003080D01*
X005680Y001280D01*
X005287Y001781D02*
X005073Y001781D01*
X005120Y001622D02*
X005240Y001622D01*
X005240Y001464D02*
X005120Y001464D01*
X005120Y001305D02*
X005240Y001305D01*
X005240Y001147D02*
X005120Y001147D01*
X005120Y000988D02*
X005240Y000988D01*
X005266Y000830D02*
X005094Y000830D01*
X004993Y000671D02*
X005367Y000671D01*
X005993Y000671D02*
X006367Y000671D01*
X006266Y000830D02*
X006094Y000830D01*
X006120Y000988D02*
X006240Y000988D01*
X006240Y001147D02*
X006120Y001147D01*
X006120Y001305D02*
X006240Y001305D01*
X006240Y001464D02*
X006175Y001464D01*
X005880Y002180D02*
X006980Y003280D01*
X006980Y003880D01*
X006480Y004380D01*
X006480Y006971D01*
X006700Y006694D02*
X006928Y006694D01*
X006780Y006536D02*
X006700Y006536D01*
X006700Y006377D02*
X006780Y006377D01*
X006780Y006219D02*
X006700Y006219D01*
X006700Y006060D02*
X006934Y006060D01*
X006700Y005902D02*
X008343Y005902D01*
X008278Y006060D02*
X007426Y006060D01*
X007180Y006380D02*
X008580Y006380D01*
X008780Y006180D01*
X008502Y005743D02*
X006700Y005743D01*
X006700Y005585D02*
X006919Y005585D01*
X006780Y005426D02*
X006700Y005426D01*
X006700Y005268D02*
X006780Y005268D01*
X006785Y005109D02*
X006700Y005109D01*
X006700Y004951D02*
X006944Y004951D01*
X006960Y004792D02*
X006700Y004792D01*
X006700Y004634D02*
X006960Y004634D01*
X006960Y004475D02*
X006700Y004475D01*
X006855Y004317D02*
X006960Y004317D01*
X007400Y004475D02*
X008053Y004475D01*
X008098Y004520D02*
X007840Y004262D01*
X007840Y004080D01*
X008280Y004080D01*
X008280Y004080D01*
X008280Y004080D01*
X008280Y004520D01*
X008098Y004520D01*
X008280Y004475D02*
X008280Y004475D01*
X008280Y004317D02*
X008280Y004317D01*
X008280Y004158D02*
X008280Y004158D01*
X008280Y004080D02*
X007840Y004080D01*
X007840Y003898D01*
X008098Y003640D01*
X008280Y003640D01*
X008462Y003640D01*
X008720Y003898D01*
X008720Y004080D01*
X008280Y004080D01*
X008280Y003640D01*
X008280Y004080D01*
X008280Y004080D01*
X008280Y004000D02*
X008280Y004000D01*
X008280Y003841D02*
X008280Y003841D01*
X008280Y003683D02*
X008280Y003683D01*
X008114Y003480D02*
X007880Y003246D01*
X007880Y002914D01*
X008114Y002680D01*
X008446Y002680D01*
X008680Y002914D01*
X008680Y003246D01*
X008446Y003480D01*
X008114Y003480D01*
X008000Y003366D02*
X007700Y003366D01*
X007700Y003524D02*
X009900Y003524D01*
X009900Y003366D02*
X008560Y003366D01*
X008680Y003207D02*
X009900Y003207D01*
X009900Y003049D02*
X008680Y003049D01*
X008656Y002890D02*
X009900Y002890D01*
X009900Y002732D02*
X008497Y002732D01*
X008644Y002133D02*
X008427Y001916D01*
X008309Y001633D01*
X008309Y001327D01*
X008427Y001044D01*
X008644Y000827D01*
X008927Y000709D01*
X009233Y000709D01*
X009516Y000827D01*
X009733Y001044D01*
X009851Y001327D01*
X009851Y001633D01*
X009733Y001916D01*
X009516Y002133D01*
X009233Y002251D01*
X008927Y002251D01*
X008644Y002133D01*
X008608Y002098D02*
X006809Y002098D01*
X006943Y001939D02*
X008449Y001939D01*
X008370Y001781D02*
X007073Y001781D01*
X007120Y001622D02*
X008309Y001622D01*
X008309Y001464D02*
X007120Y001464D01*
X007120Y001305D02*
X008318Y001305D01*
X008384Y001147D02*
X007120Y001147D01*
X007120Y000988D02*
X008482Y000988D01*
X008641Y000830D02*
X007094Y000830D01*
X006993Y000671D02*
X009900Y000671D01*
X009900Y000513D02*
X003795Y000513D01*
X003700Y000513D02*
X003660Y000513D01*
X003565Y000513D02*
X000460Y000513D01*
X000460Y000671D02*
X003311Y000671D01*
X003224Y000830D02*
X001719Y000830D01*
X001716Y000827D02*
X001933Y001044D01*
X002051Y001327D01*
X002051Y001633D01*
X001933Y001916D01*
X001716Y002133D01*
X001433Y002251D01*
X001127Y002251D01*
X000844Y002133D01*
X000627Y001916D01*
X000509Y001633D01*
X000509Y001327D01*
X000627Y001044D01*
X000844Y000827D01*
X001127Y000709D01*
X001433Y000709D01*
X001716Y000827D01*
X001878Y000988D02*
X003200Y000988D01*
X003200Y001147D02*
X001976Y001147D01*
X002042Y001305D02*
X003200Y001305D01*
X003200Y001464D02*
X002051Y001464D01*
X002051Y001622D02*
X003201Y001622D01*
X003243Y001781D02*
X001990Y001781D01*
X001911Y001939D02*
X003360Y001939D01*
X003251Y002098D02*
X001752Y002098D01*
X002114Y002680D02*
X001880Y002914D01*
X001880Y003246D01*
X002114Y003480D01*
X002446Y003480D01*
X002680Y003246D01*
X002680Y002914D01*
X002446Y002680D01*
X002114Y002680D01*
X002063Y002732D02*
X000460Y002732D01*
X000460Y002890D02*
X001904Y002890D01*
X001880Y003049D02*
X000460Y003049D01*
X000460Y003207D02*
X001880Y003207D01*
X002000Y003366D02*
X000460Y003366D01*
X000460Y003524D02*
X002960Y003524D01*
X002960Y003366D02*
X002560Y003366D01*
X002680Y003207D02*
X002960Y003207D01*
X002960Y003049D02*
X002680Y003049D01*
X002656Y002890D02*
X002960Y002890D01*
X002960Y002732D02*
X002497Y002732D01*
X002960Y002573D02*
X000460Y002573D01*
X000460Y002415D02*
X002960Y002415D01*
X003093Y002256D02*
X000460Y002256D01*
X000460Y002098D02*
X000808Y002098D01*
X000649Y001939D02*
X000460Y001939D01*
X000460Y001781D02*
X000570Y001781D01*
X000509Y001622D02*
X000460Y001622D01*
X000460Y001464D02*
X000509Y001464D01*
X000518Y001305D02*
X000460Y001305D01*
X000460Y001147D02*
X000584Y001147D01*
X000682Y000988D02*
X000460Y000988D01*
X000460Y000830D02*
X000841Y000830D01*
X000460Y003683D02*
X002055Y003683D01*
X002098Y003640D02*
X001840Y003898D01*
X001840Y004080D01*
X002280Y004080D01*
X002280Y004080D01*
X002280Y004520D01*
X002462Y004520D01*
X002720Y004262D01*
X002720Y004080D01*
X002280Y004080D01*
X002280Y004080D01*
X002280Y004080D01*
X002280Y004520D01*
X002098Y004520D01*
X001840Y004262D01*
X001840Y004080D01*
X002280Y004080D01*
X002720Y004080D01*
X002720Y003898D01*
X002462Y003640D01*
X002280Y003640D01*
X002280Y004080D01*
X002280Y004080D01*
X002280Y003640D01*
X002098Y003640D01*
X002280Y003683D02*
X002280Y003683D01*
X002280Y003841D02*
X002280Y003841D01*
X002280Y004000D02*
X002280Y004000D01*
X002280Y004158D02*
X002280Y004158D01*
X002280Y004317D02*
X002280Y004317D01*
X002280Y004475D02*
X002280Y004475D01*
X002507Y004475D02*
X002960Y004475D01*
X002960Y004317D02*
X002666Y004317D01*
X002720Y004158D02*
X002960Y004158D01*
X002960Y004000D02*
X002720Y004000D01*
X002663Y003841D02*
X002960Y003841D01*
X002960Y003683D02*
X002505Y003683D01*
X002053Y004475D02*
X000460Y004475D01*
X000460Y004317D02*
X001894Y004317D01*
X001840Y004158D02*
X000460Y004158D01*
X000460Y004000D02*
X001840Y004000D01*
X001897Y003841D02*
X000460Y003841D01*
X000460Y004634D02*
X002960Y004634D01*
X002960Y004792D02*
X000460Y004792D01*
X000460Y004951D02*
X002944Y004951D01*
X002785Y005109D02*
X000460Y005109D01*
X000460Y005268D02*
X002780Y005268D01*
X002780Y005426D02*
X000460Y005426D01*
X000460Y005585D02*
X002919Y005585D01*
X003180Y005280D02*
X003180Y002480D01*
X003480Y002180D01*
X004680Y002180D01*
X004680Y001280D01*
X004367Y000671D02*
X004049Y000671D01*
X004136Y000830D02*
X004266Y000830D01*
X004240Y000988D02*
X004160Y000988D01*
X004160Y001147D02*
X004240Y001147D01*
X004240Y001305D02*
X004160Y001305D01*
X004160Y001464D02*
X004240Y001464D01*
X004240Y001622D02*
X004159Y001622D01*
X004117Y001781D02*
X004287Y001781D01*
X004417Y001939D02*
X004000Y001939D01*
X003557Y002415D02*
X005803Y002415D01*
X005962Y002573D02*
X003400Y002573D01*
X003400Y002732D02*
X006120Y002732D01*
X006279Y002890D02*
X003400Y002890D01*
X003400Y003049D02*
X004107Y003049D01*
X003895Y003207D02*
X003400Y003207D01*
X003400Y003366D02*
X003824Y003366D01*
X003815Y003524D02*
X003400Y003524D01*
X003400Y003683D02*
X003861Y003683D01*
X003983Y003841D02*
X003400Y003841D01*
X003400Y004000D02*
X004060Y004000D01*
X004060Y004158D02*
X003400Y004158D01*
X003400Y004317D02*
X004060Y004317D01*
X004060Y004475D02*
X003400Y004475D01*
X003400Y004634D02*
X004060Y004634D01*
X004060Y004792D02*
X003400Y004792D01*
X003416Y004951D02*
X004060Y004951D01*
X004060Y005109D02*
X003575Y005109D01*
X003580Y005268D02*
X004060Y005268D01*
X004060Y005426D02*
X003580Y005426D01*
X003441Y005585D02*
X004060Y005585D01*
X004060Y005743D02*
X000460Y005743D01*
X000460Y005902D02*
X004060Y005902D01*
X004060Y006060D02*
X003426Y006060D01*
X003580Y006219D02*
X004060Y006219D01*
X004060Y006377D02*
X003580Y006377D01*
X003580Y006536D02*
X004060Y006536D01*
X004060Y006694D02*
X003432Y006694D01*
X003435Y007170D02*
X003779Y007170D01*
X003621Y007328D02*
X003580Y007328D01*
X003926Y007645D02*
X004660Y007645D01*
X004660Y007487D02*
X004085Y007487D01*
X004243Y007328D02*
X004660Y007328D01*
X004660Y007170D02*
X004402Y007170D01*
X004500Y007011D02*
X004660Y007011D01*
X004660Y006853D02*
X004500Y006853D01*
X004500Y006694D02*
X004660Y006694D01*
X004660Y006536D02*
X004500Y006536D01*
X004500Y006377D02*
X004660Y006377D01*
X004660Y006219D02*
X004500Y006219D01*
X004500Y006060D02*
X004660Y006060D01*
X004660Y005902D02*
X004500Y005902D01*
X004500Y005743D02*
X004660Y005743D01*
X004660Y005585D02*
X004500Y005585D01*
X004500Y005426D02*
X004660Y005426D01*
X004660Y005268D02*
X004500Y005268D01*
X004500Y005109D02*
X004660Y005109D01*
X004660Y004951D02*
X004500Y004951D01*
X004500Y004792D02*
X004660Y004792D01*
X004815Y004634D02*
X004500Y004634D01*
X004500Y004475D02*
X004974Y004475D01*
X005132Y004317D02*
X004500Y004317D01*
X004500Y004158D02*
X005291Y004158D01*
X005449Y004000D02*
X004500Y004000D01*
X004577Y003841D02*
X005608Y003841D01*
X005766Y003683D02*
X004699Y003683D01*
X004745Y003524D02*
X005815Y003524D01*
X005824Y003366D02*
X004736Y003366D01*
X004665Y003207D02*
X005895Y003207D01*
X006107Y003049D02*
X004453Y003049D01*
X004280Y003480D02*
X004280Y006980D01*
X001853Y009407D01*
X001853Y009628D01*
X001853Y009884D02*
X003176Y009884D01*
X004880Y008180D01*
X004880Y004880D01*
X006280Y003480D01*
X005880Y002180D02*
X004680Y002180D01*
X004943Y001939D02*
X005417Y001939D01*
X006967Y002256D02*
X009900Y002256D01*
X009900Y002098D02*
X009552Y002098D01*
X009711Y001939D02*
X009900Y001939D01*
X009900Y001781D02*
X009790Y001781D01*
X009851Y001622D02*
X009900Y001622D01*
X009900Y001464D02*
X009851Y001464D01*
X009842Y001305D02*
X009900Y001305D01*
X009900Y001147D02*
X009776Y001147D01*
X009678Y000988D02*
X009900Y000988D01*
X009900Y000830D02*
X009519Y000830D01*
X009900Y002415D02*
X007126Y002415D01*
X007284Y002573D02*
X009900Y002573D01*
X009900Y003683D02*
X008505Y003683D01*
X008663Y003841D02*
X009900Y003841D01*
X009900Y004000D02*
X008720Y004000D01*
X008720Y004158D02*
X009900Y004158D01*
X009900Y004317D02*
X008666Y004317D01*
X008780Y004634D02*
X008780Y004634D01*
X008780Y004792D02*
X008780Y004792D01*
X008780Y004951D02*
X008780Y004951D01*
X008780Y005109D02*
X008780Y005109D01*
X007894Y004317D02*
X007455Y004317D01*
X007613Y004158D02*
X007840Y004158D01*
X007840Y004000D02*
X007700Y004000D01*
X007700Y003841D02*
X007897Y003841D01*
X008055Y003683D02*
X007700Y003683D01*
X007700Y003207D02*
X007880Y003207D01*
X007880Y003049D02*
X007700Y003049D01*
X007601Y002890D02*
X007904Y002890D01*
X008063Y002732D02*
X007443Y002732D01*
X007432Y006694D02*
X008621Y006694D01*
X007286Y010974D02*
X006908Y010974D01*
X007234Y012083D02*
X005949Y012083D01*
X005680Y011766D02*
X005680Y011766D01*
X005680Y011608D02*
X005680Y011608D01*
X005680Y011449D02*
X005680Y011449D01*
X005680Y011380D02*
X005240Y011380D01*
X005240Y011198D01*
X005498Y010940D01*
X005680Y010940D01*
X005680Y011380D01*
X005680Y011291D02*
X005680Y011291D01*
X005680Y011132D02*
X005680Y011132D01*
X005680Y010974D02*
X005680Y010974D01*
X005464Y010974D02*
X005145Y010974D01*
X005182Y011132D02*
X005306Y011132D01*
X005240Y011291D02*
X005176Y011291D01*
X005142Y011449D02*
X005240Y011449D01*
X005400Y011766D02*
X005444Y011766D01*
X004272Y011925D02*
X004036Y011925D01*
X004194Y012083D02*
X004287Y012083D01*
X003780Y011980D02*
X003780Y010880D01*
X003296Y010396D01*
X001853Y010396D01*
X001853Y010652D02*
X003152Y010652D01*
X003480Y010980D01*
X003480Y014080D01*
X004280Y014880D01*
X004184Y014461D02*
X004172Y014461D01*
X004184Y014302D02*
X004013Y014302D01*
X003855Y014144D02*
X004236Y014144D01*
X003866Y014778D02*
X003297Y014778D01*
X003462Y014936D02*
X004025Y014936D01*
X003708Y014619D02*
X001509Y014619D01*
X001433Y014651D02*
X001127Y014651D01*
X000844Y014533D01*
X000627Y014316D01*
X000509Y014033D01*
X000509Y013727D01*
X000627Y013444D01*
X000844Y013227D01*
X001127Y013109D01*
X001433Y013109D01*
X001716Y013227D01*
X001933Y013444D01*
X002051Y013727D01*
X002051Y014033D01*
X001933Y014316D01*
X001716Y014533D01*
X001433Y014651D01*
X001051Y014619D02*
X000460Y014619D01*
X000460Y014461D02*
X000771Y014461D01*
X000621Y014302D02*
X000460Y014302D01*
X000460Y014144D02*
X000555Y014144D01*
X000509Y013985D02*
X000460Y013985D01*
X000460Y013827D02*
X000509Y013827D01*
X000534Y013668D02*
X000460Y013668D01*
X000460Y013510D02*
X000599Y013510D01*
X000719Y013351D02*
X000460Y013351D01*
X000460Y013193D02*
X000926Y013193D01*
X001147Y012559D02*
X000460Y012559D01*
X000460Y012717D02*
X003260Y012717D01*
X003260Y012559D02*
X003013Y012559D01*
X003171Y012400D02*
X003260Y012400D01*
X003250Y012242D02*
X003260Y012242D01*
X003260Y012083D02*
X003194Y012083D01*
X003030Y012230D02*
X002880Y012380D01*
X001280Y012380D01*
X000880Y011980D01*
X000880Y007380D01*
X001880Y006380D01*
X003180Y006380D01*
X002928Y006694D02*
X001877Y006694D01*
X001719Y006853D02*
X004060Y006853D01*
X003938Y007011D02*
X001560Y007011D01*
X001640Y007298D02*
X001898Y007040D01*
X002080Y007040D01*
X002262Y007040D01*
X002520Y007298D01*
X002520Y007480D01*
X002520Y007662D01*
X002262Y007920D01*
X002080Y007920D01*
X002080Y007480D01*
X002080Y007480D01*
X002520Y007480D01*
X002080Y007480D01*
X002080Y007480D01*
X002080Y007480D01*
X001640Y007480D01*
X001640Y007662D01*
X001898Y007920D01*
X002080Y007920D01*
X002080Y007480D01*
X002080Y007040D01*
X002080Y007480D01*
X002080Y007480D01*
X001640Y007480D01*
X001640Y007298D01*
X001640Y007328D02*
X001243Y007328D01*
X001100Y007487D02*
X001640Y007487D01*
X001640Y007645D02*
X001100Y007645D01*
X001100Y007804D02*
X001781Y007804D01*
X001874Y008121D02*
X001100Y008121D01*
X001100Y008279D02*
X001715Y008279D01*
X001680Y008438D02*
X001100Y008438D01*
X001100Y008596D02*
X001680Y008596D01*
X001789Y008755D02*
X001100Y008755D01*
X001100Y008913D02*
X002036Y008913D01*
X001877Y009072D02*
X001100Y009072D01*
X001100Y009230D02*
X001719Y009230D01*
X001633Y009389D02*
X001100Y009389D01*
X001100Y009547D02*
X001418Y009547D01*
X001418Y009706D02*
X001100Y009706D01*
X001100Y009864D02*
X001418Y009864D01*
X001382Y010023D02*
X001100Y010023D01*
X001100Y010181D02*
X001378Y010181D01*
X001418Y010340D02*
X001100Y010340D01*
X001100Y010498D02*
X001418Y010498D01*
X001418Y010657D02*
X001100Y010657D01*
X001100Y010815D02*
X001418Y010815D01*
X001418Y010974D02*
X001100Y010974D01*
X001100Y011132D02*
X001418Y011132D01*
X001418Y011291D02*
X001100Y011291D01*
X001100Y011449D02*
X001418Y011449D01*
X001418Y011608D02*
X001100Y011608D01*
X001100Y011766D02*
X001400Y011766D01*
X001378Y011925D02*
X001136Y011925D01*
X001294Y012083D02*
X001392Y012083D01*
X000989Y012400D02*
X000460Y012400D01*
X000460Y012242D02*
X000830Y012242D01*
X000672Y012083D02*
X000460Y012083D01*
X000460Y011925D02*
X000660Y011925D01*
X000660Y011766D02*
X000460Y011766D01*
X000460Y011608D02*
X000660Y011608D01*
X000660Y011449D02*
X000460Y011449D01*
X000460Y011291D02*
X000660Y011291D01*
X000660Y011132D02*
X000460Y011132D01*
X000460Y010974D02*
X000660Y010974D01*
X000660Y010815D02*
X000460Y010815D01*
X000460Y010657D02*
X000660Y010657D01*
X000660Y010498D02*
X000460Y010498D01*
X000460Y010340D02*
X000660Y010340D01*
X000660Y010181D02*
X000460Y010181D01*
X000460Y010023D02*
X000660Y010023D01*
X000660Y009864D02*
X000460Y009864D01*
X000460Y009706D02*
X000660Y009706D01*
X000660Y009547D02*
X000460Y009547D01*
X000460Y009389D02*
X000660Y009389D01*
X000660Y009230D02*
X000460Y009230D01*
X000460Y009072D02*
X000660Y009072D01*
X000660Y008913D02*
X000460Y008913D01*
X000460Y008755D02*
X000660Y008755D01*
X000660Y008596D02*
X000460Y008596D01*
X000460Y008438D02*
X000660Y008438D01*
X000660Y008279D02*
X000460Y008279D01*
X000460Y008121D02*
X000660Y008121D01*
X000660Y007962D02*
X000460Y007962D01*
X000460Y007804D02*
X000660Y007804D01*
X000660Y007645D02*
X000460Y007645D01*
X000460Y007487D02*
X000660Y007487D01*
X000660Y007328D02*
X000460Y007328D01*
X000460Y007170D02*
X000779Y007170D01*
X000938Y007011D02*
X000460Y007011D01*
X000460Y006853D02*
X001096Y006853D01*
X001255Y006694D02*
X000460Y006694D01*
X000460Y006536D02*
X001413Y006536D01*
X001572Y006377D02*
X000460Y006377D01*
X000460Y006219D02*
X001730Y006219D01*
X001768Y007170D02*
X001402Y007170D01*
X001100Y007962D02*
X002987Y007962D01*
X002938Y007804D02*
X002379Y007804D01*
X002286Y008121D02*
X002828Y008121D01*
X002670Y008279D02*
X002445Y008279D01*
X002480Y008438D02*
X002511Y008438D01*
X002658Y008913D02*
X002847Y008913D01*
X003006Y009072D02*
X002500Y009072D01*
X002341Y009230D02*
X003519Y009230D01*
X003677Y009072D02*
X003354Y009072D01*
X003513Y008913D02*
X003836Y008913D01*
X003994Y008755D02*
X003580Y008755D01*
X003580Y008596D02*
X004153Y008596D01*
X004311Y008438D02*
X003503Y008438D01*
X003292Y008279D02*
X004470Y008279D01*
X004628Y008121D02*
X003451Y008121D01*
X003609Y007962D02*
X004660Y007962D01*
X004660Y007804D02*
X003768Y007804D01*
X004532Y009230D02*
X005160Y009230D01*
X005160Y009389D02*
X004374Y009389D01*
X004691Y009072D02*
X005277Y009072D01*
X005436Y008913D02*
X004849Y008913D01*
X005142Y009547D02*
X005160Y009547D01*
X005160Y009706D02*
X005142Y009706D01*
X003860Y009706D02*
X003666Y009706D01*
X003824Y009547D02*
X003860Y009547D01*
X003860Y009864D02*
X003507Y009864D01*
X003349Y010023D02*
X003860Y010023D01*
X003860Y010181D02*
X003392Y010181D01*
X003551Y010340D02*
X003860Y010340D01*
X003860Y010498D02*
X003709Y010498D01*
X003202Y009547D02*
X002288Y009547D01*
X002183Y009389D02*
X003360Y009389D01*
X002708Y010908D02*
X002808Y011008D01*
X002708Y010908D02*
X001853Y010908D01*
X001853Y011164D02*
X002364Y011164D01*
X002980Y011780D01*
X003180Y011780D01*
X003030Y012230D02*
X002220Y011420D01*
X001853Y011420D01*
X002328Y011925D02*
X002413Y011925D01*
X002314Y012083D02*
X002572Y012083D01*
X003260Y012876D02*
X000460Y012876D01*
X000460Y013034D02*
X003260Y013034D01*
X003260Y013193D02*
X001634Y013193D01*
X001841Y013351D02*
X003260Y013351D01*
X003260Y013510D02*
X001961Y013510D01*
X002026Y013668D02*
X003260Y013668D01*
X003260Y013827D02*
X002051Y013827D01*
X002051Y013985D02*
X003260Y013985D01*
X003260Y014144D02*
X002005Y014144D01*
X001939Y014302D02*
X003391Y014302D01*
X003549Y014461D02*
X001789Y014461D01*
X002158Y014936D02*
X000460Y014936D01*
X000460Y014778D02*
X002323Y014778D01*
X002059Y015095D02*
X000460Y015095D01*
X000460Y015253D02*
X002003Y015253D01*
X001989Y015570D02*
X000460Y015570D01*
X000460Y015412D02*
X002730Y015412D01*
X002730Y015253D02*
X002890Y015253D01*
X002890Y015095D02*
X002730Y015095D01*
X002730Y014936D02*
X002890Y014936D01*
X002890Y014778D02*
X002730Y014778D01*
X002104Y015887D02*
X000460Y015887D01*
X000460Y015729D02*
X002027Y015729D01*
X002232Y016046D02*
X000460Y016046D01*
X003388Y016046D02*
X006972Y016046D01*
X006844Y015887D02*
X003516Y015887D01*
X003593Y015729D02*
X006767Y015729D01*
X006729Y015570D02*
X003631Y015570D01*
X002080Y007804D02*
X002080Y007804D01*
X002080Y007645D02*
X002080Y007645D01*
X002080Y007487D02*
X002080Y007487D01*
X002080Y007328D02*
X002080Y007328D01*
X002080Y007170D02*
X002080Y007170D01*
X002392Y007170D02*
X002925Y007170D01*
X002780Y007328D02*
X002520Y007328D01*
X002520Y007487D02*
X002780Y007487D01*
X002780Y007645D02*
X002520Y007645D01*
X002934Y006060D02*
X000460Y006060D01*
X003660Y001147D02*
X003700Y001147D01*
X003700Y000988D02*
X003660Y000988D01*
X003660Y000830D02*
X003700Y000830D01*
X003700Y000671D02*
X003660Y000671D01*
D21*
X002808Y011008D03*
D22*
X003180Y011780D03*
M02*
