G75*
%MOIN*%
%OFA0B0*%
%FSLAX24Y24*%
%IPPOS*%
%LPD*%
%AMOC8*
5,1,8,0,0,1.08239X$1,22.5*
%
%ADD10C,0.0000*%
%ADD11C,0.0650*%
%ADD12OC8,0.0520*%
%ADD13C,0.0740*%
%ADD14OC8,0.0630*%
%ADD15C,0.0630*%
%ADD16C,0.0600*%
%ADD17C,0.0660*%
%ADD18C,0.1300*%
%ADD19C,0.0160*%
%ADD20C,0.0356*%
%ADD21C,0.0317*%
D10*
X000280Y000280D02*
X000280Y016280D01*
X010080Y016280D01*
X010080Y000280D01*
X000280Y000280D01*
X000689Y001480D02*
X000691Y001528D01*
X000697Y001576D01*
X000707Y001623D01*
X000720Y001669D01*
X000738Y001714D01*
X000758Y001758D01*
X000783Y001800D01*
X000811Y001839D01*
X000841Y001876D01*
X000875Y001910D01*
X000912Y001942D01*
X000950Y001971D01*
X000991Y001996D01*
X001034Y002018D01*
X001079Y002036D01*
X001125Y002050D01*
X001172Y002061D01*
X001220Y002068D01*
X001268Y002071D01*
X001316Y002070D01*
X001364Y002065D01*
X001412Y002056D01*
X001458Y002044D01*
X001503Y002027D01*
X001547Y002007D01*
X001589Y001984D01*
X001629Y001957D01*
X001667Y001927D01*
X001702Y001894D01*
X001734Y001858D01*
X001764Y001820D01*
X001790Y001779D01*
X001812Y001736D01*
X001832Y001692D01*
X001847Y001647D01*
X001859Y001600D01*
X001867Y001552D01*
X001871Y001504D01*
X001871Y001456D01*
X001867Y001408D01*
X001859Y001360D01*
X001847Y001313D01*
X001832Y001268D01*
X001812Y001224D01*
X001790Y001181D01*
X001764Y001140D01*
X001734Y001102D01*
X001702Y001066D01*
X001667Y001033D01*
X001629Y001003D01*
X001589Y000976D01*
X001547Y000953D01*
X001503Y000933D01*
X001458Y000916D01*
X001412Y000904D01*
X001364Y000895D01*
X001316Y000890D01*
X001268Y000889D01*
X001220Y000892D01*
X001172Y000899D01*
X001125Y000910D01*
X001079Y000924D01*
X001034Y000942D01*
X000991Y000964D01*
X000950Y000989D01*
X000912Y001018D01*
X000875Y001050D01*
X000841Y001084D01*
X000811Y001121D01*
X000783Y001160D01*
X000758Y001202D01*
X000738Y001246D01*
X000720Y001291D01*
X000707Y001337D01*
X000697Y001384D01*
X000691Y001432D01*
X000689Y001480D01*
X000689Y013880D02*
X000691Y013928D01*
X000697Y013976D01*
X000707Y014023D01*
X000720Y014069D01*
X000738Y014114D01*
X000758Y014158D01*
X000783Y014200D01*
X000811Y014239D01*
X000841Y014276D01*
X000875Y014310D01*
X000912Y014342D01*
X000950Y014371D01*
X000991Y014396D01*
X001034Y014418D01*
X001079Y014436D01*
X001125Y014450D01*
X001172Y014461D01*
X001220Y014468D01*
X001268Y014471D01*
X001316Y014470D01*
X001364Y014465D01*
X001412Y014456D01*
X001458Y014444D01*
X001503Y014427D01*
X001547Y014407D01*
X001589Y014384D01*
X001629Y014357D01*
X001667Y014327D01*
X001702Y014294D01*
X001734Y014258D01*
X001764Y014220D01*
X001790Y014179D01*
X001812Y014136D01*
X001832Y014092D01*
X001847Y014047D01*
X001859Y014000D01*
X001867Y013952D01*
X001871Y013904D01*
X001871Y013856D01*
X001867Y013808D01*
X001859Y013760D01*
X001847Y013713D01*
X001832Y013668D01*
X001812Y013624D01*
X001790Y013581D01*
X001764Y013540D01*
X001734Y013502D01*
X001702Y013466D01*
X001667Y013433D01*
X001629Y013403D01*
X001589Y013376D01*
X001547Y013353D01*
X001503Y013333D01*
X001458Y013316D01*
X001412Y013304D01*
X001364Y013295D01*
X001316Y013290D01*
X001268Y013289D01*
X001220Y013292D01*
X001172Y013299D01*
X001125Y013310D01*
X001079Y013324D01*
X001034Y013342D01*
X000991Y013364D01*
X000950Y013389D01*
X000912Y013418D01*
X000875Y013450D01*
X000841Y013484D01*
X000811Y013521D01*
X000783Y013560D01*
X000758Y013602D01*
X000738Y013646D01*
X000720Y013691D01*
X000707Y013737D01*
X000697Y013784D01*
X000691Y013832D01*
X000689Y013880D01*
X008489Y013880D02*
X008491Y013928D01*
X008497Y013976D01*
X008507Y014023D01*
X008520Y014069D01*
X008538Y014114D01*
X008558Y014158D01*
X008583Y014200D01*
X008611Y014239D01*
X008641Y014276D01*
X008675Y014310D01*
X008712Y014342D01*
X008750Y014371D01*
X008791Y014396D01*
X008834Y014418D01*
X008879Y014436D01*
X008925Y014450D01*
X008972Y014461D01*
X009020Y014468D01*
X009068Y014471D01*
X009116Y014470D01*
X009164Y014465D01*
X009212Y014456D01*
X009258Y014444D01*
X009303Y014427D01*
X009347Y014407D01*
X009389Y014384D01*
X009429Y014357D01*
X009467Y014327D01*
X009502Y014294D01*
X009534Y014258D01*
X009564Y014220D01*
X009590Y014179D01*
X009612Y014136D01*
X009632Y014092D01*
X009647Y014047D01*
X009659Y014000D01*
X009667Y013952D01*
X009671Y013904D01*
X009671Y013856D01*
X009667Y013808D01*
X009659Y013760D01*
X009647Y013713D01*
X009632Y013668D01*
X009612Y013624D01*
X009590Y013581D01*
X009564Y013540D01*
X009534Y013502D01*
X009502Y013466D01*
X009467Y013433D01*
X009429Y013403D01*
X009389Y013376D01*
X009347Y013353D01*
X009303Y013333D01*
X009258Y013316D01*
X009212Y013304D01*
X009164Y013295D01*
X009116Y013290D01*
X009068Y013289D01*
X009020Y013292D01*
X008972Y013299D01*
X008925Y013310D01*
X008879Y013324D01*
X008834Y013342D01*
X008791Y013364D01*
X008750Y013389D01*
X008712Y013418D01*
X008675Y013450D01*
X008641Y013484D01*
X008611Y013521D01*
X008583Y013560D01*
X008558Y013602D01*
X008538Y013646D01*
X008520Y013691D01*
X008507Y013737D01*
X008497Y013784D01*
X008491Y013832D01*
X008489Y013880D01*
X008489Y001480D02*
X008491Y001528D01*
X008497Y001576D01*
X008507Y001623D01*
X008520Y001669D01*
X008538Y001714D01*
X008558Y001758D01*
X008583Y001800D01*
X008611Y001839D01*
X008641Y001876D01*
X008675Y001910D01*
X008712Y001942D01*
X008750Y001971D01*
X008791Y001996D01*
X008834Y002018D01*
X008879Y002036D01*
X008925Y002050D01*
X008972Y002061D01*
X009020Y002068D01*
X009068Y002071D01*
X009116Y002070D01*
X009164Y002065D01*
X009212Y002056D01*
X009258Y002044D01*
X009303Y002027D01*
X009347Y002007D01*
X009389Y001984D01*
X009429Y001957D01*
X009467Y001927D01*
X009502Y001894D01*
X009534Y001858D01*
X009564Y001820D01*
X009590Y001779D01*
X009612Y001736D01*
X009632Y001692D01*
X009647Y001647D01*
X009659Y001600D01*
X009667Y001552D01*
X009671Y001504D01*
X009671Y001456D01*
X009667Y001408D01*
X009659Y001360D01*
X009647Y001313D01*
X009632Y001268D01*
X009612Y001224D01*
X009590Y001181D01*
X009564Y001140D01*
X009534Y001102D01*
X009502Y001066D01*
X009467Y001033D01*
X009429Y001003D01*
X009389Y000976D01*
X009347Y000953D01*
X009303Y000933D01*
X009258Y000916D01*
X009212Y000904D01*
X009164Y000895D01*
X009116Y000890D01*
X009068Y000889D01*
X009020Y000892D01*
X008972Y000899D01*
X008925Y000910D01*
X008879Y000924D01*
X008834Y000942D01*
X008791Y000964D01*
X008750Y000989D01*
X008712Y001018D01*
X008675Y001050D01*
X008641Y001084D01*
X008611Y001121D01*
X008583Y001160D01*
X008558Y001202D01*
X008538Y001246D01*
X008520Y001291D01*
X008507Y001337D01*
X008497Y001384D01*
X008491Y001432D01*
X008489Y001480D01*
D11*
X006280Y003480D03*
X004280Y003480D03*
D12*
X003180Y005280D03*
X003180Y006380D03*
X003180Y007480D03*
X003180Y008680D03*
X002080Y008480D03*
X002080Y007480D03*
X002280Y004080D03*
X002280Y003080D03*
X005680Y011380D03*
X005680Y012380D03*
X007180Y008680D03*
X007180Y007480D03*
X007180Y006380D03*
X007180Y005280D03*
X008280Y004080D03*
X008280Y003080D03*
D13*
X008780Y005180D03*
X008780Y006180D03*
X008780Y007180D03*
X008480Y009580D03*
X008480Y010580D03*
X006580Y010580D03*
X006580Y009580D03*
D14*
X007580Y011380D03*
D15*
X007580Y012380D03*
D16*
X006680Y001580D02*
X006680Y000980D01*
X005680Y000980D02*
X005680Y001580D01*
X004680Y001580D02*
X004680Y000980D01*
X003680Y000980D02*
X003680Y001580D01*
D17*
X004688Y013600D03*
X004688Y014380D03*
X005672Y014380D03*
X005672Y013600D03*
D18*
X007550Y015450D03*
X002810Y015450D03*
D19*
X002890Y015412D02*
X007470Y015412D01*
X007470Y015370D02*
X006723Y015370D01*
X006734Y015288D01*
X006762Y015183D01*
X006804Y015082D01*
X006858Y014988D01*
X006925Y014902D01*
X007002Y014825D01*
X007088Y014758D01*
X007182Y014704D01*
X007283Y014662D01*
X007388Y014634D01*
X007470Y014623D01*
X007470Y015370D01*
X007470Y015530D01*
X006723Y015530D01*
X006734Y015612D01*
X006762Y015717D01*
X006804Y015818D01*
X006858Y015912D01*
X006925Y015998D01*
X007002Y016075D01*
X007034Y016100D01*
X003326Y016100D01*
X003358Y016075D01*
X003435Y015998D01*
X003502Y015912D01*
X003556Y015818D01*
X003598Y015717D01*
X003626Y015612D01*
X003637Y015530D01*
X002890Y015530D01*
X002890Y015370D01*
X003637Y015370D01*
X003626Y015288D01*
X003598Y015183D01*
X003556Y015082D01*
X003502Y014988D01*
X003435Y014902D01*
X003358Y014825D01*
X003272Y014758D01*
X003178Y014704D01*
X003077Y014662D01*
X002972Y014634D01*
X002890Y014623D01*
X002890Y015370D01*
X002730Y015370D01*
X002730Y014623D01*
X002648Y014634D01*
X002543Y014662D01*
X002442Y014704D01*
X002348Y014758D01*
X002262Y014825D01*
X002185Y014902D01*
X002118Y014988D01*
X002064Y015082D01*
X002022Y015183D01*
X001994Y015288D01*
X001983Y015370D01*
X002730Y015370D01*
X002730Y015530D01*
X001983Y015530D01*
X001994Y015612D01*
X002022Y015717D01*
X002064Y015818D01*
X002118Y015912D01*
X002185Y015998D01*
X002262Y016075D01*
X002294Y016100D01*
X000460Y016100D01*
X000460Y000460D01*
X009900Y000460D01*
X009900Y016100D01*
X008066Y016100D01*
X008098Y016075D01*
X008175Y015998D01*
X008242Y015912D01*
X008296Y015818D01*
X008338Y015717D01*
X008366Y015612D01*
X008377Y015530D01*
X007630Y015530D01*
X007630Y015370D01*
X008377Y015370D01*
X008366Y015288D01*
X008338Y015183D01*
X008296Y015082D01*
X008242Y014988D01*
X008175Y014902D01*
X008098Y014825D01*
X008012Y014758D01*
X007918Y014704D01*
X007817Y014662D01*
X007712Y014634D01*
X007630Y014623D01*
X007630Y015370D01*
X007470Y015370D01*
X007470Y015253D02*
X007630Y015253D01*
X007630Y015095D02*
X007470Y015095D01*
X007470Y014936D02*
X007630Y014936D01*
X007630Y014778D02*
X007470Y014778D01*
X007630Y015412D02*
X009900Y015412D01*
X009900Y015570D02*
X008371Y015570D01*
X008333Y015729D02*
X009900Y015729D01*
X009900Y015887D02*
X008256Y015887D01*
X008128Y016046D02*
X009900Y016046D01*
X009900Y015253D02*
X008357Y015253D01*
X008301Y015095D02*
X009900Y015095D01*
X009900Y014936D02*
X008202Y014936D01*
X008037Y014778D02*
X009900Y014778D01*
X009900Y014619D02*
X009309Y014619D01*
X009233Y014651D02*
X008927Y014651D01*
X008644Y014533D01*
X008427Y014316D01*
X008309Y014033D01*
X008309Y013727D01*
X008427Y013444D01*
X008644Y013227D01*
X008927Y013109D01*
X009233Y013109D01*
X009516Y013227D01*
X009733Y013444D01*
X009851Y013727D01*
X009851Y014033D01*
X009733Y014316D01*
X009516Y014533D01*
X009233Y014651D01*
X009589Y014461D02*
X009900Y014461D01*
X009900Y014302D02*
X009739Y014302D01*
X009805Y014144D02*
X009900Y014144D01*
X009900Y013985D02*
X009851Y013985D01*
X009851Y013827D02*
X009900Y013827D01*
X009900Y013668D02*
X009826Y013668D01*
X009761Y013510D02*
X009900Y013510D01*
X009900Y013351D02*
X009641Y013351D01*
X009434Y013193D02*
X009900Y013193D01*
X009900Y013034D02*
X005394Y013034D01*
X005383Y013168D02*
X005571Y013090D01*
X005774Y013090D01*
X005961Y013168D01*
X006104Y013311D01*
X006182Y013499D01*
X006182Y013701D01*
X006104Y013889D01*
X006003Y013990D01*
X006104Y014091D01*
X006182Y014279D01*
X006182Y014481D01*
X006104Y014669D01*
X005961Y014812D01*
X005774Y014890D01*
X005571Y014890D01*
X005383Y014812D01*
X005240Y014669D01*
X005178Y014521D01*
X005161Y014576D01*
X005124Y014647D01*
X005077Y014712D01*
X005020Y014769D01*
X004955Y014816D01*
X004884Y014853D01*
X004807Y014877D01*
X004728Y014890D01*
X004698Y014890D01*
X004698Y014390D01*
X004678Y014390D01*
X004678Y014890D01*
X004648Y014890D01*
X004568Y014877D01*
X004492Y014853D01*
X004421Y014816D01*
X004356Y014769D01*
X004299Y014712D01*
X004252Y014647D01*
X004215Y014576D01*
X004190Y014499D01*
X004178Y014420D01*
X004178Y014390D01*
X004678Y014390D01*
X004678Y014370D01*
X004178Y014370D01*
X004178Y014340D01*
X004190Y014261D01*
X004215Y014184D01*
X004252Y014113D01*
X004299Y014048D01*
X004356Y013991D01*
X004357Y013990D01*
X004256Y013889D01*
X004178Y013701D01*
X004178Y013499D01*
X004256Y013311D01*
X004399Y013168D01*
X004586Y013090D01*
X004602Y013090D01*
X005240Y012452D01*
X005240Y012198D01*
X005498Y011940D01*
X005862Y011940D01*
X006120Y012198D01*
X006120Y012562D01*
X005862Y012820D01*
X005608Y012820D01*
X005118Y013309D01*
X005120Y013311D01*
X005180Y013455D01*
X005240Y013311D01*
X005383Y013168D01*
X005358Y013193D02*
X005235Y013193D01*
X005223Y013351D02*
X005137Y013351D01*
X004817Y012876D02*
X000460Y012876D01*
X000460Y013034D02*
X004658Y013034D01*
X004688Y013372D02*
X005680Y012380D01*
X005355Y012083D02*
X003333Y012083D01*
X003372Y012067D02*
X003247Y012118D01*
X003113Y012118D01*
X002988Y012067D01*
X002893Y011972D01*
X002842Y011847D01*
X002842Y011713D01*
X002893Y011588D01*
X002920Y011561D01*
X002920Y011349D01*
X002879Y011366D01*
X002737Y011366D01*
X002605Y011312D01*
X002504Y011211D01*
X002450Y011079D01*
X002450Y011004D01*
X002420Y010932D01*
X002420Y009488D01*
X002033Y009100D01*
X001933Y009000D01*
X001860Y008927D01*
X001827Y008850D01*
X001640Y008662D01*
X001640Y008298D01*
X001898Y008040D01*
X002262Y008040D01*
X002320Y008098D01*
X002320Y007862D01*
X002262Y007920D01*
X002080Y007920D01*
X002080Y007480D01*
X002080Y007480D01*
X002080Y007040D01*
X002262Y007040D01*
X002329Y007107D01*
X002360Y007033D01*
X002660Y006733D01*
X002733Y006660D01*
X002807Y006629D01*
X002740Y006562D01*
X002740Y006198D01*
X002998Y005940D01*
X003362Y005940D01*
X003620Y006198D01*
X003620Y006562D01*
X003562Y006620D01*
X003972Y006620D01*
X004620Y005972D01*
X004620Y003854D01*
X004566Y003908D01*
X004380Y003985D01*
X004180Y003985D01*
X003994Y003908D01*
X003852Y003766D01*
X003775Y003580D01*
X003775Y003380D01*
X003786Y003353D01*
X003772Y003340D01*
X002642Y003340D01*
X002462Y003520D01*
X002098Y003520D01*
X001840Y003262D01*
X001840Y002898D01*
X002098Y002640D01*
X002462Y002640D01*
X002642Y002820D01*
X003932Y002820D01*
X004027Y002860D01*
X004100Y002933D01*
X004153Y002986D01*
X004180Y002975D01*
X004380Y002975D01*
X004566Y003052D01*
X004627Y003112D01*
X004660Y003033D01*
X005632Y002060D01*
X005585Y002060D01*
X005408Y001987D01*
X005273Y001852D01*
X005200Y001675D01*
X005200Y000885D01*
X005273Y000708D01*
X005408Y000573D01*
X005585Y000500D01*
X005775Y000500D01*
X005952Y000573D01*
X006087Y000708D01*
X006160Y000885D01*
X006160Y001532D01*
X006200Y001492D01*
X006200Y000885D01*
X006273Y000708D01*
X006408Y000573D01*
X006585Y000500D01*
X006775Y000500D01*
X006952Y000573D01*
X007087Y000708D01*
X007160Y000885D01*
X007160Y001675D01*
X007087Y001852D01*
X006952Y001987D01*
X006775Y002060D01*
X006585Y002060D01*
X006431Y001996D01*
X005140Y003288D01*
X005140Y006132D01*
X005100Y006227D01*
X005027Y006300D01*
X004227Y007100D01*
X004132Y007140D01*
X003462Y007140D01*
X003542Y007220D01*
X005432Y007220D01*
X005527Y007260D01*
X006753Y008485D01*
X006998Y008240D01*
X007362Y008240D01*
X007620Y008498D01*
X007620Y008862D01*
X007375Y009107D01*
X007937Y009670D01*
X007930Y009623D01*
X007930Y009580D01*
X008480Y009580D01*
X009030Y009580D01*
X009030Y009623D01*
X009016Y009709D01*
X008990Y009791D01*
X008950Y009868D01*
X008900Y009938D01*
X008838Y010000D01*
X008768Y010050D01*
X008710Y010080D01*
X008792Y010114D01*
X008946Y010268D01*
X009030Y010471D01*
X009030Y010689D01*
X008946Y010892D01*
X008792Y011046D01*
X008589Y011130D01*
X008371Y011130D01*
X008168Y011046D01*
X008014Y010892D01*
X007930Y010689D01*
X007930Y010471D01*
X007951Y010419D01*
X007130Y009598D01*
X007130Y009623D01*
X007116Y009709D01*
X007090Y009791D01*
X007050Y009868D01*
X007000Y009938D01*
X006938Y010000D01*
X006868Y010050D01*
X006810Y010080D01*
X006892Y010114D01*
X007046Y010268D01*
X007130Y010471D01*
X007130Y010689D01*
X007046Y010892D01*
X006892Y011046D01*
X006689Y011130D01*
X006471Y011130D01*
X006268Y011046D01*
X006114Y010892D01*
X006030Y010689D01*
X006030Y010471D01*
X006081Y010348D01*
X004672Y008940D01*
X003542Y008940D01*
X003375Y009107D01*
X003400Y009133D01*
X003440Y009228D01*
X003440Y011561D01*
X003467Y011588D01*
X003518Y011713D01*
X003518Y011847D01*
X003467Y011972D01*
X003372Y012067D01*
X003486Y011925D02*
X007386Y011925D01*
X007375Y011875D02*
X007085Y011585D01*
X007085Y011380D01*
X007580Y011380D01*
X007580Y011380D01*
X007580Y011875D01*
X007785Y011875D01*
X008075Y011585D01*
X008075Y011380D01*
X007580Y011380D01*
X007580Y011380D01*
X007580Y011380D01*
X007580Y011875D01*
X007375Y011875D01*
X007482Y011885D02*
X007300Y011960D01*
X007160Y012100D01*
X007085Y012282D01*
X007085Y012478D01*
X007160Y012660D01*
X007300Y012800D01*
X007482Y012875D01*
X007678Y012875D01*
X007860Y012800D01*
X008000Y012660D01*
X008075Y012478D01*
X008075Y012282D01*
X008000Y012100D01*
X007860Y011960D01*
X007678Y011885D01*
X007482Y011885D01*
X007580Y011766D02*
X007580Y011766D01*
X007580Y011608D02*
X007580Y011608D01*
X007580Y011449D02*
X007580Y011449D01*
X007580Y011380D02*
X007085Y011380D01*
X007085Y011175D01*
X007375Y010885D01*
X007580Y010885D01*
X007785Y010885D01*
X008075Y011175D01*
X008075Y011380D01*
X007580Y011380D01*
X007580Y010885D01*
X007580Y011380D01*
X007580Y011380D01*
X007580Y011291D02*
X007580Y011291D01*
X007580Y011132D02*
X007580Y011132D01*
X007580Y010974D02*
X007580Y010974D01*
X007874Y010974D02*
X008096Y010974D01*
X008032Y011132D02*
X009900Y011132D01*
X009900Y010974D02*
X008864Y010974D01*
X008978Y010815D02*
X009900Y010815D01*
X009900Y010657D02*
X009030Y010657D01*
X009030Y010498D02*
X009900Y010498D01*
X009900Y010340D02*
X008976Y010340D01*
X008859Y010181D02*
X009900Y010181D01*
X009900Y010023D02*
X008807Y010023D01*
X008953Y009864D02*
X009900Y009864D01*
X009900Y009706D02*
X009017Y009706D01*
X009030Y009580D02*
X008480Y009580D01*
X008480Y009580D01*
X008480Y009030D01*
X008523Y009030D01*
X008609Y009044D01*
X008691Y009070D01*
X008768Y009110D01*
X008838Y009160D01*
X008900Y009222D01*
X008950Y009292D01*
X008990Y009369D01*
X009016Y009451D01*
X009030Y009537D01*
X009030Y009580D01*
X009030Y009547D02*
X009900Y009547D01*
X009900Y009389D02*
X008996Y009389D01*
X008906Y009230D02*
X009900Y009230D01*
X009900Y009072D02*
X008694Y009072D01*
X008480Y009072D02*
X008480Y009072D01*
X008480Y009030D02*
X008480Y009580D01*
X008480Y009580D01*
X008480Y009580D01*
X007930Y009580D01*
X007930Y009537D01*
X007944Y009451D01*
X007970Y009369D01*
X008010Y009292D01*
X008060Y009222D01*
X008122Y009160D01*
X008192Y009110D01*
X008269Y009070D01*
X008351Y009044D01*
X008437Y009030D01*
X008480Y009030D01*
X008480Y009230D02*
X008480Y009230D01*
X008480Y009389D02*
X008480Y009389D01*
X008480Y009547D02*
X008480Y009547D01*
X008266Y009072D02*
X007411Y009072D01*
X007498Y009230D02*
X008054Y009230D01*
X007964Y009389D02*
X007656Y009389D01*
X007815Y009547D02*
X007930Y009547D01*
X007713Y010181D02*
X006959Y010181D01*
X006907Y010023D02*
X007555Y010023D01*
X007396Y009864D02*
X007053Y009864D01*
X007117Y009706D02*
X007238Y009706D01*
X007076Y010340D02*
X007872Y010340D01*
X007930Y010498D02*
X007130Y010498D01*
X007130Y010657D02*
X007930Y010657D01*
X007982Y010815D02*
X007078Y010815D01*
X006964Y010974D02*
X007286Y010974D01*
X007128Y011132D02*
X006054Y011132D01*
X006120Y011198D02*
X006120Y011380D01*
X006120Y011562D01*
X005862Y011820D01*
X005680Y011820D01*
X005680Y011380D01*
X005680Y011380D01*
X006120Y011380D01*
X005680Y011380D01*
X005680Y011380D01*
X005680Y011380D01*
X005240Y011380D01*
X005240Y011562D01*
X005498Y011820D01*
X005680Y011820D01*
X005680Y011380D01*
X005680Y010940D01*
X005862Y010940D01*
X006120Y011198D01*
X006120Y011291D02*
X007085Y011291D01*
X007085Y011449D02*
X006120Y011449D01*
X006075Y011608D02*
X007107Y011608D01*
X007266Y011766D02*
X005916Y011766D01*
X006005Y012083D02*
X007177Y012083D01*
X007102Y012242D02*
X006120Y012242D01*
X006120Y012400D02*
X007085Y012400D01*
X007118Y012559D02*
X006120Y012559D01*
X005965Y012717D02*
X007217Y012717D01*
X007774Y011925D02*
X009900Y011925D01*
X009900Y012083D02*
X007983Y012083D01*
X008058Y012242D02*
X009900Y012242D01*
X009900Y012400D02*
X008075Y012400D01*
X008042Y012559D02*
X009900Y012559D01*
X009900Y012717D02*
X007943Y012717D01*
X008399Y013510D02*
X006182Y013510D01*
X006182Y013668D02*
X008334Y013668D01*
X008309Y013827D02*
X006130Y013827D01*
X006126Y014144D02*
X008355Y014144D01*
X008309Y013985D02*
X006008Y013985D01*
X006182Y014302D02*
X008421Y014302D01*
X008571Y014461D02*
X006182Y014461D01*
X006125Y014619D02*
X008851Y014619D01*
X008519Y013351D02*
X006121Y013351D01*
X005986Y013193D02*
X008726Y013193D01*
X007894Y011766D02*
X009900Y011766D01*
X009900Y011608D02*
X008053Y011608D01*
X008075Y011449D02*
X009900Y011449D01*
X009900Y011291D02*
X008075Y011291D01*
X008480Y010580D02*
X005380Y007480D01*
X003180Y007480D01*
X003492Y007170D02*
X006868Y007170D01*
X006740Y007298D02*
X006998Y007040D01*
X007362Y007040D01*
X007620Y007298D01*
X007620Y007662D01*
X007362Y007920D01*
X006998Y007920D01*
X006740Y007662D01*
X006740Y007298D01*
X006740Y007328D02*
X005596Y007328D01*
X005754Y007487D02*
X006740Y007487D01*
X006740Y007645D02*
X005913Y007645D01*
X006071Y007804D02*
X006881Y007804D01*
X006959Y008279D02*
X006547Y008279D01*
X006705Y008438D02*
X006800Y008438D01*
X006388Y008121D02*
X009900Y008121D01*
X009900Y008279D02*
X007401Y008279D01*
X007560Y008438D02*
X009900Y008438D01*
X009900Y008596D02*
X007620Y008596D01*
X007620Y008755D02*
X009900Y008755D01*
X009900Y008913D02*
X007569Y008913D01*
X007479Y007804D02*
X009900Y007804D01*
X009900Y007962D02*
X006230Y007962D01*
X006872Y006694D02*
X004634Y006694D01*
X004475Y006853D02*
X008085Y006853D01*
X008243Y007011D02*
X004317Y007011D01*
X004080Y006880D02*
X004880Y006080D01*
X004880Y003180D01*
X006680Y001380D01*
X006680Y001280D01*
X007000Y001939D02*
X008449Y001939D01*
X008427Y001916D02*
X008309Y001633D01*
X008309Y001327D01*
X008427Y001044D01*
X008644Y000827D01*
X008927Y000709D01*
X009233Y000709D01*
X009516Y000827D01*
X009733Y001044D01*
X009851Y001327D01*
X009851Y001633D01*
X009733Y001916D01*
X009516Y002133D01*
X009233Y002251D01*
X008927Y002251D01*
X008644Y002133D01*
X008427Y001916D01*
X008370Y001781D02*
X007116Y001781D01*
X007160Y001622D02*
X008309Y001622D01*
X008309Y001464D02*
X007160Y001464D01*
X007160Y001305D02*
X008318Y001305D01*
X008384Y001147D02*
X007160Y001147D01*
X007160Y000988D02*
X008482Y000988D01*
X008641Y000830D02*
X007137Y000830D01*
X007050Y000671D02*
X009900Y000671D01*
X009900Y000513D02*
X006806Y000513D01*
X006554Y000513D02*
X005806Y000513D01*
X006050Y000671D02*
X006310Y000671D01*
X006223Y000830D02*
X006137Y000830D01*
X006160Y000988D02*
X006200Y000988D01*
X006200Y001147D02*
X006160Y001147D01*
X006160Y001305D02*
X006200Y001305D01*
X006200Y001464D02*
X006160Y001464D01*
X006330Y002098D02*
X008608Y002098D01*
X008462Y002640D02*
X008720Y002898D01*
X008720Y003262D01*
X008462Y003520D01*
X008098Y003520D01*
X007918Y003340D01*
X006788Y003340D01*
X006774Y003353D01*
X006785Y003380D01*
X006785Y003580D01*
X006708Y003766D01*
X006566Y003908D01*
X006380Y003985D01*
X006180Y003985D01*
X005994Y003908D01*
X005852Y003766D01*
X005775Y003580D01*
X005775Y003380D01*
X005852Y003194D01*
X005994Y003052D01*
X006180Y002975D01*
X006380Y002975D01*
X006407Y002986D01*
X006533Y002860D01*
X006628Y002820D01*
X007918Y002820D01*
X008098Y002640D01*
X008462Y002640D01*
X008554Y002732D02*
X009900Y002732D01*
X009900Y002890D02*
X008712Y002890D01*
X008720Y003049D02*
X009900Y003049D01*
X009900Y003207D02*
X008720Y003207D01*
X008617Y003366D02*
X009900Y003366D01*
X009900Y003524D02*
X006785Y003524D01*
X006779Y003366D02*
X007943Y003366D01*
X008055Y003683D02*
X006743Y003683D01*
X006633Y003841D02*
X007897Y003841D01*
X007840Y003898D02*
X008098Y003640D01*
X008280Y003640D01*
X008462Y003640D01*
X008720Y003898D01*
X008720Y004080D01*
X008720Y004262D01*
X008462Y004520D01*
X008280Y004520D01*
X008280Y004080D01*
X008280Y004080D01*
X008720Y004080D01*
X008280Y004080D01*
X008280Y004080D01*
X008280Y004080D01*
X007840Y004080D01*
X007840Y004262D01*
X008098Y004520D01*
X008280Y004520D01*
X008280Y004080D01*
X008280Y003640D01*
X008280Y004080D01*
X008280Y004080D01*
X007840Y004080D01*
X007840Y003898D01*
X007840Y004000D02*
X005140Y004000D01*
X005140Y004158D02*
X007840Y004158D01*
X007894Y004317D02*
X005140Y004317D01*
X005140Y004475D02*
X008053Y004475D01*
X008280Y004475D02*
X008280Y004475D01*
X008280Y004317D02*
X008280Y004317D01*
X008280Y004158D02*
X008280Y004158D01*
X008280Y004000D02*
X008280Y004000D01*
X008280Y003841D02*
X008280Y003841D01*
X008280Y003683D02*
X008280Y003683D01*
X008505Y003683D02*
X009900Y003683D01*
X009900Y003841D02*
X008663Y003841D01*
X008720Y004000D02*
X009900Y004000D01*
X009900Y004158D02*
X008720Y004158D01*
X008666Y004317D02*
X009900Y004317D01*
X009900Y004475D02*
X008507Y004475D01*
X008569Y004670D02*
X008492Y004710D01*
X008422Y004760D01*
X008360Y004822D01*
X008310Y004892D01*
X008270Y004969D01*
X008244Y005051D01*
X008230Y005137D01*
X008230Y005180D01*
X008780Y005180D01*
X009330Y005180D01*
X009330Y005223D01*
X009316Y005309D01*
X009290Y005391D01*
X009250Y005468D01*
X009200Y005538D01*
X009138Y005600D01*
X009068Y005650D01*
X009010Y005680D01*
X009092Y005714D01*
X009246Y005868D01*
X009330Y006071D01*
X009330Y006289D01*
X009246Y006492D01*
X009092Y006646D01*
X009010Y006680D01*
X009092Y006714D01*
X009246Y006868D01*
X009330Y007071D01*
X009330Y007289D01*
X009246Y007492D01*
X009092Y007646D01*
X008889Y007730D01*
X008671Y007730D01*
X008468Y007646D01*
X008314Y007492D01*
X008230Y007289D01*
X008230Y007071D01*
X008251Y007019D01*
X007620Y006388D01*
X007620Y006562D01*
X007362Y006820D01*
X006998Y006820D01*
X006740Y006562D01*
X006740Y006198D01*
X006998Y005940D01*
X007172Y005940D01*
X006960Y005727D01*
X006927Y005650D01*
X006740Y005462D01*
X006740Y005098D01*
X006998Y004840D01*
X007362Y004840D01*
X007620Y005098D01*
X007620Y005462D01*
X007525Y005557D01*
X008230Y006262D01*
X008230Y006071D01*
X008314Y005868D01*
X008468Y005714D01*
X008550Y005680D01*
X008492Y005650D01*
X008422Y005600D01*
X008360Y005538D01*
X008310Y005468D01*
X008270Y005391D01*
X008244Y005309D01*
X008230Y005223D01*
X008230Y005180D01*
X008780Y005180D01*
X008780Y005180D01*
X008780Y005180D01*
X009330Y005180D01*
X009330Y005137D01*
X009316Y005051D01*
X009290Y004969D01*
X009250Y004892D01*
X009200Y004822D01*
X009138Y004760D01*
X009068Y004710D01*
X008991Y004670D01*
X008909Y004644D01*
X008823Y004630D01*
X008780Y004630D01*
X008780Y005180D01*
X008780Y005180D01*
X008780Y004630D01*
X008737Y004630D01*
X008651Y004644D01*
X008569Y004670D01*
X008715Y004634D02*
X005140Y004634D01*
X005140Y004792D02*
X008390Y004792D01*
X008280Y004951D02*
X007473Y004951D01*
X007620Y005109D02*
X008234Y005109D01*
X008237Y005268D02*
X007620Y005268D01*
X007620Y005426D02*
X008288Y005426D01*
X008407Y005585D02*
X007552Y005585D01*
X007711Y005743D02*
X008439Y005743D01*
X008300Y005902D02*
X007869Y005902D01*
X008028Y006060D02*
X008234Y006060D01*
X008230Y006219D02*
X008186Y006219D01*
X007926Y006694D02*
X007488Y006694D01*
X007620Y006536D02*
X007768Y006536D01*
X007492Y007170D02*
X008230Y007170D01*
X008246Y007328D02*
X007620Y007328D01*
X007620Y007487D02*
X008312Y007487D01*
X008467Y007645D02*
X007620Y007645D01*
X006740Y006536D02*
X004792Y006536D01*
X004951Y006377D02*
X006740Y006377D01*
X006740Y006219D02*
X005104Y006219D01*
X005140Y006060D02*
X006878Y006060D01*
X007134Y005902D02*
X005140Y005902D01*
X005140Y005743D02*
X006975Y005743D01*
X006862Y005585D02*
X005140Y005585D01*
X005140Y005426D02*
X006740Y005426D01*
X006740Y005268D02*
X005140Y005268D01*
X005140Y005109D02*
X006740Y005109D01*
X006887Y004951D02*
X005140Y004951D01*
X004620Y004951D02*
X003473Y004951D01*
X003362Y004840D02*
X003620Y005098D01*
X003620Y005462D01*
X003362Y005720D01*
X002998Y005720D01*
X002740Y005462D01*
X002740Y005098D01*
X002998Y004840D01*
X003362Y004840D01*
X003620Y005109D02*
X004620Y005109D01*
X004620Y005268D02*
X003620Y005268D01*
X003620Y005426D02*
X004620Y005426D01*
X004620Y005585D02*
X003498Y005585D01*
X003482Y006060D02*
X004532Y006060D01*
X004620Y005902D02*
X000460Y005902D01*
X000460Y006060D02*
X002878Y006060D01*
X002740Y006219D02*
X000460Y006219D01*
X000460Y006377D02*
X002740Y006377D01*
X002740Y006536D02*
X000460Y006536D01*
X000460Y006694D02*
X002698Y006694D01*
X002880Y006880D02*
X004080Y006880D01*
X004057Y006536D02*
X003620Y006536D01*
X003620Y006377D02*
X004215Y006377D01*
X004374Y006219D02*
X003620Y006219D01*
X002862Y005585D02*
X000460Y005585D01*
X000460Y005743D02*
X004620Y005743D01*
X004620Y004792D02*
X000460Y004792D01*
X000460Y004634D02*
X004620Y004634D01*
X004620Y004475D02*
X002507Y004475D01*
X002462Y004520D02*
X002280Y004520D01*
X002280Y004080D01*
X002280Y004080D01*
X002720Y004080D01*
X002720Y004262D01*
X002462Y004520D01*
X002280Y004520D02*
X002098Y004520D01*
X001840Y004262D01*
X001840Y004080D01*
X002280Y004080D01*
X002280Y004080D01*
X002280Y004080D01*
X002280Y004520D01*
X002280Y004475D02*
X002280Y004475D01*
X002280Y004317D02*
X002280Y004317D01*
X002280Y004158D02*
X002280Y004158D01*
X002280Y004080D02*
X001840Y004080D01*
X001840Y003898D01*
X002098Y003640D01*
X002280Y003640D01*
X002462Y003640D01*
X002720Y003898D01*
X002720Y004080D01*
X002280Y004080D01*
X002280Y003640D01*
X002280Y004080D01*
X002280Y004080D01*
X002280Y004000D02*
X002280Y004000D01*
X002280Y003841D02*
X002280Y003841D01*
X002280Y003683D02*
X002280Y003683D01*
X002505Y003683D02*
X003817Y003683D01*
X003775Y003524D02*
X000460Y003524D01*
X000460Y003366D02*
X001943Y003366D01*
X001840Y003207D02*
X000460Y003207D01*
X000460Y003049D02*
X001840Y003049D01*
X001848Y002890D02*
X000460Y002890D01*
X000460Y002732D02*
X002006Y002732D01*
X002280Y003080D02*
X003880Y003080D01*
X004280Y003480D01*
X004558Y003049D02*
X004653Y003049D01*
X004802Y002890D02*
X004058Y002890D01*
X003781Y003366D02*
X002617Y003366D01*
X002663Y003841D02*
X003927Y003841D01*
X004620Y004000D02*
X002720Y004000D01*
X002720Y004158D02*
X004620Y004158D01*
X004620Y004317D02*
X002666Y004317D01*
X002887Y004951D02*
X000460Y004951D01*
X000460Y005109D02*
X002740Y005109D01*
X002740Y005268D02*
X000460Y005268D01*
X000460Y005426D02*
X002740Y005426D01*
X002053Y004475D02*
X000460Y004475D01*
X000460Y004317D02*
X001894Y004317D01*
X001840Y004158D02*
X000460Y004158D01*
X000460Y004000D02*
X001840Y004000D01*
X001897Y003841D02*
X000460Y003841D01*
X000460Y003683D02*
X002055Y003683D01*
X002554Y002732D02*
X004961Y002732D01*
X005119Y002573D02*
X000460Y002573D01*
X000460Y002415D02*
X005278Y002415D01*
X005436Y002256D02*
X000460Y002256D01*
X000460Y002098D02*
X000808Y002098D01*
X000844Y002133D02*
X000627Y001916D01*
X000509Y001633D01*
X000509Y001327D01*
X000627Y001044D01*
X000844Y000827D01*
X001127Y000709D01*
X001433Y000709D01*
X001716Y000827D01*
X001933Y001044D01*
X002051Y001327D01*
X002051Y001633D01*
X001933Y001916D01*
X001716Y002133D01*
X001433Y002251D01*
X001127Y002251D01*
X000844Y002133D01*
X000649Y001939D02*
X000460Y001939D01*
X000460Y001781D02*
X000570Y001781D01*
X000509Y001622D02*
X000460Y001622D01*
X000460Y001464D02*
X000509Y001464D01*
X000518Y001305D02*
X000460Y001305D01*
X000460Y001147D02*
X000584Y001147D01*
X000682Y000988D02*
X000460Y000988D01*
X000460Y000830D02*
X000841Y000830D01*
X000460Y000671D02*
X003311Y000671D01*
X003314Y000667D02*
X003367Y000614D01*
X003428Y000569D01*
X003496Y000535D01*
X003568Y000512D01*
X003642Y000500D01*
X003660Y000500D01*
X003660Y001260D01*
X003700Y001260D01*
X003700Y001300D01*
X004160Y001300D01*
X004160Y001618D01*
X004148Y001692D01*
X004125Y001764D01*
X004091Y001832D01*
X004046Y001893D01*
X003993Y001946D01*
X003932Y001991D01*
X003864Y002025D01*
X003792Y002048D01*
X003718Y002060D01*
X003700Y002060D01*
X003700Y001300D01*
X003660Y001300D01*
X003660Y002060D01*
X003642Y002060D01*
X003568Y002048D01*
X003496Y002025D01*
X003428Y001991D01*
X003367Y001946D01*
X003314Y001893D01*
X003269Y001832D01*
X003235Y001764D01*
X003212Y001692D01*
X003200Y001618D01*
X003200Y001300D01*
X003660Y001300D01*
X003660Y001260D01*
X003200Y001260D01*
X003200Y000942D01*
X003212Y000868D01*
X003235Y000796D01*
X003269Y000728D01*
X003314Y000667D01*
X003224Y000830D02*
X001719Y000830D01*
X001878Y000988D02*
X003200Y000988D01*
X003200Y001147D02*
X001976Y001147D01*
X002042Y001305D02*
X003200Y001305D01*
X003200Y001464D02*
X002051Y001464D01*
X002051Y001622D02*
X003201Y001622D01*
X003243Y001781D02*
X001990Y001781D01*
X001911Y001939D02*
X003360Y001939D01*
X003660Y001939D02*
X003700Y001939D01*
X003700Y001781D02*
X003660Y001781D01*
X003660Y001622D02*
X003700Y001622D01*
X003700Y001464D02*
X003660Y001464D01*
X003660Y001305D02*
X003700Y001305D01*
X003700Y001260D02*
X004160Y001260D01*
X004160Y000942D01*
X004148Y000868D01*
X004125Y000796D01*
X004091Y000728D01*
X004046Y000667D01*
X003993Y000614D01*
X003932Y000569D01*
X003864Y000535D01*
X003792Y000512D01*
X003718Y000500D01*
X003700Y000500D01*
X003700Y001260D01*
X003700Y001147D02*
X003660Y001147D01*
X003660Y000988D02*
X003700Y000988D01*
X003700Y000830D02*
X003660Y000830D01*
X003660Y000671D02*
X003700Y000671D01*
X003700Y000513D02*
X003660Y000513D01*
X003565Y000513D02*
X000460Y000513D01*
X001752Y002098D02*
X005595Y002098D01*
X005360Y001939D02*
X005000Y001939D01*
X004952Y001987D02*
X004775Y002060D01*
X004585Y002060D01*
X004408Y001987D01*
X004273Y001852D01*
X004200Y001675D01*
X004200Y000885D01*
X004273Y000708D01*
X004408Y000573D01*
X004585Y000500D01*
X004775Y000500D01*
X004952Y000573D01*
X005087Y000708D01*
X005160Y000885D01*
X005160Y001675D01*
X005087Y001852D01*
X004952Y001987D01*
X005116Y001781D02*
X005244Y001781D01*
X005200Y001622D02*
X005160Y001622D01*
X005160Y001464D02*
X005200Y001464D01*
X005200Y001305D02*
X005160Y001305D01*
X005160Y001147D02*
X005200Y001147D01*
X005200Y000988D02*
X005160Y000988D01*
X005137Y000830D02*
X005223Y000830D01*
X005310Y000671D02*
X005050Y000671D01*
X004806Y000513D02*
X005554Y000513D01*
X006172Y002256D02*
X009900Y002256D01*
X009900Y002098D02*
X009552Y002098D01*
X009711Y001939D02*
X009900Y001939D01*
X009900Y001781D02*
X009790Y001781D01*
X009851Y001622D02*
X009900Y001622D01*
X009900Y001464D02*
X009851Y001464D01*
X009842Y001305D02*
X009900Y001305D01*
X009900Y001147D02*
X009776Y001147D01*
X009678Y000988D02*
X009900Y000988D01*
X009900Y000830D02*
X009519Y000830D01*
X009900Y002415D02*
X006013Y002415D01*
X005855Y002573D02*
X009900Y002573D01*
X009900Y004634D02*
X008845Y004634D01*
X008780Y004634D02*
X008780Y004634D01*
X008780Y004792D02*
X008780Y004792D01*
X008780Y004951D02*
X008780Y004951D01*
X008780Y005109D02*
X008780Y005109D01*
X009170Y004792D02*
X009900Y004792D01*
X009900Y004951D02*
X009280Y004951D01*
X009326Y005109D02*
X009900Y005109D01*
X009900Y005268D02*
X009323Y005268D01*
X009272Y005426D02*
X009900Y005426D01*
X009900Y005585D02*
X009153Y005585D01*
X009121Y005743D02*
X009900Y005743D01*
X009900Y005902D02*
X009260Y005902D01*
X009326Y006060D02*
X009900Y006060D01*
X009900Y006219D02*
X009330Y006219D01*
X009294Y006377D02*
X009900Y006377D01*
X009900Y006536D02*
X009202Y006536D01*
X009044Y006694D02*
X009900Y006694D01*
X009900Y006853D02*
X009230Y006853D01*
X009305Y007011D02*
X009900Y007011D01*
X009900Y007170D02*
X009330Y007170D01*
X009314Y007328D02*
X009900Y007328D01*
X009900Y007487D02*
X009248Y007487D01*
X009093Y007645D02*
X009900Y007645D01*
X008780Y007180D02*
X007180Y005580D01*
X007180Y005280D01*
X006280Y003480D02*
X006680Y003080D01*
X008280Y003080D01*
X008006Y002732D02*
X005696Y002732D01*
X005538Y002890D02*
X006502Y002890D01*
X006002Y003049D02*
X005379Y003049D01*
X005221Y003207D02*
X005846Y003207D01*
X005781Y003366D02*
X005140Y003366D01*
X005140Y003524D02*
X005775Y003524D01*
X005817Y003683D02*
X005140Y003683D01*
X005140Y003841D02*
X005927Y003841D01*
X004360Y001939D02*
X004000Y001939D01*
X004117Y001781D02*
X004244Y001781D01*
X004200Y001622D02*
X004159Y001622D01*
X004160Y001464D02*
X004200Y001464D01*
X004200Y001305D02*
X004160Y001305D01*
X004160Y001147D02*
X004200Y001147D01*
X004200Y000988D02*
X004160Y000988D01*
X004136Y000830D02*
X004223Y000830D01*
X004310Y000671D02*
X004049Y000671D01*
X003795Y000513D02*
X004554Y000513D01*
X002880Y006880D02*
X002580Y007180D01*
X002580Y008680D01*
X003180Y009280D01*
X003180Y011780D01*
X003027Y012083D02*
X000460Y012083D01*
X000460Y011925D02*
X002874Y011925D01*
X002842Y011766D02*
X000460Y011766D01*
X000460Y011608D02*
X002885Y011608D01*
X002920Y011449D02*
X000460Y011449D01*
X000460Y011291D02*
X002584Y011291D01*
X002472Y011132D02*
X000460Y011132D01*
X000460Y010974D02*
X002437Y010974D01*
X002420Y010815D02*
X000460Y010815D01*
X000460Y010657D02*
X002420Y010657D01*
X002420Y010498D02*
X000460Y010498D01*
X000460Y010340D02*
X002420Y010340D01*
X002420Y010181D02*
X000460Y010181D01*
X000460Y010023D02*
X002420Y010023D01*
X002420Y009864D02*
X000460Y009864D01*
X000460Y009706D02*
X002420Y009706D01*
X002420Y009547D02*
X000460Y009547D01*
X000460Y009389D02*
X002321Y009389D01*
X002162Y009230D02*
X000460Y009230D01*
X000460Y009072D02*
X002004Y009072D01*
X002180Y008880D02*
X002080Y008780D01*
X002080Y008480D01*
X002180Y008880D02*
X002680Y009380D01*
X002680Y010880D01*
X002808Y011008D01*
X003440Y010974D02*
X005464Y010974D01*
X005498Y010940D02*
X005240Y011198D01*
X005240Y011380D01*
X005680Y011380D01*
X005680Y011380D01*
X005680Y010940D01*
X005498Y010940D01*
X005680Y010974D02*
X005680Y010974D01*
X005680Y011132D02*
X005680Y011132D01*
X005680Y011291D02*
X005680Y011291D01*
X005680Y011449D02*
X005680Y011449D01*
X005680Y011608D02*
X005680Y011608D01*
X005680Y011766D02*
X005680Y011766D01*
X005444Y011766D02*
X003518Y011766D01*
X003475Y011608D02*
X005285Y011608D01*
X005240Y011449D02*
X003440Y011449D01*
X003440Y011291D02*
X005240Y011291D01*
X005306Y011132D02*
X003440Y011132D01*
X003440Y010815D02*
X006082Y010815D01*
X006030Y010657D02*
X003440Y010657D01*
X003440Y010498D02*
X006030Y010498D01*
X006072Y010340D02*
X003440Y010340D01*
X003440Y010181D02*
X005913Y010181D01*
X005755Y010023D02*
X003440Y010023D01*
X003440Y009864D02*
X005596Y009864D01*
X005438Y009706D02*
X003440Y009706D01*
X003440Y009547D02*
X005279Y009547D01*
X005121Y009389D02*
X003440Y009389D01*
X003440Y009230D02*
X004962Y009230D01*
X004804Y009072D02*
X003411Y009072D01*
X003180Y008680D02*
X004780Y008680D01*
X006580Y010480D01*
X006580Y010580D01*
X006196Y010974D02*
X005896Y010974D01*
X005240Y012242D02*
X000460Y012242D01*
X000460Y012400D02*
X005240Y012400D01*
X005134Y012559D02*
X000460Y012559D01*
X000460Y012717D02*
X004975Y012717D01*
X004688Y013372D02*
X004688Y013600D01*
X004352Y013985D02*
X002051Y013985D01*
X002051Y014033D02*
X002051Y013727D01*
X001933Y013444D01*
X001716Y013227D01*
X001433Y013109D01*
X001127Y013109D01*
X000844Y013227D01*
X000627Y013444D01*
X000509Y013727D01*
X000509Y014033D01*
X000627Y014316D01*
X000844Y014533D01*
X001127Y014651D01*
X001433Y014651D01*
X001716Y014533D01*
X001933Y014316D01*
X002051Y014033D01*
X002005Y014144D02*
X004236Y014144D01*
X004184Y014302D02*
X001939Y014302D01*
X001789Y014461D02*
X004184Y014461D01*
X004237Y014619D02*
X001509Y014619D01*
X001051Y014619D02*
X000460Y014619D01*
X000460Y014461D02*
X000771Y014461D01*
X000621Y014302D02*
X000460Y014302D01*
X000460Y014144D02*
X000555Y014144D01*
X000509Y013985D02*
X000460Y013985D01*
X000460Y013827D02*
X000509Y013827D01*
X000534Y013668D02*
X000460Y013668D01*
X000460Y013510D02*
X000599Y013510D01*
X000719Y013351D02*
X000460Y013351D01*
X000460Y013193D02*
X000926Y013193D01*
X001634Y013193D02*
X004374Y013193D01*
X004239Y013351D02*
X001841Y013351D01*
X001961Y013510D02*
X004178Y013510D01*
X004178Y013668D02*
X002026Y013668D01*
X002051Y013827D02*
X004230Y013827D01*
X004678Y014461D02*
X004698Y014461D01*
X004698Y014619D02*
X004678Y014619D01*
X004678Y014778D02*
X004698Y014778D01*
X005008Y014778D02*
X005348Y014778D01*
X005219Y014619D02*
X005138Y014619D01*
X004367Y014778D02*
X003297Y014778D01*
X003462Y014936D02*
X006898Y014936D01*
X006799Y015095D02*
X003561Y015095D01*
X003617Y015253D02*
X006743Y015253D01*
X006729Y015570D02*
X003631Y015570D01*
X003593Y015729D02*
X006767Y015729D01*
X006844Y015887D02*
X003516Y015887D01*
X003388Y016046D02*
X006972Y016046D01*
X007063Y014778D02*
X005996Y014778D01*
X005552Y012876D02*
X009900Y012876D01*
X002890Y014778D02*
X002730Y014778D01*
X002730Y014936D02*
X002890Y014936D01*
X002890Y015095D02*
X002730Y015095D01*
X002730Y015253D02*
X002890Y015253D01*
X002730Y015412D02*
X000460Y015412D01*
X000460Y015570D02*
X001989Y015570D01*
X002027Y015729D02*
X000460Y015729D01*
X000460Y015887D02*
X002104Y015887D01*
X002232Y016046D02*
X000460Y016046D01*
X000460Y015253D02*
X002003Y015253D01*
X002059Y015095D02*
X000460Y015095D01*
X000460Y014936D02*
X002158Y014936D01*
X002323Y014778D02*
X000460Y014778D01*
X000460Y008913D02*
X001854Y008913D01*
X001732Y008755D02*
X000460Y008755D01*
X000460Y008596D02*
X001640Y008596D01*
X001640Y008438D02*
X000460Y008438D01*
X000460Y008279D02*
X001659Y008279D01*
X001817Y008121D02*
X000460Y008121D01*
X000460Y007962D02*
X002320Y007962D01*
X002080Y007920D02*
X002080Y007480D01*
X002080Y007480D01*
X002080Y007480D01*
X001640Y007480D01*
X001640Y007662D01*
X001898Y007920D01*
X002080Y007920D01*
X002080Y007804D02*
X002080Y007804D01*
X002080Y007645D02*
X002080Y007645D01*
X002080Y007487D02*
X002080Y007487D01*
X002080Y007480D02*
X001640Y007480D01*
X001640Y007298D01*
X001898Y007040D01*
X002080Y007040D01*
X002080Y007480D01*
X002080Y007328D02*
X002080Y007328D01*
X002080Y007170D02*
X002080Y007170D01*
X002381Y007011D02*
X000460Y007011D01*
X000460Y006853D02*
X002540Y006853D01*
X001768Y007170D02*
X000460Y007170D01*
X000460Y007328D02*
X001640Y007328D01*
X001640Y007487D02*
X000460Y007487D01*
X000460Y007645D02*
X001640Y007645D01*
X001781Y007804D02*
X000460Y007804D01*
D20*
X002808Y011008D03*
D21*
X003180Y011780D03*
M02*
