G75*
%MOIN*%
%OFA0B0*%
%FSLAX24Y24*%
%IPPOS*%
%LPD*%
%AMOC8*
5,1,8,0,0,1.08239X$1,22.5*
%
%ADD10C,0.0000*%
%ADD11C,0.1221*%
%ADD12R,0.0631X0.0197*%
%ADD13C,0.0690*%
%ADD14OC8,0.0560*%
%ADD15C,0.0780*%
%ADD16OC8,0.0670*%
%ADD17C,0.0670*%
%ADD18C,0.0640*%
%ADD19C,0.0700*%
%ADD20C,0.1340*%
D10*
X000280Y000280D02*
X000280Y016280D01*
X010080Y016280D01*
X010080Y000280D01*
X000280Y000280D01*
X000689Y001480D02*
X000691Y001528D01*
X000697Y001576D01*
X000707Y001623D01*
X000720Y001669D01*
X000738Y001714D01*
X000758Y001758D01*
X000783Y001800D01*
X000811Y001839D01*
X000841Y001876D01*
X000875Y001910D01*
X000912Y001942D01*
X000950Y001971D01*
X000991Y001996D01*
X001034Y002018D01*
X001079Y002036D01*
X001125Y002050D01*
X001172Y002061D01*
X001220Y002068D01*
X001268Y002071D01*
X001316Y002070D01*
X001364Y002065D01*
X001412Y002056D01*
X001458Y002044D01*
X001503Y002027D01*
X001547Y002007D01*
X001589Y001984D01*
X001629Y001957D01*
X001667Y001927D01*
X001702Y001894D01*
X001734Y001858D01*
X001764Y001820D01*
X001790Y001779D01*
X001812Y001736D01*
X001832Y001692D01*
X001847Y001647D01*
X001859Y001600D01*
X001867Y001552D01*
X001871Y001504D01*
X001871Y001456D01*
X001867Y001408D01*
X001859Y001360D01*
X001847Y001313D01*
X001832Y001268D01*
X001812Y001224D01*
X001790Y001181D01*
X001764Y001140D01*
X001734Y001102D01*
X001702Y001066D01*
X001667Y001033D01*
X001629Y001003D01*
X001589Y000976D01*
X001547Y000953D01*
X001503Y000933D01*
X001458Y000916D01*
X001412Y000904D01*
X001364Y000895D01*
X001316Y000890D01*
X001268Y000889D01*
X001220Y000892D01*
X001172Y000899D01*
X001125Y000910D01*
X001079Y000924D01*
X001034Y000942D01*
X000991Y000964D01*
X000950Y000989D01*
X000912Y001018D01*
X000875Y001050D01*
X000841Y001084D01*
X000811Y001121D01*
X000783Y001160D01*
X000758Y001202D01*
X000738Y001246D01*
X000720Y001291D01*
X000707Y001337D01*
X000697Y001384D01*
X000691Y001432D01*
X000689Y001480D01*
X000689Y013880D02*
X000691Y013928D01*
X000697Y013976D01*
X000707Y014023D01*
X000720Y014069D01*
X000738Y014114D01*
X000758Y014158D01*
X000783Y014200D01*
X000811Y014239D01*
X000841Y014276D01*
X000875Y014310D01*
X000912Y014342D01*
X000950Y014371D01*
X000991Y014396D01*
X001034Y014418D01*
X001079Y014436D01*
X001125Y014450D01*
X001172Y014461D01*
X001220Y014468D01*
X001268Y014471D01*
X001316Y014470D01*
X001364Y014465D01*
X001412Y014456D01*
X001458Y014444D01*
X001503Y014427D01*
X001547Y014407D01*
X001589Y014384D01*
X001629Y014357D01*
X001667Y014327D01*
X001702Y014294D01*
X001734Y014258D01*
X001764Y014220D01*
X001790Y014179D01*
X001812Y014136D01*
X001832Y014092D01*
X001847Y014047D01*
X001859Y014000D01*
X001867Y013952D01*
X001871Y013904D01*
X001871Y013856D01*
X001867Y013808D01*
X001859Y013760D01*
X001847Y013713D01*
X001832Y013668D01*
X001812Y013624D01*
X001790Y013581D01*
X001764Y013540D01*
X001734Y013502D01*
X001702Y013466D01*
X001667Y013433D01*
X001629Y013403D01*
X001589Y013376D01*
X001547Y013353D01*
X001503Y013333D01*
X001458Y013316D01*
X001412Y013304D01*
X001364Y013295D01*
X001316Y013290D01*
X001268Y013289D01*
X001220Y013292D01*
X001172Y013299D01*
X001125Y013310D01*
X001079Y013324D01*
X001034Y013342D01*
X000991Y013364D01*
X000950Y013389D01*
X000912Y013418D01*
X000875Y013450D01*
X000841Y013484D01*
X000811Y013521D01*
X000783Y013560D01*
X000758Y013602D01*
X000738Y013646D01*
X000720Y013691D01*
X000707Y013737D01*
X000697Y013784D01*
X000691Y013832D01*
X000689Y013880D01*
X008489Y013880D02*
X008491Y013928D01*
X008497Y013976D01*
X008507Y014023D01*
X008520Y014069D01*
X008538Y014114D01*
X008558Y014158D01*
X008583Y014200D01*
X008611Y014239D01*
X008641Y014276D01*
X008675Y014310D01*
X008712Y014342D01*
X008750Y014371D01*
X008791Y014396D01*
X008834Y014418D01*
X008879Y014436D01*
X008925Y014450D01*
X008972Y014461D01*
X009020Y014468D01*
X009068Y014471D01*
X009116Y014470D01*
X009164Y014465D01*
X009212Y014456D01*
X009258Y014444D01*
X009303Y014427D01*
X009347Y014407D01*
X009389Y014384D01*
X009429Y014357D01*
X009467Y014327D01*
X009502Y014294D01*
X009534Y014258D01*
X009564Y014220D01*
X009590Y014179D01*
X009612Y014136D01*
X009632Y014092D01*
X009647Y014047D01*
X009659Y014000D01*
X009667Y013952D01*
X009671Y013904D01*
X009671Y013856D01*
X009667Y013808D01*
X009659Y013760D01*
X009647Y013713D01*
X009632Y013668D01*
X009612Y013624D01*
X009590Y013581D01*
X009564Y013540D01*
X009534Y013502D01*
X009502Y013466D01*
X009467Y013433D01*
X009429Y013403D01*
X009389Y013376D01*
X009347Y013353D01*
X009303Y013333D01*
X009258Y013316D01*
X009212Y013304D01*
X009164Y013295D01*
X009116Y013290D01*
X009068Y013289D01*
X009020Y013292D01*
X008972Y013299D01*
X008925Y013310D01*
X008879Y013324D01*
X008834Y013342D01*
X008791Y013364D01*
X008750Y013389D01*
X008712Y013418D01*
X008675Y013450D01*
X008641Y013484D01*
X008611Y013521D01*
X008583Y013560D01*
X008558Y013602D01*
X008538Y013646D01*
X008520Y013691D01*
X008507Y013737D01*
X008497Y013784D01*
X008491Y013832D01*
X008489Y013880D01*
X008489Y001480D02*
X008491Y001528D01*
X008497Y001576D01*
X008507Y001623D01*
X008520Y001669D01*
X008538Y001714D01*
X008558Y001758D01*
X008583Y001800D01*
X008611Y001839D01*
X008641Y001876D01*
X008675Y001910D01*
X008712Y001942D01*
X008750Y001971D01*
X008791Y001996D01*
X008834Y002018D01*
X008879Y002036D01*
X008925Y002050D01*
X008972Y002061D01*
X009020Y002068D01*
X009068Y002071D01*
X009116Y002070D01*
X009164Y002065D01*
X009212Y002056D01*
X009258Y002044D01*
X009303Y002027D01*
X009347Y002007D01*
X009389Y001984D01*
X009429Y001957D01*
X009467Y001927D01*
X009502Y001894D01*
X009534Y001858D01*
X009564Y001820D01*
X009590Y001779D01*
X009612Y001736D01*
X009632Y001692D01*
X009647Y001647D01*
X009659Y001600D01*
X009667Y001552D01*
X009671Y001504D01*
X009671Y001456D01*
X009667Y001408D01*
X009659Y001360D01*
X009647Y001313D01*
X009632Y001268D01*
X009612Y001224D01*
X009590Y001181D01*
X009564Y001140D01*
X009534Y001102D01*
X009502Y001066D01*
X009467Y001033D01*
X009429Y001003D01*
X009389Y000976D01*
X009347Y000953D01*
X009303Y000933D01*
X009258Y000916D01*
X009212Y000904D01*
X009164Y000895D01*
X009116Y000890D01*
X009068Y000889D01*
X009020Y000892D01*
X008972Y000899D01*
X008925Y000910D01*
X008879Y000924D01*
X008834Y000942D01*
X008791Y000964D01*
X008750Y000989D01*
X008712Y001018D01*
X008675Y001050D01*
X008641Y001084D01*
X008611Y001121D01*
X008583Y001160D01*
X008558Y001202D01*
X008538Y001246D01*
X008520Y001291D01*
X008507Y001337D01*
X008497Y001384D01*
X008491Y001432D01*
X008489Y001480D01*
D11*
X009080Y001480D03*
X009080Y013880D03*
X001280Y013880D03*
X001280Y001480D03*
D12*
X001853Y009628D03*
X001853Y009884D03*
X001853Y010140D03*
X001853Y010396D03*
X001853Y010652D03*
X001853Y010908D03*
X001853Y011164D03*
X001853Y011420D03*
X001853Y011676D03*
X001853Y011932D03*
X004707Y011932D03*
X004707Y011676D03*
X004707Y011420D03*
X004707Y011164D03*
X004707Y010908D03*
X004707Y010652D03*
X004707Y010396D03*
X004707Y010140D03*
X004707Y009884D03*
X004707Y009628D03*
D13*
X004280Y003480D03*
X006280Y003480D03*
D14*
X007180Y005280D03*
X007180Y006380D03*
X007180Y007480D03*
X007180Y008680D03*
X005680Y011380D03*
X005680Y012380D03*
X003180Y008680D03*
X003180Y007480D03*
X003180Y006380D03*
X003180Y005280D03*
X002280Y004080D03*
X002280Y003080D03*
X002080Y007480D03*
X002080Y008480D03*
X008280Y004080D03*
X008280Y003080D03*
D15*
X008780Y005180D03*
X008780Y006180D03*
X008780Y007180D03*
X008480Y009580D03*
X008480Y010580D03*
X006580Y010580D03*
X006580Y009580D03*
D16*
X007580Y011380D03*
D17*
X007580Y012380D03*
D18*
X006680Y001580D02*
X006680Y000980D01*
X005680Y000980D02*
X005680Y001580D01*
X004680Y001580D02*
X004680Y000980D01*
X003680Y000980D02*
X003680Y001580D01*
D19*
X004688Y013600D03*
X004688Y014380D03*
X005672Y014380D03*
X005672Y013600D03*
D20*
X007550Y015450D03*
X002810Y015450D03*
M02*
