G75*
%MOIN*%
%OFA0B0*%
%FSLAX24Y24*%
%IPPOS*%
%LPD*%
%AMOC8*
5,1,8,0,0,1.08239X$1,22.5*
%
%ADD10C,0.0000*%
%ADD11C,0.0030*%
D10*
X000280Y000280D02*
X000280Y016280D01*
X010080Y016280D01*
X010080Y000280D01*
X000280Y000280D01*
X000689Y001480D02*
X000691Y001528D01*
X000697Y001576D01*
X000707Y001623D01*
X000720Y001669D01*
X000738Y001714D01*
X000758Y001758D01*
X000783Y001800D01*
X000811Y001839D01*
X000841Y001876D01*
X000875Y001910D01*
X000912Y001942D01*
X000950Y001971D01*
X000991Y001996D01*
X001034Y002018D01*
X001079Y002036D01*
X001125Y002050D01*
X001172Y002061D01*
X001220Y002068D01*
X001268Y002071D01*
X001316Y002070D01*
X001364Y002065D01*
X001412Y002056D01*
X001458Y002044D01*
X001503Y002027D01*
X001547Y002007D01*
X001589Y001984D01*
X001629Y001957D01*
X001667Y001927D01*
X001702Y001894D01*
X001734Y001858D01*
X001764Y001820D01*
X001790Y001779D01*
X001812Y001736D01*
X001832Y001692D01*
X001847Y001647D01*
X001859Y001600D01*
X001867Y001552D01*
X001871Y001504D01*
X001871Y001456D01*
X001867Y001408D01*
X001859Y001360D01*
X001847Y001313D01*
X001832Y001268D01*
X001812Y001224D01*
X001790Y001181D01*
X001764Y001140D01*
X001734Y001102D01*
X001702Y001066D01*
X001667Y001033D01*
X001629Y001003D01*
X001589Y000976D01*
X001547Y000953D01*
X001503Y000933D01*
X001458Y000916D01*
X001412Y000904D01*
X001364Y000895D01*
X001316Y000890D01*
X001268Y000889D01*
X001220Y000892D01*
X001172Y000899D01*
X001125Y000910D01*
X001079Y000924D01*
X001034Y000942D01*
X000991Y000964D01*
X000950Y000989D01*
X000912Y001018D01*
X000875Y001050D01*
X000841Y001084D01*
X000811Y001121D01*
X000783Y001160D01*
X000758Y001202D01*
X000738Y001246D01*
X000720Y001291D01*
X000707Y001337D01*
X000697Y001384D01*
X000691Y001432D01*
X000689Y001480D01*
X000689Y013880D02*
X000691Y013928D01*
X000697Y013976D01*
X000707Y014023D01*
X000720Y014069D01*
X000738Y014114D01*
X000758Y014158D01*
X000783Y014200D01*
X000811Y014239D01*
X000841Y014276D01*
X000875Y014310D01*
X000912Y014342D01*
X000950Y014371D01*
X000991Y014396D01*
X001034Y014418D01*
X001079Y014436D01*
X001125Y014450D01*
X001172Y014461D01*
X001220Y014468D01*
X001268Y014471D01*
X001316Y014470D01*
X001364Y014465D01*
X001412Y014456D01*
X001458Y014444D01*
X001503Y014427D01*
X001547Y014407D01*
X001589Y014384D01*
X001629Y014357D01*
X001667Y014327D01*
X001702Y014294D01*
X001734Y014258D01*
X001764Y014220D01*
X001790Y014179D01*
X001812Y014136D01*
X001832Y014092D01*
X001847Y014047D01*
X001859Y014000D01*
X001867Y013952D01*
X001871Y013904D01*
X001871Y013856D01*
X001867Y013808D01*
X001859Y013760D01*
X001847Y013713D01*
X001832Y013668D01*
X001812Y013624D01*
X001790Y013581D01*
X001764Y013540D01*
X001734Y013502D01*
X001702Y013466D01*
X001667Y013433D01*
X001629Y013403D01*
X001589Y013376D01*
X001547Y013353D01*
X001503Y013333D01*
X001458Y013316D01*
X001412Y013304D01*
X001364Y013295D01*
X001316Y013290D01*
X001268Y013289D01*
X001220Y013292D01*
X001172Y013299D01*
X001125Y013310D01*
X001079Y013324D01*
X001034Y013342D01*
X000991Y013364D01*
X000950Y013389D01*
X000912Y013418D01*
X000875Y013450D01*
X000841Y013484D01*
X000811Y013521D01*
X000783Y013560D01*
X000758Y013602D01*
X000738Y013646D01*
X000720Y013691D01*
X000707Y013737D01*
X000697Y013784D01*
X000691Y013832D01*
X000689Y013880D01*
X008489Y013880D02*
X008491Y013928D01*
X008497Y013976D01*
X008507Y014023D01*
X008520Y014069D01*
X008538Y014114D01*
X008558Y014158D01*
X008583Y014200D01*
X008611Y014239D01*
X008641Y014276D01*
X008675Y014310D01*
X008712Y014342D01*
X008750Y014371D01*
X008791Y014396D01*
X008834Y014418D01*
X008879Y014436D01*
X008925Y014450D01*
X008972Y014461D01*
X009020Y014468D01*
X009068Y014471D01*
X009116Y014470D01*
X009164Y014465D01*
X009212Y014456D01*
X009258Y014444D01*
X009303Y014427D01*
X009347Y014407D01*
X009389Y014384D01*
X009429Y014357D01*
X009467Y014327D01*
X009502Y014294D01*
X009534Y014258D01*
X009564Y014220D01*
X009590Y014179D01*
X009612Y014136D01*
X009632Y014092D01*
X009647Y014047D01*
X009659Y014000D01*
X009667Y013952D01*
X009671Y013904D01*
X009671Y013856D01*
X009667Y013808D01*
X009659Y013760D01*
X009647Y013713D01*
X009632Y013668D01*
X009612Y013624D01*
X009590Y013581D01*
X009564Y013540D01*
X009534Y013502D01*
X009502Y013466D01*
X009467Y013433D01*
X009429Y013403D01*
X009389Y013376D01*
X009347Y013353D01*
X009303Y013333D01*
X009258Y013316D01*
X009212Y013304D01*
X009164Y013295D01*
X009116Y013290D01*
X009068Y013289D01*
X009020Y013292D01*
X008972Y013299D01*
X008925Y013310D01*
X008879Y013324D01*
X008834Y013342D01*
X008791Y013364D01*
X008750Y013389D01*
X008712Y013418D01*
X008675Y013450D01*
X008641Y013484D01*
X008611Y013521D01*
X008583Y013560D01*
X008558Y013602D01*
X008538Y013646D01*
X008520Y013691D01*
X008507Y013737D01*
X008497Y013784D01*
X008491Y013832D01*
X008489Y013880D01*
X008489Y001480D02*
X008491Y001528D01*
X008497Y001576D01*
X008507Y001623D01*
X008520Y001669D01*
X008538Y001714D01*
X008558Y001758D01*
X008583Y001800D01*
X008611Y001839D01*
X008641Y001876D01*
X008675Y001910D01*
X008712Y001942D01*
X008750Y001971D01*
X008791Y001996D01*
X008834Y002018D01*
X008879Y002036D01*
X008925Y002050D01*
X008972Y002061D01*
X009020Y002068D01*
X009068Y002071D01*
X009116Y002070D01*
X009164Y002065D01*
X009212Y002056D01*
X009258Y002044D01*
X009303Y002027D01*
X009347Y002007D01*
X009389Y001984D01*
X009429Y001957D01*
X009467Y001927D01*
X009502Y001894D01*
X009534Y001858D01*
X009564Y001820D01*
X009590Y001779D01*
X009612Y001736D01*
X009632Y001692D01*
X009647Y001647D01*
X009659Y001600D01*
X009667Y001552D01*
X009671Y001504D01*
X009671Y001456D01*
X009667Y001408D01*
X009659Y001360D01*
X009647Y001313D01*
X009632Y001268D01*
X009612Y001224D01*
X009590Y001181D01*
X009564Y001140D01*
X009534Y001102D01*
X009502Y001066D01*
X009467Y001033D01*
X009429Y001003D01*
X009389Y000976D01*
X009347Y000953D01*
X009303Y000933D01*
X009258Y000916D01*
X009212Y000904D01*
X009164Y000895D01*
X009116Y000890D01*
X009068Y000889D01*
X009020Y000892D01*
X008972Y000899D01*
X008925Y000910D01*
X008879Y000924D01*
X008834Y000942D01*
X008791Y000964D01*
X008750Y000989D01*
X008712Y001018D01*
X008675Y001050D01*
X008641Y001084D01*
X008611Y001121D01*
X008583Y001160D01*
X008558Y001202D01*
X008538Y001246D01*
X008520Y001291D01*
X008507Y001337D01*
X008497Y001384D01*
X008491Y001432D01*
X008489Y001480D01*
D11*
X001065Y003368D02*
X000775Y003368D01*
X000920Y003368D02*
X000968Y003416D01*
X000968Y003513D01*
X000920Y003561D01*
X000775Y003561D01*
X000823Y003711D02*
X000775Y003759D01*
X000823Y003711D02*
X001017Y003711D01*
X000968Y003663D02*
X000968Y003759D01*
X000968Y003859D02*
X000968Y003956D01*
X001017Y003907D02*
X000823Y003907D01*
X000775Y003956D01*
X000775Y004055D02*
X000775Y004201D01*
X000823Y004249D01*
X000920Y004249D01*
X000968Y004201D01*
X000968Y004055D01*
X000678Y004055D01*
X000775Y004350D02*
X000823Y004350D01*
X000823Y004398D01*
X000775Y004398D01*
X000775Y004350D01*
X000920Y004350D02*
X000968Y004350D01*
X000968Y004398D01*
X000920Y004398D01*
X000920Y004350D01*
X000775Y004497D02*
X001065Y004691D01*
X001065Y004986D02*
X000775Y004792D01*
X000775Y005087D02*
X000775Y005232D01*
X000823Y005280D01*
X000872Y005232D01*
X000872Y005135D01*
X000920Y005087D01*
X000968Y005135D01*
X000968Y005280D01*
X000920Y005381D02*
X000968Y005430D01*
X000968Y005527D01*
X000920Y005575D01*
X000775Y005575D01*
X000823Y005676D02*
X000872Y005724D01*
X000872Y005870D01*
X000920Y005870D02*
X000775Y005870D01*
X000775Y005724D01*
X000823Y005676D01*
X000968Y005821D02*
X000920Y005870D01*
X000968Y005821D02*
X000968Y005724D01*
X000968Y005971D02*
X000968Y006116D01*
X000920Y006164D01*
X000775Y006164D01*
X000823Y006314D02*
X000775Y006362D01*
X000823Y006314D02*
X001017Y006314D01*
X000968Y006362D02*
X000968Y006265D01*
X000920Y006462D02*
X000968Y006510D01*
X000968Y006607D01*
X000920Y006655D01*
X000872Y006655D01*
X000872Y006462D01*
X000920Y006462D02*
X000823Y006462D01*
X000775Y006510D01*
X000775Y006607D01*
X000823Y006756D02*
X000872Y006805D01*
X000872Y006950D01*
X000920Y006950D02*
X000775Y006950D01*
X000775Y006805D01*
X000823Y006756D01*
X000968Y006902D02*
X000920Y006950D01*
X000968Y006902D02*
X000968Y006805D01*
X000920Y007051D02*
X000823Y007051D01*
X000775Y007099D01*
X000775Y007245D01*
X000823Y007346D02*
X000775Y007394D01*
X000775Y007491D01*
X000823Y007539D01*
X000920Y007539D01*
X000968Y007491D01*
X000968Y007394D01*
X000920Y007346D01*
X000823Y007346D01*
X000968Y007099D02*
X000920Y007051D01*
X000968Y007099D02*
X000968Y007245D01*
X000968Y007640D02*
X000775Y007640D01*
X000775Y007834D02*
X000920Y007834D01*
X000968Y007785D01*
X000968Y007640D01*
X000968Y007935D02*
X000968Y008032D01*
X001017Y007983D02*
X000823Y007983D01*
X000775Y008032D01*
X000775Y008131D02*
X000968Y008131D01*
X000872Y008131D02*
X000968Y008228D01*
X000968Y008277D01*
X000920Y008377D02*
X000823Y008377D01*
X000775Y008425D01*
X000775Y008522D01*
X000823Y008571D01*
X000920Y008571D01*
X000968Y008522D01*
X000968Y008425D01*
X000920Y008377D01*
X000775Y008672D02*
X000775Y008768D01*
X000775Y008720D02*
X001065Y008720D01*
X001065Y008672D01*
X000920Y008868D02*
X000968Y008916D01*
X000968Y009062D01*
X000872Y009013D02*
X000872Y008916D01*
X000920Y008868D01*
X000775Y008868D02*
X000775Y009013D01*
X000823Y009062D01*
X000872Y009013D01*
X000823Y009163D02*
X000823Y009211D01*
X000775Y009211D01*
X000775Y009163D01*
X000823Y009163D01*
X000823Y009310D02*
X000775Y009358D01*
X000823Y009407D01*
X000775Y009455D01*
X000823Y009504D01*
X000968Y009504D01*
X000920Y009605D02*
X000823Y009605D01*
X000775Y009653D01*
X000775Y009750D01*
X000823Y009798D01*
X000920Y009798D01*
X000968Y009750D01*
X000968Y009653D01*
X000920Y009605D01*
X000872Y009899D02*
X000968Y009996D01*
X000968Y010044D01*
X000920Y010145D02*
X000968Y010193D01*
X000968Y010338D01*
X001065Y010338D02*
X000775Y010338D01*
X000775Y010193D01*
X000823Y010145D01*
X000920Y010145D01*
X000968Y010440D02*
X000968Y010585D01*
X000920Y010633D01*
X000823Y010633D01*
X000775Y010585D01*
X000775Y010440D01*
X000678Y010440D02*
X000968Y010440D01*
X000968Y010734D02*
X000775Y010734D01*
X000872Y010734D02*
X000968Y010831D01*
X000968Y010879D01*
X000920Y010980D02*
X000968Y011028D01*
X000968Y011125D01*
X000920Y011173D01*
X000872Y011173D01*
X000872Y010980D01*
X000920Y010980D02*
X000823Y010980D01*
X000775Y011028D01*
X000775Y011125D01*
X000775Y011274D02*
X000775Y011420D01*
X000823Y011468D01*
X000872Y011420D01*
X000872Y011323D01*
X000920Y011274D01*
X000968Y011323D01*
X000968Y011468D01*
X000920Y011569D02*
X000968Y011617D01*
X000968Y011763D01*
X000872Y011714D02*
X000872Y011617D01*
X000920Y011569D01*
X000775Y011569D02*
X000775Y011714D01*
X000823Y011763D01*
X000872Y011714D01*
X000823Y011864D02*
X000823Y011912D01*
X000775Y011912D01*
X000775Y011864D01*
X000823Y011864D01*
X000823Y012011D02*
X000775Y012059D01*
X000775Y012205D01*
X000823Y012306D02*
X000775Y012354D01*
X000775Y012451D01*
X000823Y012499D01*
X000920Y012499D01*
X000968Y012451D01*
X000968Y012354D01*
X000920Y012306D01*
X000823Y012306D01*
X000775Y012600D02*
X000968Y012600D01*
X000968Y012649D01*
X000920Y012697D01*
X000968Y012745D01*
X000920Y012794D01*
X000775Y012794D01*
X000775Y012697D02*
X000920Y012697D01*
X000968Y012205D02*
X000968Y012059D01*
X000920Y012011D01*
X000823Y012011D01*
X000775Y009899D02*
X000968Y009899D01*
X000968Y009310D02*
X000823Y009310D01*
X000775Y005971D02*
X000968Y005971D01*
X001065Y005381D02*
X000775Y005381D01*
M02*
