G75*
%MOIN*%
%OFA0B0*%
%FSLAX24Y24*%
%IPPOS*%
%LPD*%
%AMOC8*
5,1,8,0,0,1.08239X$1,22.5*
%
%ADD10C,0.0000*%
D10*
X000280Y000280D02*
X000280Y039480D01*
X034280Y039480D01*
X034280Y000280D01*
X000280Y000280D01*
X005229Y005980D02*
X005231Y006027D01*
X005237Y006073D01*
X005247Y006119D01*
X005260Y006164D01*
X005278Y006207D01*
X005299Y006249D01*
X005323Y006289D01*
X005351Y006326D01*
X005382Y006361D01*
X005416Y006394D01*
X005452Y006423D01*
X005491Y006449D01*
X005532Y006472D01*
X005575Y006491D01*
X005619Y006507D01*
X005664Y006519D01*
X005710Y006527D01*
X005757Y006531D01*
X005803Y006531D01*
X005850Y006527D01*
X005896Y006519D01*
X005941Y006507D01*
X005985Y006491D01*
X006028Y006472D01*
X006069Y006449D01*
X006108Y006423D01*
X006144Y006394D01*
X006178Y006361D01*
X006209Y006326D01*
X006237Y006289D01*
X006261Y006249D01*
X006282Y006207D01*
X006300Y006164D01*
X006313Y006119D01*
X006323Y006073D01*
X006329Y006027D01*
X006331Y005980D01*
X006329Y005933D01*
X006323Y005887D01*
X006313Y005841D01*
X006300Y005796D01*
X006282Y005753D01*
X006261Y005711D01*
X006237Y005671D01*
X006209Y005634D01*
X006178Y005599D01*
X006144Y005566D01*
X006108Y005537D01*
X006069Y005511D01*
X006028Y005488D01*
X005985Y005469D01*
X005941Y005453D01*
X005896Y005441D01*
X005850Y005433D01*
X005803Y005429D01*
X005757Y005429D01*
X005710Y005433D01*
X005664Y005441D01*
X005619Y005453D01*
X005575Y005469D01*
X005532Y005488D01*
X005491Y005511D01*
X005452Y005537D01*
X005416Y005566D01*
X005382Y005599D01*
X005351Y005634D01*
X005323Y005671D01*
X005299Y005711D01*
X005278Y005753D01*
X005260Y005796D01*
X005247Y005841D01*
X005237Y005887D01*
X005231Y005933D01*
X005229Y005980D01*
X005229Y030180D02*
X005231Y030227D01*
X005237Y030273D01*
X005247Y030319D01*
X005260Y030364D01*
X005278Y030407D01*
X005299Y030449D01*
X005323Y030489D01*
X005351Y030526D01*
X005382Y030561D01*
X005416Y030594D01*
X005452Y030623D01*
X005491Y030649D01*
X005532Y030672D01*
X005575Y030691D01*
X005619Y030707D01*
X005664Y030719D01*
X005710Y030727D01*
X005757Y030731D01*
X005803Y030731D01*
X005850Y030727D01*
X005896Y030719D01*
X005941Y030707D01*
X005985Y030691D01*
X006028Y030672D01*
X006069Y030649D01*
X006108Y030623D01*
X006144Y030594D01*
X006178Y030561D01*
X006209Y030526D01*
X006237Y030489D01*
X006261Y030449D01*
X006282Y030407D01*
X006300Y030364D01*
X006313Y030319D01*
X006323Y030273D01*
X006329Y030227D01*
X006331Y030180D01*
X006329Y030133D01*
X006323Y030087D01*
X006313Y030041D01*
X006300Y029996D01*
X006282Y029953D01*
X006261Y029911D01*
X006237Y029871D01*
X006209Y029834D01*
X006178Y029799D01*
X006144Y029766D01*
X006108Y029737D01*
X006069Y029711D01*
X006028Y029688D01*
X005985Y029669D01*
X005941Y029653D01*
X005896Y029641D01*
X005850Y029633D01*
X005803Y029629D01*
X005757Y029629D01*
X005710Y029633D01*
X005664Y029641D01*
X005619Y029653D01*
X005575Y029669D01*
X005532Y029688D01*
X005491Y029711D01*
X005452Y029737D01*
X005416Y029766D01*
X005382Y029799D01*
X005351Y029834D01*
X005323Y029871D01*
X005299Y029911D01*
X005278Y029953D01*
X005260Y029996D01*
X005247Y030041D01*
X005237Y030087D01*
X005231Y030133D01*
X005229Y030180D01*
X028229Y030180D02*
X028231Y030227D01*
X028237Y030273D01*
X028247Y030319D01*
X028260Y030364D01*
X028278Y030407D01*
X028299Y030449D01*
X028323Y030489D01*
X028351Y030526D01*
X028382Y030561D01*
X028416Y030594D01*
X028452Y030623D01*
X028491Y030649D01*
X028532Y030672D01*
X028575Y030691D01*
X028619Y030707D01*
X028664Y030719D01*
X028710Y030727D01*
X028757Y030731D01*
X028803Y030731D01*
X028850Y030727D01*
X028896Y030719D01*
X028941Y030707D01*
X028985Y030691D01*
X029028Y030672D01*
X029069Y030649D01*
X029108Y030623D01*
X029144Y030594D01*
X029178Y030561D01*
X029209Y030526D01*
X029237Y030489D01*
X029261Y030449D01*
X029282Y030407D01*
X029300Y030364D01*
X029313Y030319D01*
X029323Y030273D01*
X029329Y030227D01*
X029331Y030180D01*
X029329Y030133D01*
X029323Y030087D01*
X029313Y030041D01*
X029300Y029996D01*
X029282Y029953D01*
X029261Y029911D01*
X029237Y029871D01*
X029209Y029834D01*
X029178Y029799D01*
X029144Y029766D01*
X029108Y029737D01*
X029069Y029711D01*
X029028Y029688D01*
X028985Y029669D01*
X028941Y029653D01*
X028896Y029641D01*
X028850Y029633D01*
X028803Y029629D01*
X028757Y029629D01*
X028710Y029633D01*
X028664Y029641D01*
X028619Y029653D01*
X028575Y029669D01*
X028532Y029688D01*
X028491Y029711D01*
X028452Y029737D01*
X028416Y029766D01*
X028382Y029799D01*
X028351Y029834D01*
X028323Y029871D01*
X028299Y029911D01*
X028278Y029953D01*
X028260Y029996D01*
X028247Y030041D01*
X028237Y030087D01*
X028231Y030133D01*
X028229Y030180D01*
X028229Y005980D02*
X028231Y006027D01*
X028237Y006073D01*
X028247Y006119D01*
X028260Y006164D01*
X028278Y006207D01*
X028299Y006249D01*
X028323Y006289D01*
X028351Y006326D01*
X028382Y006361D01*
X028416Y006394D01*
X028452Y006423D01*
X028491Y006449D01*
X028532Y006472D01*
X028575Y006491D01*
X028619Y006507D01*
X028664Y006519D01*
X028710Y006527D01*
X028757Y006531D01*
X028803Y006531D01*
X028850Y006527D01*
X028896Y006519D01*
X028941Y006507D01*
X028985Y006491D01*
X029028Y006472D01*
X029069Y006449D01*
X029108Y006423D01*
X029144Y006394D01*
X029178Y006361D01*
X029209Y006326D01*
X029237Y006289D01*
X029261Y006249D01*
X029282Y006207D01*
X029300Y006164D01*
X029313Y006119D01*
X029323Y006073D01*
X029329Y006027D01*
X029331Y005980D01*
X029329Y005933D01*
X029323Y005887D01*
X029313Y005841D01*
X029300Y005796D01*
X029282Y005753D01*
X029261Y005711D01*
X029237Y005671D01*
X029209Y005634D01*
X029178Y005599D01*
X029144Y005566D01*
X029108Y005537D01*
X029069Y005511D01*
X029028Y005488D01*
X028985Y005469D01*
X028941Y005453D01*
X028896Y005441D01*
X028850Y005433D01*
X028803Y005429D01*
X028757Y005429D01*
X028710Y005433D01*
X028664Y005441D01*
X028619Y005453D01*
X028575Y005469D01*
X028532Y005488D01*
X028491Y005511D01*
X028452Y005537D01*
X028416Y005566D01*
X028382Y005599D01*
X028351Y005634D01*
X028323Y005671D01*
X028299Y005711D01*
X028278Y005753D01*
X028260Y005796D01*
X028247Y005841D01*
X028237Y005887D01*
X028231Y005933D01*
X028229Y005980D01*
M02*
