G75*
%MOIN*%
%OFA0B0*%
%FSLAX24Y24*%
%IPPOS*%
%LPD*%
%AMOC8*
5,1,8,0,0,1.08239X$1,22.5*
%
%ADD10C,0.0000*%
%ADD11C,0.0030*%
%ADD12C,0.0060*%
%ADD13R,0.0720X0.0030*%
%ADD14R,0.0150X0.0030*%
%ADD15R,0.0750X0.0030*%
%ADD16R,0.0510X0.0030*%
%ADD17R,0.0630X0.0030*%
%ADD18R,0.0180X0.0030*%
%ADD19R,0.0780X0.0030*%
%ADD20R,0.0540X0.0030*%
%ADD21R,0.0660X0.0030*%
%ADD22R,0.0690X0.0030*%
%ADD23R,0.0210X0.0030*%
%ADD24R,0.0810X0.0030*%
%ADD25R,0.0570X0.0030*%
%ADD26R,0.0240X0.0030*%
%ADD27R,0.0840X0.0030*%
%ADD28R,0.0600X0.0030*%
%ADD29R,0.0270X0.0030*%
%ADD30R,0.0120X0.0030*%
%ADD31R,0.0870X0.0030*%
%ADD32R,0.0480X0.0030*%
%ADD33R,0.0090X0.0030*%
%ADD34R,0.0030X0.0030*%
%ADD35R,0.0060X0.0030*%
%ADD36R,0.0080X0.0020*%
%ADD37R,0.0400X0.0020*%
%ADD38R,0.0380X0.0020*%
%ADD39R,0.0300X0.0020*%
%ADD40R,0.0460X0.0020*%
%ADD41R,0.0440X0.0020*%
%ADD42R,0.0320X0.0020*%
%ADD43R,0.0480X0.0020*%
%ADD44R,0.0420X0.0020*%
%ADD45R,0.0340X0.0020*%
%ADD46R,0.0500X0.0020*%
%ADD47R,0.0520X0.0020*%
%ADD48R,0.0360X0.0020*%
%ADD49R,0.0060X0.0020*%
%ADD50R,0.0020X0.0020*%
%ADD51R,0.0220X0.0020*%
%ADD52R,0.0100X0.0020*%
%ADD53R,0.0140X0.0020*%
%ADD54R,0.0120X0.0020*%
%ADD55C,0.0100*%
%ADD56R,0.0240X0.0340*%
%ADD57R,0.0700X0.0200*%
%ADD58R,0.0200X0.0700*%
D10*
X000280Y000280D02*
X000280Y039480D01*
X034280Y039480D01*
X034280Y000280D01*
X000280Y000280D01*
X005229Y005980D02*
X005231Y006027D01*
X005237Y006073D01*
X005247Y006119D01*
X005260Y006164D01*
X005278Y006207D01*
X005299Y006249D01*
X005323Y006289D01*
X005351Y006326D01*
X005382Y006361D01*
X005416Y006394D01*
X005452Y006423D01*
X005491Y006449D01*
X005532Y006472D01*
X005575Y006491D01*
X005619Y006507D01*
X005664Y006519D01*
X005710Y006527D01*
X005757Y006531D01*
X005803Y006531D01*
X005850Y006527D01*
X005896Y006519D01*
X005941Y006507D01*
X005985Y006491D01*
X006028Y006472D01*
X006069Y006449D01*
X006108Y006423D01*
X006144Y006394D01*
X006178Y006361D01*
X006209Y006326D01*
X006237Y006289D01*
X006261Y006249D01*
X006282Y006207D01*
X006300Y006164D01*
X006313Y006119D01*
X006323Y006073D01*
X006329Y006027D01*
X006331Y005980D01*
X006329Y005933D01*
X006323Y005887D01*
X006313Y005841D01*
X006300Y005796D01*
X006282Y005753D01*
X006261Y005711D01*
X006237Y005671D01*
X006209Y005634D01*
X006178Y005599D01*
X006144Y005566D01*
X006108Y005537D01*
X006069Y005511D01*
X006028Y005488D01*
X005985Y005469D01*
X005941Y005453D01*
X005896Y005441D01*
X005850Y005433D01*
X005803Y005429D01*
X005757Y005429D01*
X005710Y005433D01*
X005664Y005441D01*
X005619Y005453D01*
X005575Y005469D01*
X005532Y005488D01*
X005491Y005511D01*
X005452Y005537D01*
X005416Y005566D01*
X005382Y005599D01*
X005351Y005634D01*
X005323Y005671D01*
X005299Y005711D01*
X005278Y005753D01*
X005260Y005796D01*
X005247Y005841D01*
X005237Y005887D01*
X005231Y005933D01*
X005229Y005980D01*
X005229Y030180D02*
X005231Y030227D01*
X005237Y030273D01*
X005247Y030319D01*
X005260Y030364D01*
X005278Y030407D01*
X005299Y030449D01*
X005323Y030489D01*
X005351Y030526D01*
X005382Y030561D01*
X005416Y030594D01*
X005452Y030623D01*
X005491Y030649D01*
X005532Y030672D01*
X005575Y030691D01*
X005619Y030707D01*
X005664Y030719D01*
X005710Y030727D01*
X005757Y030731D01*
X005803Y030731D01*
X005850Y030727D01*
X005896Y030719D01*
X005941Y030707D01*
X005985Y030691D01*
X006028Y030672D01*
X006069Y030649D01*
X006108Y030623D01*
X006144Y030594D01*
X006178Y030561D01*
X006209Y030526D01*
X006237Y030489D01*
X006261Y030449D01*
X006282Y030407D01*
X006300Y030364D01*
X006313Y030319D01*
X006323Y030273D01*
X006329Y030227D01*
X006331Y030180D01*
X006329Y030133D01*
X006323Y030087D01*
X006313Y030041D01*
X006300Y029996D01*
X006282Y029953D01*
X006261Y029911D01*
X006237Y029871D01*
X006209Y029834D01*
X006178Y029799D01*
X006144Y029766D01*
X006108Y029737D01*
X006069Y029711D01*
X006028Y029688D01*
X005985Y029669D01*
X005941Y029653D01*
X005896Y029641D01*
X005850Y029633D01*
X005803Y029629D01*
X005757Y029629D01*
X005710Y029633D01*
X005664Y029641D01*
X005619Y029653D01*
X005575Y029669D01*
X005532Y029688D01*
X005491Y029711D01*
X005452Y029737D01*
X005416Y029766D01*
X005382Y029799D01*
X005351Y029834D01*
X005323Y029871D01*
X005299Y029911D01*
X005278Y029953D01*
X005260Y029996D01*
X005247Y030041D01*
X005237Y030087D01*
X005231Y030133D01*
X005229Y030180D01*
X028229Y030180D02*
X028231Y030227D01*
X028237Y030273D01*
X028247Y030319D01*
X028260Y030364D01*
X028278Y030407D01*
X028299Y030449D01*
X028323Y030489D01*
X028351Y030526D01*
X028382Y030561D01*
X028416Y030594D01*
X028452Y030623D01*
X028491Y030649D01*
X028532Y030672D01*
X028575Y030691D01*
X028619Y030707D01*
X028664Y030719D01*
X028710Y030727D01*
X028757Y030731D01*
X028803Y030731D01*
X028850Y030727D01*
X028896Y030719D01*
X028941Y030707D01*
X028985Y030691D01*
X029028Y030672D01*
X029069Y030649D01*
X029108Y030623D01*
X029144Y030594D01*
X029178Y030561D01*
X029209Y030526D01*
X029237Y030489D01*
X029261Y030449D01*
X029282Y030407D01*
X029300Y030364D01*
X029313Y030319D01*
X029323Y030273D01*
X029329Y030227D01*
X029331Y030180D01*
X029329Y030133D01*
X029323Y030087D01*
X029313Y030041D01*
X029300Y029996D01*
X029282Y029953D01*
X029261Y029911D01*
X029237Y029871D01*
X029209Y029834D01*
X029178Y029799D01*
X029144Y029766D01*
X029108Y029737D01*
X029069Y029711D01*
X029028Y029688D01*
X028985Y029669D01*
X028941Y029653D01*
X028896Y029641D01*
X028850Y029633D01*
X028803Y029629D01*
X028757Y029629D01*
X028710Y029633D01*
X028664Y029641D01*
X028619Y029653D01*
X028575Y029669D01*
X028532Y029688D01*
X028491Y029711D01*
X028452Y029737D01*
X028416Y029766D01*
X028382Y029799D01*
X028351Y029834D01*
X028323Y029871D01*
X028299Y029911D01*
X028278Y029953D01*
X028260Y029996D01*
X028247Y030041D01*
X028237Y030087D01*
X028231Y030133D01*
X028229Y030180D01*
X028229Y005980D02*
X028231Y006027D01*
X028237Y006073D01*
X028247Y006119D01*
X028260Y006164D01*
X028278Y006207D01*
X028299Y006249D01*
X028323Y006289D01*
X028351Y006326D01*
X028382Y006361D01*
X028416Y006394D01*
X028452Y006423D01*
X028491Y006449D01*
X028532Y006472D01*
X028575Y006491D01*
X028619Y006507D01*
X028664Y006519D01*
X028710Y006527D01*
X028757Y006531D01*
X028803Y006531D01*
X028850Y006527D01*
X028896Y006519D01*
X028941Y006507D01*
X028985Y006491D01*
X029028Y006472D01*
X029069Y006449D01*
X029108Y006423D01*
X029144Y006394D01*
X029178Y006361D01*
X029209Y006326D01*
X029237Y006289D01*
X029261Y006249D01*
X029282Y006207D01*
X029300Y006164D01*
X029313Y006119D01*
X029323Y006073D01*
X029329Y006027D01*
X029331Y005980D01*
X029329Y005933D01*
X029323Y005887D01*
X029313Y005841D01*
X029300Y005796D01*
X029282Y005753D01*
X029261Y005711D01*
X029237Y005671D01*
X029209Y005634D01*
X029178Y005599D01*
X029144Y005566D01*
X029108Y005537D01*
X029069Y005511D01*
X029028Y005488D01*
X028985Y005469D01*
X028941Y005453D01*
X028896Y005441D01*
X028850Y005433D01*
X028803Y005429D01*
X028757Y005429D01*
X028710Y005433D01*
X028664Y005441D01*
X028619Y005453D01*
X028575Y005469D01*
X028532Y005488D01*
X028491Y005511D01*
X028452Y005537D01*
X028416Y005566D01*
X028382Y005599D01*
X028351Y005634D01*
X028323Y005671D01*
X028299Y005711D01*
X028278Y005753D01*
X028260Y005796D01*
X028247Y005841D01*
X028237Y005887D01*
X028231Y005933D01*
X028229Y005980D01*
D11*
X028248Y003065D02*
X028310Y003004D01*
X028310Y002880D01*
X028248Y002818D01*
X028063Y002818D01*
X027942Y002818D02*
X027942Y002757D01*
X027880Y002695D01*
X027695Y002695D01*
X027695Y003065D01*
X027880Y003065D01*
X027942Y003004D01*
X027942Y002942D01*
X027880Y002880D01*
X027695Y002880D01*
X027880Y002880D02*
X027942Y002818D01*
X028063Y002695D02*
X028063Y003065D01*
X028248Y003065D01*
X028187Y002818D02*
X028310Y002695D01*
X028432Y002880D02*
X028679Y002880D01*
X028617Y002695D02*
X028617Y003065D01*
X028432Y002880D01*
X028895Y002880D02*
X029080Y002880D01*
X029142Y002818D01*
X029142Y002757D01*
X029080Y002695D01*
X028895Y002695D01*
X028895Y003065D01*
X029080Y003065D01*
X029142Y003004D01*
X029142Y002942D01*
X029080Y002880D01*
X029263Y002818D02*
X029448Y002818D01*
X029510Y002880D01*
X029510Y003004D01*
X029448Y003065D01*
X029263Y003065D01*
X029263Y002695D01*
X029387Y002818D02*
X029510Y002695D01*
X029632Y002757D02*
X029693Y002695D01*
X029817Y002695D01*
X029879Y002757D01*
X029879Y002818D01*
X029817Y002880D01*
X029755Y002880D01*
X029817Y002880D02*
X029879Y002942D01*
X029879Y003004D01*
X029817Y003065D01*
X029693Y003065D01*
X029632Y003004D01*
X030195Y003065D02*
X030195Y002695D01*
X030380Y002695D01*
X030442Y002757D01*
X030442Y002818D01*
X030380Y002880D01*
X030195Y002880D01*
X030380Y002880D02*
X030442Y002942D01*
X030442Y003004D01*
X030380Y003065D01*
X030195Y003065D01*
X030563Y003065D02*
X030563Y002695D01*
X030563Y002818D02*
X030748Y002818D01*
X030810Y002880D01*
X030810Y003004D01*
X030748Y003065D01*
X030563Y003065D01*
X030687Y002818D02*
X030810Y002695D01*
X030932Y002880D02*
X031179Y002880D01*
X031117Y002695D02*
X031117Y003065D01*
X030932Y002880D01*
X031395Y002880D02*
X031580Y002880D01*
X031642Y002818D01*
X031642Y002757D01*
X031580Y002695D01*
X031395Y002695D01*
X031395Y003065D01*
X031580Y003065D01*
X031642Y003004D01*
X031642Y002942D01*
X031580Y002880D01*
X031763Y002818D02*
X031948Y002818D01*
X032010Y002880D01*
X032010Y003004D01*
X031948Y003065D01*
X031763Y003065D01*
X031763Y002695D01*
X031887Y002818D02*
X032010Y002695D01*
X032132Y002757D02*
X032193Y002695D01*
X032317Y002695D01*
X032379Y002757D01*
X032379Y002818D01*
X032317Y002880D01*
X032255Y002880D01*
X032317Y002880D02*
X032379Y002942D01*
X032379Y003004D01*
X032317Y003065D01*
X032193Y003065D01*
X032132Y003004D01*
X032179Y003495D02*
X031932Y003495D01*
X032179Y003742D01*
X032179Y003804D01*
X032117Y003865D01*
X031993Y003865D01*
X031932Y003804D01*
X031810Y003804D02*
X031810Y003680D01*
X031748Y003618D01*
X031563Y003618D01*
X031563Y003495D02*
X031563Y003865D01*
X031748Y003865D01*
X031810Y003804D01*
X031687Y003618D02*
X031810Y003495D01*
X031442Y003495D02*
X031195Y003495D01*
X031195Y003865D01*
X031295Y004895D02*
X031295Y005080D01*
X031356Y005142D01*
X031418Y005142D01*
X031480Y005080D01*
X031480Y004895D01*
X031665Y004895D02*
X031665Y005080D01*
X031603Y005142D01*
X031542Y005142D01*
X031480Y005080D01*
X031542Y005263D02*
X031542Y005448D01*
X031480Y005510D01*
X031356Y005510D01*
X031295Y005448D01*
X031295Y005263D01*
X031665Y005263D01*
X031542Y005387D02*
X031665Y005510D01*
X031603Y005632D02*
X031665Y005693D01*
X031665Y005817D01*
X031603Y005879D01*
X031542Y005879D01*
X031480Y005817D01*
X031480Y005755D01*
X031480Y005817D02*
X031418Y005879D01*
X031356Y005879D01*
X031295Y005817D01*
X031295Y005693D01*
X031356Y005632D01*
X031295Y006095D02*
X031295Y006280D01*
X031356Y006342D01*
X031418Y006342D01*
X031480Y006280D01*
X031480Y006095D01*
X031665Y006095D02*
X031665Y006280D01*
X031603Y006342D01*
X031542Y006342D01*
X031480Y006280D01*
X031542Y006463D02*
X031542Y006648D01*
X031480Y006710D01*
X031356Y006710D01*
X031295Y006648D01*
X031295Y006463D01*
X031665Y006463D01*
X031542Y006587D02*
X031665Y006710D01*
X031480Y006832D02*
X031295Y007017D01*
X031665Y007017D01*
X031480Y007079D02*
X031480Y006832D01*
X031480Y007395D02*
X031480Y007580D01*
X031542Y007642D01*
X031603Y007642D01*
X031665Y007580D01*
X031665Y007395D01*
X031295Y007395D01*
X031295Y007580D01*
X031356Y007642D01*
X031418Y007642D01*
X031480Y007580D01*
X031542Y007763D02*
X031542Y007948D01*
X031480Y008010D01*
X031356Y008010D01*
X031295Y007948D01*
X031295Y007763D01*
X031665Y007763D01*
X031542Y007887D02*
X031665Y008010D01*
X031603Y008132D02*
X031665Y008193D01*
X031665Y008317D01*
X031603Y008379D01*
X031542Y008379D01*
X031480Y008317D01*
X031480Y008255D01*
X031480Y008317D02*
X031418Y008379D01*
X031356Y008379D01*
X031295Y008317D01*
X031295Y008193D01*
X031356Y008132D01*
X031295Y008595D02*
X031295Y008780D01*
X031356Y008842D01*
X031418Y008842D01*
X031480Y008780D01*
X031480Y008595D01*
X031665Y008595D02*
X031665Y008780D01*
X031603Y008842D01*
X031542Y008842D01*
X031480Y008780D01*
X031542Y008963D02*
X031542Y009148D01*
X031480Y009210D01*
X031356Y009210D01*
X031295Y009148D01*
X031295Y008963D01*
X031665Y008963D01*
X031542Y009087D02*
X031665Y009210D01*
X031480Y009332D02*
X031480Y009579D01*
X031665Y009517D02*
X031295Y009517D01*
X031480Y009332D01*
X031665Y008595D02*
X031295Y008595D01*
X031295Y006095D02*
X031665Y006095D01*
X031665Y004895D02*
X031295Y004895D01*
X033095Y002265D02*
X033095Y001895D01*
X033342Y001895D01*
X033463Y001895D02*
X033463Y002265D01*
X033648Y002265D01*
X033710Y002204D01*
X033710Y002080D01*
X033648Y002018D01*
X033463Y002018D01*
X033587Y002018D02*
X033710Y001895D01*
X033832Y001895D02*
X034079Y001895D01*
X033955Y001895D02*
X033955Y002265D01*
X033832Y002142D01*
X025779Y002757D02*
X025717Y002695D01*
X025593Y002695D01*
X025532Y002757D01*
X025532Y002880D02*
X025655Y002942D01*
X025717Y002942D01*
X025779Y002880D01*
X025779Y002757D01*
X025532Y002880D02*
X025532Y003065D01*
X025779Y003065D01*
X025287Y003065D02*
X025287Y002695D01*
X025410Y002695D02*
X025163Y002695D01*
X024980Y002818D02*
X024795Y002818D01*
X024795Y002695D02*
X024795Y003065D01*
X024980Y003065D01*
X025042Y003004D01*
X025042Y002880D01*
X024980Y002818D01*
X025163Y002942D02*
X025287Y003065D01*
X022279Y003004D02*
X022279Y002942D01*
X022217Y002880D01*
X022279Y002818D01*
X022279Y002757D01*
X022217Y002695D01*
X022093Y002695D01*
X022032Y002757D01*
X021910Y002695D02*
X021663Y002695D01*
X021787Y002695D02*
X021787Y003065D01*
X021663Y002942D01*
X021542Y003004D02*
X021542Y002880D01*
X021480Y002818D01*
X021295Y002818D01*
X021295Y002695D02*
X021295Y003065D01*
X021480Y003065D01*
X021542Y003004D01*
X022032Y003004D02*
X022093Y003065D01*
X022217Y003065D01*
X022279Y003004D01*
X022217Y002880D02*
X022155Y002880D01*
X019110Y002880D02*
X018863Y002880D01*
X019048Y003065D01*
X019048Y002695D01*
X018742Y002757D02*
X018680Y002695D01*
X018557Y002695D01*
X018495Y002757D01*
X018495Y003004D01*
X018557Y003065D01*
X018680Y003065D01*
X018742Y003004D01*
X018110Y003004D02*
X018110Y002942D01*
X018048Y002880D01*
X018110Y002818D01*
X018110Y002757D01*
X018048Y002695D01*
X017925Y002695D01*
X017863Y002757D01*
X017742Y002757D02*
X017680Y002695D01*
X017557Y002695D01*
X017495Y002757D01*
X017495Y003004D01*
X017557Y003065D01*
X017680Y003065D01*
X017742Y003004D01*
X017863Y003004D02*
X017925Y003065D01*
X018048Y003065D01*
X018110Y003004D01*
X018048Y002880D02*
X017987Y002880D01*
X017110Y003004D02*
X016863Y002757D01*
X016863Y002695D01*
X016742Y002757D02*
X016680Y002695D01*
X016557Y002695D01*
X016495Y002757D01*
X016495Y003004D01*
X016557Y003065D01*
X016680Y003065D01*
X016742Y003004D01*
X016863Y003065D02*
X017110Y003065D01*
X017110Y003004D01*
X016110Y003004D02*
X016110Y002942D01*
X016048Y002880D01*
X015925Y002880D01*
X015863Y002942D01*
X015863Y003004D01*
X015925Y003065D01*
X016048Y003065D01*
X016110Y003004D01*
X016048Y002880D02*
X016110Y002818D01*
X016110Y002757D01*
X016048Y002695D01*
X015925Y002695D01*
X015863Y002757D01*
X015863Y002818D01*
X015925Y002880D01*
X015742Y002757D02*
X015680Y002695D01*
X015557Y002695D01*
X015495Y002757D01*
X015495Y003004D01*
X015557Y003065D01*
X015680Y003065D01*
X015742Y003004D01*
X013110Y003004D02*
X013110Y002942D01*
X013048Y002880D01*
X013110Y002818D01*
X013110Y002757D01*
X013048Y002695D01*
X012925Y002695D01*
X012863Y002757D01*
X012742Y002880D02*
X012680Y002818D01*
X012495Y002818D01*
X012495Y002695D02*
X012495Y003065D01*
X012680Y003065D01*
X012742Y003004D01*
X012742Y002880D01*
X012863Y003004D02*
X012925Y003065D01*
X013048Y003065D01*
X013110Y003004D01*
X013048Y002880D02*
X012987Y002880D01*
X009610Y002757D02*
X009548Y002695D01*
X009425Y002695D01*
X009363Y002757D01*
X009610Y003004D01*
X009610Y002757D01*
X009610Y003004D02*
X009548Y003065D01*
X009425Y003065D01*
X009363Y003004D01*
X009363Y002757D01*
X009242Y002880D02*
X009180Y002818D01*
X008995Y002818D01*
X008995Y002695D02*
X008995Y003065D01*
X009180Y003065D01*
X009242Y003004D01*
X009242Y002880D01*
X006879Y002880D02*
X006632Y002880D01*
X006817Y003065D01*
X006817Y002695D01*
X006510Y002695D02*
X006387Y002818D01*
X006448Y002818D02*
X006263Y002818D01*
X006142Y002818D02*
X006142Y002757D01*
X006080Y002695D01*
X005895Y002695D01*
X005895Y003065D01*
X006080Y003065D01*
X006142Y003004D01*
X006142Y002942D01*
X006080Y002880D01*
X005895Y002880D01*
X006080Y002880D02*
X006142Y002818D01*
X006263Y002695D02*
X006263Y003065D01*
X006448Y003065D01*
X006510Y003004D01*
X006510Y002880D01*
X006448Y002818D01*
X005679Y002818D02*
X005679Y002757D01*
X005617Y002695D01*
X005493Y002695D01*
X005432Y002757D01*
X005310Y002695D02*
X005187Y002818D01*
X005248Y002818D02*
X005063Y002818D01*
X004942Y002818D02*
X004942Y002757D01*
X004880Y002695D01*
X004695Y002695D01*
X004695Y003065D01*
X004880Y003065D01*
X004942Y003004D01*
X004942Y002942D01*
X004880Y002880D01*
X004695Y002880D01*
X004880Y002880D02*
X004942Y002818D01*
X005063Y002695D02*
X005063Y003065D01*
X005248Y003065D01*
X005310Y003004D01*
X005310Y002880D01*
X005248Y002818D01*
X005432Y003004D02*
X005493Y003065D01*
X005617Y003065D01*
X005679Y003004D01*
X005679Y002942D01*
X005617Y002880D01*
X005679Y002818D01*
X005617Y002880D02*
X005555Y002880D01*
X004379Y002880D02*
X004132Y002880D01*
X004317Y003065D01*
X004317Y002695D01*
X004010Y002695D02*
X003887Y002818D01*
X003948Y002818D02*
X003763Y002818D01*
X003642Y002818D02*
X003642Y002757D01*
X003580Y002695D01*
X003395Y002695D01*
X003395Y003065D01*
X003580Y003065D01*
X003642Y003004D01*
X003642Y002942D01*
X003580Y002880D01*
X003395Y002880D01*
X003580Y002880D02*
X003642Y002818D01*
X003763Y002695D02*
X003763Y003065D01*
X003948Y003065D01*
X004010Y003004D01*
X004010Y002880D01*
X003948Y002818D01*
X003179Y002818D02*
X003179Y002757D01*
X003117Y002695D01*
X002993Y002695D01*
X002932Y002757D01*
X002810Y002695D02*
X002687Y002818D01*
X002748Y002818D02*
X002563Y002818D01*
X002442Y002818D02*
X002442Y002757D01*
X002380Y002695D01*
X002195Y002695D01*
X002195Y003065D01*
X002380Y003065D01*
X002442Y003004D01*
X002442Y002942D01*
X002380Y002880D01*
X002195Y002880D01*
X002380Y002880D02*
X002442Y002818D01*
X002563Y002695D02*
X002563Y003065D01*
X002748Y003065D01*
X002810Y003004D01*
X002810Y002880D01*
X002748Y002818D01*
X002932Y003004D02*
X002993Y003065D01*
X003117Y003065D01*
X003179Y003004D01*
X003179Y002942D01*
X003117Y002880D01*
X003179Y002818D01*
X003117Y002880D02*
X003055Y002880D01*
X003110Y003495D02*
X002987Y003618D01*
X003048Y003618D02*
X002863Y003618D01*
X002863Y003495D02*
X002863Y003865D01*
X003048Y003865D01*
X003110Y003804D01*
X003110Y003680D01*
X003048Y003618D01*
X003232Y003680D02*
X003479Y003680D01*
X003417Y003495D02*
X003417Y003865D01*
X003232Y003680D01*
X002742Y003495D02*
X002495Y003495D01*
X002495Y003865D01*
X002895Y004895D02*
X002895Y005080D01*
X002956Y005142D01*
X003018Y005142D01*
X003080Y005080D01*
X003080Y004895D01*
X003265Y004895D02*
X002895Y004895D01*
X003080Y005080D02*
X003142Y005142D01*
X003203Y005142D01*
X003265Y005080D01*
X003265Y004895D01*
X003265Y005263D02*
X002895Y005263D01*
X002895Y005448D01*
X002956Y005510D01*
X003080Y005510D01*
X003142Y005448D01*
X003142Y005263D01*
X003142Y005387D02*
X003265Y005510D01*
X003265Y005632D02*
X003018Y005879D01*
X002956Y005879D01*
X002895Y005817D01*
X002895Y005693D01*
X002956Y005632D01*
X003265Y005632D02*
X003265Y005879D01*
X003265Y006095D02*
X002895Y006095D01*
X002895Y006280D01*
X002956Y006342D01*
X003018Y006342D01*
X003080Y006280D01*
X003080Y006095D01*
X003265Y006095D02*
X003265Y006280D01*
X003203Y006342D01*
X003142Y006342D01*
X003080Y006280D01*
X003142Y006463D02*
X003142Y006648D01*
X003080Y006710D01*
X002956Y006710D01*
X002895Y006648D01*
X002895Y006463D01*
X003265Y006463D01*
X003142Y006587D02*
X003265Y006710D01*
X003265Y006832D02*
X003265Y007079D01*
X003265Y006955D02*
X002895Y006955D01*
X003018Y006832D01*
X003080Y007395D02*
X003080Y007580D01*
X003142Y007642D01*
X003203Y007642D01*
X003265Y007580D01*
X003265Y007395D01*
X002895Y007395D01*
X002895Y007580D01*
X002956Y007642D01*
X003018Y007642D01*
X003080Y007580D01*
X003142Y007763D02*
X003142Y007948D01*
X003080Y008010D01*
X002956Y008010D01*
X002895Y007948D01*
X002895Y007763D01*
X003265Y007763D01*
X003142Y007887D02*
X003265Y008010D01*
X003265Y008132D02*
X003018Y008379D01*
X002956Y008379D01*
X002895Y008317D01*
X002895Y008193D01*
X002956Y008132D01*
X003265Y008132D02*
X003265Y008379D01*
X003265Y008595D02*
X003265Y008780D01*
X003203Y008842D01*
X003142Y008842D01*
X003080Y008780D01*
X003080Y008595D01*
X003265Y008595D02*
X002895Y008595D01*
X002895Y008780D01*
X002956Y008842D01*
X003018Y008842D01*
X003080Y008780D01*
X003142Y008963D02*
X003142Y009148D01*
X003080Y009210D01*
X002956Y009210D01*
X002895Y009148D01*
X002895Y008963D01*
X003265Y008963D01*
X003142Y009087D02*
X003265Y009210D01*
X003265Y009332D02*
X003265Y009579D01*
X003265Y009455D02*
X002895Y009455D01*
X003018Y009332D01*
X002895Y011495D02*
X002895Y011680D01*
X002956Y011742D01*
X003080Y011742D01*
X003142Y011680D01*
X003142Y011495D01*
X003265Y011495D02*
X002895Y011495D01*
X003018Y011863D02*
X002895Y011987D01*
X003265Y011987D01*
X003265Y012110D02*
X003265Y011863D01*
X003265Y015195D02*
X002895Y015195D01*
X002895Y015380D01*
X002956Y015442D01*
X003080Y015442D01*
X003142Y015380D01*
X003142Y015195D01*
X003265Y015563D02*
X003018Y015810D01*
X002956Y015810D01*
X002895Y015748D01*
X002895Y015625D01*
X002956Y015563D01*
X003265Y015563D02*
X003265Y015810D01*
X003203Y018195D02*
X002956Y018195D01*
X002895Y018257D01*
X002895Y018380D01*
X002956Y018442D01*
X002956Y018563D02*
X003018Y018563D01*
X003080Y018625D01*
X003080Y018748D01*
X003142Y018810D01*
X003203Y018810D01*
X003265Y018748D01*
X003265Y018625D01*
X003203Y018563D01*
X003142Y018563D01*
X003080Y018625D01*
X003080Y018748D02*
X003018Y018810D01*
X002956Y018810D01*
X002895Y018748D01*
X002895Y018625D01*
X002956Y018563D01*
X003203Y018442D02*
X003265Y018380D01*
X003265Y018257D01*
X003203Y018195D01*
X003203Y019195D02*
X002956Y019195D01*
X002895Y019257D01*
X002895Y019380D01*
X002956Y019442D01*
X002895Y019563D02*
X002895Y019810D01*
X002956Y019810D01*
X003203Y019563D01*
X003265Y019563D01*
X003203Y019442D02*
X003265Y019380D01*
X003265Y019257D01*
X003203Y019195D01*
X003203Y020195D02*
X002956Y020195D01*
X002895Y020257D01*
X002895Y020380D01*
X002956Y020442D01*
X003080Y020563D02*
X003080Y020748D01*
X003142Y020810D01*
X003203Y020810D01*
X003265Y020748D01*
X003265Y020625D01*
X003203Y020563D01*
X003080Y020563D01*
X002956Y020687D01*
X002895Y020810D01*
X002956Y021195D02*
X003203Y021195D01*
X003265Y021257D01*
X003265Y021380D01*
X003203Y021442D01*
X003203Y021563D02*
X003265Y021625D01*
X003265Y021748D01*
X003203Y021810D01*
X003080Y021810D01*
X003018Y021748D01*
X003018Y021687D01*
X003080Y021563D01*
X002895Y021563D01*
X002895Y021810D01*
X002956Y021442D02*
X002895Y021380D01*
X002895Y021257D01*
X002956Y021195D01*
X003203Y020442D02*
X003265Y020380D01*
X003265Y020257D01*
X003203Y020195D01*
X003142Y024095D02*
X003142Y024280D01*
X003080Y024342D01*
X002956Y024342D01*
X002895Y024280D01*
X002895Y024095D01*
X003265Y024095D01*
X003203Y024463D02*
X003265Y024525D01*
X003265Y024648D01*
X003203Y024710D01*
X003080Y024710D01*
X003018Y024648D01*
X003018Y024587D01*
X003080Y024463D01*
X002895Y024463D01*
X002895Y024710D01*
X002895Y027595D02*
X002895Y027780D01*
X002956Y027842D01*
X003080Y027842D01*
X003142Y027780D01*
X003142Y027595D01*
X003265Y027595D02*
X002895Y027595D01*
X002895Y027963D02*
X002895Y028210D01*
X002956Y028210D01*
X003203Y027963D01*
X003265Y027963D01*
X003265Y030395D02*
X002895Y030395D01*
X002895Y030580D01*
X002956Y030642D01*
X003018Y030642D01*
X003080Y030580D01*
X003080Y030395D01*
X003265Y030395D02*
X003265Y030580D01*
X003203Y030642D01*
X003142Y030642D01*
X003080Y030580D01*
X003142Y030763D02*
X003142Y030948D01*
X003080Y031010D01*
X002956Y031010D01*
X002895Y030948D01*
X002895Y030763D01*
X003265Y030763D01*
X003142Y030887D02*
X003265Y031010D01*
X003265Y031132D02*
X003265Y031379D01*
X003265Y031255D02*
X002895Y031255D01*
X003018Y031132D01*
X003080Y031595D02*
X003080Y031780D01*
X003142Y031842D01*
X003203Y031842D01*
X003265Y031780D01*
X003265Y031595D01*
X002895Y031595D01*
X002895Y031780D01*
X002956Y031842D01*
X003018Y031842D01*
X003080Y031780D01*
X003142Y031963D02*
X003142Y032148D01*
X003080Y032210D01*
X002956Y032210D01*
X002895Y032148D01*
X002895Y031963D01*
X003265Y031963D01*
X003142Y032087D02*
X003265Y032210D01*
X003265Y032332D02*
X003018Y032579D01*
X002956Y032579D01*
X002895Y032517D01*
X002895Y032393D01*
X002956Y032332D01*
X003265Y032332D02*
X003265Y032579D01*
X003265Y032895D02*
X002895Y032895D01*
X002895Y033080D01*
X002956Y033142D01*
X003018Y033142D01*
X003080Y033080D01*
X003080Y032895D01*
X003265Y032895D02*
X003265Y033080D01*
X003203Y033142D01*
X003142Y033142D01*
X003080Y033080D01*
X003142Y033263D02*
X003142Y033448D01*
X003080Y033510D01*
X002956Y033510D01*
X002895Y033448D01*
X002895Y033263D01*
X003265Y033263D01*
X003142Y033387D02*
X003265Y033510D01*
X003265Y033632D02*
X003265Y033879D01*
X003265Y033755D02*
X002895Y033755D01*
X003018Y033632D01*
X003080Y034095D02*
X003080Y034280D01*
X003142Y034342D01*
X003203Y034342D01*
X003265Y034280D01*
X003265Y034095D01*
X002895Y034095D01*
X002895Y034280D01*
X002956Y034342D01*
X003018Y034342D01*
X003080Y034280D01*
X003142Y034463D02*
X003142Y034648D01*
X003080Y034710D01*
X002956Y034710D01*
X002895Y034648D01*
X002895Y034463D01*
X003265Y034463D01*
X003142Y034587D02*
X003265Y034710D01*
X003265Y034832D02*
X003018Y035079D01*
X002956Y035079D01*
X002895Y035017D01*
X002895Y034893D01*
X002956Y034832D01*
X003265Y034832D02*
X003265Y035079D01*
X003329Y036095D02*
X003329Y036385D01*
X003184Y036240D01*
X003378Y036240D01*
X003083Y036240D02*
X003035Y036192D01*
X002890Y036192D01*
X002986Y036192D02*
X003083Y036095D01*
X003083Y036240D02*
X003083Y036337D01*
X003035Y036385D01*
X002890Y036385D01*
X002890Y036095D01*
X002788Y036095D02*
X002595Y036095D01*
X002595Y036385D01*
X002563Y036795D02*
X002563Y037165D01*
X002748Y037165D01*
X002810Y037104D01*
X002810Y036980D01*
X002748Y036918D01*
X002563Y036918D01*
X002442Y036918D02*
X002442Y036857D01*
X002380Y036795D01*
X002195Y036795D01*
X002195Y037165D01*
X002380Y037165D01*
X002442Y037104D01*
X002442Y037042D01*
X002380Y036980D01*
X002195Y036980D01*
X002380Y036980D02*
X002442Y036918D01*
X002687Y036918D02*
X002810Y036795D01*
X002932Y036795D02*
X003179Y037042D01*
X003179Y037104D01*
X003117Y037165D01*
X002993Y037165D01*
X002932Y037104D01*
X002932Y036795D02*
X003179Y036795D01*
X003395Y036795D02*
X003580Y036795D01*
X003642Y036857D01*
X003642Y036918D01*
X003580Y036980D01*
X003395Y036980D01*
X003395Y036795D02*
X003395Y037165D01*
X003580Y037165D01*
X003642Y037104D01*
X003642Y037042D01*
X003580Y036980D01*
X003763Y036918D02*
X003948Y036918D01*
X004010Y036980D01*
X004010Y037104D01*
X003948Y037165D01*
X003763Y037165D01*
X003763Y036795D01*
X003887Y036918D02*
X004010Y036795D01*
X004132Y036795D02*
X004379Y036795D01*
X004255Y036795D02*
X004255Y037165D01*
X004132Y037042D01*
X004695Y036980D02*
X004880Y036980D01*
X004942Y036918D01*
X004942Y036857D01*
X004880Y036795D01*
X004695Y036795D01*
X004695Y037165D01*
X004880Y037165D01*
X004942Y037104D01*
X004942Y037042D01*
X004880Y036980D01*
X005063Y036918D02*
X005248Y036918D01*
X005310Y036980D01*
X005310Y037104D01*
X005248Y037165D01*
X005063Y037165D01*
X005063Y036795D01*
X005187Y036918D02*
X005310Y036795D01*
X005432Y036795D02*
X005679Y037042D01*
X005679Y037104D01*
X005617Y037165D01*
X005493Y037165D01*
X005432Y037104D01*
X005432Y036795D02*
X005679Y036795D01*
X005995Y036795D02*
X005995Y037165D01*
X006180Y037165D01*
X006242Y037104D01*
X006242Y037042D01*
X006180Y036980D01*
X005995Y036980D01*
X005995Y036795D02*
X006180Y036795D01*
X006242Y036857D01*
X006242Y036918D01*
X006180Y036980D01*
X006363Y036918D02*
X006548Y036918D01*
X006610Y036980D01*
X006610Y037104D01*
X006548Y037165D01*
X006363Y037165D01*
X006363Y036795D01*
X006487Y036918D02*
X006610Y036795D01*
X006732Y036795D02*
X006979Y036795D01*
X006855Y036795D02*
X006855Y037165D01*
X006732Y037042D01*
X008995Y037165D02*
X008995Y036795D01*
X008995Y036918D02*
X009180Y036918D01*
X009242Y036980D01*
X009242Y037104D01*
X009180Y037165D01*
X008995Y037165D01*
X009363Y036980D02*
X009363Y036857D01*
X009425Y036795D01*
X009548Y036795D01*
X009610Y036857D01*
X009610Y036918D01*
X009548Y036980D01*
X009363Y036980D01*
X009487Y037104D01*
X009610Y037165D01*
X012495Y037165D02*
X012495Y036795D01*
X012495Y036918D02*
X012680Y036918D01*
X012742Y036980D01*
X012742Y037104D01*
X012680Y037165D01*
X012495Y037165D01*
X012863Y036980D02*
X013110Y036980D01*
X013048Y036795D02*
X013048Y037165D01*
X012863Y036980D01*
X015043Y034785D02*
X014995Y034737D01*
X014995Y034543D01*
X015043Y034495D01*
X015140Y034495D01*
X015188Y034543D01*
X015188Y034640D01*
X015092Y034640D01*
X015188Y034737D02*
X015140Y034785D01*
X015043Y034785D01*
X015290Y034785D02*
X015290Y034495D01*
X015290Y034592D02*
X015435Y034592D01*
X015483Y034640D01*
X015483Y034737D01*
X015435Y034785D01*
X015290Y034785D01*
X015386Y034592D02*
X015483Y034495D01*
X015584Y034495D02*
X015584Y034785D01*
X015778Y034495D01*
X015778Y034785D01*
X016195Y034785D02*
X016388Y034785D01*
X016292Y034785D02*
X016292Y034495D01*
X016490Y034495D02*
X016683Y034785D01*
X016490Y034785D02*
X016683Y034495D01*
X017195Y034495D02*
X017195Y034785D01*
X017340Y034785D01*
X017388Y034737D01*
X017388Y034640D01*
X017340Y034592D01*
X017195Y034592D01*
X017292Y034592D02*
X017388Y034495D01*
X017490Y034495D02*
X017683Y034785D01*
X017490Y034785D02*
X017683Y034495D01*
X017995Y034592D02*
X018092Y034495D01*
X018188Y034592D01*
X018188Y034785D01*
X018290Y034640D02*
X018290Y034543D01*
X018338Y034495D01*
X018483Y034495D01*
X018584Y034543D02*
X018633Y034495D01*
X018778Y034495D01*
X018778Y034688D02*
X018633Y034688D01*
X018584Y034640D01*
X018584Y034543D01*
X018483Y034688D02*
X018338Y034688D01*
X018290Y034640D01*
X017995Y034592D02*
X017995Y034785D01*
X018995Y034737D02*
X018995Y034543D01*
X019043Y034495D01*
X019140Y034495D01*
X019188Y034543D01*
X019188Y034640D01*
X019092Y034640D01*
X019188Y034737D02*
X019140Y034785D01*
X019043Y034785D01*
X018995Y034737D01*
X019290Y034785D02*
X019290Y034495D01*
X019483Y034495D02*
X019290Y034785D01*
X019483Y034785D02*
X019483Y034495D01*
X019584Y034495D02*
X019729Y034495D01*
X019778Y034543D01*
X019778Y034737D01*
X019729Y034785D01*
X019584Y034785D01*
X019584Y034495D01*
X019995Y034495D02*
X019995Y034785D01*
X020140Y034785D01*
X020188Y034737D01*
X020188Y034688D01*
X020140Y034640D01*
X019995Y034640D01*
X019995Y034495D02*
X020140Y034495D01*
X020188Y034543D01*
X020188Y034592D01*
X020140Y034640D01*
X020290Y034785D02*
X020290Y034495D01*
X020483Y034495D01*
X020584Y034495D02*
X020584Y034785D01*
X020633Y034640D02*
X020778Y034495D01*
X020584Y034592D02*
X020778Y034785D01*
X021295Y036795D02*
X021295Y037165D01*
X021480Y037165D01*
X021542Y037104D01*
X021542Y036980D01*
X021480Y036918D01*
X021295Y036918D01*
X021663Y036795D02*
X021910Y036795D01*
X021787Y036795D02*
X021787Y037165D01*
X021663Y037042D01*
X022032Y037104D02*
X022032Y036857D01*
X022279Y037104D01*
X022279Y036857D01*
X022217Y036795D01*
X022093Y036795D01*
X022032Y036857D01*
X022032Y037104D02*
X022093Y037165D01*
X022217Y037165D01*
X022279Y037104D01*
X024995Y037165D02*
X024995Y036795D01*
X024995Y036918D02*
X025180Y036918D01*
X025242Y036980D01*
X025242Y037104D01*
X025180Y037165D01*
X024995Y037165D01*
X025363Y037104D02*
X025363Y037042D01*
X025425Y036980D01*
X025610Y036980D01*
X025610Y036857D02*
X025610Y037104D01*
X025548Y037165D01*
X025425Y037165D01*
X025363Y037104D01*
X025363Y036857D02*
X025425Y036795D01*
X025548Y036795D01*
X025610Y036857D01*
X027695Y036795D02*
X027880Y036795D01*
X027942Y036857D01*
X027942Y036918D01*
X027880Y036980D01*
X027695Y036980D01*
X027695Y036795D02*
X027695Y037165D01*
X027880Y037165D01*
X027942Y037104D01*
X027942Y037042D01*
X027880Y036980D01*
X028063Y036918D02*
X028248Y036918D01*
X028310Y036980D01*
X028310Y037104D01*
X028248Y037165D01*
X028063Y037165D01*
X028063Y036795D01*
X028187Y036918D02*
X028310Y036795D01*
X028432Y036795D02*
X028679Y036795D01*
X028555Y036795D02*
X028555Y037165D01*
X028432Y037042D01*
X028895Y036980D02*
X029080Y036980D01*
X029142Y036918D01*
X029142Y036857D01*
X029080Y036795D01*
X028895Y036795D01*
X028895Y037165D01*
X029080Y037165D01*
X029142Y037104D01*
X029142Y037042D01*
X029080Y036980D01*
X029263Y036918D02*
X029448Y036918D01*
X029510Y036980D01*
X029510Y037104D01*
X029448Y037165D01*
X029263Y037165D01*
X029263Y036795D01*
X029387Y036918D02*
X029510Y036795D01*
X029632Y036795D02*
X029879Y037042D01*
X029879Y037104D01*
X029817Y037165D01*
X029693Y037165D01*
X029632Y037104D01*
X029632Y036795D02*
X029879Y036795D01*
X030195Y036795D02*
X030195Y037165D01*
X030380Y037165D01*
X030442Y037104D01*
X030442Y037042D01*
X030380Y036980D01*
X030195Y036980D01*
X030195Y036795D02*
X030380Y036795D01*
X030442Y036857D01*
X030442Y036918D01*
X030380Y036980D01*
X030563Y036918D02*
X030748Y036918D01*
X030810Y036980D01*
X030810Y037104D01*
X030748Y037165D01*
X030563Y037165D01*
X030563Y036795D01*
X030687Y036918D02*
X030810Y036795D01*
X030932Y036795D02*
X031179Y036795D01*
X031055Y036795D02*
X031055Y037165D01*
X030932Y037042D01*
X031395Y036980D02*
X031580Y036980D01*
X031642Y036918D01*
X031642Y036857D01*
X031580Y036795D01*
X031395Y036795D01*
X031395Y037165D01*
X031580Y037165D01*
X031642Y037104D01*
X031642Y037042D01*
X031580Y036980D01*
X031763Y036918D02*
X031948Y036918D01*
X032010Y036980D01*
X032010Y037104D01*
X031948Y037165D01*
X031763Y037165D01*
X031763Y036795D01*
X031887Y036918D02*
X032010Y036795D01*
X032132Y036795D02*
X032379Y037042D01*
X032379Y037104D01*
X032317Y037165D01*
X032193Y037165D01*
X032132Y037104D01*
X032132Y036795D02*
X032379Y036795D01*
X032017Y036465D02*
X031893Y036465D01*
X031832Y036404D01*
X031710Y036404D02*
X031710Y036280D01*
X031648Y036218D01*
X031463Y036218D01*
X031463Y036095D02*
X031463Y036465D01*
X031648Y036465D01*
X031710Y036404D01*
X031587Y036218D02*
X031710Y036095D01*
X031832Y036095D02*
X032079Y036342D01*
X032079Y036404D01*
X032017Y036465D01*
X032079Y036095D02*
X031832Y036095D01*
X031342Y036095D02*
X031095Y036095D01*
X031095Y036465D01*
X031356Y035079D02*
X031418Y035079D01*
X031480Y035017D01*
X031542Y035079D01*
X031603Y035079D01*
X031665Y035017D01*
X031665Y034893D01*
X031603Y034832D01*
X031665Y034710D02*
X031542Y034587D01*
X031542Y034648D02*
X031542Y034463D01*
X031542Y034342D02*
X031603Y034342D01*
X031665Y034280D01*
X031665Y034095D01*
X031295Y034095D01*
X031295Y034280D01*
X031356Y034342D01*
X031418Y034342D01*
X031480Y034280D01*
X031480Y034095D01*
X031480Y034280D02*
X031542Y034342D01*
X031665Y034463D02*
X031295Y034463D01*
X031295Y034648D01*
X031356Y034710D01*
X031480Y034710D01*
X031542Y034648D01*
X031356Y034832D02*
X031295Y034893D01*
X031295Y035017D01*
X031356Y035079D01*
X031480Y035017D02*
X031480Y034955D01*
X031480Y033879D02*
X031480Y033632D01*
X031295Y033817D01*
X031665Y033817D01*
X031665Y033510D02*
X031542Y033387D01*
X031542Y033448D02*
X031542Y033263D01*
X031542Y033142D02*
X031603Y033142D01*
X031665Y033080D01*
X031665Y032895D01*
X031295Y032895D01*
X031295Y033080D01*
X031356Y033142D01*
X031418Y033142D01*
X031480Y033080D01*
X031480Y032895D01*
X031480Y033080D02*
X031542Y033142D01*
X031665Y033263D02*
X031295Y033263D01*
X031295Y033448D01*
X031356Y033510D01*
X031480Y033510D01*
X031542Y033448D01*
X031542Y032579D02*
X031603Y032579D01*
X031665Y032517D01*
X031665Y032393D01*
X031603Y032332D01*
X031665Y032210D02*
X031542Y032087D01*
X031542Y032148D02*
X031542Y031963D01*
X031542Y031842D02*
X031603Y031842D01*
X031665Y031780D01*
X031665Y031595D01*
X031295Y031595D01*
X031295Y031780D01*
X031356Y031842D01*
X031418Y031842D01*
X031480Y031780D01*
X031480Y031595D01*
X031480Y031780D02*
X031542Y031842D01*
X031665Y031963D02*
X031295Y031963D01*
X031295Y032148D01*
X031356Y032210D01*
X031480Y032210D01*
X031542Y032148D01*
X031356Y032332D02*
X031295Y032393D01*
X031295Y032517D01*
X031356Y032579D01*
X031418Y032579D01*
X031480Y032517D01*
X031542Y032579D01*
X031480Y032517D02*
X031480Y032455D01*
X031480Y031379D02*
X031480Y031132D01*
X031295Y031317D01*
X031665Y031317D01*
X031665Y031010D02*
X031542Y030887D01*
X031542Y030948D02*
X031542Y030763D01*
X031542Y030642D02*
X031603Y030642D01*
X031665Y030580D01*
X031665Y030395D01*
X031295Y030395D01*
X031295Y030580D01*
X031356Y030642D01*
X031418Y030642D01*
X031480Y030580D01*
X031480Y030395D01*
X031480Y030580D02*
X031542Y030642D01*
X031665Y030763D02*
X031295Y030763D01*
X031295Y030948D01*
X031356Y031010D01*
X031480Y031010D01*
X031542Y030948D01*
X031542Y028274D02*
X031603Y028274D01*
X031665Y028212D01*
X031665Y028088D01*
X031603Y028027D01*
X031542Y028027D01*
X031480Y028088D01*
X031480Y028212D01*
X031542Y028274D01*
X031480Y028212D02*
X031418Y028274D01*
X031356Y028274D01*
X031295Y028212D01*
X031295Y028088D01*
X031356Y028027D01*
X031418Y028027D01*
X031480Y028088D01*
X031480Y027905D02*
X031542Y027844D01*
X031542Y027658D01*
X031665Y027658D02*
X031295Y027658D01*
X031295Y027844D01*
X031356Y027905D01*
X031480Y027905D01*
X031665Y024979D02*
X031665Y024732D01*
X031665Y024610D02*
X031665Y024363D01*
X031665Y024487D02*
X031295Y024487D01*
X031418Y024363D01*
X031356Y024242D02*
X031480Y024242D01*
X031542Y024180D01*
X031542Y023995D01*
X031665Y023995D02*
X031295Y023995D01*
X031295Y024180D01*
X031356Y024242D01*
X031418Y024732D02*
X031295Y024855D01*
X031665Y024855D01*
X031665Y021810D02*
X031665Y021563D01*
X031665Y021687D02*
X031295Y021687D01*
X031418Y021563D01*
X031356Y021442D02*
X031295Y021380D01*
X031295Y021257D01*
X031356Y021195D01*
X031603Y021195D01*
X031665Y021257D01*
X031665Y021380D01*
X031603Y021442D01*
X031665Y020810D02*
X031665Y020563D01*
X031418Y020810D01*
X031356Y020810D01*
X031295Y020748D01*
X031295Y020625D01*
X031356Y020563D01*
X031356Y020442D02*
X031295Y020380D01*
X031295Y020257D01*
X031356Y020195D01*
X031603Y020195D01*
X031665Y020257D01*
X031665Y020380D01*
X031603Y020442D01*
X031603Y019810D02*
X031665Y019748D01*
X031665Y019625D01*
X031603Y019563D01*
X031603Y019442D02*
X031665Y019380D01*
X031665Y019257D01*
X031603Y019195D01*
X031356Y019195D01*
X031295Y019257D01*
X031295Y019380D01*
X031356Y019442D01*
X031356Y019563D02*
X031295Y019625D01*
X031295Y019748D01*
X031356Y019810D01*
X031418Y019810D01*
X031480Y019748D01*
X031542Y019810D01*
X031603Y019810D01*
X031480Y019748D02*
X031480Y019687D01*
X031480Y018810D02*
X031480Y018563D01*
X031295Y018748D01*
X031665Y018748D01*
X031603Y018442D02*
X031665Y018380D01*
X031665Y018257D01*
X031603Y018195D01*
X031356Y018195D01*
X031295Y018257D01*
X031295Y018380D01*
X031356Y018442D01*
X031356Y015979D02*
X031295Y015917D01*
X031295Y015793D01*
X031356Y015732D01*
X031356Y015979D02*
X031418Y015979D01*
X031665Y015732D01*
X031665Y015979D01*
X031665Y015610D02*
X031665Y015363D01*
X031665Y015487D02*
X031295Y015487D01*
X031418Y015363D01*
X031356Y015242D02*
X031480Y015242D01*
X031542Y015180D01*
X031542Y014995D01*
X031665Y014995D02*
X031295Y014995D01*
X031295Y015180D01*
X031356Y015242D01*
X031480Y012479D02*
X031480Y012232D01*
X031295Y012417D01*
X031665Y012417D01*
X031665Y012110D02*
X031665Y011863D01*
X031665Y011987D02*
X031295Y011987D01*
X031418Y011863D01*
X031356Y011742D02*
X031480Y011742D01*
X031542Y011680D01*
X031542Y011495D01*
X031665Y011495D02*
X031295Y011495D01*
X031295Y011680D01*
X031356Y011742D01*
X027794Y019895D02*
X027547Y019895D01*
X027425Y019895D02*
X027363Y019895D01*
X027363Y019957D01*
X027425Y019957D01*
X027425Y019895D01*
X027242Y019957D02*
X027180Y019895D01*
X027057Y019895D01*
X026995Y019957D01*
X027242Y020204D01*
X027242Y019957D01*
X027242Y020204D02*
X027180Y020265D01*
X027057Y020265D01*
X026995Y020204D01*
X026995Y019957D01*
X027547Y020142D02*
X027671Y020265D01*
X027671Y019895D01*
X027671Y024495D02*
X027671Y024865D01*
X027547Y024742D01*
X027425Y024557D02*
X027425Y024495D01*
X027363Y024495D01*
X027363Y024557D01*
X027425Y024557D01*
X027547Y024495D02*
X027794Y024495D01*
X027242Y024557D02*
X027180Y024495D01*
X027057Y024495D01*
X026995Y024557D01*
X027242Y024804D01*
X027242Y024557D01*
X027242Y024804D02*
X027180Y024865D01*
X027057Y024865D01*
X026995Y024804D01*
X026995Y024557D01*
X020794Y019395D02*
X020547Y019395D01*
X020425Y019395D02*
X020363Y019395D01*
X020363Y019457D01*
X020425Y019457D01*
X020425Y019395D01*
X020242Y019457D02*
X020242Y019704D01*
X019995Y019457D01*
X020057Y019395D01*
X020180Y019395D01*
X020242Y019457D01*
X020242Y019704D02*
X020180Y019765D01*
X020057Y019765D01*
X019995Y019704D01*
X019995Y019457D01*
X020547Y019642D02*
X020671Y019765D01*
X020671Y019395D01*
X018565Y021495D02*
X018318Y021742D01*
X018256Y021742D01*
X018195Y021680D01*
X018195Y021557D01*
X018256Y021495D01*
X018565Y021495D02*
X018565Y021742D01*
X018565Y021863D02*
X018318Y022110D01*
X018256Y022110D01*
X018195Y022048D01*
X018195Y021925D01*
X018256Y021863D01*
X018565Y021863D02*
X018565Y022110D01*
X018503Y022232D02*
X018256Y022479D01*
X018503Y022479D01*
X018565Y022417D01*
X018565Y022293D01*
X018503Y022232D01*
X018256Y022232D01*
X018195Y022293D01*
X018195Y022417D01*
X018256Y022479D01*
X017365Y022417D02*
X017365Y022293D01*
X017303Y022232D01*
X017056Y022479D01*
X017303Y022479D01*
X017365Y022417D01*
X017303Y022232D02*
X017056Y022232D01*
X016995Y022293D01*
X016995Y022417D01*
X017056Y022479D01*
X017056Y022110D02*
X016995Y022048D01*
X016995Y021925D01*
X017056Y021863D01*
X017056Y021742D02*
X016995Y021680D01*
X016995Y021557D01*
X017056Y021495D01*
X017056Y021742D02*
X017118Y021742D01*
X017365Y021495D01*
X017365Y021742D01*
X017365Y021863D02*
X017118Y022110D01*
X017056Y022110D01*
X017365Y022110D02*
X017365Y021863D01*
X016271Y019865D02*
X016147Y019742D01*
X016271Y019865D02*
X016271Y019495D01*
X016394Y019495D02*
X016147Y019495D01*
X016025Y019495D02*
X015963Y019495D01*
X015963Y019557D01*
X016025Y019557D01*
X016025Y019495D01*
X015842Y019557D02*
X015780Y019495D01*
X015657Y019495D01*
X015595Y019557D01*
X015842Y019804D01*
X015842Y019557D01*
X015842Y019804D02*
X015780Y019865D01*
X015657Y019865D01*
X015595Y019804D01*
X015595Y019557D01*
X012365Y020795D02*
X012172Y020795D01*
X012075Y020892D01*
X012172Y020988D01*
X012365Y020988D01*
X012220Y020988D02*
X012220Y020795D01*
X012220Y021795D02*
X012220Y021940D01*
X012268Y021988D01*
X012317Y021988D01*
X012365Y021940D01*
X012365Y021795D01*
X012075Y021795D01*
X012075Y021940D01*
X012123Y021988D01*
X012172Y021988D01*
X012220Y021940D01*
X011465Y022595D02*
X011465Y022692D01*
X011465Y022643D02*
X011175Y022643D01*
X011175Y022595D02*
X011175Y022692D01*
X011175Y022985D02*
X011465Y022791D01*
X011417Y023086D02*
X011223Y023086D01*
X011175Y023134D01*
X011175Y023231D01*
X011223Y023280D01*
X011417Y023280D01*
X011465Y023231D01*
X011465Y023134D01*
X011417Y023086D01*
X012123Y023895D02*
X012075Y023943D01*
X012075Y024040D01*
X012123Y024088D01*
X012123Y023895D02*
X012317Y023895D01*
X012365Y023943D01*
X012365Y024040D01*
X012317Y024088D01*
X012365Y024895D02*
X012075Y024895D01*
X012075Y025040D01*
X012123Y025088D01*
X012317Y025088D01*
X012365Y025040D01*
X012365Y024895D01*
X015956Y029395D02*
X015895Y029457D01*
X015895Y029580D01*
X015956Y029642D01*
X016203Y029395D01*
X016265Y029457D01*
X016265Y029580D01*
X016203Y029642D01*
X015956Y029642D01*
X015956Y029395D02*
X016203Y029395D01*
X016203Y029763D02*
X016203Y029825D01*
X016265Y029825D01*
X016265Y029763D01*
X016203Y029763D01*
X016265Y029947D02*
X016265Y030194D01*
X016265Y030071D02*
X015895Y030071D01*
X016018Y029947D01*
X017056Y027479D02*
X017303Y027232D01*
X017365Y027293D01*
X017365Y027417D01*
X017303Y027479D01*
X017056Y027479D01*
X016995Y027417D01*
X016995Y027293D01*
X017056Y027232D01*
X017303Y027232D01*
X017365Y027110D02*
X017365Y026863D01*
X017118Y027110D01*
X017056Y027110D01*
X016995Y027048D01*
X016995Y026925D01*
X017056Y026863D01*
X017056Y026742D02*
X016995Y026680D01*
X016995Y026557D01*
X017056Y026495D01*
X017056Y026742D02*
X017118Y026742D01*
X017365Y026495D01*
X017365Y026742D01*
X018195Y026680D02*
X018195Y026557D01*
X018256Y026495D01*
X018195Y026680D02*
X018256Y026742D01*
X018318Y026742D01*
X018565Y026495D01*
X018565Y026742D01*
X018565Y026863D02*
X018318Y027110D01*
X018256Y027110D01*
X018195Y027048D01*
X018195Y026925D01*
X018256Y026863D01*
X018565Y026863D02*
X018565Y027110D01*
X018503Y027232D02*
X018256Y027479D01*
X018503Y027479D01*
X018565Y027417D01*
X018565Y027293D01*
X018503Y027232D01*
X018256Y027232D01*
X018195Y027293D01*
X018195Y027417D01*
X018256Y027479D01*
X018718Y030195D02*
X018595Y030318D01*
X018965Y030318D01*
X018965Y030195D02*
X018965Y030442D01*
X018903Y030563D02*
X018656Y030810D01*
X018903Y030810D01*
X018965Y030748D01*
X018965Y030625D01*
X018903Y030563D01*
X018656Y030563D01*
X018595Y030625D01*
X018595Y030748D01*
X018656Y030810D01*
X018965Y030932D02*
X018595Y031179D01*
X018780Y031300D02*
X018656Y031423D01*
X018595Y031547D01*
X018780Y031485D02*
X018780Y031300D01*
X018903Y031300D01*
X018965Y031362D01*
X018965Y031485D01*
X018903Y031547D01*
X018842Y031547D01*
X018780Y031485D01*
X018903Y031668D02*
X018903Y031730D01*
X018965Y031730D01*
X018965Y031668D01*
X018903Y031668D01*
X018903Y031852D02*
X018965Y031914D01*
X018965Y032038D01*
X018903Y032099D01*
X018842Y032099D01*
X018780Y032038D01*
X018780Y031976D01*
X018780Y032038D02*
X018718Y032099D01*
X018656Y032099D01*
X018595Y032038D01*
X018595Y031914D01*
X018656Y031852D01*
X018557Y036795D02*
X018680Y036795D01*
X018742Y036857D01*
X018863Y036795D02*
X019110Y036795D01*
X018987Y036795D02*
X018987Y037165D01*
X018863Y037042D01*
X018742Y037104D02*
X018680Y037165D01*
X018557Y037165D01*
X018495Y037104D01*
X018495Y036857D01*
X018557Y036795D01*
X018110Y036795D02*
X017863Y036795D01*
X018110Y037042D01*
X018110Y037104D01*
X018048Y037165D01*
X017925Y037165D01*
X017863Y037104D01*
X017742Y037104D02*
X017680Y037165D01*
X017557Y037165D01*
X017495Y037104D01*
X017495Y036857D01*
X017557Y036795D01*
X017680Y036795D01*
X017742Y036857D01*
X017110Y036857D02*
X017110Y036918D01*
X017048Y036980D01*
X016863Y036980D01*
X016863Y036857D01*
X016925Y036795D01*
X017048Y036795D01*
X017110Y036857D01*
X016987Y037104D02*
X016863Y036980D01*
X016742Y036857D02*
X016680Y036795D01*
X016557Y036795D01*
X016495Y036857D01*
X016495Y037104D01*
X016557Y037165D01*
X016680Y037165D01*
X016742Y037104D01*
X016987Y037104D02*
X017110Y037165D01*
X016110Y037165D02*
X015863Y037165D01*
X015863Y036980D01*
X015987Y037042D01*
X016048Y037042D01*
X016110Y036980D01*
X016110Y036857D01*
X016048Y036795D01*
X015925Y036795D01*
X015863Y036857D01*
X015742Y036857D02*
X015680Y036795D01*
X015557Y036795D01*
X015495Y036857D01*
X015495Y037104D01*
X015557Y037165D01*
X015680Y037165D01*
X015742Y037104D01*
X001578Y037643D02*
X001529Y037595D01*
X001433Y037595D01*
X001384Y037643D01*
X001283Y037595D02*
X001186Y037692D01*
X001235Y037692D02*
X001090Y037692D01*
X001090Y037595D02*
X001090Y037885D01*
X001235Y037885D01*
X001283Y037837D01*
X001283Y037740D01*
X001235Y037692D01*
X001384Y037837D02*
X001433Y037885D01*
X001529Y037885D01*
X001578Y037837D01*
X001578Y037788D01*
X001529Y037740D01*
X001578Y037692D01*
X001578Y037643D01*
X001529Y037740D02*
X001481Y037740D01*
X000988Y037595D02*
X000795Y037595D01*
X000795Y037885D01*
X007403Y018286D02*
X007355Y018237D01*
X007355Y018092D01*
X007645Y018092D01*
X007645Y018237D01*
X007597Y018286D01*
X007403Y018286D01*
X007355Y017991D02*
X007645Y017991D01*
X007355Y017798D01*
X007645Y017798D01*
X007597Y017696D02*
X007645Y017648D01*
X007645Y017551D01*
X007597Y017503D01*
X007403Y017503D01*
X007355Y017551D01*
X007355Y017648D01*
X007403Y017696D01*
X007500Y017696D02*
X007500Y017600D01*
X007500Y017696D02*
X007597Y017696D01*
X007645Y017107D02*
X007645Y016914D01*
X007452Y017107D01*
X007403Y017107D01*
X007355Y017059D01*
X007355Y016962D01*
X007403Y016914D01*
X007452Y016518D02*
X007645Y016324D01*
X007645Y016223D02*
X007452Y016223D01*
X007452Y016324D02*
X007645Y016518D01*
X007645Y016223D02*
X007645Y016078D01*
X007597Y016030D01*
X007452Y016030D01*
X007355Y015928D02*
X007645Y015928D01*
X007645Y015735D02*
X007355Y015735D01*
X007452Y015832D01*
X007355Y015928D01*
X007463Y015066D02*
X007415Y015017D01*
X007415Y014872D01*
X007705Y014872D01*
X007705Y015017D01*
X007657Y015066D01*
X007463Y015066D01*
X007415Y014771D02*
X007705Y014771D01*
X007415Y014578D01*
X007705Y014578D01*
X007657Y014476D02*
X007560Y014476D01*
X007560Y014380D01*
X007657Y014476D02*
X007705Y014428D01*
X007705Y014331D01*
X007657Y014283D01*
X007463Y014283D01*
X007415Y014331D01*
X007415Y014428D01*
X007463Y014476D01*
X007705Y013887D02*
X007705Y013694D01*
X007705Y013790D02*
X007415Y013790D01*
X007512Y013694D01*
X007512Y013298D02*
X007705Y013104D01*
X007705Y013003D02*
X007512Y013003D01*
X007512Y013104D02*
X007705Y013298D01*
X007705Y013003D02*
X007705Y012858D01*
X007657Y012810D01*
X007512Y012810D01*
X007415Y012708D02*
X007705Y012708D01*
X007705Y012515D02*
X007415Y012515D01*
X007512Y012612D01*
X007415Y012708D01*
X001517Y002265D02*
X001579Y002204D01*
X001579Y002142D01*
X001517Y002080D01*
X001579Y002018D01*
X001579Y001957D01*
X001517Y001895D01*
X001393Y001895D01*
X001332Y001957D01*
X001210Y001895D02*
X001087Y002018D01*
X001148Y002018D02*
X000963Y002018D01*
X000963Y001895D02*
X000963Y002265D01*
X001148Y002265D01*
X001210Y002204D01*
X001210Y002080D01*
X001148Y002018D01*
X001332Y002204D02*
X001393Y002265D01*
X001517Y002265D01*
X001517Y002080D02*
X001455Y002080D01*
X000842Y001895D02*
X000595Y001895D01*
X000595Y002265D01*
X032995Y037595D02*
X033242Y037595D01*
X033363Y037595D02*
X033363Y037965D01*
X033548Y037965D01*
X033610Y037904D01*
X033610Y037780D01*
X033548Y037718D01*
X033363Y037718D01*
X033487Y037718D02*
X033610Y037595D01*
X033732Y037595D02*
X033979Y037595D01*
X033855Y037595D02*
X033855Y037965D01*
X033732Y037842D01*
X032995Y037965D02*
X032995Y037595D01*
D12*
X033298Y037464D02*
X032945Y037110D01*
X032945Y036757D01*
X032591Y036757D01*
X032238Y036403D01*
X032238Y036050D01*
X032591Y035696D01*
X032945Y035696D01*
X033298Y036050D01*
X033298Y036403D01*
X032945Y036757D01*
X033298Y036403D02*
X033652Y036403D01*
X034005Y036757D01*
X034005Y037110D01*
X033652Y037464D01*
X033298Y037464D01*
X032280Y037530D02*
X032030Y037280D01*
X031530Y037280D01*
X031280Y037530D01*
X031030Y037280D01*
X030530Y037280D01*
X030280Y037530D01*
X030280Y038030D01*
X030530Y038280D01*
X031030Y038280D01*
X031280Y038030D01*
X031530Y038280D01*
X032030Y038280D01*
X032280Y038030D01*
X032280Y037530D01*
X031280Y037530D02*
X031280Y038030D01*
X029780Y038030D02*
X029780Y037530D01*
X029530Y037280D01*
X029030Y037280D01*
X028780Y037530D01*
X028530Y037280D01*
X028030Y037280D01*
X027780Y037530D01*
X027780Y038030D01*
X028030Y038280D01*
X028530Y038280D01*
X028780Y038030D01*
X029030Y038280D01*
X029530Y038280D01*
X029780Y038030D01*
X028780Y038030D02*
X028780Y037530D01*
X026780Y037530D02*
X026530Y037280D01*
X026030Y037280D01*
X025780Y037530D01*
X025530Y037280D01*
X025030Y037280D01*
X024780Y037530D01*
X024530Y037280D01*
X024030Y037280D01*
X023780Y037530D01*
X023780Y038030D01*
X024030Y038280D01*
X024530Y038280D01*
X024780Y038030D01*
X025030Y038280D01*
X025530Y038280D01*
X025780Y038030D01*
X026030Y038280D01*
X026530Y038280D01*
X026780Y038030D01*
X026780Y037530D01*
X025780Y037530D02*
X025780Y038030D01*
X024780Y038030D02*
X024780Y037530D01*
X023280Y037530D02*
X023030Y037280D01*
X022530Y037280D01*
X022280Y037530D01*
X022030Y037280D01*
X021530Y037280D01*
X021280Y037530D01*
X021030Y037280D01*
X020530Y037280D01*
X020280Y037530D01*
X020280Y038030D01*
X020530Y038280D01*
X021030Y038280D01*
X021280Y038030D01*
X021530Y038280D01*
X022030Y038280D01*
X022280Y038030D01*
X022530Y038280D01*
X023030Y038280D01*
X023280Y038030D01*
X023280Y037530D01*
X022280Y037530D02*
X022280Y038030D01*
X021280Y038030D02*
X021280Y037530D01*
X021230Y036630D02*
X021230Y036280D01*
X021230Y035930D01*
X022330Y035930D01*
X022330Y036280D01*
X022330Y036630D01*
X021230Y036630D01*
X021230Y036280D02*
X021180Y036280D01*
X021230Y035630D02*
X021230Y035280D01*
X021230Y034930D01*
X022330Y034930D01*
X022330Y035280D01*
X022330Y035630D01*
X021230Y035630D01*
X021230Y035280D02*
X021180Y035280D01*
X020630Y034380D02*
X020880Y034130D01*
X020880Y033630D01*
X020630Y033380D01*
X020130Y033380D01*
X019880Y033630D01*
X019630Y033380D01*
X019130Y033380D01*
X018880Y033630D01*
X018630Y033380D01*
X018130Y033380D01*
X017880Y033630D01*
X017630Y033380D01*
X017130Y033380D01*
X016880Y033630D01*
X016630Y033380D01*
X016130Y033380D01*
X015880Y033630D01*
X015630Y033380D01*
X015130Y033380D01*
X014880Y033630D01*
X014880Y034130D01*
X015130Y034380D01*
X015630Y034380D01*
X015880Y034130D01*
X016130Y034380D01*
X016630Y034380D01*
X016880Y034130D01*
X016880Y033630D01*
X016880Y034130D02*
X017130Y034380D01*
X017630Y034380D01*
X017880Y034130D01*
X018130Y034380D01*
X018630Y034380D01*
X018880Y034130D01*
X019130Y034380D01*
X019630Y034380D01*
X019880Y034130D01*
X020130Y034380D01*
X020630Y034380D01*
X019880Y034130D02*
X019880Y033630D01*
X018880Y033630D02*
X018880Y034130D01*
X019330Y034930D02*
X018230Y034930D01*
X018230Y035280D01*
X018230Y035630D01*
X019330Y035630D01*
X019330Y035280D01*
X019330Y034930D01*
X019330Y035280D02*
X019380Y035280D01*
X019330Y035930D02*
X019330Y036280D01*
X019330Y036630D01*
X018230Y036630D01*
X018230Y036280D01*
X018230Y035930D01*
X019330Y035930D01*
X019330Y036280D02*
X019380Y036280D01*
X019030Y037280D02*
X018530Y037280D01*
X018280Y037530D01*
X018280Y039030D01*
X018530Y039280D01*
X019030Y039280D01*
X019280Y039030D01*
X019280Y037530D01*
X019030Y037280D01*
X018280Y037530D02*
X018030Y037280D01*
X017530Y037280D01*
X017280Y037530D01*
X017280Y039030D01*
X017530Y039280D01*
X018030Y039280D01*
X018280Y039030D01*
X017280Y039030D02*
X017030Y039280D01*
X016530Y039280D01*
X016280Y039030D01*
X016280Y037530D01*
X016530Y037280D01*
X017030Y037280D01*
X017280Y037530D01*
X016280Y037530D02*
X016030Y037280D01*
X015530Y037280D01*
X015280Y037530D01*
X015280Y039030D01*
X015530Y039280D01*
X016030Y039280D01*
X016280Y039030D01*
X014280Y038030D02*
X014280Y037530D01*
X014030Y037280D01*
X013530Y037280D01*
X013280Y037530D01*
X013030Y037280D01*
X012530Y037280D01*
X012280Y037530D01*
X012030Y037280D01*
X011530Y037280D01*
X011280Y037530D01*
X011280Y038030D01*
X011530Y038280D01*
X012030Y038280D01*
X012280Y038030D01*
X012530Y038280D01*
X013030Y038280D01*
X013280Y038030D01*
X013530Y038280D01*
X014030Y038280D01*
X014280Y038030D01*
X013280Y038030D02*
X013280Y037530D01*
X013330Y036630D02*
X013330Y036280D01*
X013330Y035930D01*
X012230Y035930D01*
X012230Y036280D01*
X012230Y036630D01*
X013330Y036630D01*
X013330Y036280D02*
X013380Y036280D01*
X013330Y035630D02*
X013330Y035280D01*
X013330Y034930D01*
X012230Y034930D01*
X012230Y035280D01*
X012230Y035630D01*
X013330Y035630D01*
X013330Y035280D02*
X013380Y035280D01*
X012230Y035280D02*
X012180Y035280D01*
X012180Y036280D02*
X012230Y036280D01*
X012280Y037530D02*
X012280Y038030D01*
X010780Y038030D02*
X010780Y037530D01*
X010530Y037280D01*
X010030Y037280D01*
X009780Y037530D01*
X009530Y037280D01*
X009030Y037280D01*
X008780Y037530D01*
X008530Y037280D01*
X008030Y037280D01*
X007780Y037530D01*
X007780Y038030D01*
X008030Y038280D01*
X008530Y038280D01*
X008780Y038030D01*
X009030Y038280D01*
X009530Y038280D01*
X009780Y038030D01*
X010030Y038280D01*
X010530Y038280D01*
X010780Y038030D01*
X009780Y038030D02*
X009780Y037530D01*
X008780Y037530D02*
X008780Y038030D01*
X006780Y038030D02*
X006780Y037530D01*
X006530Y037280D01*
X006030Y037280D01*
X005780Y037530D01*
X005530Y037280D01*
X005030Y037280D01*
X004780Y037530D01*
X004780Y038030D01*
X005030Y038280D01*
X005530Y038280D01*
X005780Y038030D01*
X006030Y038280D01*
X006530Y038280D01*
X006780Y038030D01*
X005780Y038030D02*
X005780Y037530D01*
X004280Y037530D02*
X004030Y037280D01*
X003530Y037280D01*
X003280Y037530D01*
X003030Y037280D01*
X002530Y037280D01*
X002280Y037530D01*
X002280Y038030D01*
X002530Y038280D01*
X003030Y038280D01*
X003280Y038030D01*
X003530Y038280D01*
X004030Y038280D01*
X004280Y038030D01*
X004280Y037530D01*
X003280Y037530D02*
X003280Y038030D01*
X002010Y036798D02*
X002364Y036445D01*
X002364Y036091D01*
X002010Y035738D01*
X001657Y035738D01*
X001303Y036091D01*
X001303Y036445D01*
X000950Y036445D01*
X000596Y036798D01*
X000596Y037152D01*
X000950Y037505D01*
X001303Y037505D01*
X001657Y037152D01*
X001657Y036798D01*
X002010Y036798D01*
X001657Y036798D02*
X001303Y036445D01*
X002030Y034980D02*
X002530Y034980D01*
X002780Y034730D01*
X002780Y034230D01*
X002530Y033980D01*
X002780Y033730D01*
X002780Y033230D01*
X002530Y032980D01*
X002030Y032980D01*
X001780Y033230D01*
X001780Y033730D01*
X002030Y033980D01*
X001780Y034230D01*
X001780Y034730D01*
X002030Y034980D01*
X002030Y033980D02*
X002530Y033980D01*
X002530Y032480D02*
X002030Y032480D01*
X001780Y032230D01*
X001780Y031730D01*
X002030Y031480D01*
X002530Y031480D01*
X002780Y031730D01*
X002780Y032230D01*
X002530Y032480D01*
X002530Y031480D02*
X002780Y031230D01*
X002780Y030730D01*
X002530Y030480D01*
X002030Y030480D01*
X001780Y030730D01*
X001780Y031230D01*
X002030Y031480D01*
X002030Y029480D02*
X001780Y029230D01*
X001780Y028730D01*
X002030Y028480D01*
X001780Y028230D01*
X001780Y027730D01*
X002030Y027480D01*
X001780Y027230D01*
X001780Y026730D01*
X002030Y026480D01*
X002530Y026480D01*
X002780Y026730D01*
X002780Y027230D01*
X002530Y027480D01*
X002030Y027480D01*
X002530Y027480D02*
X002780Y027730D01*
X002780Y028230D01*
X002530Y028480D01*
X002030Y028480D01*
X002530Y028480D02*
X002780Y028730D01*
X002780Y029230D01*
X002530Y029480D01*
X002030Y029480D01*
X002030Y025980D02*
X001780Y025730D01*
X001780Y025230D01*
X002030Y024980D01*
X001780Y024730D01*
X001780Y024230D01*
X002030Y023980D01*
X001780Y023730D01*
X001780Y023230D01*
X002030Y022980D01*
X002530Y022980D01*
X002780Y023230D01*
X002780Y023730D01*
X002530Y023980D01*
X002030Y023980D01*
X002530Y023980D02*
X002780Y024230D01*
X002780Y024730D01*
X002530Y024980D01*
X002030Y024980D01*
X002530Y024980D02*
X002780Y025230D01*
X002780Y025730D01*
X002530Y025980D01*
X002030Y025980D01*
X003430Y025030D02*
X003780Y025030D01*
X004130Y025030D01*
X004130Y023930D01*
X003780Y023930D01*
X003430Y023930D01*
X003430Y025030D01*
X003780Y025030D02*
X003780Y025080D01*
X004430Y025030D02*
X004780Y025030D01*
X005130Y025030D01*
X005130Y023930D01*
X004780Y023930D01*
X004430Y023930D01*
X004430Y025030D01*
X004780Y025030D02*
X004780Y025080D01*
X004780Y023930D02*
X004780Y023880D01*
X003780Y023880D02*
X003780Y023930D01*
X003780Y022080D02*
X003780Y022030D01*
X003430Y022030D01*
X003430Y020930D01*
X003780Y020930D01*
X004130Y020930D01*
X004130Y022030D01*
X003780Y022030D01*
X004430Y022030D02*
X004780Y022030D01*
X005130Y022030D01*
X005130Y020930D01*
X004780Y020930D01*
X004430Y020930D01*
X004430Y022030D01*
X004780Y022030D02*
X004780Y022080D01*
X004780Y020930D02*
X004780Y020880D01*
X003780Y020880D02*
X003780Y020930D01*
X002780Y020730D02*
X002780Y020230D01*
X002530Y019980D01*
X001030Y019980D01*
X000780Y020230D01*
X000780Y020730D01*
X001030Y020980D01*
X000780Y021230D01*
X000780Y021730D01*
X001030Y021980D01*
X002530Y021980D01*
X002780Y021730D01*
X002780Y021230D01*
X002530Y020980D01*
X001030Y020980D01*
X001030Y019980D02*
X000780Y019730D01*
X000780Y019230D01*
X001030Y018980D01*
X002530Y018980D01*
X002780Y019230D01*
X002780Y019730D01*
X002530Y019980D01*
X002780Y020730D02*
X002530Y020980D01*
X002530Y018980D02*
X002780Y018730D01*
X002780Y018230D01*
X002530Y017980D01*
X001030Y017980D01*
X000780Y018230D01*
X000780Y018730D01*
X001030Y018980D01*
X002030Y016980D02*
X001780Y016730D01*
X001780Y016230D01*
X002030Y015980D01*
X001780Y015730D01*
X001780Y015230D01*
X002030Y014980D01*
X001780Y014730D01*
X001780Y014230D01*
X002030Y013980D01*
X002530Y013980D01*
X002780Y014230D01*
X002780Y014730D01*
X002530Y014980D01*
X002030Y014980D01*
X002530Y014980D02*
X002780Y015230D01*
X002780Y015730D01*
X002530Y015980D01*
X002030Y015980D01*
X002530Y015980D02*
X002780Y016230D01*
X002780Y016730D01*
X002530Y016980D01*
X002030Y016980D01*
X003430Y016030D02*
X003780Y016030D01*
X004130Y016030D01*
X004130Y014930D01*
X003780Y014930D01*
X003430Y014930D01*
X003430Y016030D01*
X003780Y016030D02*
X003780Y016080D01*
X004430Y016030D02*
X004780Y016030D01*
X005130Y016030D01*
X005130Y014930D01*
X004780Y014930D01*
X004430Y014930D01*
X004430Y016030D01*
X004780Y016030D02*
X004780Y016080D01*
X004780Y014930D02*
X004780Y014880D01*
X003780Y014880D02*
X003780Y014930D01*
X002530Y013480D02*
X002780Y013230D01*
X002780Y012730D01*
X002530Y012480D01*
X002780Y012230D01*
X002780Y011730D01*
X002530Y011480D01*
X002780Y011230D01*
X002780Y010730D01*
X002530Y010480D01*
X002030Y010480D01*
X001780Y010730D01*
X001780Y011230D01*
X002030Y011480D01*
X001780Y011730D01*
X001780Y012230D01*
X002030Y012480D01*
X001780Y012730D01*
X001780Y013230D01*
X002030Y013480D01*
X002530Y013480D01*
X002530Y012480D02*
X002030Y012480D01*
X002030Y011480D02*
X002530Y011480D01*
X002530Y009480D02*
X002030Y009480D01*
X001780Y009230D01*
X001780Y008730D01*
X002030Y008480D01*
X002530Y008480D01*
X002780Y008730D01*
X002780Y009230D01*
X002530Y009480D01*
X002530Y008480D02*
X002780Y008230D01*
X002780Y007730D01*
X002530Y007480D01*
X002030Y007480D01*
X001780Y007730D01*
X001780Y008230D01*
X002030Y008480D01*
X002030Y006980D02*
X002530Y006980D01*
X002780Y006730D01*
X002780Y006230D01*
X002530Y005980D01*
X002780Y005730D01*
X002780Y005230D01*
X002530Y004980D01*
X002030Y004980D01*
X001780Y005230D01*
X001780Y005730D01*
X002030Y005980D01*
X001780Y006230D01*
X001780Y006730D01*
X002030Y006980D01*
X002030Y005980D02*
X002530Y005980D01*
X001952Y004164D02*
X001598Y004164D01*
X001245Y003810D01*
X001245Y003457D01*
X000891Y003457D01*
X000538Y003103D01*
X000538Y002750D01*
X000891Y002396D01*
X001245Y002396D01*
X001598Y002750D01*
X001598Y003103D01*
X001245Y003457D01*
X001598Y003103D02*
X001952Y003103D01*
X002305Y003457D01*
X002305Y003810D01*
X001952Y004164D01*
X002530Y002580D02*
X003030Y002580D01*
X003280Y002330D01*
X003530Y002580D01*
X004030Y002580D01*
X004280Y002330D01*
X004280Y001830D01*
X004030Y001580D01*
X003530Y001580D01*
X003280Y001830D01*
X003030Y001580D01*
X002530Y001580D01*
X002280Y001830D01*
X002280Y002330D01*
X002530Y002580D01*
X003280Y002330D02*
X003280Y001830D01*
X004780Y001830D02*
X004780Y002330D01*
X005030Y002580D01*
X005530Y002580D01*
X005780Y002330D01*
X006030Y002580D01*
X006530Y002580D01*
X006780Y002330D01*
X006780Y001830D01*
X006530Y001580D01*
X006030Y001580D01*
X005780Y001830D01*
X005530Y001580D01*
X005030Y001580D01*
X004780Y001830D01*
X005780Y001830D02*
X005780Y002330D01*
X007780Y002330D02*
X007780Y001830D01*
X008030Y001580D01*
X008530Y001580D01*
X008780Y001830D01*
X009030Y001580D01*
X009530Y001580D01*
X009780Y001830D01*
X010030Y001580D01*
X010530Y001580D01*
X010780Y001830D01*
X010780Y002330D01*
X010530Y002580D01*
X010030Y002580D01*
X009780Y002330D01*
X009780Y001830D01*
X009780Y002330D02*
X009530Y002580D01*
X009030Y002580D01*
X008780Y002330D01*
X008780Y001830D01*
X008780Y002330D02*
X008530Y002580D01*
X008030Y002580D01*
X007780Y002330D01*
X011280Y002330D02*
X011280Y001830D01*
X011530Y001580D01*
X012030Y001580D01*
X012280Y001830D01*
X012530Y001580D01*
X013030Y001580D01*
X013280Y001830D01*
X013530Y001580D01*
X014030Y001580D01*
X014280Y001830D01*
X014280Y002330D01*
X014030Y002580D01*
X013530Y002580D01*
X013280Y002330D01*
X013280Y001830D01*
X013280Y002330D02*
X013030Y002580D01*
X012530Y002580D01*
X012280Y002330D01*
X012280Y001830D01*
X012280Y002330D02*
X012030Y002580D01*
X011530Y002580D01*
X011280Y002330D01*
X012230Y003230D02*
X012230Y003580D01*
X012230Y003930D01*
X013330Y003930D01*
X013330Y003580D01*
X013330Y003230D01*
X012230Y003230D01*
X012230Y003580D02*
X012180Y003580D01*
X012230Y004230D02*
X012230Y004580D01*
X012230Y004930D01*
X013330Y004930D01*
X013330Y004580D01*
X013330Y004230D01*
X012230Y004230D01*
X012230Y004580D02*
X012180Y004580D01*
X013330Y004580D02*
X013380Y004580D01*
X013380Y003580D02*
X013330Y003580D01*
X015180Y003580D02*
X015230Y003580D01*
X015230Y003230D01*
X016330Y003230D01*
X016330Y003580D01*
X016330Y003930D01*
X015230Y003930D01*
X015230Y003580D01*
X015230Y004230D02*
X015230Y004580D01*
X015230Y004930D01*
X016330Y004930D01*
X016330Y004580D01*
X016330Y004230D01*
X015230Y004230D01*
X015230Y004580D02*
X015180Y004580D01*
X016330Y004580D02*
X016380Y004580D01*
X016380Y003580D02*
X016330Y003580D01*
X016530Y002580D02*
X017030Y002580D01*
X017280Y002330D01*
X017280Y000830D01*
X017530Y000580D01*
X018030Y000580D01*
X018280Y000830D01*
X018530Y000580D01*
X019030Y000580D01*
X019280Y000830D01*
X019280Y002330D01*
X019030Y002580D01*
X018530Y002580D01*
X018280Y002330D01*
X018280Y000830D01*
X017280Y000830D02*
X017030Y000580D01*
X016530Y000580D01*
X016280Y000830D01*
X016280Y002330D01*
X016530Y002580D01*
X016280Y002330D02*
X016030Y002580D01*
X015530Y002580D01*
X015280Y002330D01*
X015280Y000830D01*
X015530Y000580D01*
X016030Y000580D01*
X016280Y000830D01*
X017280Y002330D02*
X017530Y002580D01*
X018030Y002580D01*
X018280Y002330D01*
X018230Y003230D02*
X018230Y003580D01*
X018230Y003930D01*
X019330Y003930D01*
X019330Y003580D01*
X019330Y003230D01*
X018230Y003230D01*
X018230Y003580D02*
X018180Y003580D01*
X018230Y004230D02*
X018230Y004580D01*
X018230Y004930D01*
X019330Y004930D01*
X019330Y004580D01*
X019330Y004230D01*
X018230Y004230D01*
X018230Y004580D02*
X018180Y004580D01*
X019330Y004580D02*
X019380Y004580D01*
X019380Y003580D02*
X019330Y003580D01*
X020530Y002580D02*
X020280Y002330D01*
X020280Y001830D01*
X020530Y001580D01*
X021030Y001580D01*
X021280Y001830D01*
X021530Y001580D01*
X022030Y001580D01*
X022280Y001830D01*
X022530Y001580D01*
X023030Y001580D01*
X023280Y001830D01*
X023280Y002330D01*
X023030Y002580D01*
X022530Y002580D01*
X022280Y002330D01*
X022280Y001830D01*
X022280Y002330D02*
X022030Y002580D01*
X021530Y002580D01*
X021280Y002330D01*
X021280Y001830D01*
X021280Y002330D02*
X021030Y002580D01*
X020530Y002580D01*
X021230Y003230D02*
X021230Y003580D01*
X021230Y003930D01*
X022330Y003930D01*
X022330Y003580D01*
X022330Y003230D01*
X021230Y003230D01*
X021230Y003580D02*
X021180Y003580D01*
X021230Y004230D02*
X021230Y004580D01*
X021230Y004930D01*
X022330Y004930D01*
X022330Y004580D01*
X022330Y004230D01*
X021230Y004230D01*
X021230Y004580D02*
X021180Y004580D01*
X022330Y004580D02*
X022380Y004580D01*
X022380Y003580D02*
X022330Y003580D01*
X023780Y002330D02*
X024030Y002580D01*
X024530Y002580D01*
X024780Y002330D01*
X025030Y002580D01*
X025530Y002580D01*
X025780Y002330D01*
X026030Y002580D01*
X026530Y002580D01*
X026780Y002330D01*
X026780Y001830D01*
X026530Y001580D01*
X026030Y001580D01*
X025780Y001830D01*
X025530Y001580D01*
X025030Y001580D01*
X024780Y001830D01*
X024530Y001580D01*
X024030Y001580D01*
X023780Y001830D01*
X023780Y002330D01*
X024780Y002330D02*
X024780Y001830D01*
X025780Y001830D02*
X025780Y002330D01*
X027780Y002330D02*
X027780Y001830D01*
X028030Y001580D01*
X028530Y001580D01*
X028780Y001830D01*
X028780Y002330D01*
X028530Y002580D01*
X028030Y002580D01*
X027780Y002330D01*
X028780Y002330D02*
X029030Y002580D01*
X029530Y002580D01*
X029780Y002330D01*
X029780Y001830D01*
X029530Y001580D01*
X029030Y001580D01*
X028780Y001830D01*
X030280Y001830D02*
X030280Y002330D01*
X030530Y002580D01*
X031030Y002580D01*
X031280Y002330D01*
X031530Y002580D01*
X032030Y002580D01*
X032280Y002330D01*
X032280Y001830D01*
X032030Y001580D01*
X031530Y001580D01*
X031280Y001830D01*
X031030Y001580D01*
X030530Y001580D01*
X030280Y001830D01*
X031280Y001830D02*
X031280Y002330D01*
X032296Y003498D02*
X032296Y003852D01*
X032650Y004205D01*
X033003Y004205D01*
X033357Y003852D01*
X033357Y003498D01*
X033710Y003498D01*
X034064Y003145D01*
X034064Y002791D01*
X033710Y002438D01*
X033357Y002438D01*
X033003Y002791D01*
X033003Y003145D01*
X032650Y003145D01*
X032296Y003498D01*
X033003Y003145D02*
X033357Y003498D01*
X032530Y004980D02*
X032030Y004980D01*
X031780Y005230D01*
X031780Y005730D01*
X032030Y005980D01*
X031780Y006230D01*
X031780Y006730D01*
X032030Y006980D01*
X032530Y006980D01*
X032780Y006730D01*
X032780Y006230D01*
X032530Y005980D01*
X032780Y005730D01*
X032780Y005230D01*
X032530Y004980D01*
X032530Y005980D02*
X032030Y005980D01*
X032030Y007480D02*
X031780Y007730D01*
X031780Y008230D01*
X032030Y008480D01*
X031780Y008730D01*
X031780Y009230D01*
X032030Y009480D01*
X032530Y009480D01*
X032780Y009230D01*
X032780Y008730D01*
X032530Y008480D01*
X032780Y008230D01*
X032780Y007730D01*
X032530Y007480D01*
X032030Y007480D01*
X032030Y008480D02*
X032530Y008480D01*
X032530Y010480D02*
X032030Y010480D01*
X031780Y010730D01*
X031780Y011230D01*
X032030Y011480D01*
X031780Y011730D01*
X031780Y012230D01*
X032030Y012480D01*
X031780Y012730D01*
X031780Y013230D01*
X032030Y013480D01*
X032530Y013480D01*
X032780Y013230D01*
X032780Y012730D01*
X032530Y012480D01*
X032780Y012230D01*
X032780Y011730D01*
X032530Y011480D01*
X032780Y011230D01*
X032780Y010730D01*
X032530Y010480D01*
X032530Y011480D02*
X032030Y011480D01*
X032030Y012480D02*
X032530Y012480D01*
X032530Y013980D02*
X032030Y013980D01*
X031780Y014230D01*
X031780Y014730D01*
X032030Y014980D01*
X031780Y015230D01*
X031780Y015730D01*
X032030Y015980D01*
X031780Y016230D01*
X031780Y016730D01*
X032030Y016980D01*
X032530Y016980D01*
X032780Y016730D01*
X032780Y016230D01*
X032530Y015980D01*
X032780Y015730D01*
X032780Y015230D01*
X032530Y014980D01*
X032780Y014730D01*
X032780Y014230D01*
X032530Y013980D01*
X032530Y014980D02*
X032030Y014980D01*
X031130Y014930D02*
X030780Y014930D01*
X030430Y014930D01*
X030430Y016030D01*
X030780Y016030D01*
X031130Y016030D01*
X031130Y014930D01*
X030780Y014930D02*
X030780Y014880D01*
X030130Y014930D02*
X029780Y014930D01*
X029430Y014930D01*
X029430Y016030D01*
X029780Y016030D01*
X030130Y016030D01*
X030130Y014930D01*
X029780Y014930D02*
X029780Y014880D01*
X029780Y016030D02*
X029780Y016080D01*
X030780Y016080D02*
X030780Y016030D01*
X032030Y015980D02*
X032530Y015980D01*
X032030Y017980D02*
X031780Y018230D01*
X031780Y018730D01*
X032030Y018980D01*
X033530Y018980D01*
X033780Y019230D01*
X033780Y019730D01*
X033530Y019980D01*
X032030Y019980D01*
X031780Y020230D01*
X031780Y020730D01*
X032030Y020980D01*
X031780Y021230D01*
X031780Y021730D01*
X032030Y021980D01*
X033530Y021980D01*
X033780Y021730D01*
X033780Y021230D01*
X033530Y020980D01*
X032030Y020980D01*
X031130Y020930D02*
X030780Y020930D01*
X030430Y020930D01*
X030430Y022030D01*
X030780Y022030D01*
X031130Y022030D01*
X031130Y020930D01*
X030780Y020930D02*
X030780Y020880D01*
X030130Y020930D02*
X029780Y020930D01*
X029430Y020930D01*
X029430Y022030D01*
X029780Y022030D01*
X030130Y022030D01*
X030130Y020930D01*
X029780Y020930D02*
X029780Y020880D01*
X029780Y022030D02*
X029780Y022080D01*
X030780Y022080D02*
X030780Y022030D01*
X031780Y023230D02*
X031780Y023730D01*
X032030Y023980D01*
X031780Y024230D01*
X031780Y024730D01*
X032030Y024980D01*
X031780Y025230D01*
X031780Y025730D01*
X032030Y025980D01*
X032530Y025980D01*
X032780Y025730D01*
X032780Y025230D01*
X032530Y024980D01*
X032780Y024730D01*
X032780Y024230D01*
X032530Y023980D01*
X032780Y023730D01*
X032780Y023230D01*
X032530Y022980D01*
X032030Y022980D01*
X031780Y023230D01*
X032030Y023980D02*
X032530Y023980D01*
X032530Y024980D02*
X032030Y024980D01*
X031130Y025030D02*
X031130Y023930D01*
X030780Y023930D01*
X030430Y023930D01*
X030430Y025030D01*
X030780Y025030D01*
X031130Y025030D01*
X030780Y025030D02*
X030780Y025080D01*
X030130Y025030D02*
X029780Y025030D01*
X029430Y025030D01*
X029430Y023930D01*
X029780Y023930D01*
X030130Y023930D01*
X030130Y025030D01*
X029780Y025030D02*
X029780Y025080D01*
X029780Y023930D02*
X029780Y023880D01*
X030780Y023880D02*
X030780Y023930D01*
X032030Y026480D02*
X031780Y026730D01*
X031780Y027230D01*
X032030Y027480D01*
X031780Y027730D01*
X031780Y028230D01*
X032030Y028480D01*
X031780Y028730D01*
X031780Y029230D01*
X032030Y029480D01*
X032530Y029480D01*
X032780Y029230D01*
X032780Y028730D01*
X032530Y028480D01*
X032780Y028230D01*
X032780Y027730D01*
X032530Y027480D01*
X032780Y027230D01*
X032780Y026730D01*
X032530Y026480D01*
X032030Y026480D01*
X032030Y027480D02*
X032530Y027480D01*
X032530Y028480D02*
X032030Y028480D01*
X032030Y030480D02*
X031780Y030730D01*
X031780Y031230D01*
X032030Y031480D01*
X031780Y031730D01*
X031780Y032230D01*
X032030Y032480D01*
X032530Y032480D01*
X032780Y032230D01*
X032780Y031730D01*
X032530Y031480D01*
X032780Y031230D01*
X032780Y030730D01*
X032530Y030480D01*
X032030Y030480D01*
X032030Y031480D02*
X032530Y031480D01*
X032530Y032980D02*
X032030Y032980D01*
X031780Y033230D01*
X031780Y033730D01*
X032030Y033980D01*
X031780Y034230D01*
X031780Y034730D01*
X032030Y034980D01*
X032530Y034980D01*
X032780Y034730D01*
X032780Y034230D01*
X032530Y033980D01*
X032780Y033730D01*
X032780Y033230D01*
X032530Y032980D01*
X032530Y033980D02*
X032030Y033980D01*
X025930Y031280D02*
X025180Y031280D01*
X025178Y031241D01*
X025172Y031202D01*
X025163Y031164D01*
X025150Y031127D01*
X025133Y031091D01*
X025113Y031058D01*
X025089Y031026D01*
X025063Y030997D01*
X025034Y030971D01*
X025002Y030947D01*
X024969Y030927D01*
X024933Y030910D01*
X024896Y030897D01*
X024858Y030888D01*
X024819Y030882D01*
X024780Y030880D01*
X024741Y030882D01*
X024702Y030888D01*
X024664Y030897D01*
X024627Y030910D01*
X024591Y030927D01*
X024558Y030947D01*
X024526Y030971D01*
X024497Y030997D01*
X024471Y031026D01*
X024447Y031058D01*
X024427Y031091D01*
X024410Y031127D01*
X024397Y031164D01*
X024388Y031202D01*
X024382Y031241D01*
X024380Y031280D01*
X023630Y031280D01*
X023630Y022280D01*
X025930Y022280D01*
X025930Y031280D01*
X025675Y032310D02*
X025461Y032310D01*
X025355Y032417D01*
X025461Y032630D02*
X025782Y032630D01*
X025782Y032417D02*
X025782Y032844D01*
X025675Y032951D01*
X025461Y032951D01*
X025355Y032844D01*
X025355Y032737D01*
X025461Y032630D01*
X025137Y032630D02*
X025030Y032524D01*
X024710Y032524D01*
X024710Y032310D02*
X024710Y032951D01*
X025030Y032951D01*
X025137Y032844D01*
X025137Y032630D01*
X025675Y032310D02*
X025782Y032417D01*
X024943Y028604D02*
X024836Y028604D01*
X024730Y028498D01*
X024730Y028391D01*
X024730Y028498D02*
X024623Y028604D01*
X024516Y028604D01*
X024409Y028498D01*
X024409Y028284D01*
X024516Y028177D01*
X024516Y027960D02*
X024943Y027533D01*
X025050Y027640D01*
X025050Y027853D01*
X024943Y027960D01*
X024516Y027960D01*
X024409Y027853D01*
X024409Y027640D01*
X024516Y027533D01*
X024943Y027533D01*
X024943Y027315D02*
X024836Y027315D01*
X024730Y027208D01*
X024730Y026995D01*
X024623Y026888D01*
X024516Y026888D01*
X024409Y026995D01*
X024409Y027208D01*
X024516Y027315D01*
X024623Y027315D01*
X024730Y027208D01*
X024730Y026995D02*
X024836Y026888D01*
X024943Y026888D01*
X025050Y026995D01*
X025050Y027208D01*
X024943Y027315D01*
X025050Y026671D02*
X025050Y026244D01*
X024623Y026671D01*
X024516Y026671D01*
X024409Y026564D01*
X024409Y026350D01*
X024516Y026244D01*
X024409Y026026D02*
X025050Y026026D01*
X024409Y025599D01*
X025050Y025599D01*
X025050Y025382D02*
X025050Y024955D01*
X024409Y024955D01*
X024409Y024737D02*
X024943Y024737D01*
X025050Y024630D01*
X025050Y024417D01*
X024943Y024310D01*
X024409Y024310D01*
X024380Y022080D02*
X023630Y022080D01*
X023630Y014080D01*
X025930Y014080D01*
X025930Y022080D01*
X025180Y022080D01*
X025178Y022041D01*
X025172Y022002D01*
X025163Y021964D01*
X025150Y021927D01*
X025133Y021891D01*
X025113Y021858D01*
X025089Y021826D01*
X025063Y021797D01*
X025034Y021771D01*
X025002Y021747D01*
X024969Y021727D01*
X024933Y021710D01*
X024896Y021697D01*
X024858Y021688D01*
X024819Y021682D01*
X024780Y021680D01*
X024741Y021682D01*
X024702Y021688D01*
X024664Y021697D01*
X024627Y021710D01*
X024591Y021727D01*
X024558Y021747D01*
X024526Y021771D01*
X024497Y021797D01*
X024471Y021826D01*
X024447Y021858D01*
X024427Y021891D01*
X024410Y021927D01*
X024397Y021964D01*
X024388Y022002D01*
X024382Y022041D01*
X024380Y022080D01*
X024516Y020304D02*
X024623Y020304D01*
X024730Y020198D01*
X024730Y019984D01*
X024623Y019877D01*
X024516Y019877D01*
X024409Y019984D01*
X024409Y020198D01*
X024516Y020304D01*
X024730Y020198D02*
X024836Y020304D01*
X024943Y020304D01*
X025050Y020198D01*
X025050Y019984D01*
X024943Y019877D01*
X024836Y019877D01*
X024730Y019984D01*
X024836Y019660D02*
X024943Y019660D01*
X025050Y019553D01*
X025050Y019340D01*
X024943Y019233D01*
X025050Y019015D02*
X025050Y018588D01*
X024623Y019015D01*
X024516Y019015D01*
X024409Y018908D01*
X024409Y018695D01*
X024516Y018588D01*
X024516Y018371D02*
X024409Y018264D01*
X024409Y018050D01*
X024516Y017944D01*
X024943Y017944D01*
X025050Y018050D01*
X025050Y018264D01*
X024943Y018371D01*
X025050Y017726D02*
X024409Y017726D01*
X024730Y017726D02*
X024730Y017299D01*
X024730Y017082D02*
X024730Y016655D01*
X024409Y016975D01*
X025050Y016975D01*
X025050Y017299D02*
X024409Y017299D01*
X024409Y016437D02*
X024516Y016437D01*
X024943Y016010D01*
X025050Y016010D01*
X024409Y016010D02*
X024409Y016437D01*
X024516Y019233D02*
X024409Y019340D01*
X024409Y019553D01*
X024516Y019660D01*
X024623Y019660D01*
X024730Y019553D01*
X024836Y019660D01*
X024730Y019553D02*
X024730Y019446D01*
X026880Y020530D02*
X026880Y022230D01*
X026882Y022247D01*
X026886Y022264D01*
X026893Y022280D01*
X026903Y022294D01*
X026916Y022307D01*
X026930Y022317D01*
X026946Y022324D01*
X026963Y022328D01*
X026980Y022330D01*
X027780Y022330D01*
X027780Y022430D02*
X026980Y022430D01*
X026963Y022432D01*
X026946Y022436D01*
X026930Y022443D01*
X026916Y022453D01*
X026903Y022466D01*
X026893Y022480D01*
X026886Y022496D01*
X026882Y022513D01*
X026880Y022530D01*
X026880Y024230D01*
X026882Y024247D01*
X026886Y024264D01*
X026893Y024280D01*
X026903Y024294D01*
X026916Y024307D01*
X026930Y024317D01*
X026946Y024324D01*
X026963Y024328D01*
X026980Y024330D01*
X027780Y024330D01*
X027797Y024328D01*
X027814Y024324D01*
X027830Y024317D01*
X027844Y024307D01*
X027857Y024294D01*
X027867Y024280D01*
X027874Y024264D01*
X027878Y024247D01*
X027880Y024230D01*
X027880Y022530D01*
X027878Y022513D01*
X027874Y022496D01*
X027867Y022480D01*
X027857Y022466D01*
X027844Y022453D01*
X027830Y022443D01*
X027814Y022436D01*
X027797Y022432D01*
X027780Y022430D01*
X027780Y022330D02*
X027797Y022328D01*
X027814Y022324D01*
X027830Y022317D01*
X027844Y022307D01*
X027857Y022294D01*
X027867Y022280D01*
X027874Y022264D01*
X027878Y022247D01*
X027880Y022230D01*
X027880Y020530D01*
X027878Y020513D01*
X027874Y020496D01*
X027867Y020480D01*
X027857Y020466D01*
X027844Y020453D01*
X027830Y020443D01*
X027814Y020436D01*
X027797Y020432D01*
X027780Y020430D01*
X026980Y020430D01*
X026963Y020432D01*
X026946Y020436D01*
X026930Y020443D01*
X026916Y020453D01*
X026903Y020466D01*
X026893Y020480D01*
X026886Y020496D01*
X026882Y020513D01*
X026880Y020530D01*
X027380Y021230D02*
X027380Y021280D01*
X027380Y021480D02*
X027380Y021530D01*
X027380Y023230D02*
X027380Y023280D01*
X027380Y023480D02*
X027380Y023530D01*
X024943Y028177D02*
X025050Y028284D01*
X025050Y028498D01*
X024943Y028604D01*
X022380Y035280D02*
X022330Y035280D01*
X022330Y036280D02*
X022380Y036280D01*
X018230Y036280D02*
X018180Y036280D01*
X018180Y035280D02*
X018230Y035280D01*
X017880Y034130D02*
X017880Y033630D01*
X016330Y034930D02*
X016330Y035280D01*
X016330Y035630D01*
X015230Y035630D01*
X015230Y035280D01*
X015230Y034930D01*
X016330Y034930D01*
X016330Y035280D02*
X016380Y035280D01*
X016330Y035930D02*
X016330Y036280D01*
X016330Y036630D01*
X015230Y036630D01*
X015230Y036280D01*
X015230Y035930D01*
X016330Y035930D01*
X016330Y036280D02*
X016380Y036280D01*
X015230Y036280D02*
X015180Y036280D01*
X015180Y035280D02*
X015230Y035280D01*
X015880Y034130D02*
X015880Y033630D01*
X015680Y031230D02*
X014880Y031230D01*
X014863Y031228D01*
X014846Y031224D01*
X014830Y031217D01*
X014816Y031207D01*
X014803Y031194D01*
X014793Y031180D01*
X014786Y031164D01*
X014782Y031147D01*
X014780Y031130D01*
X014780Y029430D01*
X014782Y029413D01*
X014786Y029396D01*
X014793Y029380D01*
X014803Y029366D01*
X014816Y029353D01*
X014830Y029343D01*
X014846Y029336D01*
X014863Y029332D01*
X014880Y029330D01*
X015680Y029330D01*
X015697Y029332D01*
X015714Y029336D01*
X015730Y029343D01*
X015744Y029353D01*
X015757Y029366D01*
X015767Y029380D01*
X015774Y029396D01*
X015778Y029413D01*
X015780Y029430D01*
X015780Y031130D01*
X015778Y031147D01*
X015774Y031164D01*
X015767Y031180D01*
X015757Y031194D01*
X015744Y031207D01*
X015730Y031217D01*
X015714Y031224D01*
X015697Y031228D01*
X015680Y031230D01*
X015280Y030430D02*
X015280Y030380D01*
X015280Y030180D02*
X015280Y030130D01*
X016830Y028730D02*
X016830Y028580D01*
X016880Y028530D01*
X016880Y026630D01*
X016830Y026580D01*
X016830Y026430D01*
X016832Y026413D01*
X016836Y026396D01*
X016843Y026380D01*
X016853Y026366D01*
X016866Y026353D01*
X016880Y026343D01*
X016896Y026336D01*
X016913Y026332D01*
X016930Y026330D01*
X017630Y026330D01*
X017647Y026332D01*
X017664Y026336D01*
X017680Y026343D01*
X017694Y026353D01*
X017707Y026366D01*
X017717Y026380D01*
X017724Y026396D01*
X017728Y026413D01*
X017730Y026430D01*
X017730Y026580D01*
X017680Y026630D01*
X017680Y028530D01*
X017730Y028580D01*
X017730Y028730D01*
X017728Y028747D01*
X017724Y028764D01*
X017717Y028780D01*
X017707Y028794D01*
X017694Y028807D01*
X017680Y028817D01*
X017664Y028824D01*
X017647Y028828D01*
X017630Y028830D01*
X016930Y028830D01*
X016913Y028828D01*
X016896Y028824D01*
X016880Y028817D01*
X016866Y028807D01*
X016853Y028794D01*
X016843Y028780D01*
X016836Y028764D01*
X016832Y028747D01*
X016830Y028730D01*
X018030Y028730D02*
X018030Y028580D01*
X018080Y028530D01*
X018080Y026630D01*
X018030Y026580D01*
X018030Y026430D01*
X018032Y026413D01*
X018036Y026396D01*
X018043Y026380D01*
X018053Y026366D01*
X018066Y026353D01*
X018080Y026343D01*
X018096Y026336D01*
X018113Y026332D01*
X018130Y026330D01*
X018830Y026330D01*
X018847Y026332D01*
X018864Y026336D01*
X018880Y026343D01*
X018894Y026353D01*
X018907Y026366D01*
X018917Y026380D01*
X018924Y026396D01*
X018928Y026413D01*
X018930Y026430D01*
X018930Y026580D01*
X018880Y026630D01*
X018880Y028530D01*
X018930Y028580D01*
X018930Y028730D01*
X018928Y028747D01*
X018924Y028764D01*
X018917Y028780D01*
X018907Y028794D01*
X018894Y028807D01*
X018880Y028817D01*
X018864Y028824D01*
X018847Y028828D01*
X018830Y028830D01*
X018130Y028830D01*
X018113Y028828D01*
X018096Y028824D01*
X018080Y028817D01*
X018066Y028807D01*
X018053Y028794D01*
X018043Y028780D01*
X018036Y028764D01*
X018032Y028747D01*
X018030Y028730D01*
X017830Y030580D02*
X017830Y030680D01*
X017730Y030680D01*
X017830Y030680D02*
X017830Y030780D01*
X017830Y030680D02*
X017930Y030680D01*
X016280Y031180D02*
X016282Y031243D01*
X016288Y031305D01*
X016298Y031367D01*
X016311Y031429D01*
X016329Y031489D01*
X016350Y031548D01*
X016375Y031606D01*
X016404Y031662D01*
X016436Y031716D01*
X016471Y031768D01*
X016509Y031817D01*
X016551Y031865D01*
X016595Y031909D01*
X016643Y031951D01*
X016692Y031989D01*
X016744Y032024D01*
X016798Y032056D01*
X016854Y032085D01*
X016912Y032110D01*
X016971Y032131D01*
X017031Y032149D01*
X017093Y032162D01*
X017155Y032172D01*
X017217Y032178D01*
X017280Y032180D01*
X017343Y032178D01*
X017405Y032172D01*
X017467Y032162D01*
X017529Y032149D01*
X017589Y032131D01*
X017648Y032110D01*
X017706Y032085D01*
X017762Y032056D01*
X017816Y032024D01*
X017868Y031989D01*
X017917Y031951D01*
X017965Y031909D01*
X018009Y031865D01*
X018051Y031817D01*
X018089Y031768D01*
X018124Y031716D01*
X018156Y031662D01*
X018185Y031606D01*
X018210Y031548D01*
X018231Y031489D01*
X018249Y031429D01*
X018262Y031367D01*
X018272Y031305D01*
X018278Y031243D01*
X018280Y031180D01*
X018278Y031117D01*
X018272Y031055D01*
X018262Y030993D01*
X018249Y030931D01*
X018231Y030871D01*
X018210Y030812D01*
X018185Y030754D01*
X018156Y030698D01*
X018124Y030644D01*
X018089Y030592D01*
X018051Y030543D01*
X018009Y030495D01*
X017965Y030451D01*
X017917Y030409D01*
X017868Y030371D01*
X017816Y030336D01*
X017762Y030304D01*
X017706Y030275D01*
X017648Y030250D01*
X017589Y030229D01*
X017529Y030211D01*
X017467Y030198D01*
X017405Y030188D01*
X017343Y030182D01*
X017280Y030180D01*
X017217Y030182D01*
X017155Y030188D01*
X017093Y030198D01*
X017031Y030211D01*
X016971Y030229D01*
X016912Y030250D01*
X016854Y030275D01*
X016798Y030304D01*
X016744Y030336D01*
X016692Y030371D01*
X016643Y030409D01*
X016595Y030451D01*
X016551Y030495D01*
X016509Y030543D01*
X016471Y030592D01*
X016436Y030644D01*
X016404Y030698D01*
X016375Y030754D01*
X016350Y030812D01*
X016329Y030871D01*
X016311Y030931D01*
X016298Y030993D01*
X016288Y031055D01*
X016282Y031117D01*
X016280Y031180D01*
X016180Y025987D02*
X016073Y025881D01*
X016073Y025667D01*
X016180Y025560D01*
X016393Y025560D01*
X016500Y025667D01*
X016500Y025881D01*
X016393Y025987D01*
X016180Y025987D01*
X016180Y025343D02*
X016500Y025343D01*
X016180Y025343D02*
X016073Y025236D01*
X016073Y024916D01*
X016500Y024916D01*
X016500Y024699D02*
X016500Y024486D01*
X016500Y024593D02*
X016073Y024593D01*
X016073Y024486D01*
X016073Y024268D02*
X016500Y024268D01*
X016500Y023948D01*
X016393Y023841D01*
X016073Y023841D01*
X016073Y023624D02*
X016073Y023304D01*
X016180Y023197D01*
X016393Y023197D01*
X016500Y023304D01*
X016500Y023624D01*
X015859Y023624D01*
X016073Y022980D02*
X016073Y022873D01*
X016286Y022660D01*
X016073Y022660D02*
X016500Y022660D01*
X016500Y022442D02*
X016073Y022442D01*
X015859Y022229D01*
X016073Y022015D01*
X016500Y022015D01*
X016180Y022015D02*
X016180Y022442D01*
X016880Y021630D02*
X016880Y023530D01*
X016830Y023580D01*
X016830Y023730D01*
X016832Y023747D01*
X016836Y023764D01*
X016843Y023780D01*
X016853Y023794D01*
X016866Y023807D01*
X016880Y023817D01*
X016896Y023824D01*
X016913Y023828D01*
X016930Y023830D01*
X017630Y023830D01*
X017647Y023828D01*
X017664Y023824D01*
X017680Y023817D01*
X017694Y023807D01*
X017707Y023794D01*
X017717Y023780D01*
X017724Y023764D01*
X017728Y023747D01*
X017730Y023730D01*
X017730Y023580D01*
X017680Y023530D01*
X017680Y021630D01*
X017730Y021580D01*
X017730Y021430D01*
X017728Y021413D01*
X017724Y021396D01*
X017717Y021380D01*
X017707Y021366D01*
X017694Y021353D01*
X017680Y021343D01*
X017664Y021336D01*
X017647Y021332D01*
X017630Y021330D01*
X016930Y021330D01*
X016913Y021332D01*
X016896Y021336D01*
X016880Y021343D01*
X016866Y021353D01*
X016853Y021366D01*
X016843Y021380D01*
X016836Y021396D01*
X016832Y021413D01*
X016830Y021430D01*
X016830Y021580D01*
X016880Y021630D01*
X018030Y021580D02*
X018030Y021430D01*
X018032Y021413D01*
X018036Y021396D01*
X018043Y021380D01*
X018053Y021366D01*
X018066Y021353D01*
X018080Y021343D01*
X018096Y021336D01*
X018113Y021332D01*
X018130Y021330D01*
X018830Y021330D01*
X018847Y021332D01*
X018864Y021336D01*
X018880Y021343D01*
X018894Y021353D01*
X018907Y021366D01*
X018917Y021380D01*
X018924Y021396D01*
X018928Y021413D01*
X018930Y021430D01*
X018930Y021580D01*
X018880Y021630D01*
X018880Y023530D01*
X018930Y023580D01*
X018930Y023730D01*
X018928Y023747D01*
X018924Y023764D01*
X018917Y023780D01*
X018907Y023794D01*
X018894Y023807D01*
X018880Y023817D01*
X018864Y023824D01*
X018847Y023828D01*
X018830Y023830D01*
X018130Y023830D01*
X018113Y023828D01*
X018096Y023824D01*
X018080Y023817D01*
X018066Y023807D01*
X018053Y023794D01*
X018043Y023780D01*
X018036Y023764D01*
X018032Y023747D01*
X018030Y023730D01*
X018030Y023580D01*
X018080Y023530D01*
X018080Y021630D01*
X018030Y021580D01*
X019030Y019280D02*
X020730Y019280D01*
X020747Y019278D01*
X020764Y019274D01*
X020780Y019267D01*
X020794Y019257D01*
X020807Y019244D01*
X020817Y019230D01*
X020824Y019214D01*
X020828Y019197D01*
X020830Y019180D01*
X020830Y018380D01*
X020828Y018363D01*
X020824Y018346D01*
X020817Y018330D01*
X020807Y018316D01*
X020794Y018303D01*
X020780Y018293D01*
X020764Y018286D01*
X020747Y018282D01*
X020730Y018280D01*
X019030Y018280D01*
X019013Y018282D01*
X018996Y018286D01*
X018980Y018293D01*
X018966Y018303D01*
X018953Y018316D01*
X018943Y018330D01*
X018936Y018346D01*
X018932Y018363D01*
X018930Y018380D01*
X018930Y019180D01*
X018932Y019197D01*
X018936Y019214D01*
X018943Y019230D01*
X018953Y019244D01*
X018966Y019257D01*
X018980Y019267D01*
X018996Y019274D01*
X019013Y019278D01*
X019030Y019280D01*
X019730Y018780D02*
X019780Y018780D01*
X019980Y018780D02*
X020030Y018780D01*
X020030Y018180D02*
X019280Y018180D01*
X019278Y018141D01*
X019272Y018102D01*
X019263Y018064D01*
X019250Y018027D01*
X019233Y017991D01*
X019213Y017958D01*
X019189Y017926D01*
X019163Y017897D01*
X019134Y017871D01*
X019102Y017847D01*
X019069Y017827D01*
X019033Y017810D01*
X018996Y017797D01*
X018958Y017788D01*
X018919Y017782D01*
X018880Y017780D01*
X018841Y017782D01*
X018802Y017788D01*
X018764Y017797D01*
X018727Y017810D01*
X018691Y017827D01*
X018658Y017847D01*
X018626Y017871D01*
X018597Y017897D01*
X018571Y017926D01*
X018547Y017958D01*
X018527Y017991D01*
X018510Y018027D01*
X018497Y018064D01*
X018488Y018102D01*
X018482Y018141D01*
X018480Y018180D01*
X017730Y018180D01*
X017730Y010180D01*
X020030Y010180D01*
X020030Y018180D01*
X019150Y016060D02*
X019150Y015633D01*
X019150Y015846D02*
X018509Y015846D01*
X018723Y015633D01*
X019150Y014771D02*
X019150Y014344D01*
X019150Y014557D02*
X018509Y014557D01*
X018723Y014344D01*
X018830Y014126D02*
X019043Y014126D01*
X019150Y014019D01*
X019150Y013806D01*
X019043Y013699D01*
X018830Y013699D02*
X018723Y013913D01*
X018723Y014019D01*
X018830Y014126D01*
X018509Y014126D02*
X018509Y013699D01*
X018830Y013699D01*
X018616Y013482D02*
X019043Y013482D01*
X019150Y013375D01*
X019150Y013161D01*
X019043Y013055D01*
X018616Y013482D01*
X018509Y013375D01*
X018509Y013161D01*
X018616Y013055D01*
X019043Y013055D01*
X018830Y012837D02*
X018830Y012410D01*
X018509Y012730D01*
X019150Y012730D01*
X015630Y010180D02*
X013330Y010180D01*
X013330Y018180D01*
X014080Y018180D01*
X014082Y018141D01*
X014088Y018102D01*
X014097Y018064D01*
X014110Y018027D01*
X014127Y017991D01*
X014147Y017958D01*
X014171Y017926D01*
X014197Y017897D01*
X014226Y017871D01*
X014258Y017847D01*
X014291Y017827D01*
X014327Y017810D01*
X014364Y017797D01*
X014402Y017788D01*
X014441Y017782D01*
X014480Y017780D01*
X014519Y017782D01*
X014558Y017788D01*
X014596Y017797D01*
X014633Y017810D01*
X014669Y017827D01*
X014702Y017847D01*
X014734Y017871D01*
X014763Y017897D01*
X014789Y017926D01*
X014813Y017958D01*
X014833Y017991D01*
X014850Y018027D01*
X014863Y018064D01*
X014872Y018102D01*
X014878Y018141D01*
X014880Y018180D01*
X015630Y018180D01*
X015630Y010180D01*
X014330Y012410D02*
X014330Y012837D01*
X014543Y013055D02*
X014116Y013482D01*
X014543Y013482D01*
X014650Y013375D01*
X014650Y013161D01*
X014543Y013055D01*
X014116Y013055D01*
X014009Y013161D01*
X014009Y013375D01*
X014116Y013482D01*
X014009Y013699D02*
X014330Y013699D01*
X014223Y013913D01*
X014223Y014019D01*
X014330Y014126D01*
X014543Y014126D01*
X014650Y014019D01*
X014650Y013806D01*
X014543Y013699D01*
X014009Y013699D02*
X014009Y014126D01*
X014223Y014344D02*
X014009Y014557D01*
X014650Y014557D01*
X014650Y014344D02*
X014650Y014771D01*
X014650Y015633D02*
X014223Y016060D01*
X014116Y016060D01*
X014009Y015953D01*
X014009Y015740D01*
X014116Y015633D01*
X014650Y015633D02*
X014650Y016060D01*
X014630Y018380D02*
X016330Y018380D01*
X016347Y018382D01*
X016364Y018386D01*
X016380Y018393D01*
X016394Y018403D01*
X016407Y018416D01*
X016417Y018430D01*
X016424Y018446D01*
X016428Y018463D01*
X016430Y018480D01*
X016430Y019280D01*
X016428Y019297D01*
X016424Y019314D01*
X016417Y019330D01*
X016407Y019344D01*
X016394Y019357D01*
X016380Y019367D01*
X016364Y019374D01*
X016347Y019378D01*
X016330Y019380D01*
X014630Y019380D01*
X014613Y019378D01*
X014596Y019374D01*
X014580Y019367D01*
X014566Y019357D01*
X014553Y019344D01*
X014543Y019330D01*
X014536Y019314D01*
X014532Y019297D01*
X014530Y019280D01*
X014530Y018480D01*
X014532Y018463D01*
X014536Y018446D01*
X014543Y018430D01*
X014553Y018416D01*
X014566Y018403D01*
X014580Y018393D01*
X014596Y018386D01*
X014613Y018382D01*
X014630Y018380D01*
X015330Y018880D02*
X015380Y018880D01*
X015580Y018880D02*
X015630Y018880D01*
X011880Y020630D02*
X011880Y021130D01*
X011630Y021380D01*
X011880Y021630D01*
X011880Y022130D01*
X011630Y022380D01*
X011130Y022380D01*
X010880Y022130D01*
X010880Y021630D01*
X011130Y021380D01*
X011630Y021380D01*
X011130Y021380D02*
X010880Y021130D01*
X010880Y020630D01*
X011130Y020380D01*
X011630Y020380D01*
X011880Y020630D01*
X009850Y020714D02*
X009743Y020607D01*
X009316Y020607D01*
X009423Y020501D02*
X009423Y020714D01*
X009423Y020930D02*
X009850Y020930D01*
X009636Y020930D02*
X009423Y021144D01*
X009423Y021250D01*
X009530Y021467D02*
X009743Y021467D01*
X009850Y021574D01*
X009850Y021788D01*
X009743Y021894D01*
X009530Y021894D01*
X009423Y021788D01*
X009423Y021574D01*
X009530Y021467D01*
X009850Y022112D02*
X009850Y022325D01*
X009850Y022219D02*
X009209Y022219D01*
X009209Y022112D01*
X009530Y022542D02*
X009423Y022648D01*
X009423Y022969D01*
X009636Y022862D02*
X009636Y022648D01*
X009530Y022542D01*
X009850Y022542D02*
X009850Y022862D01*
X009743Y022969D01*
X009636Y022862D01*
X009743Y023186D02*
X009743Y023293D01*
X009850Y023293D01*
X009850Y023186D01*
X009743Y023186D01*
X009743Y023508D02*
X009423Y023508D01*
X009743Y023508D02*
X009850Y023615D01*
X009743Y023722D01*
X009850Y023829D01*
X009743Y023935D01*
X009423Y023935D01*
X009530Y024153D02*
X009743Y024153D01*
X009850Y024260D01*
X009850Y024473D01*
X009743Y024580D01*
X009530Y024580D01*
X009423Y024473D01*
X009423Y024260D01*
X009530Y024153D01*
X009636Y024798D02*
X009423Y025011D01*
X009423Y025118D01*
X009530Y025335D02*
X009423Y025441D01*
X009423Y025762D01*
X009209Y025762D02*
X009850Y025762D01*
X009850Y025441D01*
X009743Y025335D01*
X009530Y025335D01*
X009423Y024798D02*
X009850Y024798D01*
X010880Y024730D02*
X010880Y025230D01*
X011130Y025480D01*
X011630Y025480D01*
X011880Y025230D01*
X011880Y024730D01*
X011630Y024480D01*
X011880Y024230D01*
X011880Y023730D01*
X011630Y023480D01*
X011130Y023480D01*
X010880Y023730D01*
X010880Y024230D01*
X011130Y024480D01*
X010880Y024730D01*
X011130Y024480D02*
X011630Y024480D01*
X010064Y025979D02*
X009423Y025979D01*
X009423Y026299D01*
X009530Y026406D01*
X009743Y026406D01*
X009850Y026299D01*
X009850Y025979D01*
X009850Y026624D02*
X009423Y026624D01*
X009636Y026624D02*
X009423Y026837D01*
X009423Y026944D01*
X009530Y027161D02*
X009423Y027268D01*
X009423Y027481D01*
X009530Y027588D01*
X009636Y027588D01*
X009636Y027161D01*
X009530Y027161D02*
X009743Y027161D01*
X009850Y027268D01*
X009850Y027481D01*
X009850Y027805D02*
X009850Y028126D01*
X009743Y028232D01*
X009636Y028126D01*
X009636Y027912D01*
X009530Y027805D01*
X009423Y027912D01*
X009423Y028232D01*
X009530Y028450D02*
X009423Y028557D01*
X009423Y028877D01*
X009636Y028770D02*
X009636Y028557D01*
X009530Y028450D01*
X009850Y028450D02*
X009850Y028770D01*
X009743Y028877D01*
X009636Y028770D01*
X009743Y029095D02*
X009743Y029201D01*
X009850Y029201D01*
X009850Y029095D01*
X009743Y029095D01*
X009743Y029417D02*
X009850Y029524D01*
X009850Y029844D01*
X009743Y030061D02*
X009850Y030168D01*
X009850Y030382D01*
X009743Y030488D01*
X009530Y030488D01*
X009423Y030382D01*
X009423Y030168D01*
X009530Y030061D01*
X009743Y030061D01*
X009423Y029844D02*
X009423Y029524D01*
X009530Y029417D01*
X009743Y029417D01*
X009850Y030706D02*
X009423Y030706D01*
X009423Y030813D01*
X009530Y030919D01*
X009423Y031026D01*
X009530Y031133D01*
X009850Y031133D01*
X009850Y030919D02*
X009530Y030919D01*
X009861Y032310D02*
X010075Y032310D01*
X010182Y032417D01*
X010182Y032524D01*
X010075Y032630D01*
X009755Y032630D01*
X009755Y032417D01*
X009861Y032310D01*
X009755Y032630D02*
X009968Y032844D01*
X010182Y032951D01*
X009537Y032844D02*
X009537Y032630D01*
X009430Y032524D01*
X009110Y032524D01*
X009110Y032310D02*
X009110Y032951D01*
X009430Y032951D01*
X009537Y032844D01*
X015753Y024593D02*
X015859Y024593D01*
X009850Y020283D02*
X009530Y020283D01*
X009423Y020176D01*
X009423Y019856D01*
X009850Y019856D01*
X009743Y019638D02*
X009530Y019638D01*
X009423Y019532D01*
X009423Y019318D01*
X009530Y019211D01*
X009743Y019211D01*
X009850Y019318D01*
X009850Y019532D01*
X009743Y019638D01*
X009850Y018994D02*
X009850Y018674D01*
X009743Y018567D01*
X009530Y018567D01*
X009423Y018674D01*
X009423Y018994D01*
X009530Y018349D02*
X009850Y018349D01*
X009850Y018029D01*
X009743Y017922D01*
X009636Y018029D01*
X009636Y018349D01*
X009530Y018349D02*
X009423Y018243D01*
X009423Y018029D01*
X009530Y017705D02*
X009636Y017705D01*
X009636Y017278D01*
X009530Y017278D02*
X009423Y017385D01*
X009423Y017598D01*
X009530Y017705D01*
X009850Y017598D02*
X009850Y017385D01*
X009743Y017278D01*
X009530Y017278D01*
X009423Y017062D02*
X009423Y016848D01*
X009316Y016955D02*
X009743Y016955D01*
X009850Y017062D01*
X009850Y016631D02*
X009530Y016631D01*
X009423Y016524D01*
X009423Y016204D01*
X009850Y016204D01*
X009850Y015986D02*
X009850Y015666D01*
X009743Y015559D01*
X009636Y015666D01*
X009636Y015986D01*
X009530Y015986D02*
X009850Y015986D01*
X009530Y015986D02*
X009423Y015879D01*
X009423Y015666D01*
X009530Y015341D02*
X009850Y015341D01*
X009530Y015341D02*
X009423Y015235D01*
X009423Y015021D01*
X009530Y014914D01*
X009423Y014697D02*
X009423Y014377D01*
X009530Y014270D01*
X009636Y014377D01*
X009636Y014590D01*
X009743Y014697D01*
X009850Y014590D01*
X009850Y014270D01*
X009850Y013625D02*
X009209Y014052D01*
X008860Y014050D02*
X008860Y014550D01*
X008610Y014800D01*
X008110Y014800D01*
X007860Y014550D01*
X007860Y014050D01*
X008110Y013800D01*
X008610Y013800D01*
X008860Y014050D01*
X008610Y013800D02*
X008860Y013550D01*
X008860Y013050D01*
X008610Y012800D01*
X008110Y012800D01*
X007860Y013050D01*
X007860Y013550D01*
X008110Y013800D01*
X009209Y013408D02*
X009850Y012981D01*
X009850Y012765D02*
X009850Y012658D01*
X009743Y012658D01*
X009743Y012765D01*
X009850Y012765D01*
X009530Y012765D02*
X009530Y012658D01*
X009423Y012658D01*
X009423Y012765D01*
X009530Y012765D01*
X009530Y012441D02*
X009743Y012441D01*
X009850Y012334D01*
X009850Y012014D01*
X010064Y012014D02*
X009423Y012014D01*
X009423Y012334D01*
X009530Y012441D01*
X009423Y011798D02*
X009423Y011584D01*
X009316Y011691D02*
X009743Y011691D01*
X009850Y011798D01*
X009850Y011368D02*
X009743Y011261D01*
X009316Y011261D01*
X009423Y011155D02*
X009423Y011368D01*
X009530Y010937D02*
X009850Y010937D01*
X009530Y010937D02*
X009423Y010830D01*
X009423Y010617D01*
X009530Y010510D01*
X009850Y010510D02*
X009209Y010510D01*
X009209Y014914D02*
X009850Y014914D01*
X008610Y015960D02*
X008860Y016210D01*
X008860Y016710D01*
X008610Y016960D01*
X008860Y017210D01*
X008860Y017710D01*
X008610Y017960D01*
X008110Y017960D01*
X007860Y017710D01*
X007860Y017210D01*
X008110Y016960D01*
X008610Y016960D01*
X008110Y016960D02*
X007860Y016710D01*
X007860Y016210D01*
X008110Y015960D01*
X008610Y015960D01*
X005130Y017930D02*
X004780Y017930D01*
X004430Y017930D01*
X004430Y019030D01*
X004780Y019030D01*
X005130Y019030D01*
X005130Y017930D01*
X004780Y017930D02*
X004780Y017880D01*
X004130Y017930D02*
X003780Y017930D01*
X003430Y017930D01*
X003430Y019030D01*
X003780Y019030D01*
X004130Y019030D01*
X004130Y017930D01*
X003780Y017930D02*
X003780Y017880D01*
X003780Y019030D02*
X003780Y019080D01*
X004780Y019080D02*
X004780Y019030D01*
X014009Y012730D02*
X014330Y012410D01*
X014650Y012730D02*
X014009Y012730D01*
X029430Y017930D02*
X029780Y017930D01*
X030130Y017930D01*
X030130Y019030D01*
X029780Y019030D01*
X029430Y019030D01*
X029430Y017930D01*
X029780Y017930D02*
X029780Y017880D01*
X030430Y017930D02*
X030780Y017930D01*
X031130Y017930D01*
X031130Y019030D01*
X030780Y019030D01*
X030430Y019030D01*
X030430Y017930D01*
X030780Y017930D02*
X030780Y017880D01*
X030780Y019030D02*
X030780Y019080D01*
X031780Y019230D02*
X031780Y019730D01*
X032030Y019980D01*
X031780Y019230D02*
X032030Y018980D01*
X032030Y017980D02*
X033530Y017980D01*
X033780Y018230D01*
X033780Y018730D01*
X033530Y018980D01*
X033530Y019980D02*
X033780Y020230D01*
X033780Y020730D01*
X033530Y020980D01*
X029780Y019080D02*
X029780Y019030D01*
D13*
X023045Y008910D03*
X023075Y008880D03*
X023105Y008850D03*
X023135Y008820D03*
X023165Y008790D03*
X020945Y009060D03*
X019175Y009150D03*
X017405Y009030D03*
X017405Y008670D03*
X015995Y008910D03*
X015005Y009090D03*
X014945Y008790D03*
X012365Y008910D03*
X011315Y009150D03*
X010505Y008790D03*
X010475Y008820D03*
X010445Y008850D03*
X010415Y008880D03*
X010385Y008910D03*
X010385Y008580D03*
D14*
X010790Y008700D03*
X010790Y008730D03*
X010790Y008760D03*
X011030Y008760D03*
X011030Y008790D03*
X011030Y008820D03*
X011030Y008850D03*
X011030Y008880D03*
X011030Y008910D03*
X011030Y008940D03*
X011030Y008970D03*
X011030Y009000D03*
X011030Y009180D03*
X011030Y009210D03*
X011030Y009240D03*
X011030Y009270D03*
X011030Y009300D03*
X011030Y009330D03*
X011030Y009360D03*
X011030Y009390D03*
X011030Y008730D03*
X011030Y008700D03*
X011030Y008670D03*
X011030Y008640D03*
X011030Y008610D03*
X011030Y008580D03*
X011720Y008580D03*
X011720Y008610D03*
X011720Y008640D03*
X011720Y008670D03*
X011720Y008700D03*
X011720Y008730D03*
X011720Y008760D03*
X011720Y008790D03*
X011720Y008820D03*
X011720Y008850D03*
X011720Y008880D03*
X011720Y008910D03*
X011720Y008940D03*
X011720Y008970D03*
X011720Y009000D03*
X011960Y008760D03*
X011960Y008730D03*
X011960Y008700D03*
X012650Y008700D03*
X012650Y008730D03*
X012650Y008760D03*
X012650Y008940D03*
X012650Y008970D03*
X012650Y009000D03*
X012890Y009000D03*
X012890Y008970D03*
X012890Y008940D03*
X012890Y008910D03*
X012890Y008880D03*
X012890Y008850D03*
X012890Y008820D03*
X012890Y008790D03*
X012890Y008760D03*
X012890Y008730D03*
X012890Y008700D03*
X012890Y008670D03*
X012890Y008640D03*
X012890Y008610D03*
X012890Y008580D03*
X013610Y008580D03*
X013610Y008610D03*
X013610Y008640D03*
X013610Y008670D03*
X013610Y008700D03*
X013610Y008730D03*
X013610Y008760D03*
X013610Y008790D03*
X013610Y008820D03*
X013610Y008850D03*
X013610Y008880D03*
X013610Y008910D03*
X013610Y008940D03*
X013610Y008970D03*
X013610Y009000D03*
X013940Y009000D03*
X013940Y008970D03*
X013940Y008940D03*
X013940Y008910D03*
X013940Y008880D03*
X013940Y008850D03*
X013940Y008820D03*
X013940Y008790D03*
X013940Y008760D03*
X013940Y008730D03*
X013940Y008700D03*
X013940Y009180D03*
X013940Y009210D03*
X013940Y009240D03*
X013940Y009270D03*
X014660Y009000D03*
X014660Y008970D03*
X014660Y008940D03*
X014660Y008760D03*
X014660Y008730D03*
X014660Y008700D03*
X015350Y008940D03*
X015350Y008970D03*
X015350Y009000D03*
X015590Y008760D03*
X015590Y008730D03*
X015590Y008700D03*
X016280Y008700D03*
X016280Y008730D03*
X016280Y008760D03*
X016280Y008940D03*
X016280Y008970D03*
X016280Y009000D03*
X017120Y009000D03*
X017120Y008970D03*
X017120Y008940D03*
X017120Y008910D03*
X017120Y008880D03*
X017120Y008850D03*
X017120Y008820D03*
X017120Y008790D03*
X017120Y008760D03*
X017120Y008730D03*
X017120Y008700D03*
X017930Y008700D03*
X017930Y008730D03*
X017930Y008760D03*
X017930Y008790D03*
X017930Y008820D03*
X017930Y008850D03*
X017930Y008880D03*
X017930Y008910D03*
X017930Y008940D03*
X017930Y008970D03*
X017930Y009000D03*
X018650Y009000D03*
X018650Y008970D03*
X018650Y008940D03*
X018650Y008910D03*
X018650Y008880D03*
X018650Y008850D03*
X018650Y008820D03*
X018650Y008790D03*
X018650Y008760D03*
X018650Y008730D03*
X018650Y008700D03*
X018890Y008700D03*
X018890Y008730D03*
X018890Y008760D03*
X018890Y008790D03*
X018890Y008820D03*
X018890Y008850D03*
X018890Y008880D03*
X018890Y008910D03*
X018890Y008940D03*
X018890Y008970D03*
X018890Y009000D03*
X018890Y008670D03*
X018890Y008640D03*
X018890Y008610D03*
X018890Y008580D03*
X019580Y008580D03*
X019580Y008610D03*
X019580Y008640D03*
X019580Y008670D03*
X019580Y008700D03*
X019580Y008730D03*
X019580Y008760D03*
X019580Y008790D03*
X019580Y008820D03*
X019580Y008850D03*
X019580Y008880D03*
X019580Y008910D03*
X019580Y008940D03*
X019580Y008970D03*
X019580Y009000D03*
X019940Y009000D03*
X019940Y008970D03*
X019940Y008940D03*
X019940Y008910D03*
X019940Y008880D03*
X019940Y008850D03*
X019940Y008820D03*
X019940Y008790D03*
X019940Y008760D03*
X019940Y008730D03*
X019940Y008700D03*
X019940Y009180D03*
X019940Y009210D03*
X019940Y009240D03*
X019940Y009270D03*
X020630Y009000D03*
X020630Y008970D03*
X020630Y008940D03*
X020630Y008910D03*
X020630Y008880D03*
X020630Y008850D03*
X020630Y008820D03*
X020630Y008790D03*
X020630Y008760D03*
X020630Y008730D03*
X020630Y008700D03*
X020630Y008670D03*
X020630Y008640D03*
X020630Y008610D03*
X020630Y008580D03*
X021440Y008700D03*
X021440Y008730D03*
X021440Y008760D03*
X021440Y008790D03*
X021440Y008820D03*
X021440Y008850D03*
X021440Y008880D03*
X021440Y008910D03*
X021440Y008940D03*
X021440Y008970D03*
X021440Y009000D03*
X022160Y009000D03*
X022160Y008970D03*
X022160Y008940D03*
X022160Y008910D03*
X022160Y008880D03*
X022160Y008850D03*
X022160Y008820D03*
X022160Y008790D03*
X022160Y008760D03*
X022160Y008730D03*
X022160Y008700D03*
X022400Y008700D03*
X022400Y008730D03*
X022400Y008760D03*
X022400Y008790D03*
X022400Y008820D03*
X022400Y008850D03*
X022400Y008880D03*
X022400Y008910D03*
X022400Y008940D03*
X022400Y008970D03*
X022400Y009000D03*
X022400Y009030D03*
X022400Y009060D03*
X022400Y009090D03*
X022400Y009120D03*
X022400Y009150D03*
X022400Y009180D03*
X022400Y009210D03*
X022400Y009240D03*
X022400Y009270D03*
X022400Y009300D03*
X022400Y009330D03*
X022400Y009360D03*
X022400Y009390D03*
X022730Y009000D03*
X022730Y008970D03*
X022730Y008940D03*
X023450Y008760D03*
X023450Y008730D03*
X023450Y008700D03*
X023720Y009240D03*
D15*
X023030Y008580D03*
X021800Y008640D03*
X021800Y009090D03*
X020930Y009030D03*
X019190Y009120D03*
X018290Y009090D03*
X018290Y008640D03*
X015980Y008580D03*
X015980Y008880D03*
X014960Y008820D03*
X013190Y009150D03*
X012350Y008880D03*
X012350Y008580D03*
X011330Y009120D03*
X010400Y008610D03*
D16*
X010370Y009150D03*
X012380Y009120D03*
X014240Y008580D03*
X014930Y008580D03*
X016010Y009120D03*
X020210Y008580D03*
X023030Y009150D03*
D17*
X022970Y009030D03*
X021800Y009150D03*
X021800Y008580D03*
X020990Y009150D03*
X018290Y009150D03*
X018290Y008580D03*
X017450Y008580D03*
X017450Y009120D03*
X014060Y009120D03*
X014060Y009090D03*
X014060Y009060D03*
X014060Y009030D03*
X014060Y009150D03*
D18*
X022505Y008580D03*
X023495Y009150D03*
D19*
X023045Y008610D03*
X019205Y009090D03*
X015965Y008850D03*
X015965Y008610D03*
X014975Y008850D03*
X015005Y009060D03*
X013205Y009120D03*
X012335Y008850D03*
X012335Y008610D03*
X011345Y009090D03*
X010415Y008640D03*
D20*
X010355Y009120D03*
X012395Y009090D03*
X014225Y008610D03*
X014915Y008610D03*
X016025Y009090D03*
X020195Y008610D03*
X023015Y009120D03*
D21*
X020975Y009120D03*
X017435Y009090D03*
X017435Y008610D03*
X015005Y009120D03*
D22*
X017420Y009060D03*
X017420Y008640D03*
X018290Y008610D03*
X018290Y009120D03*
X020960Y009090D03*
X021800Y009120D03*
X021800Y008610D03*
D23*
X022490Y008610D03*
X023780Y009270D03*
D24*
X023060Y008640D03*
X021800Y008670D03*
X021800Y009060D03*
X019220Y009060D03*
X018290Y009060D03*
X018290Y008670D03*
X015950Y008640D03*
X015950Y008820D03*
X014990Y008880D03*
X013220Y009090D03*
X012320Y008820D03*
X012320Y008640D03*
X011360Y009060D03*
X010430Y008670D03*
D25*
X010340Y009090D03*
X012410Y009060D03*
X014210Y008640D03*
X014900Y008640D03*
X016040Y009060D03*
X020180Y008640D03*
X023000Y009090D03*
D26*
X022475Y008640D03*
D27*
X023075Y008670D03*
X019235Y009030D03*
X015935Y008790D03*
X015935Y008670D03*
X015005Y008910D03*
X015005Y009030D03*
X013235Y009060D03*
X012305Y008790D03*
X012305Y008670D03*
X011375Y009030D03*
D28*
X010325Y009030D03*
X010325Y009060D03*
X012425Y009030D03*
X014195Y008670D03*
X014885Y008670D03*
X015005Y009150D03*
X016055Y009030D03*
X017465Y009150D03*
X020045Y009150D03*
X020045Y009120D03*
X020045Y009090D03*
X020045Y009060D03*
X020045Y009030D03*
X020165Y008670D03*
X022985Y009060D03*
D29*
X022460Y008670D03*
D30*
X023435Y009120D03*
X023585Y009180D03*
X010085Y009000D03*
X010085Y008970D03*
X010085Y008940D03*
D31*
X013250Y009030D03*
X018290Y009030D03*
X021800Y009030D03*
D32*
X015995Y009150D03*
X012365Y009150D03*
D33*
X023660Y009210D03*
X023900Y009300D03*
X023960Y009330D03*
X023990Y009360D03*
X024020Y009870D03*
X024200Y010110D03*
D34*
X024230Y010080D03*
X024230Y010050D03*
X024170Y010080D03*
X024230Y010200D03*
X024230Y010230D03*
X024110Y009780D03*
X024050Y009690D03*
X024020Y009630D03*
X023990Y009600D03*
X023960Y009540D03*
X023930Y009510D03*
X023900Y009450D03*
X023870Y009420D03*
X023690Y009420D03*
X023690Y009450D03*
X023690Y009360D03*
X023690Y009330D03*
X023690Y009300D03*
X023750Y009570D03*
D35*
X023765Y009600D03*
X023795Y009630D03*
X023825Y009660D03*
X023855Y009690D03*
X023885Y009720D03*
X023915Y009750D03*
X023945Y009780D03*
X023975Y009810D03*
X024005Y009840D03*
X024035Y009900D03*
X024065Y009930D03*
X024095Y009960D03*
X024125Y009990D03*
X024125Y010020D03*
X024155Y010050D03*
X024215Y010020D03*
X024215Y009990D03*
X024215Y009960D03*
X024215Y009930D03*
X024215Y009900D03*
X024215Y009870D03*
X024215Y009840D03*
X024215Y009810D03*
X024185Y009780D03*
X024185Y009750D03*
X024185Y009720D03*
X024185Y009690D03*
X024155Y009660D03*
X024155Y009630D03*
X024155Y009600D03*
X024125Y009570D03*
X024125Y009540D03*
X024095Y009510D03*
X024095Y009480D03*
X024065Y009450D03*
X024035Y009420D03*
X024035Y009390D03*
X023915Y009480D03*
X023855Y009390D03*
X023825Y009360D03*
X023795Y009330D03*
X023765Y009300D03*
X023675Y009390D03*
X023705Y009480D03*
X023705Y009510D03*
X023735Y009540D03*
X023975Y009570D03*
X024035Y009660D03*
X024065Y009720D03*
X024215Y010140D03*
X024215Y010170D03*
D36*
X021650Y008020D03*
X021650Y008000D03*
X021650Y007980D03*
X021650Y007960D03*
X021650Y007940D03*
X021650Y007920D03*
X021650Y007900D03*
X021650Y007880D03*
X021650Y007860D03*
X021650Y007840D03*
X021650Y007820D03*
X021650Y007800D03*
X021650Y007780D03*
X021650Y007760D03*
X021650Y007740D03*
X021650Y007720D03*
X021650Y007700D03*
X021650Y007680D03*
X021210Y007680D03*
X021210Y007700D03*
X021210Y007720D03*
X021210Y007740D03*
X021210Y007760D03*
X021210Y007780D03*
X021210Y007800D03*
X021210Y007820D03*
X021210Y007840D03*
X021210Y007860D03*
X021210Y007880D03*
X021210Y007900D03*
X021210Y007920D03*
X021210Y007940D03*
X021210Y007960D03*
X021210Y007980D03*
X021210Y008000D03*
X021210Y008020D03*
X021090Y007660D03*
X021090Y007640D03*
X021090Y007620D03*
X021090Y007600D03*
X020830Y008100D03*
X020650Y007940D03*
X020650Y007920D03*
X020650Y007900D03*
X020650Y007880D03*
X020650Y007860D03*
X020650Y007840D03*
X020650Y007820D03*
X020650Y007800D03*
X020630Y007780D03*
X020610Y007760D03*
X020590Y007740D03*
X020570Y007720D03*
X020550Y007700D03*
X020530Y007680D03*
X020290Y007820D03*
X020290Y007840D03*
X020290Y007860D03*
X020290Y007880D03*
X020290Y007900D03*
X020290Y007920D03*
X020290Y007940D03*
X019770Y007960D03*
X019770Y007980D03*
X019770Y008000D03*
X019770Y008020D03*
X019770Y008040D03*
X019770Y008060D03*
X019770Y008080D03*
X019770Y008100D03*
X019770Y007880D03*
X019770Y007860D03*
X019770Y007840D03*
X019770Y007820D03*
X019770Y007800D03*
X019770Y007780D03*
X019770Y007760D03*
X019770Y007740D03*
X019770Y007720D03*
X019770Y007700D03*
X019770Y007680D03*
X019330Y007680D03*
X019330Y007700D03*
X019330Y007720D03*
X019330Y007740D03*
X019330Y007760D03*
X019330Y007780D03*
X019330Y007800D03*
X019330Y007820D03*
X019330Y007840D03*
X019330Y007860D03*
X019330Y007880D03*
X018830Y007880D03*
X018830Y007860D03*
X018830Y007840D03*
X018830Y007820D03*
X018830Y007800D03*
X018830Y007780D03*
X018830Y007760D03*
X018830Y007740D03*
X018830Y007720D03*
X018830Y007700D03*
X018830Y007680D03*
X018830Y007660D03*
X018830Y007640D03*
X018830Y007620D03*
X018830Y007600D03*
X018690Y007680D03*
X018690Y007700D03*
X018690Y007720D03*
X018690Y007820D03*
X018690Y007840D03*
X018690Y007860D03*
X018690Y007880D03*
X018250Y007720D03*
X018250Y007700D03*
X018250Y007680D03*
X018110Y007680D03*
X018110Y007700D03*
X018110Y007720D03*
X018110Y007740D03*
X018110Y007760D03*
X018110Y007780D03*
X018110Y007800D03*
X018110Y007820D03*
X018110Y007840D03*
X018110Y007860D03*
X018110Y007880D03*
X017670Y007880D03*
X017670Y007860D03*
X017670Y007840D03*
X017670Y007820D03*
X017670Y007800D03*
X017670Y007780D03*
X017670Y007760D03*
X017670Y007740D03*
X017670Y007720D03*
X017670Y007700D03*
X017670Y007680D03*
X017510Y007680D03*
X017510Y007700D03*
X017510Y007720D03*
X017510Y007740D03*
X017510Y007760D03*
X017510Y007780D03*
X017510Y007800D03*
X017510Y007820D03*
X017510Y007840D03*
X017510Y007860D03*
X017510Y007880D03*
X017070Y007880D03*
X017070Y007860D03*
X017070Y007840D03*
X017070Y007820D03*
X017070Y007800D03*
X017070Y007780D03*
X017070Y007760D03*
X017070Y007740D03*
X017070Y007720D03*
X017070Y007700D03*
X017070Y007680D03*
X017070Y007960D03*
X017070Y007980D03*
X017070Y008000D03*
X017070Y008020D03*
X017070Y008040D03*
X017070Y008060D03*
X017070Y008080D03*
X017070Y008100D03*
X016570Y007720D03*
X016570Y007700D03*
X016570Y007680D03*
X016570Y007660D03*
X016570Y007640D03*
X016570Y007620D03*
X016570Y007600D03*
X016130Y007600D03*
X016130Y007620D03*
X016130Y007640D03*
X016130Y007660D03*
X016130Y007680D03*
X016130Y007700D03*
X016130Y007720D03*
X016130Y007820D03*
X016130Y007840D03*
X016130Y007860D03*
X016130Y007880D03*
X016130Y007900D03*
X016130Y007920D03*
X016130Y007940D03*
X016130Y007960D03*
X016130Y007980D03*
X016130Y008000D03*
X016130Y008020D03*
X016130Y008040D03*
X016130Y008060D03*
X016130Y008080D03*
X016130Y008100D03*
X015610Y007880D03*
X015610Y007860D03*
X015610Y007840D03*
X015610Y007820D03*
X015610Y007800D03*
X015610Y007780D03*
X015610Y007760D03*
X015610Y007740D03*
X015610Y007720D03*
X015610Y007700D03*
X015610Y007680D03*
X015470Y007820D03*
X015470Y007840D03*
X015470Y007860D03*
X015470Y007880D03*
X015030Y007880D03*
X015030Y007860D03*
X015030Y007840D03*
X015030Y007820D03*
X015030Y007720D03*
X015030Y007700D03*
X015030Y007680D03*
X014890Y007680D03*
X014890Y007700D03*
X014890Y007720D03*
X014890Y007740D03*
X014890Y007760D03*
X014890Y007780D03*
X014890Y007800D03*
X014890Y007820D03*
X014890Y007840D03*
X014890Y007860D03*
X014890Y007880D03*
X014890Y007900D03*
X014890Y007920D03*
X014890Y007940D03*
X014890Y007960D03*
X014890Y007980D03*
X014890Y008000D03*
X014890Y008020D03*
X014450Y008020D03*
X014450Y008000D03*
X014450Y007980D03*
X014450Y007960D03*
X014450Y007940D03*
X014450Y007920D03*
X014450Y007900D03*
X014450Y007880D03*
X014450Y007860D03*
X014450Y007840D03*
X014450Y007820D03*
X014450Y007800D03*
X014450Y007780D03*
X014450Y007760D03*
X014450Y007740D03*
X014450Y007720D03*
X014450Y007700D03*
X014450Y007680D03*
X014310Y007680D03*
X014310Y007700D03*
X014310Y007720D03*
X014310Y007740D03*
X014310Y007760D03*
X014310Y007780D03*
X014310Y007800D03*
X014310Y007820D03*
X014310Y007840D03*
X014310Y007860D03*
X014310Y007880D03*
X014310Y007660D03*
X014310Y007640D03*
X014310Y007620D03*
X014310Y007600D03*
X013870Y007600D03*
X013870Y007620D03*
X013870Y007640D03*
X013870Y007660D03*
X013870Y007680D03*
X013870Y007700D03*
X013870Y007720D03*
X013870Y007740D03*
X013870Y007760D03*
X013870Y007780D03*
X013870Y007800D03*
X013870Y007820D03*
X013870Y007840D03*
X013870Y007860D03*
X013870Y007880D03*
X013730Y007880D03*
X013730Y007860D03*
X013730Y007840D03*
X013730Y007820D03*
X013290Y007820D03*
X013290Y007840D03*
X013290Y007860D03*
X013290Y007880D03*
X013290Y007720D03*
X013290Y007700D03*
X013290Y007680D03*
X013130Y007680D03*
X013130Y007700D03*
X013130Y007720D03*
X013130Y007740D03*
X013130Y007760D03*
X013130Y007780D03*
X013130Y007800D03*
X013130Y007820D03*
X013130Y007840D03*
X013130Y007860D03*
X013130Y007880D03*
X012770Y007880D03*
X012770Y007860D03*
X012770Y007840D03*
X012770Y007820D03*
X012770Y007800D03*
X012770Y007780D03*
X012770Y007760D03*
X012770Y007740D03*
X012770Y007720D03*
X012770Y007700D03*
X012770Y007680D03*
X012770Y007580D03*
X012770Y007560D03*
X012770Y007540D03*
X012770Y007520D03*
X012770Y007500D03*
X012770Y007480D03*
X012770Y007460D03*
X012630Y007680D03*
X012630Y007700D03*
X012630Y007720D03*
X012630Y007740D03*
X012630Y007760D03*
X012630Y007780D03*
X012630Y007800D03*
X012630Y007820D03*
X012630Y007840D03*
X012630Y007860D03*
X012630Y007880D03*
X012630Y007900D03*
X012630Y007920D03*
X012630Y007940D03*
X012630Y007960D03*
X012630Y007980D03*
X012630Y008000D03*
X012630Y008020D03*
X012190Y008020D03*
X012190Y008000D03*
X012190Y007980D03*
X012190Y007960D03*
X012190Y007940D03*
X012190Y007920D03*
X012190Y007900D03*
X012190Y007880D03*
X012190Y007860D03*
X012190Y007840D03*
X012190Y007820D03*
X012190Y007800D03*
X012190Y007780D03*
X012190Y007760D03*
X012190Y007740D03*
X012190Y007720D03*
X012190Y007700D03*
X012190Y007680D03*
D37*
X012410Y007600D03*
X012930Y007620D03*
X012930Y007920D03*
X013510Y007940D03*
X015250Y007940D03*
X015810Y007920D03*
X015810Y007620D03*
X017890Y007600D03*
X017890Y007940D03*
X019030Y007920D03*
X021430Y007600D03*
D38*
X021420Y008100D03*
X019040Y007940D03*
X015820Y007940D03*
X015820Y007600D03*
X012920Y007600D03*
X012920Y007940D03*
X012400Y008100D03*
D39*
X013460Y007600D03*
X015200Y007600D03*
D40*
X015220Y007760D03*
X014640Y007600D03*
X014640Y008080D03*
X014060Y007940D03*
X013480Y007760D03*
X012400Y008060D03*
X016320Y007800D03*
X017260Y007940D03*
X017260Y007600D03*
X018500Y007600D03*
X018500Y007800D03*
X019580Y007940D03*
X019580Y007600D03*
X021420Y008060D03*
D41*
X021430Y007620D03*
X017890Y007620D03*
X017890Y007920D03*
X015790Y007660D03*
X015210Y007740D03*
X015250Y007920D03*
X014630Y008100D03*
X013510Y007920D03*
X013470Y007740D03*
X012950Y007660D03*
X012410Y007620D03*
D42*
X013450Y007620D03*
X015190Y007620D03*
X018510Y007940D03*
D43*
X018490Y007780D03*
X018490Y007620D03*
X017890Y007640D03*
X017890Y007900D03*
X017270Y007920D03*
X017270Y007620D03*
X016330Y007780D03*
X015250Y007900D03*
X015230Y007780D03*
X014650Y007620D03*
X014650Y008060D03*
X014070Y007920D03*
X013510Y007900D03*
X013490Y007780D03*
X012410Y007640D03*
X019570Y007620D03*
X019570Y007920D03*
X021430Y007640D03*
D44*
X021420Y008080D03*
X019020Y007900D03*
X015800Y007900D03*
X015800Y007640D03*
X012940Y007640D03*
X012940Y007900D03*
X012400Y008080D03*
D45*
X013440Y007640D03*
X015180Y007640D03*
X018520Y007920D03*
D46*
X018480Y007760D03*
X018480Y007640D03*
X019560Y007640D03*
X019560Y007900D03*
X021420Y008040D03*
X017280Y007900D03*
X017280Y007640D03*
X016340Y007760D03*
X015240Y007800D03*
X014660Y007640D03*
X014660Y008040D03*
X014080Y007900D03*
X013500Y007800D03*
X012400Y008040D03*
D47*
X012410Y007660D03*
X014670Y007660D03*
X016350Y007740D03*
X017290Y007660D03*
X017890Y007660D03*
X018470Y007660D03*
X018470Y007740D03*
X019550Y007660D03*
X021430Y007660D03*
D48*
X018530Y007900D03*
X015170Y007660D03*
X013430Y007660D03*
D49*
X016420Y007820D03*
X016420Y007840D03*
X016420Y007860D03*
X016420Y007880D03*
X016420Y007900D03*
X016420Y007920D03*
X016420Y007940D03*
X020300Y007800D03*
X020320Y007780D03*
X020340Y007760D03*
X020360Y007740D03*
X020380Y007720D03*
X020400Y007700D03*
X020420Y007680D03*
X020480Y007620D03*
X020900Y007680D03*
X020900Y007700D03*
X020900Y007720D03*
X020900Y007740D03*
X020900Y007760D03*
X020900Y007780D03*
X020900Y007800D03*
X020900Y007820D03*
X020900Y007840D03*
X020900Y007860D03*
X020900Y007880D03*
X020900Y007900D03*
X020900Y007920D03*
X020900Y007940D03*
X020900Y007960D03*
X020900Y007980D03*
X020900Y008000D03*
X020900Y008020D03*
D50*
X020480Y007600D03*
D51*
X020900Y007600D03*
X020900Y007620D03*
X020900Y007640D03*
X020900Y007660D03*
D52*
X020480Y007640D03*
X020840Y008080D03*
D53*
X020860Y008040D03*
X020480Y007660D03*
D54*
X020850Y008060D03*
D55*
X019980Y018480D02*
X019980Y018780D01*
X019980Y019080D01*
X019780Y019080D02*
X019780Y018780D01*
X019780Y018480D01*
X015580Y018580D02*
X015580Y018880D01*
X015580Y019180D01*
X015380Y019180D02*
X015380Y018880D01*
X015380Y018580D01*
X015280Y030180D02*
X014980Y030180D01*
X014980Y030380D02*
X015280Y030380D01*
X015580Y030380D01*
X015580Y030180D02*
X015280Y030180D01*
X027080Y023480D02*
X027380Y023480D01*
X027680Y023480D01*
X027680Y023280D02*
X027380Y023280D01*
X027080Y023280D01*
X027080Y021480D02*
X027380Y021480D01*
X027680Y021480D01*
X027680Y021280D02*
X027380Y021280D01*
X027080Y021280D01*
D56*
X018480Y021160D03*
X017280Y021160D03*
X017280Y024000D03*
X018480Y024000D03*
X018480Y026160D03*
X017280Y026160D03*
X017280Y029000D03*
X018480Y029000D03*
D57*
X029780Y024780D03*
X030780Y024780D03*
X030780Y021780D03*
X029780Y021780D03*
X029780Y018180D03*
X030780Y018180D03*
X030780Y015180D03*
X029780Y015180D03*
X004780Y015180D03*
X003780Y015180D03*
X003780Y018180D03*
X004780Y018180D03*
X004780Y021780D03*
X003780Y021780D03*
X003780Y024780D03*
X004780Y024780D03*
D58*
X012480Y035280D03*
X012480Y036280D03*
X015480Y036280D03*
X015480Y035280D03*
X019080Y035280D03*
X019080Y036280D03*
X022080Y036280D03*
X022080Y035280D03*
X022080Y004580D03*
X022080Y003580D03*
X019080Y003580D03*
X019080Y004580D03*
X015480Y004580D03*
X015480Y003580D03*
X012480Y003580D03*
X012480Y004580D03*
M02*
