%
M48
M72
T01C0.0197
T02C0.0236
T03C0.0320
T04C0.0400
T05C0.0630
T06C0.0748
T07C0.1102
%
T01
X17580Y27480
X16380Y27880
X16380Y28780
X12780Y28280
T02
X14280Y34180
X27080Y12480
X29080Y12980
X23180Y11380
X25480Y11380
X24480Y10780
X29280Y11780
X22380Y11380
X18980Y19680
X6280Y23480
X21180Y19580
X21680Y19580
X7380Y4180
X5480Y11180
X5480Y28780
X29780Y31980
X30780Y7980
X28780Y28480
X30280Y10980
X9580Y35280
X7080Y35280
X6380Y36280
X8880Y36280
X7880Y33680
X27280Y34680
X15280Y18080
X14880Y17380
X14480Y17180
X27980Y15480
X28380Y13580
X32680Y13580
X30280Y4080
X32780Y980
X25680Y15080
X12280Y9680
X980Y7280
X5480Y18980
X16080Y6380
X22380Y20080
X31580Y35780
X30180Y21480
X18880Y36380
X3580Y21480
X22080Y28180
X16080Y34980
X22180Y31780
X10880Y28680
X2580Y35480
X15380Y31680
X11680Y30280
X11580Y27380
X24280Y31980
X30180Y33680
X27580Y33680
X22880Y33280
X19480Y30180
X16880Y19280
X16740Y10220
X14580Y19680
X15380Y26580
X20680Y22080
X18180Y27780
X22080Y23880
X22080Y22780
X29780Y7980
X30780Y31980
X28780Y11480
T03
X17380Y17680
X17380Y16680
X17380Y11680
X17380Y10680
X17380Y15680
X17380Y14680
X17380Y12680
X17380Y13680
X20380Y10680
X20380Y11680
X20380Y12680
X20380Y13680
X20380Y14680
X20380Y15680
X20380Y16680
X20380Y17680
X20380Y18780
X19380Y18780
X18480Y20580
X18480Y24580
X17280Y20580
X17280Y24580
X16780Y31180
X17780Y31180
X4780Y23480
X4780Y25480
X3780Y23480
X3780Y25480
X4780Y20480
X4780Y22480
X3780Y20480
X3780Y22480
X4780Y19480
X4780Y17480
X3780Y19480
X3780Y17480
X4780Y16480
X4780Y14480
X3780Y16480
X3780Y14480
X12980Y17680
X12980Y16680
X12980Y11680
X12980Y10680
X12980Y15680
X12980Y14680
X12980Y12680
X12980Y13680
X15980Y10680
X15980Y11680
X15980Y12680
X15980Y13680
X15980Y14680
X15980Y15680
X15980Y16680
X15980Y17680
X15980Y18880
X14980Y18880
X13780Y4580
X11780Y4580
X13780Y3580
X11780Y3580
X16780Y4580
X14780Y4580
X16780Y3580
X14780Y3580
X17780Y4580
X19780Y4580
X17780Y3580
X19780Y3580
X20780Y4580
X22780Y4580
X20780Y3580
X22780Y3580
X20780Y35280
X22780Y35280
X20780Y36280
X22780Y36280
X17780Y35280
X19780Y35280
X17780Y36280
X19780Y36280
X16780Y35280
X14780Y35280
X16780Y36280
X14780Y36280
X13780Y35280
X11780Y35280
X13780Y36280
X11780Y36280
X18480Y25580
X18480Y29580
X17280Y25580
X17280Y29580
X23280Y30780
X23280Y29780
X23280Y24780
X23280Y23780
X23280Y28780
X23280Y27780
X23280Y25780
X23280Y26780
X23280Y22780
X26280Y22780
X26280Y23780
X26280Y24780
X26280Y25780
X26280Y26780
X26280Y27780
X26280Y28780
X26280Y29780
X26280Y30780
X23280Y21580
X23280Y20580
X23280Y15580
X23280Y14580
X23280Y19580
X23280Y18580
X23280Y16580
X23280Y17580
X26280Y14580
X26280Y15580
X26280Y16580
X26280Y17580
X26280Y18580
X26280Y19580
X26280Y20580
X26280Y21580
X27380Y23880
X27380Y22880
X27380Y21880
X27380Y20880
X15280Y30780
X15280Y29780
X29780Y23480
X29780Y25480
X30780Y23480
X30780Y25480
X30780Y20480
X30780Y22480
X29780Y20480
X29780Y22480
X30780Y19480
X30780Y17480
X29780Y19480
X29780Y17480
X29780Y16480
X29780Y14480
X30780Y16480
X30780Y14480
T04
X20030Y31680
X20030Y30680
X20030Y29680
X20030Y28680
X20030Y27680
X20030Y26680
X20030Y25680
X20030Y24680
X20030Y23680
X20030Y22680
X20030Y21680
X20030Y20680
X14030Y20680
X14030Y21680
X14030Y22680
X14030Y23680
X14030Y24680
X14030Y25680
X14030Y26680
X14030Y27680
X14030Y28680
X14030Y29680
X14030Y30680
X14030Y31680
X15155Y23118
X15155Y24118
X15155Y28243
X15155Y27243
X19530Y32680
X18530Y32680
X17530Y32680
X16530Y32680
X15530Y32680
X14530Y32680
X2280Y30980
X2280Y31980
X2280Y33480
X2280Y34480
X2280Y5480
X2280Y6480
X2280Y7980
X2280Y8980
X2280Y28980
X2280Y27980
X2280Y26980
X2280Y25480
X2280Y24480
X2280Y23480
X2280Y16480
X2280Y15480
X2280Y14480
X2280Y12980
X2280Y11980
X2280Y10980
X6280Y2080
X5280Y2080
X3780Y2080
X2780Y2080
X31780Y2080
X30780Y2080
X29280Y2080
X28280Y2080
X8280Y2080
X9280Y2080
X10280Y2080
X11780Y2080
X12780Y2080
X13780Y2080
X20780Y2080
X21780Y2080
X22780Y2080
X24280Y2080
X25280Y2080
X26280Y2080
X28280Y37780
X29280Y37780
X30780Y37780
X31780Y37780
X2780Y37780
X3780Y37780
X5280Y37780
X6280Y37780
X26280Y37780
X25280Y37780
X24280Y37780
X22780Y37780
X21780Y37780
X20780Y37780
X13780Y37780
X12780Y37780
X11780Y37780
X10280Y37780
X9280Y37780
X8280Y37780
X15780Y37780
X15780Y38780
X16780Y37780
X16780Y38780
X17780Y37780
X17780Y38780
X18780Y37780
X18780Y38780
X15780Y1080
X15780Y2080
X16780Y1080
X16780Y2080
X17780Y1080
X17780Y2080
X18780Y1080
X18780Y2080
X2280Y18480
X1280Y18480
X2280Y19480
X1280Y19480
X2280Y20480
X1280Y20480
X2280Y21480
X1280Y21480
X33280Y18480
X32280Y18480
X33280Y19480
X32280Y19480
X33280Y20480
X32280Y20480
X33280Y21480
X32280Y21480
X15380Y33880
X16380Y33880
X17380Y33880
X18380Y33880
X19380Y33880
X20380Y33880
X8360Y13300
X8360Y14300
X8360Y16460
X8360Y17460
X1834Y36268
X1126Y36975
X1775Y3634
X1068Y2926
X33475Y36934
X32768Y36226
X32280Y8980
X32280Y7980
X32280Y6480
X32280Y5480
X32280Y34480
X32280Y33480
X32280Y31980
X32280Y30980
X32280Y12980
X32280Y11980
X32280Y10980
X32280Y25480
X32280Y24480
X32280Y23480
X32280Y28980
X32280Y27980
X32280Y26980
X32280Y16480
X32280Y15480
X32280Y14480
X33534Y2968
X32826Y3675
X11380Y23980
X11380Y24980
X11380Y20880
X11380Y21880
T05
X8808Y34441
X24378Y34441
X10186Y34441
X25756Y34441
X24378Y5504
X8808Y5504
T06
X26839Y7137
X23296Y7610
X7725Y7610
X11268Y7137
X26739Y32807
X23297Y32336
X11268Y32807
X7726Y32336
T07
X5780Y5980
X28780Y5980
X5780Y30180
X28780Y30180
M30
